<?xml version="1.0" standalone="no"?>
<!DOCTYPE svg PUBLIC "-//W3C//DTD SVG 20010904//EN"
 "http://www.w3.org/TR/2001/REC-SVG-20010904/DTD/svg10.dtd">
<svg version="1.0" xmlns="http://www.w3.org/2000/svg"
 width="200.000000pt" height="200.000000pt" viewBox="0 0 200.000000 200.000000"
 preserveAspectRatio="xMidYMid meet">
<metadata>
Created by potrace 1.11, written by Peter Selinger 2001-2013
</metadata>
<g transform="translate(0.000000,200.000000) scale(0.100000,-0.100000)"
fill="#000000" stroke="none">
<path d="M1705 1750 c-43 -4 -181 -11 -305 -15 -235 -7 -270 -14 -270 -53 0
-40 15 -42 274 -41 138 0 289 4 336 9 47 4 87 6 90 3 2 -2 -4 -16 -13 -31 -10
-15 -29 -52 -44 -82 -14 -30 -40 -75 -57 -100 -17 -25 -35 -52 -41 -61 -5 -9
-23 -36 -40 -60 -16 -24 -38 -60 -48 -79 -11 -19 -29 -47 -41 -62 -11 -15 -37
-48 -56 -74 -19 -26 -57 -74 -85 -107 -27 -33 -57 -70 -65 -82 -66 -100 -103
-148 -153 -205 -50 -56 -117 -169 -117 -198 0 -5 -7 -15 -15 -22 -20 -16 -19
-47 2 -68 26 -26 136 -22 190 6 34 18 59 22 127 22 47 0 96 -4 111 -10 14 -5
76 -14 138 -20 61 -5 128 -12 147 -15 61 -10 71 7 83 130 9 100 8 109 -9 122
-23 17 -35 16 -60 -1 -14 -11 -20 -30 -24 -78 l-5 -63 -80 4 c-44 2 -102 8
-130 13 -96 19 -227 21 -290 4 -32 -8 -61 -14 -62 -12 -10 10 36 87 81 135 47
51 71 82 101 130 30 48 76 109 99 130 14 14 26 29 26 34 0 5 24 37 53 71 30
34 56 66 58 71 4 9 102 158 166 251 40 58 50 74 76 124 13 25 38 72 55 105 38
72 42 132 12 160 -25 22 -96 27 -215 15z"/>
<path d="M904 1682 c-48 -26 -144 -100 -230 -178 -42 -38 -89 -77 -103 -87
-14 -9 -51 -37 -81 -62 -30 -25 -90 -71 -132 -102 -76 -58 -128 -120 -128
-155 0 -10 9 -27 21 -39 19 -19 30 -20 163 -17 l142 3 -60 -73 c-34 -40 -110
-128 -170 -195 -164 -184 -262 -311 -296 -382 -27 -56 -31 -74 -28 -132 l3
-68 57 -3 c51 -3 61 0 105 32 70 50 174 99 293 139 136 45 163 51 232 48 75
-3 98 10 98 54 0 18 -5 37 -10 40 -6 3 -40 8 -78 10 -66 4 -84 0 -262 -56 -75
-24 -216 -82 -231 -95 -8 -8 -20 -14 -25 -14 -6 0 -25 -11 -44 -25 -18 -14
-35 -23 -38 -21 -4 5 56 128 67 136 4 3 40 46 81 95 41 50 113 133 160 185
100 110 239 274 263 310 24 34 22 83 -4 106 -23 20 -47 21 -209 9 l-85 -7 31
24 c17 12 55 44 86 71 30 26 58 47 63 47 6 0 103 81 165 138 14 13 78 64 143
113 102 79 117 93 117 119 0 19 -7 33 -19 40 -25 13 -20 13 -57 -8z"/>
</g>
</svg>
