<?xml version="1.0" standalone="no"?>
<!DOCTYPE svg PUBLIC "-//W3C//DTD SVG 20010904//EN"
 "http://www.w3.org/TR/2001/REC-SVG-20010904/DTD/svg10.dtd">
<svg version="1.0" xmlns="http://www.w3.org/2000/svg"
 width="930.000000pt" height="600.000000pt" viewBox="0 0 930.000000 600.000000"
 preserveAspectRatio="xMidYMid meet">
<metadata>
Created by potrace 1.15, written by Peter Selinger 2001-2017
</metadata>
<g transform="translate(0.000000,600.000000) scale(0.100000,-0.100000)"
fill="#000000" stroke="none">
<path d="M6857 5733 c-15 -15 -6 -31 14 -26 20 6 21 5 5 -25 -9 -18 -12 -33
-6 -37 5 -3 15 13 21 35 11 35 10 43 -2 51 -17 11 -24 11 -32 2z"/>
<path d="M6910 5720 c0 -5 7 -10 15 -10 19 0 19 -10 0 -37 -10 -15 -12 -24 -4
-28 12 -8 11 -9 27 36 16 48 16 49 -13 49 -14 0 -25 -4 -25 -10z"/>
<path d="M2217 5693 c-13 -13 -7 -32 8 -27 17 7 19 -9 5 -36 -6 -12 -6 -21 -1
-25 13 -7 17 2 26 53 6 37 5 42 -12 42 -11 0 -23 -3 -26 -7z"/>
<path d="M2294 5692 c-18 -12 -32 -44 -27 -63 6 -23 32 -32 49 -18 19 15 18
48 -1 55 -14 6 -13 8 2 20 14 11 15 13 3 14 -8 0 -20 -4 -26 -8z m14 -54 c-3
-7 -8 -13 -13 -13 -5 0 -10 6 -12 13 -3 6 3 12 12 12 9 0 15 -6 13 -12z"/>
<path d="M5225 5390 c3 -5 8 -10 11 -10 2 0 4 5 4 10 0 6 -5 10 -11 10 -5 0
-7 -4 -4 -10z"/>
<path d="M5256 5375 c5 -22 -15 -90 -61 -200 -20 -49 -45 -131 -45 -150 0 -32
33 -75 52 -69 10 3 18 0 18 -7 0 -8 14 -10 45 -7 25 3 45 4 45 3 0 -1 -6 -21
-14 -43 l-14 -40 31 -4 c61 -7 64 -3 101 110 19 59 50 154 70 210 20 57 34
108 30 113 -7 12 -134 12 -134 -1 0 -5 9 -10 20 -10 25 0 25 -18 1 -78 -26
-65 -57 -150 -71 -194 -12 -39 -25 -48 -72 -48 -29 0 -30 1 -25 35 3 19 19 72
36 118 103 287 100 275 77 281 -12 3 -38 6 -59 6 -35 0 -37 -2 -31 -25z m-46
-290 c0 -8 -4 -15 -10 -15 -5 0 -10 7 -10 15 0 8 5 15 10 15 6 0 10 -7 10 -15z"/>
<path d="M6466 5278 c-22 -134 -38 -222 -72 -397 -20 -103 -25 -148 -17 -160
11 -18 133 -30 133 -12 0 5 -12 11 -27 13 -28 3 -28 4 -26 68 2 36 8 88 14
115 6 28 13 61 15 75 18 96 79 187 120 178 22 -4 22 -9 4 -131 -13 -86 -13
-88 10 -112 32 -34 79 -33 119 1 l31 26 0 -25 c0 -20 6 -26 30 -29 17 -3 33
-1 36 3 7 12 53 251 54 280 0 12 -9 15 -35 14 -20 -1 -38 -4 -40 -6 -2 -3 -8
-32 -14 -65 -21 -132 -53 -194 -102 -194 -20 0 -21 3 -16 58 3 31 9 76 13 99
17 110 -70 149 -154 69 l-33 -31 6 30 c4 17 9 37 11 45 5 15 33 169 34 183 0
4 -17 7 -38 7 l-39 0 -17 -102z m-9 -290 c-3 -8 -6 -5 -6 6 -1 11 2 17 5 13 3
-3 4 -12 1 -19z m-7 -78 c0 -5 -2 -10 -4 -10 -3 0 -8 5 -11 10 -3 6 -1 10 4
10 6 0 11 -4 11 -10z"/>
<path d="M7376 5362 c-3 -5 -25 -19 -50 -32 -25 -13 -46 -26 -46 -30 0 -4 11
-12 25 -18 35 -16 31 -28 -14 -51 -97 -50 -147 -136 -139 -241 5 -68 23 -94
74 -105 25 -5 38 -1 63 21 l32 27 -7 -27 c-6 -24 -4 -26 28 -26 l34 0 17 105
c16 94 16 108 2 134 -24 48 -65 74 -105 67 -35 -5 -35 -5 -13 12 12 9 39 27
60 40 21 12 45 27 53 32 12 7 9 13 -14 31 l-28 22 26 14 c14 7 26 18 26 23 0
12 -17 13 -24 2z m-41 -231 c8 -25 -22 -168 -42 -198 -18 -27 -50 -28 -67 -1
-12 20 5 157 25 201 19 42 70 41 84 -2z m-140 -111 c3 -5 -1 -10 -10 -10 -9 0
-13 5 -10 10 3 6 8 10 10 10 2 0 7 -4 10 -10z"/>
<path d="M905 5338 c-36 -13 -105 -76 -105 -96 0 -10 10 -5 28 13 65 67 137
85 166 43 18 -25 21 -68 7 -68 -6 0 -13 5 -16 10 -3 6 -23 10 -43 10 -81 0
-149 -85 -187 -231 -9 -35 -23 -68 -31 -72 -8 -5 -12 -13 -9 -18 4 -5 11 -7
16 -4 5 4 9 -5 9 -18 0 -16 13 -36 37 -57 33 -29 41 -32 88 -28 94 8 153 67
179 181 7 28 7 28 -40 25 l-47 -3 -24 -71 c-28 -85 -54 -116 -91 -112 -40 5
-39 31 8 181 52 167 68 201 99 205 31 5 41 -14 34 -64 -4 -34 -1 -46 16 -63
38 -38 121 -21 121 25 0 21 -17 17 -23 -6 -3 -11 -12 -20 -20 -20 -14 0 -13 9
4 67 15 54 17 74 8 100 -19 58 -117 96 -184 71z"/>
<path d="M1230 5332 c-30 -24 -39 -81 -40 -254 l0 -148 35 0 35 0 0 199 c0
160 3 200 14 204 26 10 36 -17 36 -99 l0 -82 33 2 32 2 0 59 c-1 33 -4 72 -8
86 -12 46 -95 65 -137 31z"/>
<path d="M1440 5341 c0 -6 7 -11 15 -11 14 0 16 -26 15 -197 l-2 -198 58 -2
c32 -2 64 -5 71 -8 19 -7 16 -55 -3 -55 -9 0 -14 -6 -11 -12 4 -15 65 -12 85
4 17 14 15 53 -4 72 -10 11 -34 16 -69 16 l-54 0 0 105 c0 57 3 107 8 109 4 3
17 3 29 -1 16 -4 22 -14 24 -42 3 -33 6 -36 36 -39 31 -3 32 -2 32 37 0 40 -1
40 -50 55 -28 8 -57 13 -65 10 -11 -5 -14 10 -12 78 l1 83 -52 3 c-32 2 -52
-1 -52 -7z"/>
<path d="M1734 5339 c-3 -5 3 -12 13 -15 56 -18 76 -30 99 -57 l26 -31 -40
-36 c-51 -47 -82 -108 -82 -162 0 -65 34 -108 95 -118 27 -5 30 -8 28 -42 -2
-34 0 -36 33 -42 46 -9 57 -1 49 37 -10 44 -18 50 -78 62 l-52 10 -2 95 c-1
102 14 160 42 160 14 0 16 -12 14 -87 l-4 -88 38 -6 c21 -3 39 -3 41 0 2 3 2
44 1 91 -1 75 -5 90 -30 128 -16 24 -47 54 -69 67 -51 29 -114 47 -122 34z"/>
<path d="M8207 5343 c-26 -3 -42 -12 -53 -28 -23 -35 -10 -62 37 -76 21 -7 39
-16 39 -20 0 -4 -9 -60 -20 -124 -34 -201 -26 -235 59 -235 34 0 49 6 72 29
l29 29 0 -29 c0 -26 3 -29 34 -29 36 0 46 12 46 56 0 14 3 23 8 21 4 -3 8 34
10 81 4 91 9 113 23 91 6 -10 9 -8 9 7 0 25 -17 34 -65 34 -33 0 -34 0 -40
-57 -14 -128 -50 -203 -97 -203 -10 0 -21 7 -25 16 -3 10 4 83 15 163 12 80
22 152 22 159 0 7 -14 12 -38 12 -81 0 -100 58 -24 74 23 6 42 13 42 18 0 4
-4 8 -9 8 -5 0 -15 1 -23 3 -7 2 -30 2 -51 0z"/>
<path d="M2274 5330 c-30 -12 -35 -42 -39 -237 l-4 -173 39 0 40 0 -5 115 -6
115 31 0 c31 0 31 -1 28 -42 l-3 -43 40 0 c40 0 40 0 37 35 -4 44 -19 56 -81
64 l-49 6 -4 72 c-3 72 4 87 37 74 11 -4 15 -21 15 -66 0 -57 1 -60 24 -60 13
0 26 -5 28 -12 2 -6 10 -8 17 -4 15 10 10 91 -8 125 -20 37 -86 52 -137 31z"/>
<path d="M2513 5323 c9 -2 17 -10 18 -16 0 -7 1 -99 2 -205 l2 -194 61 -2 c76
-3 88 -10 80 -48 -6 -29 -5 -29 32 -26 32 3 37 7 40 31 5 44 -13 57 -79 57
l-59 0 0 205 0 205 -57 -1 c-32 -1 -50 -3 -40 -6z"/>
<path d="M2887 5319 c-38 -22 -47 -70 -47 -239 l0 -160 36 0 35 0 -1 183 c-2
225 -4 207 20 207 23 0 22 13 20 -216 l-1 -171 28 -6 c15 -3 29 -4 31 -2 2 2
4 82 5 178 2 164 1 177 -19 204 -23 31 -75 42 -107 22z"/>
<path d="M3095 5321 c-3 -6 1 -11 10 -11 15 0 16 -18 10 -201 l-7 -200 39 3
38 3 1 125 c0 109 2 125 17 128 13 3 17 -4 18 -25 2 -71 6 -87 28 -104 25 -20
71 -26 71 -9 0 6 -4 10 -10 10 -5 0 -10 25 -10 55 0 70 -22 95 -81 95 l-41 0
4 68 3 67 -42 3 c-22 2 -44 -2 -48 -7z"/>
<path d="M5945 5318 c-31 -18 -33 -26 -32 -112 2 -76 3 -81 25 -84 19 -3 22 1
22 27 0 29 2 31 40 31 36 0 40 3 40 25 0 23 -4 25 -40 25 -36 0 -40 3 -40 25
0 14 5 25 10 25 6 0 10 -6 10 -14 0 -7 9 -16 20 -19 30 -8 28 46 -2 67 -26 19
-27 19 -53 4z"/>
<path d="M3568 5300 c-62 -33 -68 -48 -154 -370 -42 -155 -44 -140 13 -140
l50 0 43 173 c50 200 75 282 96 314 17 26 61 31 70 8 4 -8 -7 -64 -24 -123
-16 -59 -28 -110 -25 -114 6 -12 81 -10 88 2 14 22 37 128 37 169 1 38 -4 49
-31 73 -25 23 -40 28 -79 28 -26 -1 -63 -9 -84 -20z"/>
<path d="M7563 5284 c-4 -10 1 -22 11 -30 14 -10 17 -21 11 -53 -7 -43 -6 -44
53 -41 9 1 32 67 25 73 -10 10 -33 -5 -33 -22 0 -9 -5 -23 -11 -31 -8 -11 -9
-3 -4 31 5 38 3 48 -11 53 -13 5 -14 9 -4 21 10 13 9 15 -9 15 -12 0 -24 -7
-28 -16z"/>
<path d="M5540 5261 c-5 -11 -10 -31 -10 -45 0 -25 3 -26 54 -26 60 0 61 0 71
48 5 24 3 32 -8 32 -8 0 -17 -13 -20 -30 -4 -16 -11 -30 -16 -30 -6 0 -6 11
-1 29 6 21 5 31 -5 35 -17 6 -25 -3 -25 -30 0 -13 -5 -26 -11 -29 -7 -5 -8 5
-4 29 8 40 -7 50 -25 17z"/>
<path d="M5685 5258 c-7 -20 -24 -102 -25 -115 0 -8 12 -13 28 -13 18 0 23 3
14 9 -8 4 -11 18 -8 32 3 13 7 36 11 52 3 15 10 27 15 27 5 0 7 -13 4 -30 -5
-23 -3 -30 10 -30 9 0 16 8 16 18 0 9 3 27 6 40 6 20 3 22 -30 22 -20 0 -39
-6 -41 -12z"/>
<path d="M5776 5254 c-3 -9 -6 -27 -6 -40 0 -22 3 -24 55 -24 57 0 62 4 67 49
4 35 -18 37 -25 1 -8 -39 -25 -39 -19 0 6 45 -22 39 -36 -7 l-11 -38 4 38 c4
38 -16 54 -29 21z"/>
<path d="M6054 5235 c-3 -20 -4 -38 -2 -40 2 -3 27 -6 56 -8 51 -4 52 -4 62
29 11 33 7 54 -10 54 -5 0 -12 -16 -16 -35 -3 -19 -10 -35 -14 -35 -5 0 -5 13
0 30 5 18 5 32 -1 35 -16 11 -29 -5 -29 -36 0 -16 -5 -29 -11 -29 -7 0 -9 12
-5 35 5 27 4 35 -8 35 -9 0 -18 -14 -22 -35z"/>
<path d="M6217 5263 c-5 -8 -37 -126 -37 -137 0 -3 14 -6 32 -6 25 0 29 3 20
12 -15 15 -15 58 -2 94 10 26 -1 57 -13 37z"/>
<path d="M6257 5253 c-3 -5 -7 -21 -8 -38 -4 -30 -4 -30 50 -33 61 -4 66 0 76
46 6 29 5 33 -12 30 -11 -2 -19 -13 -21 -31 -2 -15 -7 -27 -12 -27 -5 0 -7 14
-3 30 4 23 2 30 -11 30 -9 0 -16 -8 -16 -17 0 -10 -5 -25 -11 -33 -8 -11 -9
-7 -5 18 4 23 2 32 -9 32 -7 0 -16 -3 -18 -7z"/>
<path d="M7447 5233 c-3 -4 -8 -23 -12 -40 l-7 -33 65 0 65 0 5 33 c7 48 -10
57 -28 14 -19 -47 -28 -47 -19 -1 5 29 4 36 -7 32 -8 -3 -16 -13 -17 -24 -6
-33 -24 -42 -20 -10 3 27 -14 47 -25 29z"/>
<path d="M7681 5173 c-16 -79 -15 -83 17 -83 19 0 23 3 14 9 -21 13 -10 45 18
51 14 3 26 10 27 15 1 6 5 23 8 38 7 26 6 27 -33 27 l-39 0 -12 -57z m59 43
c0 -14 -21 -58 -26 -54 -8 8 7 58 17 58 5 0 9 -2 9 -4z"/>
<path d="M7788 5168 c-8 -35 -13 -66 -11 -70 2 -5 16 -8 31 -8 19 0 23 3 13 9
-13 9 -12 35 6 109 4 15 1 22 -10 22 -11 0 -20 -19 -29 -62z"/>
<path d="M7847 5223 c-11 -10 -8 -73 3 -73 11 0 14 7 24 53 6 26 -10 38 -27
20z"/>
<path d="M7897 5223 c-3 -5 -8 -22 -11 -39 -7 -31 -7 -32 32 -32 36 -1 40 2
46 30 9 44 8 48 -9 48 -9 0 -15 -9 -15 -24 0 -14 -5 -28 -11 -32 -8 -5 -10 3
-7 25 3 21 0 31 -8 31 -7 0 -15 -3 -17 -7z"/>
<path d="M1980 5091 c0 -9 208 -21 223 -14 4 3 5 9 2 14 -8 12 -225 12 -225 0z"/>
<path d="M5926 5081 c-25 -27 -19 -184 7 -189 14 -3 17 4 17 44 l0 47 40 -7
c32 -5 42 -3 47 10 3 9 0 20 -8 24 -7 5 -15 24 -17 42 -2 18 -9 36 -15 40 -21
14 -53 8 -71 -11z m62 -3 c7 -7 12 -19 11 -27 0 -10 -4 -7 -9 7 -14 34 -47 29
-55 -9 -8 -38 -5 -41 48 -50 l42 -6 -52 -2 c-53 -1 -53 -1 -53 30 0 58 36 89
68 57z m-4 -45 c6 -18 4 -20 -14 -16 -19 5 -27 32 -13 47 9 8 19 -3 27 -31z
m-57 -100 c-3 -10 -5 -2 -5 17 0 19 2 27 5 18 2 -10 2 -26 0 -35z"/>
<path d="M7560 5055 c-14 -16 -5 -35 16 -35 12 0 13 -8 8 -37 -3 -21 -7 -42
-8 -47 -2 -14 65 -16 69 -2 2 6 6 23 9 39 9 40 -21 36 -34 -5 -9 -31 -10 -30
-6 15 3 35 0 47 -10 47 -17 0 -18 12 -2 28 9 9 7 12 -9 12 -11 0 -26 -7 -33
-15z"/>
<path d="M5537 5033 c-3 -5 -7 -21 -8 -38 -4 -30 -4 -30 54 -33 60 -3 59 -4
71 51 5 20 2 27 -8 27 -8 0 -17 -13 -21 -30 -4 -16 -11 -30 -16 -30 -4 0 -6
14 -2 30 4 23 2 30 -11 30 -9 0 -16 -8 -16 -17 0 -10 -5 -25 -11 -33 -8 -11
-9 -7 -5 18 4 23 2 32 -9 32 -7 0 -16 -3 -18 -7z"/>
<path d="M5672 4982 c-16 -79 -16 -82 16 -82 19 0 23 3 13 9 -9 6 -11 19 -6
42 11 55 16 69 25 69 5 0 5 -13 0 -30 -9 -32 1 -48 18 -27 5 6 13 27 17 45 7
32 6 32 -32 32 l-39 0 -12 -58z"/>
<path d="M5777 5033 c-4 -3 -7 -21 -7 -40 l0 -33 55 0 c53 0 55 1 63 33 5 17
7 35 5 40 -9 17 -21 5 -27 -28 -4 -19 -11 -35 -17 -35 -6 0 -7 14 -3 35 5 27
3 35 -9 35 -9 0 -17 -13 -21 -35 -4 -19 -12 -35 -17 -35 -9 0 -7 17 8 58 5 12
-19 17 -30 5z"/>
<path d="M6049 5005 c-1 -14 -2 -30 -3 -37 -1 -8 17 -12 53 -13 54 0 54 0 67
38 12 34 12 37 -6 37 -13 0 -20 -8 -22 -27 -2 -14 -8 -28 -15 -30 -9 -3 -10 4
-3 26 7 24 5 31 -5 31 -7 0 -16 -13 -20 -30 -4 -16 -11 -30 -16 -30 -11 0 -11
3 1 34 8 23 7 26 -10 26 -14 0 -20 -7 -21 -25z"/>
<path d="M6187 4963 c-9 -37 -15 -68 -14 -69 12 -9 57 -12 57 -4 0 5 -5 10
-10 10 -10 0 -9 20 6 103 4 19 1 27 -9 27 -9 0 -19 -24 -30 -67z"/>
<path d="M6250 5013 c0 -10 -3 -28 -6 -40 -6 -22 -4 -23 54 -23 l60 0 7 36 c3
20 4 38 1 41 -9 9 -26 -8 -26 -27 0 -10 -5 -22 -11 -26 -7 -4 -10 3 -7 22 4
38 -19 42 -27 5 -9 -40 -26 -41 -18 -1 4 23 2 30 -11 30 -9 0 -16 -8 -16 -17z"/>
<path d="M7444 4997 c-2 -7 -6 -26 -7 -42 -2 -28 -1 -28 53 -28 53 0 55 1 64
32 5 17 6 34 3 37 -10 10 -27 -6 -27 -26 0 -10 -5 -22 -11 -26 -8 -5 -10 3 -7
25 6 41 -18 42 -27 1 -9 -42 -25 -38 -18 5 6 35 -11 51 -23 22z"/>
<path d="M7678 4938 c-18 -70 -16 -78 15 -78 13 0 17 3 11 8 -20 12 2 52 29
52 13 0 24 6 24 13 0 7 3 25 7 40 6 26 5 27 -32 27 l-37 0 -17 -62z m52 17 c0
-14 -4 -25 -10 -25 -11 0 -14 33 -3 43 11 11 13 8 13 -18z"/>
<path d="M7796 4988 c-3 -7 -7 -29 -10 -48 -3 -19 -8 -45 -11 -56 -6 -18 -2
-22 24 -26 17 -2 31 -1 31 4 0 4 -5 8 -11 8 -11 0 -6 80 7 115 4 10 0 15 -10
15 -9 0 -18 -6 -20 -12z"/>
<path d="M7847 4993 c-4 -3 -7 -21 -7 -39 0 -32 0 -32 56 -36 59 -3 61 -2 66
46 4 39 -18 45 -25 6 -4 -16 -11 -30 -16 -30 -6 0 -8 13 -4 30 6 33 -13 43
-23 13 -3 -10 -10 -27 -15 -38 -7 -15 -8 -11 -5 18 5 35 -8 49 -27 30z"/>
<path d="M5232 4620 c-12 -5 -25 -18 -29 -27 -4 -10 -17 -26 -30 -36 -28 -22
-31 -72 -5 -85 9 -5 34 -12 55 -16 36 -7 38 -6 35 16 -2 19 -10 23 -45 26 -24
2 -43 8 -43 14 0 7 30 9 89 5 88 -5 89 -4 94 19 2 13 2 26 -1 29 -3 3 -35 6
-71 6 -56 2 -60 3 -26 8 31 5 40 10 40 26 0 23 -27 29 -63 15z"/>
<path d="M1193 4603 c-34 -7 -41 -23 -44 -98 -3 -69 -2 -70 24 -73 27 -3 28
-3 26 53 -2 56 10 83 30 71 7 -5 11 -60 11 -157 l0 -149 25 0 c24 0 25 2 25
74 0 70 1 75 23 78 14 2 23 11 25 26 3 18 -1 22 -22 22 -25 0 -26 2 -26 58 0
31 -4 62 -8 68 -8 13 -47 35 -59 33 -4 -1 -18 -4 -30 -6z"/>
<path d="M5890 4584 c-6 -14 -10 -36 -10 -48 0 -13 -7 -45 -15 -72 -20 -65
-20 -64 18 -64 25 1 28 3 16 10 -14 8 -15 17 -7 57 12 59 34 86 24 31 l-7 -38
41 0 c31 0 40 4 40 18 0 9 3 27 6 40 5 16 2 22 -9 22 -9 0 -18 -13 -22 -30 -4
-16 -11 -30 -16 -30 -4 0 -6 14 -2 30 5 26 3 30 -16 30 -20 0 -21 4 -15 35 8
42 -11 49 -26 9z"/>
<path d="M1360 4598 c0 -2 -1 -71 -2 -155 -2 -135 0 -155 17 -173 20 -22 74
-27 93 -8 8 8 15 8 26 -2 21 -17 47 -6 39 17 -4 10 -12 22 -20 26 -10 6 -13
43 -13 153 0 145 0 145 -22 142 -23 -3 -23 -5 -20 -130 5 -148 0 -168 -35
-168 l-25 0 3 150 4 150 -22 0 c-13 0 -23 -1 -23 -2z"/>
<path d="M1584 4586 c-17 -13 -19 -30 -22 -175 -3 -157 -3 -161 17 -161 20 0
21 5 21 134 0 74 3 141 6 150 7 19 30 21 40 4 4 -7 3 -8 -4 -4 -7 4 -12 2 -12
-3 0 -6 5 -11 10 -11 6 0 10 -22 10 -48 0 -56 3 -62 32 -54 19 5 20 11 16 80
-4 58 -9 78 -24 89 -23 17 -65 17 -90 -1z"/>
<path d="M1819 4593 c0 -5 0 -59 1 -121 1 -113 1 -114 -22 -110 -22 3 -23 8
-26 96 -3 90 -3 92 -27 92 -25 0 -25 -1 -25 -98 0 -116 12 -142 66 -142 32 0
34 -2 32 -32 l-3 -33 63 -3 c61 -3 62 -2 62 23 0 22 -4 25 -37 25 l-38 0 3
155 3 155 -26 0 c-14 0 -25 -3 -26 -7z"/>
<path d="M1969 4578 c0 -13 -1 -93 -2 -178 l-2 -155 27 -3 27 -3 -2 115 c-2
104 -1 116 15 116 25 0 30 -14 30 -81 0 -56 1 -59 24 -59 23 0 24 2 24 80 0
86 -9 100 -64 100 -22 0 -25 5 -28 43 -2 35 -7 43 -25 45 -18 3 -23 -2 -24
-20z"/>
<path d="M2140 4576 c0 -24 4 -26 39 -26 72 0 86 -61 16 -70 -51 -6 -65 -33
-65 -121 0 -85 22 -119 80 -119 46 0 61 16 68 75 4 43 3 45 -21 45 -22 0 -26
-5 -29 -32 -2 -25 -8 -33 -23 -33 -18 0 -20 8 -23 68 -3 66 -3 67 23 67 18 0
25 -5 25 -20 0 -17 7 -20 40 -20 l40 0 0 43 c0 23 -7 51 -15 61 -8 11 -15 32
-15 47 0 36 -16 47 -83 55 -57 7 -57 7 -57 -20z"/>
<path d="M2318 4585 c-11 -11 5 -56 23 -66 17 -9 19 -22 19 -122 0 -135 10
-157 69 -157 57 0 71 22 71 108 0 65 -2 72 -20 72 -17 0 -20 -7 -20 -52 0 -65
-12 -88 -37 -72 -16 10 -18 27 -18 125 0 100 -2 114 -17 117 -10 2 -21 14 -24
28 -6 22 -32 33 -46 19z"/>
<path d="M2530 4444 c0 -126 5 -168 25 -192 1 -1 16 -7 34 -12 45 -13 78 19
84 83 4 44 3 47 -19 47 -21 0 -24 -5 -24 -34 0 -39 -26 -69 -41 -45 -5 8 -9
35 -9 62 l0 47 60 0 c53 0 60 2 60 20 0 18 -7 20 -60 20 l-60 0 0 75 c0 73 -1
75 -25 75 l-25 0 0 -146z"/>
<path d="M2751 4573 c-20 -17 -22 -31 -28 -175 l-6 -158 27 0 26 0 0 149 c0
124 3 150 15 155 21 8 36 -33 28 -78 -8 -50 1 -70 27 -56 29 16 29 131 0 160
-25 25 -61 26 -89 3z"/>
<path d="M2894 4577 c-2 -7 -3 -87 -2 -177 3 -157 4 -165 23 -165 19 0 20 8
23 113 2 102 4 112 21 112 24 0 31 -19 31 -87 0 -51 2 -54 23 -51 20 3 22 8
22 74 0 83 -12 104 -61 104 -34 0 -34 1 -34 45 0 39 -3 45 -20 45 -11 0 -23
-6 -26 -13z"/>
<path d="M3284 4579 c-45 -13 -51 -25 -59 -116 l-8 -83 27 0 c26 0 26 1 26 68
0 44 5 75 15 88 19 25 19 20 20 -116 0 -112 1 -115 23 -118 22 -3 22 -2 22
118 0 92 3 121 12 118 20 -7 27 -66 22 -190 l-5 -118 26 0 25 0 0 148 c0 167
-6 184 -68 202 -20 5 -39 10 -42 9 -3 0 -19 -5 -36 -10z"/>
<path d="M6855 4578 c-12 -33 -42 -188 -37 -192 3 -3 13 -6 22 -6 13 0 16 6
13 23 -3 12 3 53 11 90 9 38 16 75 16 83 0 17 -19 19 -25 2z"/>
<path d="M3470 4427 c0 -122 3 -157 16 -175 16 -24 61 -30 94 -12 13 7 21 7
25 0 3 -5 15 -10 26 -10 26 0 25 36 -2 50 -19 11 -20 18 -17 156 3 142 3 144
-19 144 -21 0 -22 -4 -25 -145 -2 -116 -6 -148 -18 -155 -11 -7 -19 -5 -28 8
-11 13 -13 49 -9 155 l4 137 -23 0 -24 0 0 -153z"/>
<path d="M3692 4560 c-21 -20 -22 -29 -22 -169 0 -152 2 -161 41 -161 5 0 9
63 9 143 0 96 4 147 12 155 22 22 38 -7 38 -68 0 -61 4 -72 26 -63 10 4 14 25
14 79 0 64 -3 75 -22 88 -31 22 -70 20 -96 -4z"/>
<path d="M3883 4570 c-30 -12 -33 -29 -35 -200 l-3 -145 70 0 c65 0 70 2 73
23 3 20 0 22 -47 22 l-51 0 0 129 c0 100 3 130 14 134 24 10 36 -16 36 -80 0
-61 1 -63 25 -63 24 0 25 2 25 69 0 51 -5 74 -17 89 -22 25 -60 35 -90 22z"/>
<path d="M5390 4533 c0 -10 -3 -28 -6 -40 -5 -17 -2 -23 10 -23 10 0 19 11 23
30 3 17 9 30 14 30 4 0 4 -13 -1 -30 -7 -26 -6 -30 11 -30 11 0 19 7 19 18 0
9 3 27 6 40 6 20 3 22 -35 22 -32 0 -41 -4 -41 -17z"/>
<path d="M5490 4533 c0 -10 -3 -28 -6 -40 -6 -21 -3 -23 32 -22 33 0 36 2 17
9 -19 8 -21 13 -14 34 10 26 6 36 -16 36 -7 0 -13 -8 -13 -17z"/>
<path d="M5566 4486 c-21 -85 -21 -86 12 -86 19 0 23 3 13 9 -23 15 -4 51 27
51 24 0 27 4 30 40 2 34 0 40 -17 40 -11 0 -26 2 -34 6 -11 4 -18 -11 -31 -60z
m45 1 c-8 -8 -11 -5 -11 9 0 27 14 41 18 19 2 -9 -1 -22 -7 -28z"/>
<path d="M5735 4537 c-3 -7 -7 -26 -8 -41 -2 -27 0 -28 51 -30 48 -2 55 0 63
22 13 33 11 52 -5 52 -7 0 -16 -13 -19 -30 -8 -40 -25 -39 -19 1 3 24 1 30 -9
27 -8 -2 -15 -17 -17 -31 -2 -15 -8 -27 -13 -27 -6 0 -8 12 -4 29 6 30 -11 54
-20 28z"/>
<path d="M5672 4489 c-18 -78 -16 -89 16 -89 20 0 23 3 13 9 -12 8 -13 18 -3
61 15 65 15 70 -1 70 -8 0 -18 -21 -25 -51z"/>
<path d="M6246 4498 c-10 -49 11 -59 29 -14 23 54 29 38 12 -27 -8 -31 -12
-58 -9 -61 3 -3 17 -6 31 -5 14 0 20 3 14 6 -14 5 -18 53 -5 53 4 0 8 18 8 40
1 40 1 40 -36 40 -34 0 -38 -3 -44 -32z"/>
<path d="M6356 4514 c-11 -29 -7 -64 9 -64 9 0 15 9 15 23 0 12 5 29 11 37 8
11 9 6 5 -22 -4 -29 -1 -38 10 -38 15 0 18 6 28 53 6 26 5 27 -33 27 -26 0
-41 -5 -45 -16z"/>
<path d="M6456 4514 c-3 -9 -6 -27 -6 -40 0 -20 5 -24 30 -24 17 0 30 5 30 10
0 6 -7 10 -16 10 -13 0 -15 7 -10 30 4 22 2 30 -8 30 -8 0 -17 -7 -20 -16z"/>
<path d="M6549 4527 c0 -1 -8 -32 -18 -70 -9 -37 -15 -69 -13 -72 3 -3 16 -5
29 -5 20 0 22 2 12 19 -18 28 -4 53 25 45 20 -5 24 -2 24 18 1 13 3 31 4 42 2
14 -4 19 -29 22 -18 2 -33 3 -34 1z m35 -39 c-8 -27 -12 -33 -19 -27 -7 8 7
49 17 49 5 0 6 -10 2 -22z"/>
<path d="M6637 4463 c-17 -74 -15 -83 14 -83 20 0 27 16 9 22 -6 2 -4 25 4 60
7 32 11 60 8 63 -14 13 -21 0 -35 -62z"/>
<path d="M6697 4523 c-4 -3 -7 -21 -7 -40 0 -35 -2 -34 71 -37 33 -1 49 16 49
54 0 26 -24 22 -28 -6 -2 -10 -9 -23 -14 -29 -7 -7 -9 0 -5 22 8 43 -11 53
-24 14 -14 -40 -27 -40 -21 -1 4 28 -6 39 -21 23z"/>
<path d="M6880 4503 c0 -10 -3 -28 -6 -40 -6 -21 -3 -23 29 -23 40 0 44 3 48
44 5 41 -19 47 -27 7 -4 -17 -10 -31 -15 -31 -5 0 -6 14 -2 30 4 23 2 30 -11
30 -9 0 -16 -8 -16 -17z"/>
<path d="M6005 4500 c-4 -6 35 -10 112 -9 75 1 109 4 93 9 -37 12 -198 12
-205 0z"/>
<path d="M5490 4000 c0 -5 18 -14 40 -20 26 -7 49 -23 66 -46 l27 -35 -37 -31
c-46 -38 -86 -115 -86 -167 0 -52 44 -106 95 -115 33 -7 35 -9 35 -46 0 -39 1
-40 35 -40 33 0 35 2 35 34 0 42 -16 56 -77 64 l-48 7 1 107 c1 82 5 113 18
132 28 44 36 30 36 -64 l0 -90 35 0 35 0 0 81 c0 96 -15 135 -71 183 -48 41
-139 71 -139 46z"/>
<path d="M5805 4000 c-46 -18 -50 -33 -53 -227 l-4 -183 31 0 31 0 0 195 0
195 25 0 c27 0 30 -10 26 -118 l-2 -53 33 3 33 3 3 66 c2 58 0 70 -20 92 -25
27 -71 39 -103 27z m100 -130 c3 -5 1 -10 -4 -10 -6 0 -11 5 -11 10 0 6 2 10
4 10 3 0 8 -4 11 -10z"/>
<path d="M5950 3991 c0 -6 7 -11 16 -11 15 0 16 -14 11 -125 l-5 -125 32 0
c41 0 61 -14 52 -35 -5 -13 -14 -16 -36 -11 -18 3 -30 1 -30 -5 0 -6 21 -9 53
-7 46 3 52 6 55 27 4 29 -12 41 -55 41 l-33 0 0 53 c0 30 2 56 5 58 2 3 20 3
39 1 26 -3 36 -9 38 -26 4 -26 31 -28 36 -3 6 31 -17 47 -70 47 l-49 0 2 63 3
62 -32 3 c-18 2 -32 -1 -32 -7z"/>
<path d="M6152 3958 c2 -19 10 -23 42 -25 45 -3 51 -7 60 -47 7 -30 8 -30 -40
-10 -6 3 -21 -3 -34 -14 -27 -22 -39 -80 -39 -194 -1 -112 21 -157 80 -158 54
0 78 48 79 158 0 44 -3 52 -19 52 -16 0 -20 -11 -27 -82 -9 -80 -10 -83 -34
-83 l-25 0 -3 124 c-3 125 3 151 35 151 8 0 22 -18 30 -39 11 -29 22 -40 42
-44 14 -3 29 -3 33 0 16 9 8 35 -12 40 -16 4 -20 14 -20 53 0 106 -27 140
-110 140 -37 0 -41 -2 -38 -22z"/>
<path d="M7090 3972 c0 -6 7 -13 15 -16 13 -5 15 -23 9 -126 -7 -118 -7 -120
14 -120 21 0 22 4 22 95 0 69 3 95 13 95 26 0 36 -17 39 -70 3 -49 5 -54 31
-61 15 -4 27 -3 27 2 0 5 -4 9 -10 9 -5 0 -10 24 -10 53 0 62 -11 77 -58 77
-32 0 -33 2 -30 33 3 30 1 32 -29 35 -18 2 -33 -1 -33 -6z"/>
<path d="M7327 3973 c-32 -8 -47 -56 -47 -151 0 -80 2 -91 23 -110 13 -12 36
-22 50 -22 l28 0 -1 108 c-1 59 3 120 7 136 8 27 10 28 26 12 10 -11 17 -33
17 -58 0 -35 -2 -40 -20 -35 -23 6 -24 3 -10 -24 10 -18 58 -27 72 -14 3 3 1
29 -3 58 -13 82 -66 120 -142 100z m8 -151 c-6 -70 -10 -83 -23 -80 -14 3 -17
17 -17 90 0 72 3 90 20 108 l20 22 3 -28 c2 -16 1 -66 -3 -112z"/>
<path d="M7500 3976 c-3 -2 -3 -78 0 -168 l5 -163 38 -3 c20 -2 35 -7 32 -13
-4 -5 12 -9 34 -9 28 0 41 4 41 14 0 17 -22 26 -61 26 l-29 0 0 86 c0 83 1 85
23 82 18 -2 23 -10 25 -44 2 -33 8 -43 24 -47 29 -8 38 -1 38 32 0 36 -41 74
-80 74 l-30 0 3 66 2 66 -30 3 c-17 2 -33 1 -35 -2z"/>
<path d="M6612 3950 c-21 -20 -22 -29 -22 -198 0 -97 -3 -194 -6 -214 -6 -36
-5 -38 20 -38 l26 0 0 105 0 104 58 3 c43 2 57 7 57 18 0 11 -15 16 -55 20
l-55 5 -3 82 c-3 75 -1 83 18 93 36 19 50 -3 50 -82 0 -61 2 -69 18 -66 15 3
17 13 14 78 -2 50 -9 81 -19 93 -22 23 -74 22 -101 -3z"/>
<path d="M6770 3963 c0 -5 -1 -109 -3 -233 l-2 -225 70 0 c63 0 70 2 70 20 0
17 -8 20 -50 23 l-50 3 1 209 c2 199 1 210 -17 210 -11 0 -19 -3 -19 -7z"/>
<path d="M6983 3962 c-48 -7 -53 -31 -53 -254 0 -178 2 -208 15 -208 12 0 15
14 15 68 1 237 15 362 39 362 30 -1 32 -20 31 -209 0 -106 -2 -198 -3 -204 -1
-6 8 -13 20 -15 22 -3 22 -3 23 205 0 169 -2 212 -14 229 -17 24 -39 31 -73
26z"/>
<path d="M7702 3920 c-12 -12 -22 -27 -22 -34 0 -25 41 -66 66 -66 23 0 24 -2
24 -80 0 -123 33 -170 120 -170 58 0 90 29 90 81 0 40 -33 79 -68 79 -18 0
-21 -7 -24 -47 -2 -26 -9 -48 -16 -51 -9 -3 -12 20 -10 100 l3 103 -40 52
c-32 42 -46 52 -71 52 -17 1 -40 -8 -52 -19z m35 -17 c-2 -26 1 -28 36 -28 22
-1 42 -7 48 -15 5 -8 8 -61 7 -118 -2 -109 4 -126 43 -120 20 2 24 10 27 46 3
34 7 42 23 42 14 0 19 -7 19 -28 0 -47 -25 -72 -74 -72 -68 0 -80 21 -84 145
l-4 103 -39 6 c-42 7 -50 24 -23 50 21 22 23 20 21 -11z m20 -69 c-3 -3 -12
-4 -19 -1 -8 3 -5 6 6 6 11 1 17 -2 13 -5z"/>
<path d="M1270 3666 c0 -127 3 -157 16 -170 17 -18 53 -29 75 -24 11 2 14 -10
14 -57 0 -55 2 -60 23 -63 22 -3 22 -2 23 125 1 70 2 148 3 173 1 42 -1 45
-24 45 l-25 0 4 -87 3 -88 -26 0 c-40 0 -41 6 -36 195 l3 100 -27 3 -26 3 0
-155z"/>
<path d="M2822 3810 c-30 -13 -38 -38 -45 -147 l-7 -93 25 0 c24 0 25 3 26 58
1 93 11 137 34 137 42 0 40 -136 -3 -252 -18 -48 -18 -48 -59 -45 -33 3 -44
-1 -57 -19 -18 -27 -21 -62 -6 -90 15 -26 70 -26 93 1 16 19 19 19 41 4 35
-22 80 -15 84 14 3 18 -1 22 -25 22 -16 0 -38 6 -49 14 -16 13 -17 18 -6 33
42 60 56 109 60 214 l4 105 -32 27 c-34 29 -42 31 -78 17z m-28 -386 c20 -8 3
-44 -20 -44 -20 0 -30 30 -13 41 17 11 14 10 33 3z"/>
<path d="M3093 3813 c-18 -7 -16 -32 3 -40 12 -5 14 -15 9 -54 l-7 -49 35 0
c35 0 47 15 47 63 0 26 -23 16 -30 -13 -3 -13 -11 -25 -17 -27 -8 -3 -9 7 -2
34 12 51 11 53 -6 53 -8 0 -15 5 -15 10 0 6 5 10 10 10 6 0 10 5 10 10 0 10
-16 12 -37 3z"/>
<path d="M2272 3574 l-3 -235 22 3 c21 3 22 8 23 143 l1 140 30 0 c30 0 30 -1
36 -63 8 -83 36 -109 97 -88 31 10 42 37 49 117 5 60 4 69 -11 69 -9 0 -19 1
-23 3 -5 1 -10 -32 -13 -73 -4 -67 -7 -75 -26 -78 -26 -4 -34 19 -34 99 l0 55
-52 0 -51 0 2 72 c2 69 1 72 -21 72 l-23 0 -3 -236z"/>
<path d="M3733 3774 c-12 -32 14 -62 61 -69 l45 -7 -2 -165 c-2 -163 -2 -165
22 -184 15 -13 36 -19 55 -17 46 5 63 44 68 156 4 91 4 92 -19 92 -22 0 -23
-2 -23 -94 0 -71 -4 -97 -15 -106 -12 -10 -18 -10 -31 1 -14 12 -16 36 -12
186 l4 173 -30 0 c-51 0 -76 11 -76 31 0 23 -38 26 -47 3z"/>
<path d="M1457 3763 c-3 -5 -8 -23 -12 -40 l-7 -33 60 0 c64 0 72 6 72 57 0
33 -24 25 -28 -10 -2 -15 -8 -27 -14 -27 -6 0 -8 12 -4 30 4 22 2 30 -8 30 -8
0 -17 -13 -21 -30 -4 -16 -11 -30 -17 -30 -5 0 -7 12 -3 30 6 27 -6 43 -18 23z"/>
<path d="M1601 3751 c-5 -9 -11 -40 -15 -69 -5 -43 -4 -53 9 -58 9 -4 19 -3
23 1 4 4 2 10 -4 12 -14 5 0 92 17 108 9 7 10 1 6 -22 -5 -25 -3 -33 7 -33 14
0 30 44 24 65 -5 17 -58 14 -67 -4z"/>
<path d="M1697 3763 c-4 -3 -7 -21 -7 -40 l0 -33 54 0 c60 0 62 2 67 45 3 22
0 30 -11 30 -8 0 -16 -11 -18 -25 -2 -14 -8 -29 -14 -35 -7 -7 -8 2 -4 28 5
28 4 37 -7 37 -9 0 -17 -14 -21 -35 -4 -19 -11 -35 -16 -35 -12 0 -12 -2 -1
38 7 24 6 32 -3 32 -7 0 -16 -3 -19 -7z"/>
<path d="M1844 3756 c-7 -22 -24 -102 -24 -118 0 -13 8 -18 28 -18 18 0 23 3
14 9 -8 4 -12 19 -10 32 2 20 8 24 33 21 28 -3 30 -1 32 37 2 38 1 39 -33 43
-20 2 -38 0 -40 -6z m46 -18 c0 -17 -18 -44 -24 -37 -8 7 5 49 15 49 5 0 9 -6
9 -12z"/>
<path d="M2037 3764 c-4 -4 -7 -18 -7 -30 0 -13 -5 -26 -12 -30 -8 -5 -9 2 -5
25 6 27 4 32 -10 29 -10 -2 -19 -12 -21 -23 -2 -11 -8 -24 -14 -30 -7 -7 -8 1
-3 23 5 24 3 32 -8 32 -13 0 -33 -57 -24 -67 2 -2 29 -5 59 -7 l56 -5 7 36 c6
34 -4 61 -18 47z"/>
<path d="M2086 3748 c-3 -7 -7 -27 -10 -44 -3 -18 -8 -43 -12 -58 -6 -24 -4
-26 27 -26 24 0 30 3 20 9 -14 9 -12 47 5 109 5 16 2 22 -10 22 -9 0 -18 -6
-20 -12z"/>
<path d="M2136 3738 c-14 -53 -10 -58 49 -58 53 0 55 1 63 33 10 36 -3 62 -18
37 -5 -8 -10 -23 -10 -32 0 -10 -4 -18 -10 -18 -5 0 -7 13 -3 30 4 23 2 30
-11 30 -10 0 -16 -9 -16 -24 0 -14 -5 -28 -12 -32 -8 -5 -9 2 -5 24 8 38 -17
46 -27 10z"/>
<path d="M2970 3720 c0 -16 -1 -33 -2 -37 -2 -4 23 -8 55 -8 53 -2 57 0 57 21
0 12 3 29 6 38 4 11 1 16 -10 16 -10 0 -16 -9 -16 -24 0 -14 -5 -28 -11 -32
-8 -5 -10 3 -7 25 4 25 1 31 -11 29 -9 -2 -17 -15 -19 -31 -2 -15 -8 -27 -13
-27 -12 0 -12 17 1 41 9 16 7 19 -10 19 -16 0 -20 -6 -20 -30z"/>
<path d="M3446 3738 c-12 -34 -26 -122 -21 -126 10 -10 35 -11 41 -1 3 5 0 9
-6 9 -6 0 -10 10 -8 23 2 15 11 23 29 25 21 2 28 10 33 34 7 37 9 34 -32 43
-23 5 -33 3 -36 -7z m44 -20 c0 -17 -18 -44 -24 -37 -8 7 5 49 15 49 5 0 9 -6
9 -12z"/>
<path d="M3547 3713 c-4 -21 -9 -53 -13 -70 -6 -31 -5 -33 22 -33 20 0 25 3
16 9 -11 6 -11 20 -3 66 6 32 11 60 11 62 0 2 -6 3 -14 3 -8 0 -16 -15 -19
-37z"/>
<path d="M3605 3738 c-3 -7 -6 -24 -7 -38 -3 -24 0 -25 55 -28 49 -3 57 -1 57
15 0 10 3 28 6 41 7 26 -14 31 -22 5 -3 -10 -10 -27 -15 -38 -7 -16 -8 -13 -6
14 3 46 -19 51 -27 6 -4 -20 -11 -33 -17 -29 -6 3 -7 19 -4 35 7 29 -11 43
-20 17z"/>
<path d="M6340 3742 c0 -11 163 -23 202 -15 55 11 17 19 -91 21 -61 2 -111 -1
-111 -6z"/>
<path d="M3196 3721 c-10 -15 2 -17 117 -20 71 -2 107 1 107 8 0 6 -19 11 -42
12 -24 0 -73 3 -110 5 -38 3 -69 1 -72 -5z"/>
<path d="M6215 3630 c-3 -5 -2 -10 4 -10 5 0 13 5 16 10 3 6 2 10 -4 10 -5 0
-13 -4 -16 -10z"/>
<path d="M3093 3583 c-18 -7 -16 -34 3 -47 12 -9 13 -17 5 -39 -18 -48 -14
-57 24 -57 36 0 38 3 49 53 5 20 3 27 -9 27 -9 0 -18 -12 -21 -30 -4 -16 -11
-30 -16 -30 -9 0 -7 23 8 73 4 12 0 17 -15 17 -12 0 -21 5 -21 10 0 6 7 10 15
10 8 0 15 5 15 10 0 10 -16 12 -37 3z"/>
<path d="M1457 3533 c-3 -5 -8 -23 -12 -40 l-7 -33 60 0 c59 0 61 1 67 31 4
18 3 35 -4 42 -10 10 -13 6 -27 -40 -2 -7 -8 -13 -13 -13 -7 0 -7 9 -1 25 6
15 6 26 0 30 -16 10 -30 -4 -30 -30 0 -13 -5 -27 -12 -31 -8 -5 -9 3 -5 29 5
33 -4 50 -16 30z"/>
<path d="M1695 3527 c-3 -7 -7 -26 -8 -42 -2 -27 -1 -28 52 -29 52 -1 55 0 63
29 9 33 3 59 -11 51 -4 -3 -11 -19 -15 -36 -3 -17 -10 -29 -16 -25 -6 4 -6 15
0 30 8 21 7 25 -10 25 -15 0 -20 -7 -20 -24 0 -14 -5 -28 -11 -32 -8 -5 -10 3
-7 25 5 33 -8 53 -17 28z"/>
<path d="M1596 3518 c-3 -7 -7 -27 -10 -44 -3 -18 -8 -43 -12 -58 -6 -24 -3
-26 22 -26 20 0 25 3 16 9 -11 7 -12 19 -2 65 6 31 15 56 20 56 5 0 7 -13 4
-29 -8 -38 13 -50 26 -16 17 46 13 55 -25 55 -20 0 -37 -6 -39 -12z"/>
<path d="M1826 3464 c-9 -36 -15 -68 -13 -71 9 -8 47 -11 47 -3 0 4 -4 10 -10
12 -5 2 -7 13 -4 26 5 16 14 22 33 22 21 0 27 5 29 25 1 13 3 30 4 37 2 8 -10
14 -33 16 l-36 3 -17 -67z m54 26 c0 -16 -4 -30 -10 -30 -11 0 -14 43 -3 53
11 12 13 8 13 -23z"/>
<path d="M1936 3514 c-3 -9 -6 -27 -6 -40 0 -24 2 -25 58 -22 l57 3 3 38 c4
44 -14 50 -23 7 -4 -16 -11 -30 -16 -30 -4 0 -6 14 -2 30 4 23 2 30 -10 30
-10 0 -17 -11 -19 -27 -2 -14 -8 -28 -15 -30 -9 -3 -10 4 -3 26 6 24 5 31 -5
31 -7 0 -16 -7 -19 -16z"/>
<path d="M2077 3493 c-4 -21 -9 -52 -13 -69 -5 -28 -3 -32 20 -36 15 -3 29 -1
32 3 3 5 -2 9 -11 9 -11 0 -14 7 -10 25 3 14 7 36 10 49 3 13 8 31 11 40 4 11
0 16 -14 16 -15 0 -21 -9 -25 -37z"/>
<path d="M2132 3498 c-5 -18 -7 -36 -5 -40 2 -5 28 -8 58 -8 56 0 65 7 65 57
0 33 -24 25 -28 -10 -2 -15 -8 -27 -14 -27 -6 0 -8 12 -4 30 4 22 2 30 -9 30
-8 0 -15 -8 -15 -17 0 -10 -5 -25 -11 -33 -8 -11 -9 -7 -5 18 4 24 2 32 -9 32
-8 0 -18 -15 -23 -32z"/>
<path d="M2966 3498 c-14 -53 -10 -58 47 -58 53 0 54 1 64 35 8 24 8 37 1 41
-12 8 -28 -14 -28 -38 0 -10 -5 -18 -11 -18 -7 0 -8 11 -4 30 5 23 3 30 -9 30
-8 0 -16 -11 -18 -27 -2 -14 -9 -28 -16 -31 -9 -3 -10 3 -2 23 13 34 13 35 -4
35 -7 0 -16 -10 -20 -22z"/>
<path d="M3431 3455 c-12 -69 -9 -85 15 -85 15 0 19 16 5 22 -5 2 -5 13 0 27
7 18 14 22 33 17 21 -5 24 -2 28 32 3 20 5 38 4 38 -1 1 -17 4 -37 8 l-37 7
-11 -66z m55 29 c-3 -9 -6 -20 -6 -25 0 -5 -4 -9 -10 -9 -11 0 -14 33 -3 43
12 13 25 7 19 -9z"/>
<path d="M3547 3493 c-3 -10 -8 -31 -12 -48 -3 -16 -8 -37 -11 -46 -3 -11 3
-18 16 -22 19 -5 39 8 22 15 -5 1 -4 29 3 61 9 45 9 57 -1 57 -7 0 -15 -8 -17
-17z"/>
<path d="M3595 3479 c-4 -17 -4 -33 -1 -36 7 -8 106 -11 110 -4 2 3 7 21 11
39 5 24 3 32 -8 32 -8 0 -19 -15 -25 -32 l-10 -33 -1 33 c-1 36 -23 41 -29 6
-2 -10 -8 -23 -14 -29 -7 -7 -8 1 -3 23 5 25 3 32 -8 32 -9 0 -18 -13 -22 -31z"/>
<path d="M3185 3492 c-2 -3 -2 -9 1 -13 7 -13 224 -11 224 1 0 6 -24 10 -52
10 -29 1 -79 2 -110 4 -32 1 -60 1 -63 -2z"/>
<path d="M6303 3366 c13 -10 17 -28 17 -84 0 -80 13 -102 61 -102 27 0 29 -3
29 -36 0 -28 4 -35 17 -32 14 3 17 19 18 106 l2 102 -36 -1 c-20 -1 -28 -3
-18 -6 13 -4 17 -15 17 -59 0 -51 -1 -54 -25 -54 -32 0 -39 28 -31 115 l6 65
-38 0 c-33 -1 -35 -2 -19 -14z"/>
<path d="M6480 3370 c0 -5 6 -10 13 -10 9 0 11 -30 9 -125 l-3 -125 43 -1 c24
-1 46 -1 51 0 4 1 12 -10 17 -24 13 -35 42 -33 38 3 -3 25 -7 27 -55 30 l-53
3 0 130 0 129 -30 0 c-16 0 -30 -4 -30 -10z"/>
<path d="M6902 3363 c-17 -16 -21 -35 -27 -140 -6 -120 -6 -123 14 -123 20 0
21 6 21 119 0 95 3 123 16 135 12 12 20 13 35 6 15 -9 19 -22 19 -70 0 -53 2
-60 20 -60 17 0 20 7 20 50 0 41 -5 56 -25 75 -28 29 -65 32 -93 8z"/>
<path d="M5490 3220 c0 -137 2 -152 20 -170 12 -12 33 -20 53 -20 l32 0 -2
-54 c-3 -57 4 -70 31 -60 14 6 16 27 14 173 -3 149 -5 166 -20 169 -16 3 -18
-6 -18 -92 0 -95 0 -96 -25 -96 -41 0 -48 29 -43 172 l5 128 -24 0 -23 0 0
-150z"/>
<path d="M5785 3338 c-7 -19 -15 -56 -17 -83 l-3 -49 38 -7 c27 -4 43 -2 53 8
18 19 18 27 -1 20 -11 -5 -13 0 -8 26 9 49 9 49 -4 54 -7 2 -17 -13 -24 -39
-27 -94 -35 -61 -13 55 6 30 19 35 28 12 9 -23 28 -18 24 8 -2 16 -11 23 -31
25 -23 3 -30 -2 -42 -30z"/>
<path d="M6046 3357 c2 -7 -4 -53 -16 -101 -24 -104 -25 -126 -5 -126 9 0 15
9 15 23 0 13 7 46 15 73 9 27 18 62 20 78 2 15 7 37 10 47 5 15 1 19 -19 19
-17 0 -24 -4 -20 -13z"/>
<path d="M6699 3339 c-27 -39 -36 -116 -19 -161 17 -42 49 -78 70 -78 19 0 49
32 69 72 19 37 10 131 -16 166 -30 41 -75 42 -104 1z m81 2 c11 -21 14 -179 4
-205 -7 -19 -45 -21 -62 -4 -8 8 -12 47 -12 108 0 61 4 100 12 108 18 18 46
14 58 -7z"/>
<path d="M7043 3356 c16 -12 18 -29 16 -132 l-2 -119 39 -5 c31 -4 39 -9 39
-25 0 -15 -7 -20 -27 -20 -15 -1 -30 -4 -34 -8 -9 -9 68 -9 90 -1 9 3 16 16
16 29 0 23 -22 35 -67 35 -21 0 -23 5 -23 55 l0 55 40 0 c33 0 40 -3 40 -20 0
-11 7 -20 15 -20 20 0 20 46 -1 54 -9 3 -34 6 -56 6 l-40 0 4 63 3 62 -35 3
c-32 2 -33 1 -17 -12z"/>
<path d="M7226 3341 c-8 -13 4 -69 18 -80 6 -5 22 -11 35 -13 24 -3 25 -6 22
-72 -2 -59 1 -71 20 -92 17 -18 33 -24 66 -24 63 0 83 24 83 100 0 60 0 60
-29 60 -29 0 -30 -2 -33 -52 -3 -45 -6 -53 -23 -53 -18 0 -20 8 -23 92 l-3 92
-42 3 c-37 3 -42 6 -39 26 3 18 -2 22 -22 22 -14 0 -27 -4 -30 -9z"/>
<path d="M5674 3295 c-22 -34 -8 -89 23 -93 37 -5 69 78 41 106 -19 19 -46 14
-64 -13z m43 -31 c-3 -20 -9 -39 -12 -42 -12 -12 -17 9 -11 43 9 47 31 47 23
-1z"/>
<path d="M6089 3307 c0 -1 -3 -26 -5 -55 -4 -41 -2 -54 11 -58 16 -7 45 12 45
28 0 6 -7 5 -15 -2 -13 -11 -14 -7 -9 32 5 36 3 46 -10 51 -9 4 -16 5 -17 4z"/>
<path d="M5884 3289 c-3 -5 0 -9 6 -9 8 0 10 -13 5 -41 -5 -31 -4 -40 6 -37 6
2 14 14 16 27 4 31 25 69 30 54 4 -10 -6 -78 -19 -133 -2 -7 4 -15 13 -17 19
-5 28 23 36 109 l5 57 -46 -1 c-26 0 -49 -4 -52 -9z"/>
<path d="M2024 3230 l6 -30 -84 0 c-82 0 -85 -1 -110 -31 -32 -38 -32 -50 -3
-85 22 -25 30 -27 121 -32 97 -5 98 -5 94 18 -3 21 -8 23 -90 24 -90 1 -116
11 -105 41 6 14 32 16 214 15 192 -1 208 0 214 17 4 10 5 21 2 26 -2 4 -53 7
-112 7 l-108 0 5 30 c4 27 2 30 -23 30 -25 0 -27 -3 -21 -30z"/>
<path d="M2825 3228 c-2 -7 -10 -47 -18 -88 -8 -41 -17 -82 -19 -90 -2 -10 6
-16 25 -18 26 -3 39 12 16 20 -9 3 -8 18 2 58 12 49 14 52 17 24 3 -27 8 -33
33 -36 32 -5 36 0 41 42 4 38 -15 40 -26 3 -12 -44 -26 -42 -19 2 5 31 3 35
-12 29 -15 -6 -17 -2 -13 29 3 26 0 37 -9 37 -8 0 -15 -6 -18 -12z"/>
<path d="M3765 3231 c-6 -6 -41 -11 -80 -13 -68 -3 -70 -4 -73 -30 -3 -26 -1
-28 32 -28 29 0 36 4 36 20 0 17 7 20 44 20 57 0 76 -8 76 -31 0 -23 -2 -23
-105 -24 -78 0 -80 -1 -83 -25 -3 -25 -3 -25 83 -25 80 0 88 2 106 24 37 45 2
150 -36 112z"/>
<path d="M3858 3221 c11 -6 11 -20 3 -66 -6 -32 -11 -60 -11 -62 0 -2 6 -3 14
-3 10 0 17 16 22 45 3 25 11 45 16 45 5 0 6 -9 3 -20 -7 -21 9 -50 26 -50 17
0 49 40 49 60 0 32 -26 23 -38 -12 l-12 -33 5 33 c4 27 1 32 -16 32 -16 0 -19
4 -14 20 5 17 2 20 -27 20 -22 0 -28 -3 -20 -9z"/>
<path d="M2326 3163 c-11 -29 -6 -63 9 -63 10 0 15 10 15 30 0 17 5 30 11 30
7 0 9 -11 6 -30 -5 -22 -3 -30 7 -30 16 0 26 21 26 55 0 20 -5 23 -34 23 -21
0 -37 -6 -40 -15z"/>
<path d="M2420 3163 c0 -10 -3 -28 -6 -40 -6 -21 -3 -23 32 -22 33 0 36 2 17
9 -19 8 -21 13 -14 34 10 26 6 36 -16 36 -7 0 -13 -8 -13 -17z"/>
<path d="M2516 3169 c-15 -43 -33 -129 -28 -133 3 -3 17 -6 31 -5 14 0 20 3
14 6 -7 2 -13 18 -13 35 0 25 4 29 23 26 25 -3 24 -4 36 40 8 28 7 32 -9 32
-10 0 -25 3 -34 6 -9 3 -18 0 -20 -7z m30 -57 c-12 -11 -18 7 -10 30 l8 23 4
-23 c2 -13 1 -26 -2 -30z"/>
<path d="M2616 3168 c-7 -23 -26 -119 -26 -129 0 -5 15 -9 33 -9 27 1 30 3 16
13 -10 8 -13 20 -8 37 11 39 10 100 -1 100 -6 0 -12 -6 -14 -12z"/>
<path d="M2667 3173 c-3 -5 -8 -23 -12 -40 l-7 -33 61 0 c65 0 67 1 72 45 3
22 0 30 -11 30 -9 0 -16 -11 -18 -27 -2 -16 -7 -28 -11 -28 -4 0 -5 14 -3 31
3 24 1 30 -9 27 -8 -2 -15 -17 -17 -31 -2 -15 -10 -27 -17 -27 -11 0 -12 6 -5
24 8 23 5 36 -11 36 -4 0 -10 -3 -12 -7z"/>
<path d="M3174 3135 c-3 -20 -4 -38 -1 -41 11 -11 27 8 27 32 0 13 5 24 11 24
6 0 8 -11 5 -27 -3 -16 -8 -43 -11 -60 -6 -28 -4 -33 13 -33 15 0 19 6 17 25
-2 15 3 29 13 35 12 6 13 9 3 10 -10 0 -12 9 -7 35 7 35 6 35 -28 35 -32 0
-36 -3 -42 -35z"/>
<path d="M3276 3148 c-10 -38 -7 -58 8 -58 8 0 17 14 21 30 4 17 10 30 14 30
4 0 6 -13 3 -30 -5 -35 13 -41 22 -7 12 47 8 57 -28 57 -26 0 -35 -5 -40 -22z"/>
<path d="M3376 3139 c-9 -48 -8 -49 27 -48 19 1 24 3 13 6 -15 4 -17 11 -13
39 7 45 -18 47 -27 3z"/>
<path d="M3459 3142 c-5 -13 -10 -45 -12 -70 -1 -35 2 -47 14 -50 12 -2 15 4
11 28 -4 28 -2 30 27 30 26 0 31 4 31 24 0 13 3 31 6 39 4 11 -4 16 -31 19
-32 4 -38 1 -46 -20z m43 -17 c-2 -14 -8 -25 -13 -25 -10 0 -12 34 -2 43 13
14 20 6 15 -18z"/>
<path d="M3560 3136 c0 -13 -3 -43 -6 -67 -6 -42 -5 -45 20 -47 14 -1 26 3 26
8 0 6 -6 10 -14 10 -11 0 -12 10 -1 60 12 56 11 60 -6 60 -13 0 -19 -7 -19
-24z"/>
<path d="M2950 3142 c0 -15 18 -18 112 -21 81 -2 127 11 73 21 -48 10 -185 9
-185 0z"/>
<path d="M1225 2789 c-11 -4 -14 -8 -7 -8 8 -1 12 -21 12 -66 0 -70 4 -76 55
-79 20 -1 25 -6 25 -28 0 -18 5 -28 15 -28 12 0 15 16 15 85 0 84 0 85 -25 85
-14 0 -25 -4 -25 -10 0 -5 5 -10 10 -10 6 0 10 -18 10 -40 0 -36 -2 -40 -25
-40 -24 0 -25 2 -25 69 0 39 -3 72 -7 74 -5 3 -17 1 -28 -4z"/>
<path d="M1489 2774 c-10 -13 -10 -17 2 -25 8 -5 18 -9 23 -9 7 0 4 -25 -10
-72 -4 -15 1 -18 34 -18 38 0 40 2 44 35 5 44 -18 48 -27 5 -4 -16 -11 -30
-17 -30 -9 0 -7 21 8 71 3 11 -3 19 -18 22 -22 6 -22 7 -3 21 20 15 20 15 -1
16 -12 0 -27 -7 -35 -16z"/>
<path d="M5470 2780 c0 -5 7 -10 16 -10 13 0 15 -18 13 -127 -1 -142 -9 -128
74 -132 30 -1 37 -5 37 -21 0 -24 38 -28 46 -5 11 27 -16 45 -67 45 l-49 0 0
124 c0 120 -1 124 -22 130 -33 8 -48 7 -48 -4z"/>
<path d="M1927 2773 c-3 -5 -8 -24 -12 -43 -10 -55 -16 -70 -24 -70 -4 0 -6
14 -3 30 6 42 -23 41 -32 -1 -8 -41 -2 -48 35 -46 28 2 33 7 44 45 7 23 18 49
25 57 6 8 9 19 5 25 -7 12 -32 14 -38 3z"/>
<path d="M1970 2728 c-6 -29 -14 -61 -17 -70 -3 -13 1 -18 16 -18 12 0 21 -4
21 -10 0 -5 -7 -10 -16 -10 -8 0 -13 -4 -9 -10 7 -11 47 2 53 18 2 6 -5 15
-16 21 -27 14 -18 64 9 56 11 -4 19 -2 19 4 0 6 -7 11 -16 11 -12 0 -14 7 -9
30 5 23 3 30 -8 30 -10 0 -19 -18 -27 -52z"/>
<path d="M2247 2773 c-13 -12 -7 -33 9 -33 16 0 17 -18 2 -80 -2 -11 7 -16 35
-18 30 -3 37 0 37 15 0 10 3 28 6 41 7 26 -14 31 -22 5 -17 -53 -24 -55 -18
-5 5 43 3 52 -10 52 -19 0 -21 16 -3 23 6 3 3 6 -9 6 -11 1 -24 -2 -27 -6z"/>
<path d="M2560 2723 c-7 -32 -15 -64 -18 -71 -3 -8 5 -16 18 -19 22 -6 22 -7
4 -20 -18 -13 -17 -14 11 -11 35 4 47 33 17 40 -32 9 -17 58 17 59 24 2 24 2
3 6 -20 4 -22 9 -16 39 5 26 3 34 -8 34 -10 0 -19 -20 -28 -57z"/>
<path d="M2624 2765 c-4 -8 -1 -22 6 -30 6 -8 10 -33 8 -56 -3 -41 -2 -41 30
-44 19 -2 35 2 37 9 15 48 15 66 0 66 -9 0 -18 -12 -21 -30 -4 -16 -11 -30
-16 -30 -10 0 -6 37 7 71 4 11 -1 18 -17 23 -22 6 -23 7 -4 21 19 15 19 15 -2
15 -13 0 -25 -7 -28 -15z"/>
<path d="M2835 2767 c-20 -15 -13 -37 12 -37 9 0 13 -6 10 -14 -3 -8 -9 -31
-13 -50 -6 -36 -6 -36 29 -36 33 0 37 3 43 35 3 20 4 38 1 41 -10 10 -27 -7
-27 -26 0 -10 -5 -22 -11 -25 -7 -5 -8 7 -4 39 6 39 5 46 -9 46 -21 0 -20 10
2 26 14 11 15 13 1 14 -8 0 -23 -6 -34 -13z"/>
<path d="M3213 2769 c-26 -10 -30 -37 -8 -46 13 -4 14 -15 9 -49 l-6 -44 35 0
c32 0 35 3 40 33 6 42 -9 58 -23 23 -5 -15 -10 -32 -10 -37 0 -5 -5 -9 -11 -9
-7 0 -9 9 -6 23 3 12 9 34 12 50 6 22 4 26 -9 21 -10 -4 -16 -1 -16 9 0 8 6
17 13 20 6 2 10 7 7 9 -3 3 -15 2 -27 -3z"/>
<path d="M5903 2773 c-18 -7 -16 -30 2 -41 13 -7 14 -16 7 -50 -11 -48 -9 -52
33 -52 28 0 33 4 39 31 9 44 8 49 -8 49 -7 0 -16 -13 -19 -30 -4 -16 -11 -30
-16 -30 -6 0 -6 12 0 32 13 45 11 58 -6 58 -8 0 -15 5 -15 10 0 6 5 10 10 10
6 0 10 5 10 10 0 10 -16 12 -37 3z"/>
<path d="M3146 2758 c-8 -27 -26 -107 -26 -117 0 -6 7 -11 15 -11 20 0 19 -10
-2 -26 -16 -12 -17 -13 -1 -14 44 -1 65 30 32 48 -23 13 -13 45 16 53 25 7 25
7 3 14 -18 6 -20 11 -12 32 12 32 12 33 -6 33 -9 0 -17 -6 -19 -12z"/>
<path d="M6175 2758 c-11 -34 -33 -128 -29 -129 2 -1 8 -2 13 -3 18 -2 24 -16
8 -16 -9 0 -17 -4 -17 -10 0 -11 20 -13 44 -4 22 8 20 33 -3 42 -25 10 -10 52
19 52 11 0 20 5 20 10 0 6 -9 10 -21 10 -16 0 -19 4 -14 18 11 28 11 34 -2 39
-7 3 -15 -1 -18 -9z"/>
<path d="M6682 2753 c-27 -23 -43 -133 -20 -133 10 0 17 19 24 62 5 37 15 63
23 66 14 5 13 -9 -5 -102 -5 -21 -3 -27 7 -24 21 7 36 113 19 133 -16 19 -23
19 -48 -2z"/>
<path d="M6766 2742 c3 -16 1 -46 -5 -68 -7 -24 -7 -42 -1 -48 14 -14 20 -5
28 44 4 24 13 45 21 48 10 3 11 -3 7 -26 -6 -24 -3 -30 13 -35 12 -3 24 -1 27
4 3 5 0 9 -6 9 -6 0 -10 8 -9 18 3 33 -1 42 -21 42 -14 0 -20 6 -18 18 2 11
-4 18 -19 20 -20 3 -22 0 -17 -26z"/>
<path d="M1376 2718 c-3 -7 -7 -25 -10 -40 l-6 -28 60 0 c55 0 60 2 66 25 7
30 -2 59 -16 50 -5 -3 -10 -17 -10 -30 0 -13 -5 -27 -11 -31 -8 -5 -10 3 -7
25 6 41 -20 43 -28 1 -4 -16 -11 -30 -16 -30 -5 0 -6 16 -2 35 4 23 2 35 -5
35 -6 0 -13 -6 -15 -12z"/>
<path d="M1616 2712 c-5 -14 -3 -28 4 -37 9 -11 7 -20 -9 -41 -14 -18 -18 -31
-12 -38 12 -15 71 -20 71 -6 0 5 -9 10 -20 10 -21 0 -29 33 -10 45 13 8 13 55
1 55 -5 0 -11 8 -13 18 -3 14 -6 13 -12 -6z"/>
<path d="M1785 2718 c-2 -7 -6 -26 -7 -43 -3 -27 0 -30 30 -33 18 -2 32 1 32
7 0 6 -7 11 -16 11 -11 0 -15 8 -12 32 3 32 -18 52 -27 26z"/>
<path d="M1687 2713 c-3 -5 -7 -21 -8 -38 -3 -22 0 -30 11 -30 8 0 16 11 18
25 2 14 8 29 12 34 6 5 7 -6 3 -27 -3 -23 -2 -37 5 -37 14 0 18 8 27 48 6 31
6 32 -29 32 -19 0 -37 -3 -39 -7z"/>
<path d="M2051 2670 c-6 -28 -11 -59 -11 -69 0 -20 36 -35 46 -20 3 5 -2 9
-11 9 -11 0 -15 6 -12 18 3 9 8 34 12 55 3 20 11 37 16 37 7 0 8 -12 4 -30 -5
-23 -3 -30 8 -30 14 0 27 28 27 63 0 13 -8 17 -34 17 -33 0 -35 -2 -45 -50z"/>
<path d="M2359 2693 c-13 -34 -11 -53 5 -53 7 0 16 14 20 30 3 17 10 30 15 30
6 0 6 -12 1 -30 -6 -23 -5 -30 5 -30 15 0 25 22 25 54 0 19 -6 23 -31 23 -23
0 -33 -6 -40 -24z"/>
<path d="M5677 2713 c-3 -5 -8 -23 -12 -40 -5 -25 -3 -33 8 -33 8 0 17 13 21
30 3 17 10 30 15 30 6 0 6 -12 1 -30 -7 -25 -6 -30 10 -30 13 0 19 9 22 35 2
20 2 38 -1 40 -7 8 -59 6 -64 -2z"/>
<path d="M5777 2713 c-7 -11 -22 -86 -19 -95 1 -5 -5 -8 -14 -8 -9 0 -14 -7
-12 -17 2 -10 12 -18 23 -18 16 0 21 12 32 64 8 38 9 69 4 74 -5 5 -11 5 -14
0z"/>
<path d="M5820 2694 c-18 -47 -13 -61 23 -62 31 -1 35 2 45 35 13 41 10 48
-13 40 -8 -4 -15 -18 -15 -32 0 -14 -5 -25 -11 -25 -7 0 -9 12 -5 35 8 42 -9
48 -24 9z"/>
<path d="M2451 2648 c-7 -35 -14 -65 -14 -68 -1 -3 8 -6 20 -8 16 -2 20 1 17
15 -7 28 10 106 24 111 8 2 10 -5 6 -27 -7 -36 10 -43 20 -8 11 40 7 47 -27
47 -32 0 -33 -1 -46 -62z"/>
<path d="M2940 2693 c0 -10 -3 -28 -6 -40 -10 -37 22 -28 34 10 l10 32 1 -33
c1 -45 24 -37 32 11 l6 37 -39 0 c-29 0 -38 -4 -38 -17z"/>
<path d="M3029 2639 c-15 -66 -15 -69 4 -75 10 -3 24 -1 30 5 8 8 7 11 -2 11
-10 0 -12 11 -6 48 8 57 25 80 25 34 0 -41 16 -42 24 -1 9 45 9 45 -27 46 -32
1 -33 0 -48 -68z"/>
<path d="M6365 2696 c-16 -54 -15 -68 5 -73 15 -4 20 -12 18 -32 -2 -20 2 -27
20 -29 12 -2 22 1 22 7 0 6 -4 11 -9 11 -5 0 -7 9 -4 20 3 11 8 20 12 20 4 0
6 19 5 41 -2 39 -4 42 -34 44 -17 2 -33 -2 -35 -9z m39 -28 c-8 -27 -12 -33
-19 -27 -7 8 7 49 17 49 5 0 6 -10 2 -22z"/>
<path d="M6467 2693 c-3 -5 -7 -21 -8 -38 -4 -30 -4 -30 52 -33 52 -3 57 -1
63 20 10 38 7 58 -9 58 -10 0 -15 -10 -15 -30 0 -16 -5 -30 -11 -30 -7 0 -9
11 -5 30 4 22 2 30 -8 30 -8 0 -17 -13 -21 -30 -4 -16 -10 -30 -14 -30 -4 0
-6 14 -3 30 4 27 -10 42 -21 23z"/>
<path d="M6602 2642 c-16 -79 -16 -82 16 -82 19 0 23 3 13 9 -14 9 -12 47 5
109 4 15 2 22 -8 22 -9 0 -18 -20 -26 -58z"/>
<path d="M2155 2620 c-3 -6 1 -7 9 -4 18 7 21 14 7 14 -6 0 -13 -4 -16 -10z"/>
<path d="M1560 2386 c0 -108 1 -115 21 -121 12 -4 26 -2 31 3 6 6 17 8 24 5 8
-3 14 0 14 6 0 6 -4 11 -10 11 -6 0 -10 42 -10 105 0 63 -4 105 -10 105 -6 0
-10 -44 -10 -111 0 -84 -3 -110 -12 -107 -9 3 -14 37 -16 111 -4 145 -22 139
-22 -7z"/>
<path d="M1676 2483 c-3 -10 -6 -63 -8 -117 -1 -73 1 -101 10 -104 10 -3 12
20 11 96 -1 55 2 105 5 111 15 24 26 8 26 -39 0 -27 5 -50 10 -50 13 0 13 76
0 101 -13 24 -47 25 -54 2z"/>
<path d="M1767 2493 c-4 -3 -7 -52 -7 -108 0 -104 7 -125 41 -125 22 0 27 7
35 58 5 35 4 42 -10 42 -11 0 -16 -7 -15 -22 4 -42 -1 -58 -16 -58 -11 0 -15
12 -15 45 0 43 1 45 30 45 17 0 30 5 30 10 0 6 -14 10 -31 10 -30 0 -30 0 -28
50 3 49 -2 66 -14 53z"/>
<path d="M1859 2498 c0 -2 -1 -56 -2 -121 -2 -88 1 -117 11 -117 8 0 12 23 12
80 0 47 4 80 10 80 6 0 10 -20 10 -44 0 -26 6 -48 15 -56 24 -20 8 90 -16 112
-10 9 -19 28 -19 42 0 14 -4 26 -10 26 -5 0 -10 -1 -11 -2z"/>
<path d="M1952 2383 l3 -118 27 -3 c32 -4 43 14 50 81 l6 47 -35 0 -34 0 2 52
c2 34 -1 53 -9 56 -10 3 -12 -24 -10 -115z m48 -59 c0 -59 -24 -55 -28 4 -2
33 0 42 12 42 12 0 16 -11 16 -46z"/>
<path d="M2058 2494 c-5 -4 -8 -58 -8 -121 l0 -113 30 0 c17 0 30 5 30 10 0 6
-9 10 -20 10 -18 0 -20 8 -22 111 -2 61 -6 107 -10 103z"/>
<path d="M2236 2490 c-3 -8 -6 -63 -8 -123 -2 -80 0 -107 10 -107 8 0 12 23
12 80 0 66 2 78 15 74 11 -4 15 -21 15 -55 0 -28 5 -49 10 -49 7 0 10 22 8 58
-3 51 -5 57 -27 60 -18 3 -22 8 -19 27 6 29 -8 58 -16 35z"/>
<path d="M2145 2481 c-3 -6 -7 -41 -8 -79 -1 -48 -5 -70 -16 -79 -14 -10 -14
-12 0 -18 11 -4 15 -14 12 -26 -4 -13 0 -19 11 -19 12 0 16 7 14 23 -2 18 2
23 25 25 33 4 26 22 -9 22 -32 0 -32 27 1 42 30 13 42 50 29 87 -10 27 -47 41
-59 22z m43 -45 c4 -33 -12 -56 -28 -40 -13 13 -1 76 14 71 6 -2 12 -16 14
-31z"/>
<path d="M2430 2398 c0 -126 5 -140 44 -136 l31 3 3 95 c2 71 7 97 18 103 19
11 9 27 -17 27 -18 0 -19 -8 -19 -105 0 -87 -3 -105 -15 -105 -12 0 -15 18
-15 105 0 87 -3 105 -15 105 -12 0 -15 -17 -15 -92z"/>
<path d="M2557 2483 c-11 -11 -8 -233 3 -233 6 0 10 44 10 111 0 84 3 110 13
107 8 -3 13 -37 15 -111 1 -60 7 -107 12 -107 13 0 13 181 0 214 -9 25 -38 35
-53 19z"/>
<path d="M2651 2490 c-1 -3 -4 -55 -7 -117 -4 -73 -2 -113 5 -118 8 -4 11 20
11 75 0 61 3 81 13 77 6 -2 13 -17 13 -33 2 -58 4 -64 20 -64 13 0 14 3 5 14
-7 8 -11 29 -9 48 2 38 -7 58 -27 58 -8 0 -15 14 -18 33 -2 17 -5 30 -6 27z"/>
<path d="M2747 2472 c-20 -21 -27 -214 -8 -220 8 -3 11 26 11 96 0 76 4 102
15 112 12 10 18 10 30 0 23 -19 19 -48 -7 -52 -19 -2 -23 -9 -23 -42 0 -49 28
-72 51 -42 8 11 14 32 14 47 0 18 6 29 18 32 16 4 16 5 0 6 -12 1 -18 9 -18
25 0 49 -52 73 -83 38z m61 -104 c-3 -35 -20 -45 -26 -15 -5 24 4 47 18 47 7
0 10 -14 8 -32z"/>
<path d="M2869 2438 c0 -29 -1 -82 -2 -118 l-2 -65 33 -3 c18 -2 32 1 32 7 0
6 -12 11 -26 11 -24 0 -25 3 -22 43 3 37 7 42 31 45 34 4 36 22 2 22 -24 0
-25 3 -25 55 0 30 -4 55 -10 55 -5 0 -10 -24 -11 -52z"/>
<path d="M2940 2471 c0 -6 5 -13 10 -16 6 -3 10 -46 10 -94 0 -89 8 -111 41
-111 24 0 27 7 30 69 2 36 -1 56 -9 59 -8 2 -12 -13 -12 -52 0 -56 -13 -74
-25 -36 -3 11 -3 49 0 85 6 55 4 69 -10 86 -19 20 -35 25 -35 10z"/>
<path d="M5489 2373 c-3 -85 2 -148 13 -160 8 -10 28 -13 65 -10 29 2 56 1 58
-4 4 -6 14 -6 45 1 3 0 -3 5 -12 11 -14 8 -15 15 -8 35 6 14 10 36 10 50 0 13
5 24 11 24 7 0 9 -11 6 -30 -5 -21 -3 -30 7 -30 14 0 30 55 20 71 -3 5 -18 9
-34 9 -28 0 -30 -3 -41 -59 -11 -52 -14 -57 -26 -43 -7 10 -12 46 -13 88 0 54
-4 73 -15 78 -13 4 -15 -9 -15 -85 0 -81 -2 -90 -17 -87 -15 3 -19 18 -23 87
-3 55 -9 86 -17 89 -9 2 -13 -9 -14 -35z"/>
<path d="M5731 2334 c-6 -37 -11 -67 -9 -69 2 -1 21 -5 44 -7 l40 -6 -2 42
c-2 46 -27 58 -32 16 -2 -14 -8 -29 -14 -35 -11 -10 -8 17 8 93 5 24 3 32 -8
32 -10 0 -18 -21 -27 -66z"/>
<path d="M6319 2313 c1 -49 8 -94 13 -100 6 -7 23 -13 38 -13 30 0 44 12 54
48 6 19 4 22 -18 22 -22 0 -26 -4 -26 -30 0 -16 -4 -30 -10 -30 -6 0 -10 38
-10 95 0 92 -1 95 -22 95 -22 0 -23 -2 -19 -87z"/>
<path d="M5980 2380 c-13 -9 -13 -12 3 -21 18 -11 23 -54 7 -79 -14 -23 -24
-3 -12 25 9 20 9 25 -1 25 -34 0 -49 -48 -22 -70 22 -18 63 2 71 35 3 14 11
25 18 25 7 0 7 3 1 8 -6 4 -16 19 -24 35 -16 30 -19 31 -41 17z"/>
<path d="M6378 2338 c7 -7 12 -20 12 -31 0 -14 5 -17 23 -11 30 9 30 9 17 33
-7 13 -21 21 -37 21 -21 0 -24 -3 -15 -12z"/>
<path d="M6065 2294 c-11 -62 17 -59 30 4 5 25 3 32 -8 32 -9 0 -17 -14 -22
-36z"/>
<path d="M6116 2313 c-2 -10 -7 -28 -11 -40 -5 -20 -3 -22 32 -20 37 3 48 17
52 65 2 26 -27 10 -37 -20 l-12 -33 5 33 c3 23 1 32 -10 32 -7 0 -16 -8 -19
-17z"/>
<path d="M6209 2305 c-1 -14 -2 -30 -3 -37 -1 -6 5 -13 12 -15 7 -3 12 4 12
14 0 11 7 28 16 39 14 18 15 18 10 1 -3 -11 -8 -30 -11 -43 -3 -13 -7 -35 -10
-49 -5 -21 -2 -25 18 -25 21 0 23 4 19 26 -3 16 1 30 9 35 12 7 12 9 0 9 -7 0
-11 6 -8 13 21 56 21 57 -22 57 -37 0 -41 -3 -42 -25z"/>
<path d="M6466 2318 c-3 -7 -7 -31 -10 -53 -3 -22 -9 -50 -12 -62 -5 -20 -2
-23 20 -23 25 0 36 15 16 22 -6 2 -7 16 -1 38 22 84 22 90 6 90 -9 0 -17 -6
-19 -12z"/>
<path d="M6515 2316 c-14 -48 -14 -66 -1 -66 8 0 17 14 21 30 4 17 11 30 16
30 4 0 6 -13 3 -30 -5 -23 -3 -30 9 -30 12 0 27 38 27 69 0 11 -72 8 -75 -3z"/>
<path d="M6616 2318 c-18 -55 -16 -66 11 -72 14 -4 31 -2 36 3 8 8 4 11 -12
11 -21 0 -23 4 -18 30 6 29 -9 54 -17 28z"/>
<path d="M1947 2168 c-18 -32 -18 -32 5 -50 l23 -18 -37 -69 c-43 -80 -43 -81
-23 -81 7 0 36 -5 64 -11 37 -8 48 -14 44 -25 -3 -8 0 -14 6 -14 6 0 11 13 11
29 0 28 -3 30 -55 41 -30 6 -55 13 -55 15 0 2 18 34 39 72 l39 68 -24 18 c-19
15 -22 22 -14 38 18 33 -4 21 -23 -13z"/>
<path d="M2286 2168 c-23 -21 -25 -31 -29 -141 -4 -111 -3 -118 14 -115 17 3
19 15 23 120 3 65 8 122 11 128 11 18 44 11 56 -11 6 -12 9 -42 6 -65 -4 -41
-3 -44 19 -44 21 0 24 5 24 38 0 58 -10 82 -41 97 -38 20 -54 19 -83 -7z"/>
<path d="M2058 2174 c9 -4 12 -41 12 -135 l0 -129 40 0 c28 0 43 -5 47 -16 8
-20 -15 -36 -45 -31 -12 3 -25 0 -28 -4 -9 -16 93 -10 105 5 23 27 -4 56 -50
56 l-40 0 3 58 c3 54 4 57 31 60 33 4 58 -13 50 -34 -3 -9 2 -14 16 -14 15 0
21 6 21 24 0 28 -16 36 -77 36 l-44 0 2 63 3 62 -30 2 c-16 1 -23 0 -16 -3z"/>
<path d="M2543 2163 c15 -4 17 -19 17 -134 0 -119 2 -130 18 -127 15 3 17 19
20 136 l3 132 -38 -1 c-21 -1 -30 -3 -20 -6z"/>
<path d="M2710 2160 c0 -5 5 -10 10 -10 6 0 10 -45 10 -114 0 -124 3 -131 58
-142 21 -4 40 -1 57 10 23 15 24 21 27 129 2 66 7 112 13 112 6 0 11 -10 13
-23 4 -24 32 -28 39 -5 9 25 -35 53 -82 53 -25 0 -45 -4 -45 -10 0 -5 7 -10
15 -10 12 0 15 -18 15 -101 0 -112 -9 -139 -45 -139 -29 0 -27 -6 -25 153 l2
107 -31 0 c-17 0 -31 -4 -31 -10z"/>
<path d="M3080 2150 c-17 -17 -20 -33 -20 -125 0 -58 -1 -108 -2 -112 -2 -5 7
-9 19 -11 21 -3 22 0 19 63 l-3 66 41 -3 c34 -2 42 -7 44 -25 4 -29 42 -32 42
-4 0 28 -20 40 -75 44 l-50 5 1 41 c2 78 64 97 64 20 0 -32 3 -39 20 -39 16 0
20 7 20 33 0 20 -8 41 -18 50 -25 23 -78 21 -102 -3z"/>
<path d="M3499 2151 c-23 -18 -24 -25 -24 -137 0 -105 2 -119 18 -122 15 -3
17 7 17 111 0 64 3 122 6 131 4 9 18 16 35 16 24 0 29 -5 34 -32 3 -18 4 -46
3 -63 -2 -24 1 -30 17 -30 18 0 20 6 17 55 -2 40 -9 60 -24 73 -27 22 -70 22
-99 -2z"/>
<path d="M3238 2151 c10 -6 13 -32 12 -92 -2 -128 -1 -136 16 -153 25 -26 81
-20 109 10 l25 27 0 -27 c0 -19 5 -26 20 -26 16 0 20 7 20 30 0 25 -4 30 -25
30 l-25 0 0 105 0 105 -37 -1 c-21 -1 -30 -3 -20 -6 15 -4 17 -18 17 -118 0
-124 -9 -147 -49 -125 -19 10 -21 20 -21 130 l0 120 -27 0 c-19 0 -24 -3 -15
-9z"/>
<path d="M2633 2089 c15 -9 18 -22 16 -67 -2 -47 0 -58 15 -60 15 -3 17 4 14
65 -3 68 -3 68 -33 71 -26 2 -27 1 -12 -9z"/>
<path d="M5175 1880 c-4 -6 6 -10 21 -10 23 0 26 -3 21 -27 -3 -16 -19 -66
-37 -113 -82 -221 -85 -236 -45 -276 23 -23 33 -25 80 -22 30 1 55 2 55 1 0
-1 -8 -18 -17 -38 -15 -31 -15 -37 -3 -46 8 -5 30 -8 49 -7 l34 3 52 155 c29
85 57 166 62 180 6 14 13 42 17 63 l7 37 -58 -1 c-32 0 -52 -3 -45 -6 19 -7
16 -17 -39 -171 -43 -118 -57 -145 -76 -153 -84 -32 -81 3 29 309 23 62 39
114 37 116 -11 9 -139 14 -144 6z"/>
<path d="M6395 1818 c-3 -29 -13 -91 -21 -138 -8 -47 -17 -105 -21 -130 -3
-25 -13 -76 -23 -115 -26 -101 -45 -223 -37 -232 13 -13 137 -17 137 -4 0 6
-11 11 -25 11 -37 0 -40 21 -21 129 33 192 48 242 84 278 31 31 65 42 76 25 2
-4 -2 -41 -10 -82 -20 -105 -18 -133 9 -158 29 -28 70 -28 108 -1 35 25 39 48
4 25 -13 -9 -32 -16 -41 -16 -17 0 -17 3 3 158 7 60 -3 91 -35 103 -36 14 -90
-2 -122 -36 -27 -29 -45 -33 -31 -7 5 10 17 58 26 108 8 49 18 99 21 112 4 20
1 22 -35 22 l-39 0 -7 -52z m-60 -538 c3 -5 1 -10 -4 -10 -6 0 -11 5 -11 10 0
6 2 10 4 10 3 0 8 -4 11 -10z"/>
<path d="M7270 1829 c-55 -36 -58 -43 -28 -64 19 -13 21 -17 8 -25 -44 -25
-101 -73 -123 -102 -69 -91 -55 -246 23 -262 30 -6 80 10 80 26 0 4 5 8 10 8
6 0 10 -9 10 -20 0 -16 7 -20 30 -20 33 0 32 -3 49 128 9 72 8 88 -7 120 -21
44 -56 64 -99 58 -18 -3 -33 -3 -33 -1 0 2 21 15 48 30 26 15 57 37 70 48 l22
21 -21 22 -21 23 21 13 c20 12 28 29 14 27 -5 0 -28 -14 -53 -30z m-19 -179
c13 -7 19 -21 19 -45 0 -51 -29 -168 -47 -187 -22 -24 -50 -22 -64 4 -17 31 6
179 33 213 22 28 30 30 59 15z"/>
<path d="M1569 1662 c0 -103 -1 -366 -1 -584 l-1 -398 31 -62 c38 -76 85 -129
140 -157 72 -37 212 -24 251 23 12 14 18 12 51 -14 21 -17 42 -30 48 -30 6 0
33 43 62 96 l51 97 -28 31 c-15 17 -33 34 -39 38 -6 4 -19 19 -28 33 -14 21
-15 29 -5 41 9 11 9 14 -1 14 -9 0 -11 109 -9 484 l3 484 -28 41 c-28 40 -30
41 -90 42 -118 2 -170 -1 -176 -12 -4 -6 -11 -4 -19 5 -10 12 -35 15 -112 15
l-99 -1 -1 -186z m181 116 c0 -18 0 -259 0 -535 0 -499 0 -502 20 -513 17 -9
27 -8 46 5 l24 15 1 483 c1 265 2 502 3 527 l1 45 82 3 82 3 -4 -527 -5 -527
37 -31 36 -32 -21 -39 c-11 -22 -27 -49 -35 -59 -14 -19 -15 -19 -32 7 -21 32
-33 33 -87 6 -46 -23 -109 -27 -165 -8 -57 18 -82 38 -106 83 -22 41 -22 47
-25 571 -1 291 0 535 2 542 4 9 28 13 76 13 l70 0 0 -32z"/>
<path d="M8150 1832 c-97 -7 -109 -84 -16 -106 27 -7 28 -9 22 -44 -19 -111
-36 -231 -36 -259 0 -75 94 -101 152 -43 16 17 31 30 32 30 1 0 1 -14 -2 -31
-4 -30 -4 -30 34 -27 l39 3 12 95 c7 52 15 116 19 141 l6 47 -37 4 c-21 2 -38
0 -40 -6 -1 -6 -8 -47 -15 -91 -17 -110 -47 -164 -92 -165 -39 0 -37 40 16
323 5 25 3 27 -29 27 -54 0 -85 16 -85 44 0 25 16 36 55 36 26 0 42 16 22 21
-6 2 -32 3 -57 1z"/>
<path d="M7493 1774 c-4 -10 1 -22 11 -30 14 -10 17 -21 11 -53 l-7 -41 35 0
c27 0 36 5 41 23 9 35 7 47 -9 47 -9 0 -15 -9 -15 -24 0 -14 -4 -28 -10 -31
-13 -8 -13 26 0 59 8 23 7 26 -10 26 -25 0 -26 16 -2 29 14 9 13 10 -11 11
-17 0 -30 -7 -34 -16z"/>
<path d="M5490 1736 c0 -13 -3 -31 -6 -40 -5 -14 3 -16 54 -16 64 0 72 6 72
56 0 34 -19 30 -26 -6 -4 -16 -10 -30 -15 -30 -5 0 -6 14 -2 30 4 23 2 30 -10
30 -9 0 -17 -13 -21 -35 -4 -19 -12 -35 -17 -35 -9 0 -7 17 8 58 3 7 -3 12
-16 12 -16 0 -21 -6 -21 -24z"/>
<path d="M5637 1723 c-4 -21 -9 -52 -13 -69 -5 -26 -2 -32 15 -37 12 -3 24 -1
27 4 3 5 0 9 -7 9 -8 0 -9 12 -5 38 10 55 16 72 26 72 5 0 5 -13 0 -30 -11
-38 6 -51 20 -15 19 50 13 65 -24 65 -31 0 -34 -3 -39 -37z"/>
<path d="M5736 1744 c-3 -9 -6 -27 -6 -40 0 -21 5 -24 40 -25 22 -1 45 -2 51
-3 15 -1 41 72 28 79 -15 10 -29 -5 -29 -30 0 -13 -5 -27 -11 -30 -7 -5 -8 5
-4 29 6 28 4 36 -8 36 -9 0 -17 -14 -21 -35 -4 -20 -11 -33 -16 -30 -6 3 -5
16 0 31 13 33 13 34 -4 34 -8 0 -17 -7 -20 -16z"/>
<path d="M5886 1738 c-34 -119 -34 -128 2 -128 19 0 23 3 14 9 -21 13 -10 45
18 51 14 3 26 10 26 15 1 6 4 22 8 38 6 26 5 27 -29 27 -20 0 -37 -6 -39 -12z
m38 -32 c-6 -25 -24 -37 -24 -15 0 15 21 52 26 46 3 -3 2 -16 -2 -31z"/>
<path d="M5976 1719 c-3 -17 -6 -35 -6 -40 0 -5 27 -9 60 -9 50 0 60 3 60 18
0 9 3 27 6 40 5 16 2 22 -10 22 -9 0 -16 -8 -16 -17 0 -10 -5 -25 -11 -33 -8
-12 -9 -7 -6 18 5 42 -21 44 -30 2 -3 -17 -10 -33 -16 -37 -6 -4 -7 7 -3 31 5
28 4 36 -7 36 -8 0 -17 -14 -21 -31z"/>
<path d="M6118 1683 c-9 -38 -16 -68 -15 -69 13 -9 57 -12 57 -4 0 5 -5 10
-11 10 -11 0 -8 46 8 108 3 15 1 22 -9 22 -9 0 -20 -24 -30 -67z"/>
<path d="M6176 1735 c-3 -9 -6 -28 -6 -41 0 -22 3 -24 55 -24 57 0 62 4 67 49
4 36 -19 37 -27 2 -4 -17 -11 -31 -16 -31 -5 0 -5 10 1 25 6 15 6 26 0 30 -14
9 -30 -3 -30 -23 0 -9 -5 -24 -11 -32 -7 -11 -9 -7 -7 19 3 36 -15 54 -26 26z"/>
<path d="M7372 1694 c-13 -42 -6 -47 64 -42 48 3 49 4 52 37 3 24 0 32 -10 29
-7 -3 -14 -14 -16 -26 -2 -12 -8 -22 -13 -22 -7 0 -8 12 -4 31 6 24 4 30 -6
27 -8 -3 -16 -13 -17 -24 -2 -10 -9 -23 -14 -29 -7 -7 -9 0 -5 23 9 45 -16 43
-31 -4z"/>
<path d="M7616 1666 c-22 -76 -21 -86 12 -86 19 0 23 3 14 9 -21 13 -10 45 18
51 14 3 26 10 27 15 1 6 5 23 8 38 7 26 5 27 -28 27 -34 0 -36 -2 -51 -54z
m46 9 c-5 -16 -11 -25 -14 -20 -6 11 10 61 17 53 2 -2 1 -17 -3 -33z"/>
<path d="M7722 1662 c-16 -79 -16 -82 16 -82 19 0 23 3 13 9 -14 9 -12 47 5
109 4 15 2 22 -8 22 -9 0 -18 -20 -26 -58z"/>
<path d="M7779 1695 c-1 -14 -2 -30 -3 -37 -1 -16 106 -20 116 -5 4 7 8 25 8
40 0 37 -24 31 -28 -6 -2 -15 -8 -27 -14 -27 -6 0 -8 12 -4 30 4 23 2 30 -9
30 -9 0 -18 -13 -21 -30 -4 -16 -11 -30 -16 -30 -6 0 -8 13 -4 30 4 22 2 30
-9 30 -9 0 -16 -10 -16 -25z"/>
<path d="M6735 1666 c-2 -6 -6 -32 -9 -58 -3 -26 -14 -72 -24 -102 -10 -30
-16 -70 -14 -90 4 -34 6 -36 43 -36 38 0 39 1 39 33 0 19 9 78 20 132 12 54
20 105 18 114 -4 18 -68 25 -73 7z"/>
<path d="M7490 1545 c-13 -16 -6 -35 15 -35 10 0 13 -8 9 -27 -13 -64 -11 -68
24 -70 34 -1 36 1 46 50 5 20 3 27 -9 27 -9 0 -18 -12 -21 -30 -4 -16 -11 -30
-16 -30 -5 0 -7 8 -5 18 18 65 18 72 -3 72 -25 0 -26 9 -2 26 16 12 16 13 -4
14 -12 0 -27 -7 -34 -15z"/>
<path d="M5485 1494 c-3 -20 -5 -37 -3 -39 2 -2 28 -5 58 -6 l54 -3 9 38 c5
20 7 40 4 43 -11 10 -27 -9 -27 -32 0 -13 -5 -27 -12 -31 -8 -5 -9 3 -5 29 4
27 2 37 -8 37 -14 0 -25 -21 -25 -51 0 -10 -5 -19 -11 -19 -7 0 -9 12 -5 35 5
27 4 35 -7 35 -9 0 -18 -15 -22 -36z"/>
<path d="M5640 1506 c-14 -38 -29 -110 -24 -118 3 -5 14 -8 26 -8 15 0 18 3
10 13 -7 8 -7 26 2 59 14 54 32 79 23 31 -4 -18 -2 -35 4 -39 14 -8 15 -5 23
37 6 35 5 37 -25 41 -25 4 -32 1 -39 -16z"/>
<path d="M5737 1523 c-2 -5 -7 -25 -11 -46 l-7 -38 56 2 c31 1 58 7 60 13 14
49 15 66 0 66 -8 0 -15 -8 -15 -17 0 -10 -5 -25 -11 -33 -8 -12 -9 -7 -6 18 5
42 -21 44 -29 2 -4 -16 -11 -30 -16 -30 -5 0 -7 13 -3 29 6 27 -8 52 -18 34z"/>
<path d="M5886 1521 c-4 -6 -36 -129 -36 -137 0 -2 12 -4 28 -4 16 0 22 3 15
8 -22 14 -3 52 26 53 24 2 24 2 3 6 -18 4 -23 10 -20 31 2 14 9 27 16 30 9 3
11 -3 6 -22 -7 -28 10 -37 20 -10 12 30 6 42 -24 46 -17 3 -32 2 -34 -1z"/>
<path d="M5977 1513 c-3 -5 -7 -21 -8 -38 -4 -30 -4 -30 54 -33 60 -3 59 -4
71 51 5 20 2 27 -8 27 -8 0 -17 -13 -21 -30 -10 -44 -28 -50 -20 -6 6 29 4 36
-9 36 -10 0 -16 -9 -16 -22 0 -13 -5 -30 -11 -38 -8 -11 -9 -6 -5 23 3 27 1
37 -9 37 -8 0 -16 -3 -18 -7z"/>
<path d="M6126 1512 c-4 -7 -20 -104 -21 -126 0 -5 12 -11 28 -13 15 -2 27 1
27 7 0 5 -7 10 -16 10 -10 0 -14 6 -11 18 3 9 8 31 12 47 3 17 8 38 11 48 5
17 -20 25 -30 9z"/>
<path d="M6176 1508 c-20 -65 -20 -66 40 -70 51 -3 57 -1 65 20 5 13 9 32 9
43 0 29 -24 18 -28 -12 -2 -13 -8 -28 -14 -34 -7 -7 -8 2 -4 28 6 29 4 37 -8
37 -9 0 -18 -13 -22 -35 -3 -19 -10 -35 -16 -35 -5 0 -6 15 -2 35 4 23 2 35
-5 35 -6 0 -13 -6 -15 -12z"/>
<path d="M7375 1488 c-3 -8 -7 -27 -8 -42 -2 -27 0 -28 51 -30 48 -2 55 0 63
22 13 34 11 52 -6 52 -8 0 -15 -8 -15 -17 0 -10 -5 -25 -11 -33 -7 -11 -9 -7
-7 19 4 46 -18 51 -26 6 -4 -19 -12 -35 -17 -35 -6 0 -7 9 -4 23 11 35 11 39
-2 44 -7 3 -15 -2 -18 -9z"/>
<path d="M7614 1463 c-3 -16 -10 -41 -15 -57 -14 -44 -11 -53 16 -58 25 -5 36
7 14 14 -21 7 1 48 25 48 12 0 23 6 23 13 0 6 4 24 8 40 7 26 6 27 -29 27 -31
0 -36 -4 -42 -27z m46 -18 c0 -14 -4 -25 -10 -25 -5 0 -10 11 -10 25 0 14 5
25 10 25 6 0 10 -11 10 -25z"/>
<path d="M7712 1424 c-7 -37 -11 -68 -10 -69 12 -10 48 -14 48 -6 0 6 -5 11
-11 11 -6 0 -8 8 -5 18 3 9 8 38 12 65 5 37 3 47 -8 47 -9 0 -18 -23 -26 -66z"/>
<path d="M7777 1483 c-3 -5 -8 -23 -12 -40 l-7 -33 61 0 c60 0 61 0 69 33 10
34 1 54 -17 43 -6 -4 -11 -16 -11 -26 0 -10 -5 -22 -11 -26 -8 -4 -9 3 -4 25
5 24 3 31 -8 31 -9 0 -18 -13 -22 -30 -10 -45 -29 -51 -21 -6 6 32 -5 50 -17
29z"/>
<path d="M2231 1116 c-10 -11 -8 -16 8 -21 16 -5 21 -16 23 -53 2 -39 7 -48
24 -50 18 -3 22 3 26 31 4 41 0 59 -13 51 -5 -3 -9 2 -9 10 0 9 -7 16 -15 16
-9 0 -12 6 -9 15 8 19 -19 20 -35 1z"/>
<path d="M2342 1118 c-14 -14 -16 -68 -3 -68 5 0 12 8 14 18 3 9 5 -5 4 -32
-1 -31 2 -50 11 -53 8 -3 12 9 13 39 1 24 4 33 6 21 2 -13 9 -23 14 -23 14 0
11 48 -5 57 -8 4 -15 17 -17 27 -5 24 -21 30 -37 14z"/>
<path d="M2500 1060 c0 -49 5 -76 14 -86 19 -18 36 -18 36 1 0 8 -7 15 -15 15
-10 0 -15 11 -15 35 0 19 5 35 10 35 6 0 10 -9 10 -20 0 -11 5 -20 10 -20 19
0 11 48 -10 55 -11 3 -20 15 -20 25 0 10 -4 22 -10 25 -6 4 -10 -20 -10 -65z"/>
<path d="M2755 1120 c-3 -5 -1 -18 5 -29 5 -11 10 -62 10 -113 l0 -94 38 -37
c40 -39 75 -47 106 -24 25 19 17 48 -21 72 -20 13 -32 28 -33 43 0 27 21 29
45 2 22 -24 75 -27 75 -5 0 34 -31 75 -63 83 -17 5 -33 5 -35 0 -2 -4 -13 -8
-25 -7 -12 0 -16 3 -9 6 19 8 14 67 -8 91 -21 23 -74 30 -85 12z m66 -57 c0
-27 0 -74 -1 -105 -1 -58 -1 -58 27 -58 37 0 57 -18 42 -37 -18 -21 -48 -17
-42 6 4 16 -1 20 -26 23 l-31 3 -3 108 c-2 97 -1 107 15 107 15 0 18 -9 19
-47z m103 -59 c23 -9 20 -44 -3 -44 -12 0 -20 9 -23 25 -5 26 -1 29 26 19z"/>
<path d="M2422 1050 c0 -54 3 -70 14 -70 8 0 14 7 14 15 0 8 7 15 15 15 23 0
19 66 -5 90 -11 11 -24 20 -29 20 -4 0 -8 -31 -9 -70z"/>
<path d="M2570 1105 c0 -8 7 -15 15 -15 11 0 15 -12 15 -50 0 -37 4 -52 16
-57 21 -8 30 5 38 50 6 33 5 37 -14 37 -11 0 -20 7 -20 15 0 8 -5 15 -11 15
-5 0 -7 5 -4 10 3 6 -3 10 -14 10 -12 0 -21 -7 -21 -15z m57 -77 c-3 -7 -5 -2
-5 12 0 14 2 19 5 13 2 -7 2 -19 0 -25z"/>
<path d="M3000 1068 c1 -52 16 -88 39 -88 7 0 11 21 11 55 0 42 -3 55 -15 55
-8 0 -15 7 -15 15 0 8 -4 15 -10 15 -5 0 -10 -24 -10 -52z m27 -40 c-3 -8 -6
-5 -6 6 -1 11 2 17 5 13 3 -3 4 -12 1 -19z"/>
<path d="M3248 1115 c-2 -2 -1 -34 2 -72 l5 -68 33 -3 c35 -4 44 16 17 38 -13
10 -15 9 -15 -10 0 -32 -6 -22 -14 23 -6 33 -5 37 13 37 31 0 21 42 -12 51
-14 4 -27 6 -29 4z"/>
<path d="M3347 1104 c-11 -11 -8 -134 3 -134 6 0 10 16 10 35 0 25 4 35 16 35
11 0 14 8 12 32 -3 31 -25 48 -41 32z"/>
<path d="M3080 1040 c0 -6 30 -10 70 -10 40 0 70 4 70 10 0 6 -30 10 -70 10
-40 0 -70 -4 -70 -10z"/>
<path d="M5516 1001 c-17 -19 -20 -35 -30 -154 -4 -55 -4 -58 17 -55 20 3 22
10 27 85 5 84 17 110 44 100 14 -6 16 -34 16 -212 l0 -205 25 0 25 0 0 105 0
105 30 0 c25 0 30 4 30 25 0 21 -5 25 -30 25 l-30 0 0 74 c0 59 -4 78 -21 100
-25 32 -77 36 -103 7z"/>
<path d="M5741 994 c-12 -15 -21 -34 -21 -43 -13 -406 -13 -409 22 -396 10 4
14 48 16 198 2 105 5 200 8 210 4 12 13 17 27 15 22 -3 22 -5 22 -216 0 -209
0 -212 21 -212 20 0 21 5 23 128 1 70 4 156 7 192 6 71 -12 132 -41 144 -34
13 -64 5 -84 -20z"/>
<path d="M5907 1013 c-3 -5 -7 -109 -8 -233 -4 -207 -3 -225 14 -228 15 -3 17
6 17 85 0 135 9 193 30 193 26 0 37 -19 45 -77 8 -61 20 -80 58 -89 23 -5 27
-3 27 14 0 12 -9 23 -20 27 -16 5 -20 15 -20 56 0 70 -11 85 -65 94 l-47 6 4
75 c2 55 0 75 -10 79 -18 7 -20 6 -25 -2z"/>
<path d="M6174 1013 c-51 -10 -55 -26 -61 -258 l-6 -217 24 4 c24 3 24 5 24
105 l0 103 58 0 c55 0 58 1 55 23 -3 19 -9 22 -53 23 l-50 1 -3 80 c-2 62 1
83 12 93 32 26 46 5 46 -68 0 -75 4 -86 30 -72 18 9 26 75 11 84 -5 3 -6 17
-4 30 4 17 -3 32 -20 50 -15 14 -30 25 -34 25 -4 -1 -18 -4 -29 -6z"/>
<path d="M6288 800 c-1 -115 -2 -220 -2 -232 -1 -22 3 -23 69 -23 65 0 70 2
73 23 3 20 0 22 -50 22 l-53 0 2 67 c2 38 4 132 5 211 3 141 3 142 -19 142
l-23 0 -2 -210z"/>
<path d="M6455 998 c-3 -7 -4 -107 -2 -221 2 -193 3 -210 21 -223 39 -28 94
-11 108 35 3 11 7 11 20 -3 21 -21 28 -20 28 2 0 11 -9 27 -20 37 -20 18 -21
28 -18 199 3 175 2 181 -17 181 -19 0 -20 -8 -25 -207 -3 -129 -9 -211 -16
-218 -6 -6 -19 -8 -29 -4 -17 7 -18 20 -11 221 6 210 6 213 -14 213 -11 0 -23
-6 -25 -12z"/>
<path d="M6657 993 c-4 -3 -7 -107 -7 -230 0 -216 1 -223 20 -223 18 0 20 7
21 83 1 45 0 97 -1 115 -3 60 9 92 36 92 13 0 24 -1 24 -2 1 -2 3 -28 6 -58 8
-91 36 -122 97 -106 31 7 46 42 53 127 7 71 7 71 -17 67 -22 -3 -24 -7 -25
-69 -1 -72 -7 -89 -30 -89 -20 0 -34 42 -34 106 l0 54 -53 0 -53 0 4 70 c4 64
3 70 -15 70 -11 0 -23 -3 -26 -7z"/>
<path d="M7192 981 c-19 -11 -31 -74 -32 -153 0 -68 3 -75 29 -59 13 9 17 37
20 144 1 33 4 37 27 37 l25 0 -3 -207 -3 -208 25 0 c28 0 27 -3 29 132 1 70 1
72 29 75 19 2 27 9 27 23 0 15 -7 20 -27 20 l-28 -1 0 77 c0 62 -4 81 -21 103
-21 27 -69 35 -97 17z"/>
<path d="M7410 970 c-14 -14 -21 -35 -22 -72 -1 -29 -3 -69 -4 -88 -1 -19 3
-41 8 -47 7 -9 7 -13 -1 -13 -7 0 -11 -35 -11 -109 0 -90 3 -110 16 -115 9 -3
19 -4 22 -2 4 2 8 98 10 212 3 223 8 242 51 215 12 -8 14 -37 12 -153 -1 -79
-4 -173 -7 -210 -5 -67 -5 -68 19 -68 l24 0 7 198 c7 199 5 223 -22 255 -21
24 -77 22 -102 -3z"/>
<path d="M7565 777 c-4 -117 -6 -221 -4 -232 3 -11 12 -21 22 -23 15 -3 17 8
18 120 1 68 1 128 0 135 -2 17 17 26 44 19 20 -5 25 -14 31 -64 9 -76 18 -92
54 -92 34 0 42 25 11 35 -14 4 -20 19 -26 63 -8 69 -26 92 -73 92 l-34 0 4 80
c3 76 2 80 -18 80 -21 0 -22 -4 -29 -213z"/>
<path d="M7812 973 c-19 -17 -22 -33 -29 -228 -4 -115 -8 -214 -8 -220 0 -5
10 -11 23 -13 22 -3 22 -1 23 100 1 57 1 107 0 111 -1 5 18 8 41 7 71 -3 78
-1 78 20 0 18 -7 20 -55 20 l-56 0 3 88 c3 87 3 87 31 90 22 3 27 -1 29 -20 0
-13 2 -27 3 -33 2 -5 3 -29 4 -52 1 -37 4 -43 22 -43 20 0 21 4 17 68 -6 86
-27 122 -73 122 -18 0 -42 -8 -53 -17z"/>
<path d="M7965 981 c-3 -6 -5 -57 -4 -113 1 -57 1 -157 -1 -223 l-2 -120 76
-3 c71 -3 76 -1 76 18 0 18 -6 20 -55 20 l-55 0 3 212 c2 191 0 213 -15 216
-9 2 -19 -2 -23 -7z"/>
<path d="M8136 982 c-3 -3 -6 -99 -6 -214 l0 -209 26 -25 c19 -20 31 -24 52
-19 33 8 52 23 52 41 0 19 16 18 24 -1 3 -8 10 -15 16 -15 17 0 11 29 -11 59
-19 26 -20 38 -16 205 3 174 3 177 -17 174 -20 -3 -21 -10 -24 -193 -1 -104
-4 -200 -7 -211 -6 -28 -30 -37 -49 -19 -14 14 -15 145 -2 362 3 53 1 62 -15
66 -10 3 -20 2 -23 -1z"/>
<path d="M8340 843 c0 -76 -3 -182 -6 -235 l-6 -98 26 0 26 0 0 145 0 145 29
0 c28 0 29 -2 36 -66 9 -87 43 -118 100 -92 28 13 46 52 49 106 1 22 8 48 16
58 9 11 10 15 3 10 -8 -4 -13 -2 -13 4 0 6 -12 10 -27 8 -27 -3 -28 -4 -25
-63 4 -67 -12 -101 -41 -89 -14 5 -17 19 -17 80 l0 74 -55 0 -54 0 -3 72 c-2
60 -6 73 -20 76 -16 3 -18 -9 -18 -135z"/>
</g>
</svg>
