<?xml version="1.0" standalone="no"?>
<!DOCTYPE svg PUBLIC "-//W3C//DTD SVG 20010904//EN"
 "http://www.w3.org/TR/2001/REC-SVG-20010904/DTD/svg10.dtd">
<svg version="1.0" xmlns="http://www.w3.org/2000/svg"
 width="439.000000pt" height="600.000000pt" viewBox="0 0 439.000000 600.000000"
 preserveAspectRatio="xMidYMid meet">
<metadata>
Created by potrace 1.15, written by Peter Selinger 2001-2017
</metadata>
<g transform="translate(0.000000,600.000000) scale(0.100000,-0.100000)"
fill="#000000" stroke="none">
<path d="M2106 5444 c-5 -12 -1 -14 16 -8 18 5 20 3 13 -12 -16 -39 -18 -60
-6 -48 6 6 14 27 18 47 5 32 3 37 -15 37 -11 0 -23 -7 -26 -16z"/>
<path d="M2183 5453 c-18 -7 -16 -40 3 -47 8 -3 12 -11 9 -16 -5 -8 -12 -7
-23 2 -13 11 -14 11 -10 -2 2 -8 13 -15 24 -15 25 0 32 43 8 52 -16 6 -16 7 1
13 10 4 14 9 9 12 -5 3 -15 3 -21 1z"/>
<path d="M2806 5145 c5 -11 -1 -15 -20 -15 -14 0 -26 -4 -26 -10 0 -5 5 -10
10 -10 6 0 10 -43 10 -110 0 -103 1 -110 20 -110 18 0 20 7 20 85 0 47 4 85 9
85 19 0 32 -31 29 -72 -2 -37 0 -43 17 -43 16 0 21 8 23 42 4 58 -11 83 -50
83 -30 0 -31 0 -26 45 4 34 2 45 -8 45 -8 0 -11 -6 -8 -15z"/>
<path d="M1880 5140 c0 -6 -11 -8 -25 -4 -23 6 -37 -10 -16 -18 5 -1 12 -42
16 -89 7 -90 -2 -129 -30 -129 -25 0 -35 37 -35 134 0 85 -2 96 -17 96 -16 0
-18 -10 -13 -110 5 -121 10 -130 67 -130 20 0 40 8 53 22 l20 22 0 -22 c0 -20
19 -30 32 -16 11 11 -4 42 -24 47 -18 5 -19 13 -16 106 2 56 0 101 -4 101 -5
0 -8 -5 -8 -10z"/>
<path d="M1670 5130 c-15 -9 -5 -30 16 -30 19 0 18 -19 -2 -41 -13 -14 -21
-16 -36 -8 -10 6 -27 8 -36 6 -14 -4 -13 -6 6 -12 27 -9 27 -6 2 -47 -10 -18
-21 -49 -22 -68 l-3 -35 69 -3 69 -3 -6 46 c-4 26 -14 60 -24 75 -16 28 -16
30 1 49 31 34 2 94 -34 71z m24 -182 l7 -38 -37 0 -36 0 7 36 c3 20 11 45 18
55 10 16 12 17 23 1 6 -9 14 -34 18 -54z"/>
<path d="M2190 5120 c-17 -17 -20 -33 -20 -126 0 -94 2 -105 17 -102 15 3 18
19 21 113 3 115 11 137 40 119 12 -8 18 -27 20 -63 2 -36 7 -51 18 -51 20 0
19 93 -2 114 -22 22 -70 20 -94 -4z"/>
<path d="M2527 5122 c-24 -26 -25 -232 -2 -232 12 0 15 18 15 104 0 82 3 108
16 120 8 9 19 16 24 16 18 0 32 -44 27 -81 -4 -34 -2 -39 14 -39 16 0 19 7 19
49 0 40 -4 53 -22 65 -30 21 -71 20 -91 -2z"/>
<path d="M3612 5130 c-28 -12 -29 -14 -36 -137 -6 -98 -5 -103 14 -103 19 0
20 7 20 103 0 109 7 131 36 125 16 -3 20 -14 22 -61 3 -62 12 -69 50 -38 25
22 29 33 7 25 -8 -4 -15 -1 -15 5 0 6 6 11 13 11 9 0 9 2 0 8 -6 4 -11 9 -11
12 -2 22 -18 40 -44 49 -17 6 -31 11 -32 10 -1 0 -11 -4 -24 -9z"/>
<path d="M1947 5122 c8 -5 13 -45 15 -117 2 -90 6 -110 18 -110 12 0 16 16 18
73 4 92 25 94 32 3 5 -65 16 -81 57 -81 34 0 53 37 53 101 0 53 -2 57 -26 63
-27 7 -50 -3 -26 -11 14 -5 17 -129 3 -138 -15 -9 -22 10 -27 72 -4 57 -20 83
-51 83 -8 0 -13 13 -13 35 0 33 -2 35 -32 35 -20 0 -28 -3 -21 -8z"/>
<path d="M2323 5123 c15 -4 17 -18 17 -119 l0 -114 34 0 c57 0 57 -34 1 -43
-21 -3 -16 -4 18 -6 41 -1 49 2 56 22 12 30 8 33 -38 41 -38 6 -38 7 -39 51
-1 49 8 60 44 51 15 -4 24 -14 24 -26 0 -23 28 -27 36 -5 10 26 -16 45 -62 45
l-44 0 0 55 0 55 -32 -1 c-18 -1 -25 -3 -15 -6z"/>
<path d="M3075 5119 c-8 -12 14 -31 26 -23 16 9 17 -14 3 -34 -13 -19 -22 -21
-57 -17 -42 6 -42 6 -12 -8 20 -9 25 -16 17 -21 -16 -10 -38 -53 -47 -93 l-7
-33 71 0 71 0 0 33 c0 17 -9 47 -21 66 -20 33 -20 35 -2 68 13 25 15 37 7 51
-14 21 -40 27 -49 11z m25 -160 c13 -48 8 -59 -31 -59 -34 0 -38 20 -14 76 17
42 31 37 45 -17z"/>
<path d="M3150 5120 c0 -5 5 -10 10 -10 6 0 10 -40 10 -99 0 -111 7 -125 67
-125 25 0 41 7 54 23 l19 23 0 -27 c0 -32 23 -29 28 4 3 16 -2 24 -17 28 -19
5 -21 13 -21 99 l0 94 -37 0 c-32 -1 -35 -3 -22 -13 17 -13 31 -127 22 -185
-5 -29 -9 -33 -32 -30 l-26 3 -3 113 c-3 112 -3 112 -27 112 -14 0 -25 -4 -25
-10z"/>
<path d="M3340 5120 c0 -5 7 -10 15 -10 12 0 15 -19 15 -110 0 -98 2 -110 18
-110 15 0 17 8 14 60 -5 75 2 97 23 80 10 -8 15 -31 15 -64 0 -58 12 -76 50
-76 40 0 50 18 50 92 l0 68 -32 0 c-28 0 -30 -1 -14 -13 23 -17 20 -132 -4
-132 -11 0 -16 15 -18 60 -4 67 -14 85 -50 85 -23 0 -24 3 -19 40 5 40 5 40
-29 40 -19 0 -34 -4 -34 -10z"/>
<path d="M1762 4814 c-20 -14 -22 -24 -22 -100 0 -74 2 -85 17 -82 13 2 16 14
15 53 -1 61 6 105 19 105 5 0 9 -36 9 -80 0 -73 2 -80 20 -80 17 0 20 7 20 40
0 22 5 40 10 40 6 0 10 7 10 15 0 8 -4 15 -10 15 -5 0 -10 11 -10 25 0 23 -31
65 -48 65 -4 0 -18 -7 -30 -16z"/>
<path d="M2793 4823 c-9 -3 -13 -29 -13 -84 0 -64 -3 -79 -15 -79 -12 0 -15
16 -15 81 0 69 -2 80 -17 77 -14 -3 -16 -16 -14 -88 2 -51 7 -88 14 -93 12 -7
86 -1 96 8 2 3 -1 15 -7 28 -7 12 -13 52 -14 88 -2 47 -7 65 -15 62z"/>
<path d="M1622 4808 c-12 -12 -17 -159 -6 -171 3 -3 12 -3 20 0 11 4 13 15 8
39 l-6 34 41 0 c29 0 41 4 41 14 0 8 -4 17 -10 21 -5 3 -7 12 -4 20 3 7 1 23
-6 34 -12 24 -58 29 -78 9z m51 -38 c4 -15 0 -20 -14 -20 -18 0 -26 20 -12 33
11 12 21 8 26 -13z"/>
<path d="M1870 4806 c0 -8 7 -21 15 -30 10 -9 15 -34 15 -71 0 -50 3 -57 26
-67 37 -17 58 0 62 51 2 32 0 41 -12 41 -12 0 -16 -10 -16 -36 0 -62 -25 -35
-28 32 -2 42 -9 64 -22 76 -23 22 -40 23 -40 4z"/>
<path d="M2022 4728 l3 -93 40 0 c48 0 58 28 13 33 -20 2 -28 9 -28 23 0 15 7
19 35 19 46 0 49 27 3 32 -31 3 -33 5 -32 41 1 30 -3 37 -18 37 -17 0 -19 -7
-16 -92z"/>
<path d="M2152 4808 c-7 -7 -12 -44 -12 -95 0 -66 3 -83 15 -83 11 0 15 18 17
83 3 84 20 114 26 45 4 -53 32 -52 32 0 0 43 -14 62 -45 62 -12 0 -26 -5 -33
-12z"/>
<path d="M2376 4813 c-3 -3 -6 -46 -6 -95 0 -72 3 -88 15 -88 12 0 15 13 15
56 0 40 4 55 13 52 6 -3 13 -17 15 -31 5 -40 32 -35 32 6 0 37 -15 57 -42 57
-11 0 -18 7 -18 19 0 21 -13 34 -24 24z"/>
<path d="M2607 4813 c-4 -3 -7 -30 -7 -60 0 -40 -4 -53 -15 -53 -8 0 -15 -7
-15 -15 0 -9 7 -18 15 -21 8 -4 15 -12 15 -20 0 -8 7 -14 15 -14 8 0 15 7 15
15 0 10 10 15 30 15 23 0 30 4 30 20 0 16 -7 20 -30 20 -38 0 -40 18 -2 22 23
2 28 8 30 36 2 18 -2 40 -9 48 -12 14 -60 19 -72 7z m51 -46 c2 -10 -3 -17
-12 -17 -10 0 -16 9 -16 21 0 24 23 21 28 -4z"/>
<path d="M2844 4798 c3 -13 6 -56 6 -95 0 -58 3 -73 15 -73 12 0 15 13 15 57
0 50 10 67 16 27 5 -33 14 -44 38 -44 31 0 48 29 44 73 -4 43 -33 44 -33 2 0
-16 -4 -30 -10 -30 -5 0 -8 12 -6 28 2 23 -1 27 -23 27 -21 0 -26 5 -26 25 0
19 -5 25 -21 25 -17 0 -20 -4 -15 -22z"/>
<path d="M3021 4811 c-9 -6 -14 -37 -17 -95 -4 -81 -3 -86 16 -86 18 0 20 6
20 81 0 60 3 80 13 77 6 -3 13 -19 15 -36 2 -20 9 -32 18 -32 18 0 20 70 2 88
-14 14 -47 15 -67 3z"/>
<path d="M1602 4423 l3 -128 33 -3 c24 -2 32 -8 32 -23 0 -14 7 -19 25 -19 22
0 25 4 25 39 0 40 -11 51 -50 51 -18 0 -19 8 -15 105 l3 105 -29 0 -30 0 3
-127z"/>
<path d="M1768 4533 c-11 -12 -18 -49 -23 -110 -8 -109 -2 -135 28 -131 25 3
24 -1 26 118 1 83 3 90 21 90 19 0 20 -7 20 -105 l0 -105 25 0 c25 0 25 0 26
98 1 53 0 104 -1 112 -4 29 -33 50 -70 50 -23 0 -43 -7 -52 -17z"/>
<path d="M1932 4541 c-9 -5 -14 -41 -15 -127 l-1 -119 24 0 c24 0 25 4 28 63
3 58 4 62 22 52 12 -6 20 -21 20 -36 0 -24 34 -48 53 -37 11 7 8 41 -5 45 -6
2 -13 15 -15 28 -5 33 -21 50 -49 50 -20 0 -23 6 -26 42 -3 43 -13 54 -36 39z"/>
<path d="M2089 4435 c-1 -63 -2 -121 -3 -127 -1 -8 14 -14 38 -15 45 -3 54 -9
38 -25 -17 -17 -15 -28 6 -28 20 0 52 29 52 48 0 19 -31 42 -56 42 -21 0 -24
5 -24 36 0 36 0 36 35 30 33 -6 35 -5 35 19 0 22 -4 25 -35 25 l-35 0 0 55 c0
52 -1 55 -25 55 l-25 0 -1 -115z"/>
<path d="M2259 4531 c-22 -18 -24 -25 -22 -126 1 -109 9 -133 38 -121 13 5 16
19 15 68 -3 134 -1 150 18 146 12 -2 19 -16 22 -43 4 -32 10 -41 28 -43 24 -4
25 0 22 63 -2 68 -68 99 -121 56z"/>
<path d="M2967 4543 c-2 -5 -4 -62 -3 -128 l1 -120 35 -5 c22 -3 35 -10 35
-20 0 -9 11 -16 28 -18 27 -3 28 -2 25 35 -3 35 -6 38 -35 41 l-33 3 0 110 c0
109 0 109 -24 109 -14 0 -27 -3 -29 -7z"/>
<path d="M3130 4530 c-18 -18 -20 -33 -20 -129 0 -90 3 -110 16 -115 29 -11
34 4 34 104 0 82 3 99 17 104 27 11 34 -14 30 -111 l-3 -93 26 0 27 0 2 99 c2
115 -8 146 -51 155 -47 9 -56 8 -78 -14z"/>
<path d="M3482 4538 c-30 -15 -33 -34 -30 -153 3 -93 4 -100 24 -103 29 -4 34
20 27 124 -5 73 -4 84 12 90 22 9 35 -11 35 -53 0 -28 3 -33 25 -33 23 0 25 3
25 48 0 27 -6 56 -12 64 -17 22 -77 30 -106 16z"/>
<path d="M2610 4415 l0 -125 30 0 29 0 -6 65 c-6 62 -5 65 16 65 17 0 21 -6
21 -30 0 -24 4 -30 21 -30 18 0 20 5 17 47 -3 44 -5 48 -35 57 -29 8 -33 13
-33 42 0 31 -3 34 -30 34 l-30 0 0 -125z"/>
<path d="M3280 4415 l0 -125 25 0 c24 0 25 3 25 61 0 52 2 60 17 57 11 -2 20
-15 23 -32 5 -27 35 -49 53 -39 11 6 9 43 -3 43 -5 0 -10 10 -10 23 0 31 -18
47 -52 47 -27 0 -28 2 -28 45 0 41 -2 45 -25 45 l-25 0 0 -125z"/>
<path d="M1618 4187 c7 -8 6 -31 -4 -76 -8 -35 -14 -73 -12 -85 4 -29 43 -47
78 -35 33 12 46 38 61 124 11 63 29 98 29 55 0 -25 29 -39 40 -19 5 7 4 21 -1
31 -8 14 -22 18 -67 18 -34 0 -52 -4 -44 -9 21 -13 -16 -184 -41 -189 -22 -4
-22 26 -2 105 22 84 21 93 -16 93 -24 0 -29 -3 -21 -13z"/>
<path d="M1871 4173 c-25 -30 -21 -55 15 -94 30 -32 33 -79 4 -79 -16 0 -20 7
-20 36 0 28 -3 35 -17 32 -26 -5 -28 -43 -4 -67 27 -27 47 -26 76 4 24 23 36
73 15 60 -5 -3 -7 0 -4 9 3 8 -3 23 -14 34 -35 35 -44 58 -27 72 20 17 38 2
31 -26 -5 -19 -2 -24 14 -24 14 0 20 7 20 23 0 51 -55 64 -89 20z"/>
<path d="M1990 4190 c0 -5 6 -10 14 -10 12 0 12 -11 0 -72 -24 -123 -24 -121
15 -122 43 -1 51 -21 14 -35 -27 -10 -27 -10 11 -8 68 4 75 56 9 57 -24 0 -27
9 -17 59 5 25 11 31 28 29 13 -2 20 -10 20 -21 -1 -12 5 -17 22 -17 13 0 24 6
24 13 0 21 -22 37 -52 37 -29 0 -29 0 -22 50 l7 50 -37 0 c-20 0 -36 -4 -36
-10z"/>
<path d="M2186 4178 c-20 -31 -50 -178 -38 -190 21 -21 39 5 51 79 16 94 27
126 43 121 8 -3 11 -20 9 -47 -2 -40 -1 -42 21 -39 30 4 37 51 12 79 -25 27
-79 25 -98 -3z"/>
<path d="M2450 4191 c0 -5 5 -11 11 -13 8 -3 7 -26 -5 -82 -21 -102 -21 -108
6 -104 19 3 25 13 37 76 10 52 18 72 29 72 12 0 14 -9 9 -50 -6 -48 -5 -50 18
-50 19 0 24 7 30 40 8 47 -5 70 -41 70 -19 0 -24 5 -24 25 0 22 -4 25 -35 25
-19 0 -35 -4 -35 -9z"/>
<path d="M2765 4190 c4 -6 11 -8 16 -5 5 4 9 -2 9 -12 0 -11 -12 -23 -30 -30
-40 -15 -56 -57 -35 -89 8 -13 21 -24 29 -24 9 0 12 -8 8 -25 -6 -34 24 -34
40 0 6 13 23 28 39 34 46 16 54 87 12 106 -17 7 -21 15 -17 32 6 21 3 23 -36
23 -25 0 -39 -4 -35 -10z m11 -105 c-4 -25 -12 -45 -17 -45 -10 0 -7 33 8 83
9 34 15 8 9 -38z m60 0 c-4 -19 -12 -37 -17 -41 -11 -6 -7 28 8 81 9 31 16 -1
9 -40z"/>
<path d="M2965 4188 c-28 -16 -33 -25 -50 -99 -8 -37 -17 -74 -21 -83 -5 -12
0 -16 18 -16 22 0 26 8 46 92 23 97 30 112 49 100 9 -5 7 -28 -7 -87 -25 -103
-25 -107 2 -103 19 3 25 15 41 86 18 79 18 84 1 103 -19 21 -49 24 -79 7z"/>
<path d="M3080 4191 c0 -5 5 -11 10 -13 7 -2 6 -28 -5 -76 -19 -94 -19 -122 0
-122 18 0 24 12 39 88 8 43 16 58 30 60 16 4 18 0 13 -27 -9 -45 0 -61 37 -60
17 0 25 3 19 6 -7 2 -13 21 -13 42 0 43 -14 61 -47 61 -20 0 -22 4 -17 25 6
23 4 25 -30 25 -20 0 -36 -4 -36 -9z"/>
<path d="M3296 4176 c-15 -14 -28 -45 -36 -82 -6 -32 -14 -69 -17 -81 -4 -19
-1 -23 19 -23 21 0 24 7 40 91 18 96 30 121 49 102 10 -10 -4 -97 -27 -175 -4
-14 1 -18 20 -18 22 0 26 5 32 45 7 47 24 72 24 36 0 -14 6 -21 19 -21 40 0
37 44 -3 54 -19 5 -22 11 -18 31 6 32 -22 65 -55 65 -13 0 -34 -11 -47 -24z"/>
<path d="M2111 3767 c-7 -15 -10 -83 -8 -200 2 -171 3 -180 24 -197 27 -21 68
-16 87 12 10 14 20 18 35 13 28 -9 29 20 1 35 -20 11 -21 20 -19 173 1 158 0
162 -20 165 -21 3 -21 2 -19 -177 3 -186 -2 -211 -37 -197 -15 5 -16 26 -13
190 2 127 0 187 -8 194 -8 7 -15 4 -23 -11z"/>
<path d="M1330 3765 c-7 -9 -10 -27 -6 -48 6 -30 4 -34 -26 -42 -100 -30 -102
-203 -3 -239 26 -10 30 -15 27 -43 -3 -30 -1 -33 22 -33 23 0 26 4 26 34 0 28
5 35 25 40 13 3 36 22 50 41 21 26 26 43 24 77 -5 77 -25 112 -72 123 -23 6
-26 13 -29 53 -3 48 -17 62 -38 37z m-15 -294 c-4 -3 -18 7 -31 22 -35 40 -33
99 4 135 l27 27 3 -89 c2 -49 0 -91 -3 -95z m99 147 c21 -30 21 -106 -1 -130
-34 -37 -43 -23 -43 67 0 67 3 85 14 85 8 0 22 -10 30 -22z"/>
<path d="M1506 3771 c-10 -15 -13 -346 -4 -371 11 -30 25 -40 60 -40 17 0 34
9 46 25 12 15 23 21 27 15 3 -5 10 -10 16 -10 15 0 11 22 -8 43 -16 17 -18 41
-18 181 0 154 -1 161 -20 161 -19 0 -20 -7 -20 -184 0 -165 -2 -185 -18 -195
-33 -21 -38 9 -34 196 3 140 1 178 -9 182 -7 3 -16 1 -18 -3z"/>
<path d="M3610 3770 c-42 -10 -49 -42 -50 -235 -2 -169 -1 -180 17 -180 16 0
18 10 21 93 l3 92 55 0 c51 0 55 2 52 22 -3 20 -8 22 -53 19 l-50 -2 -2 63
c-3 76 3 98 27 98 21 0 30 -27 30 -93 0 -41 3 -48 18 -45 13 2 18 15 20 62 4
85 -25 122 -88 106z"/>
<path d="M1697 3752 c-13 -14 -16 -47 -17 -187 -1 -94 -1 -178 -1 -187 1 -11
9 -18 22 -18 21 0 21 1 15 173 -6 141 -4 175 7 192 13 16 17 17 31 6 12 -10
16 -32 16 -92 0 -70 10 -102 27 -85 3 3 6 43 7 90 1 69 -2 87 -18 105 -23 26
-67 27 -89 3z"/>
<path d="M1934 3755 c12 -32 -5 -72 -37 -86 -87 -38 -85 -199 4 -232 22 -9 29
-18 31 -47 2 -27 7 -35 23 -35 16 0 21 8 23 35 2 29 9 38 32 47 38 14 70 68
70 118 0 50 -32 104 -70 118 -27 10 -30 16 -30 54 0 40 -2 43 -26 43 -19 0
-25 -4 -20 -15z m-4 -200 c0 -67 -3 -85 -14 -85 -42 0 -63 114 -29 152 34 37
43 23 43 -67z m97 55 c19 -37 16 -104 -4 -123 -39 -34 -44 -26 -44 61 0 45 0
85 1 88 1 15 36 -4 47 -26z"/>
<path d="M2304 3749 c-17 -19 -19 -38 -19 -202 0 -164 2 -182 17 -185 16 -3
18 12 20 180 3 181 3 183 26 186 16 2 22 -2 23 -15 0 -10 1 -49 2 -88 2 -57 5
-70 19 -73 34 -7 27 179 -8 205 -26 19 -58 16 -80 -8z"/>
<path d="M2458 3753 c-13 -14 -18 -58 -23 -211 l-8 -194 24 4 c27 3 26 0 28
108 l1 80 50 0 c43 0 50 3 50 20 0 17 -7 20 -50 20 l-50 0 0 75 c0 59 3 77 16
82 24 9 32 -7 36 -72 3 -46 8 -61 21 -63 26 -5 25 128 -1 151 -24 22 -75 22
-94 0z"/>
<path d="M2700 3642 c0 -71 -3 -163 -6 -205 l-7 -77 27 0 26 0 0 116 c0 114 0
115 23 112 19 -3 22 -10 25 -60 3 -50 6 -58 22 -58 18 0 20 7 20 64 0 73 -14
96 -59 96 -28 0 -28 0 -28 68 0 61 -2 67 -22 70 -21 3 -21 1 -21 -126z"/>
<path d="M3060 3727 c0 -39 -3 -45 -32 -58 -47 -21 -71 -60 -71 -114 0 -54 24
-93 71 -114 27 -12 32 -20 32 -49 0 -29 3 -33 23 -30 18 2 21 8 19 35 -3 28 1
32 32 43 49 16 66 47 66 120 0 55 -3 65 -29 91 -16 16 -37 29 -45 29 -12 0
-16 11 -16 45 0 41 -2 45 -25 45 -23 0 -25 -4 -25 -43z m0 -172 c0 -67 -3 -85
-14 -85 -42 0 -63 114 -29 152 34 37 43 23 43 -67z m77 77 c16 -10 33 -57 33
-93 0 -30 -42 -85 -58 -75 -5 3 -9 43 -10 90 -2 87 3 98 35 78z"/>
<path d="M3230 3582 c0 -170 2 -191 18 -205 27 -25 67 -21 90 7 18 23 20 24
35 8 16 -15 17 -15 17 5 0 11 -7 26 -15 33 -12 10 -15 43 -15 176 0 157 -1
164 -20 164 -19 0 -20 -7 -20 -177 0 -98 -4 -184 -9 -192 -5 -8 -16 -11 -25
-8 -14 6 -16 31 -16 192 0 178 -1 185 -20 185 -19 0 -20 -7 -20 -188z"/>
<path d="M3431 3744 c-20 -25 -21 -39 -21 -205 0 -172 1 -179 20 -179 19 0 20
7 20 179 0 148 3 181 15 191 24 20 30 5 35 -88 4 -72 8 -87 23 -90 15 -3 17 6
17 80 0 100 -13 132 -57 136 -24 2 -36 -3 -52 -24z"/>
<path d="M3000 3740 c0 -5 5 -10 10 -10 6 0 10 5 10 10 0 6 -4 10 -10 10 -5 0
-10 -4 -10 -10z"/>
<path d="M2060 3660 c0 -5 5 -10 10 -10 6 0 10 5 10 10 0 6 -4 10 -10 10 -5 0
-10 -4 -10 -10z"/>
<path d="M3725 3560 c3 -5 8 -10 11 -10 2 0 4 5 4 10 0 6 -5 10 -11 10 -5 0
-7 -4 -4 -10z"/>
<path d="M1261 3254 c-12 -15 -21 -39 -21 -54 0 -37 37 -83 61 -77 16 4 19 -1
19 -28 0 -37 -24 -66 -34 -40 -3 9 -18 15 -41 15 -27 0 -34 -3 -28 -12 7 -13
9 -18 11 -50 2 -13 11 -18 32 -18 24 0 30 4 28 18 -2 9 3 17 10 16 6 -1 19 -2
27 -2 9 -1 20 -13 25 -27 7 -17 17 -25 34 -25 56 0 31 54 -30 66 l-34 6 24 29
c71 84 53 209 -30 209 -23 0 -38 -7 -53 -26z m64 -23 c-2 -9 -4 -33 -4 -54 -1
-59 -21 -34 -21 27 0 29 3 56 7 59 9 10 22 -12 18 -32z"/>
<path d="M1659 3273 c-28 -7 -41 -48 -41 -124 1 -180 0 -169 26 -169 l25 0 3
148 c2 81 3 147 3 148 0 0 -7 -1 -16 -3z"/>
<path d="M1692 3210 l0 -70 29 0 c28 0 29 2 29 48 0 34 -5 53 -17 64 -39 33
-41 31 -41 -42z"/>
<path d="M1840 3270 c0 -5 5 -10 10 -10 6 0 10 -9 10 -20 0 -13 -7 -20 -18
-20 -47 0 -78 -89 -48 -135 9 -13 27 -27 41 -31 18 -4 25 -14 27 -37 2 -27 7
-32 28 -32 21 0 25 5 25 29 1 21 8 32 30 44 39 20 45 29 45 80 0 44 -25 82
-55 82 -10 0 -15 10 -15 30 0 28 -2 30 -40 30 -22 0 -40 -4 -40 -10z m20 -136
c0 -47 -4 -73 -10 -69 -18 11 -12 145 7 145 2 0 3 -34 3 -76z m76 0 c-4 -64
-15 -99 -17 -56 -4 90 0 134 11 127 6 -4 8 -33 6 -71z"/>
<path d="M2096 3271 c-7 -13 -4 -71 4 -71 5 0 16 -7 24 -16 12 -11 16 -36 16
-93 0 -82 -12 -107 -44 -95 -17 7 -19 26 -16 192 l1 82 -30 0 -31 0 0 -125 c0
-112 2 -127 20 -145 21 -21 46 -24 99 -14 39 8 52 45 27 73 -14 15 -17 37 -16
98 2 112 2 110 -25 115 -14 3 -27 3 -29 -1z"/>
<path d="M2245 3272 c-42 -9 -45 -19 -45 -158 l0 -134 25 0 25 0 1 123 c1 67
2 130 2 140 0 9 4 17 8 17 5 0 9 -30 9 -66 0 -62 1 -65 22 -62 18 3 22 10 24
52 4 73 -17 99 -71 88z"/>
<path d="M2390 3272 c-45 -14 -50 -30 -50 -164 l0 -128 31 0 32 0 -6 63 c-3
35 -3 74 0 85 6 26 33 29 34 5 1 -10 2 -27 3 -38 1 -14 9 -21 29 -23 24 -3 27
0 27 27 0 38 -23 61 -61 61 -36 0 -44 18 -31 67 9 35 10 36 12 11 1 -16 3 -34
4 -40 0 -7 13 -14 29 -16 24 -3 27 0 27 25 0 15 -4 33 -8 40 -10 16 -54 31
-72 25z"/>
<path d="M2664 3264 c3 -9 6 -76 6 -150 l0 -134 25 0 25 0 0 106 c0 80 3 105
13 101 8 -2 12 -26 12 -68 0 -62 1 -64 28 -67 27 -3 27 -2 27 52 0 62 -22 96
-61 96 -18 0 -20 4 -15 26 8 32 -8 54 -41 54 -19 0 -24 -4 -19 -16z"/>
<path d="M3011 3254 c-40 -51 -20 -126 32 -126 23 0 27 -5 27 -28 0 -15 -9
-35 -20 -45 -18 -16 -20 -16 -20 -2 0 13 -9 17 -34 17 -34 0 -35 0 -29 -37 7
-46 3 -40 33 -45 20 -2 26 2 28 20 2 14 10 22 22 22 19 0 50 -25 50 -40 0 -10
31 -18 48 -13 35 12 -11 63 -57 63 -22 0 -23 1 -8 18 44 49 61 157 31 200 -22
32 -76 30 -103 -4z m59 -55 c0 -33 -4 -59 -10 -59 -6 0 -10 29 -10 66 0 41 4
63 10 59 6 -3 10 -33 10 -66z"/>
<path d="M3213 3272 c-22 -3 -23 -7 -23 -122 0 -65 3 -126 6 -135 10 -24 49
-36 96 -29 46 8 56 24 40 68 -7 18 -13 72 -14 121 -1 93 -7 106 -39 98 -24 -7
-28 -73 -4 -73 24 0 36 -37 34 -103 -2 -72 -12 -97 -39 -97 -26 0 -30 20 -33
160 -2 113 -2 115 -24 112z"/>
<path d="M3394 3272 c-26 -17 -34 -56 -34 -166 l0 -116 30 0 30 0 0 141 c0 91
4 138 10 134 6 -3 10 -36 10 -72 0 -55 2 -64 16 -59 9 3 20 6 25 6 5 0 9 23 9
50 0 37 -5 55 -20 70 -20 20 -56 26 -76 12z"/>
<path d="M3529 3261 c-23 -18 -24 -25 -24 -148 l0 -128 25 0 c24 0 25 2 28 83
3 74 5 82 22 82 16 0 20 -7 20 -36 0 -34 1 -35 33 -32 28 3 32 6 29 28 -6 37
-20 49 -63 56 -38 6 -39 7 -39 50 0 24 5 44 10 44 6 0 10 -18 10 -40 0 -38 2
-40 30 -40 27 0 30 3 30 30 0 60 -64 90 -111 51z"/>
<path d="M1440 3145 c0 -114 2 -127 21 -146 18 -18 29 -20 66 -15 25 3 49 8
54 12 12 7 12 61 -1 69 -6 3 -10 50 -10 106 l0 99 -30 0 c-28 0 -30 -3 -30
-35 0 -25 5 -38 18 -42 27 -10 32 -24 32 -100 0 -52 -4 -76 -16 -87 -38 -38
-49 -14 -51 114 -1 58 -2 115 -2 128 -1 17 -7 22 -26 22 l-25 0 0 -125z"/>
<path d="M1218 2914 c-5 -4 -8 -18 -8 -31 0 -16 6 -23 20 -23 16 0 20 -7 20
-37 0 -27 -3 -34 -9 -23 -6 8 -7 18 -5 22 3 4 -4 8 -15 8 -12 0 -21 -6 -21
-14 0 -24 27 -37 72 -34 42 3 43 4 46 40 2 28 -1 38 -15 42 -10 3 -23 16 -28
28 -11 26 -29 31 -31 8 -2 -32 -7 -34 -13 -7 -3 16 -9 25 -13 21z m69 -101
c-3 -10 -5 -4 -5 12 0 17 2 24 5 18 2 -7 2 -21 0 -30z"/>
<path d="M1349 2904 c-8 -10 -14 -40 -14 -70 0 -43 3 -54 16 -54 13 0 15 13
15 70 -1 38 -2 70 -2 70 -1 0 -8 -7 -15 -16z"/>
<path d="M1383 2905 c4 -9 7 -41 7 -71 0 -41 4 -54 15 -54 12 0 15 13 15 60 0
50 -3 61 -22 71 -18 10 -20 9 -15 -6z"/>
<path d="M1570 2905 c-7 -8 -13 -39 -14 -67 -1 -44 2 -53 17 -56 16 -3 18 2
17 40 -3 69 -1 88 10 88 6 0 10 -13 10 -30 0 -20 5 -30 15 -30 18 0 20 41 3
58 -16 16 -43 15 -58 -3z"/>
<path d="M1678 2908 c-9 -8 -19 -37 -23 -70 -6 -55 -5 -58 16 -58 19 0 21 4
15 32 -6 30 -5 30 12 15 23 -21 41 -22 48 -2 4 8 15 15 25 15 23 0 25 28 2 37
-9 4 -25 15 -35 25 -21 21 -38 23 -60 6z m38 -23 c-2 -7 0 -17 4 -21 5 -5 5
-15 0 -24 -8 -12 -10 -10 -10 9 0 17 -4 22 -16 17 -8 -3 -13 -2 -11 2 2 4 7
15 10 25 4 10 12 15 18 12 6 -4 8 -13 5 -20z"/>
<path d="M1805 2909 c5 -7 7 -38 6 -71 -2 -53 0 -58 18 -58 17 0 21 6 21 35 0
35 16 47 26 20 4 -8 12 -15 20 -15 8 0 14 7 14 15 0 8 -4 15 -9 15 -5 0 -17 7
-25 16 -12 12 -16 12 -17 2 -1 -7 -4 1 -8 17 -4 22 -13 31 -30 33 -16 3 -21 0
-16 -9z"/>
<path d="M1941 2911 c-8 -5 -15 -33 -17 -70 -4 -56 -3 -61 16 -61 18 0 20 6
20 65 0 37 4 65 10 65 6 0 10 -13 10 -30 0 -20 5 -30 15 -30 18 0 20 41 3 58
-14 14 -37 15 -57 3z"/>
<path d="M2128 2858 c4 -79 8 -89 26 -82 10 4 14 18 13 42 -2 43 16 60 21 20
4 -32 32 -39 32 -9 0 34 -12 51 -35 51 -14 0 -25 7 -28 20 -3 11 -11 20 -19
20 -11 0 -13 -14 -10 -62z"/>
<path d="M2486 2908 c-10 -31 -13 -85 -5 -105 9 -25 38 -30 70 -13 13 7 19 7
19 0 0 -5 5 -10 10 -10 14 0 12 24 -2 39 -7 6 -13 31 -13 54 0 35 -3 42 -21
45 -20 3 -21 0 -14 -37 8 -45 2 -91 -11 -91 -10 0 -13 18 -10 76 3 40 -15 70
-23 42z"/>
<path d="M2622 2908 c-18 -18 -16 -128 3 -128 10 0 15 16 17 63 3 62 20 86 26
35 3 -29 32 -40 32 -12 0 45 -49 71 -78 42z"/>
<path d="M2717 2913 c-14 -14 -6 -45 13 -50 14 -4 20 -14 20 -34 0 -16 -5 -29
-11 -29 -6 0 -9 7 -5 15 4 10 -1 15 -14 15 -22 0 -26 -20 -8 -38 17 -17 83
-15 97 2 15 18 11 68 -6 73 -7 3 -13 -10 -16 -34 -3 -33 -4 -32 -5 13 -1 27
-7 55 -14 62 -13 13 -41 16 -51 5z m33 -25 c0 -16 -3 -19 -11 -11 -6 6 -8 16
-5 22 11 17 16 13 16 -11z"/>
<path d="M2852 2908 c-18 -18 -16 -128 3 -128 10 0 15 16 17 63 3 62 20 86 26
35 4 -34 32 -38 32 -5 0 29 -18 47 -45 47 -12 0 -26 -5 -33 -12z"/>
<path d="M1452 2818 c3 -100 21 -128 26 -40 2 28 7 52 13 52 5 0 9 -9 9 -19 0
-27 30 -55 43 -42 7 7 7 14 0 23 -6 7 -13 24 -15 38 -2 17 -10 26 -25 28 -17
3 -23 10 -23 28 0 15 -6 24 -15 24 -13 0 -15 -15 -13 -92z"/>
<path d="M2334 2895 c-7 -16 3 -35 18 -35 5 0 8 7 5 15 -4 8 -2 17 2 20 12 7
18 -43 10 -80 -5 -23 -7 -25 -8 -7 -1 27 -31 30 -31 3 0 -37 92 -45 111 -10
13 25 -2 69 -25 69 -7 0 -16 9 -19 20 -6 24 -55 28 -63 5z m81 -67 c-7 -34
-15 -34 -15 1 0 18 4 30 9 26 6 -3 8 -15 6 -27z"/>
<path d="M1859 2783 c-1 -5 -1 -11 0 -15 0 -5 -6 -8 -14 -8 -8 0 -15 -5 -15
-11 0 -7 10 -9 28 -4 33 8 46 20 38 34 -8 12 -35 15 -37 4z"/>
<path d="M1232 2668 c-20 -20 -15 -86 7 -98 31 -16 38 -12 46 23 5 21 9 26 12
15 2 -9 -1 -26 -7 -38 -6 -11 -8 -25 -5 -30 10 -16 -31 -11 -45 5 -19 23 -30
18 -30 -14 0 -31 14 -49 25 -31 8 12 107 9 116 -4 17 -23 29 11 29 81 0 65 2
74 16 69 12 -5 15 -2 10 9 -3 9 -2 13 4 10 13 -8 13 -75 0 -75 -12 0 -13 -70
-1 -89 19 -29 31 2 31 78 0 85 -8 101 -52 101 -21 0 -31 -6 -38 -26 -13 -32
-13 -43 0 -24 7 11 10 -3 10 -47 0 -63 -5 -69 -42 -47 -15 8 -16 15 -7 45 9
28 8 43 -2 65 -15 32 -55 44 -77 22z m48 -49 c0 -20 -15 -26 -25 -9 -9 15 3
43 15 35 5 -3 10 -15 10 -26z m-30 -24 c11 -13 10 -14 -4 -9 -9 3 -16 10 -16
15 0 13 6 11 20 -6z"/>
<path d="M1460 2669 c0 -6 5 -19 11 -30 7 -15 7 -24 -1 -34 -8 -9 -8 -15 0
-20 6 -3 7 -14 2 -23 -11 -26 -9 -65 6 -69 9 -3 12 11 12 52 0 48 2 56 16 51
12 -5 15 -2 10 9 -3 9 -2 13 4 10 13 -8 13 -35 0 -35 -15 0 -12 -17 6 -35 25
-25 36 -4 22 41 -9 28 -19 40 -36 42 -16 3 -22 10 -22 28 0 15 -6 24 -15 24
-8 0 -15 -5 -15 -11z"/>
<path d="M1584 2668 c-10 -16 -7 -173 3 -173 4 0 9 32 11 70 3 90 8 105 27 79
7 -11 13 -28 12 -38 -1 -11 4 -21 11 -23 16 -6 17 68 0 85 -15 15 -55 16 -64
0z"/>
<path d="M1698 2669 c-13 -8 -15 -174 -3 -174 6 0 12 34 15 75 l5 75 33 0 c23
0 31 4 27 13 -3 7 0 10 5 7 6 -3 10 -15 10 -26 0 -10 5 -19 11 -19 5 0 7 -5 3
-12 -5 -8 -11 -6 -19 5 -12 17 -36 22 -47 11 -4 -3 -2 -19 2 -36 8 -25 7 -28
-5 -18 -8 7 -15 8 -15 3 0 -17 24 -33 50 -33 20 0 30 8 42 36 16 34 15 38 -3
68 -16 27 -25 31 -60 31 -22 0 -45 -3 -51 -6z m90 -93 c3 -15 1 -16 -17 -6
-12 6 -19 16 -15 21 9 15 28 5 32 -15z"/>
<path d="M1846 2648 c3 -18 7 -39 10 -45 2 -7 0 -13 -5 -13 -4 0 -9 -20 -9
-45 -2 -40 0 -45 23 -51 32 -8 55 1 55 21 0 9 -9 15 -25 15 -18 0 -25 5 -25
20 0 16 7 20 31 20 24 0 30 4 27 18 -2 10 -14 18 -31 20 -24 3 -27 8 -27 38 0
23 -5 34 -15 34 -11 0 -13 -8 -9 -32z"/>
<path d="M1950 2665 c-8 -9 -10 -25 -5 -42 14 -54 16 -83 7 -83 -12 0 -10 -33
3 -42 18 -13 22 2 20 72 -2 38 1 72 5 75 13 8 40 -6 40 -22 0 -8 -5 -11 -11
-7 -7 4 -10 -1 -7 -12 2 -11 10 -19 18 -19 20 0 22 61 3 80 -19 19 -57 19 -73
0z"/>
<path d="M2157 2674 c-10 -10 -9 -172 1 -178 19 -11 32 13 30 55 -3 45 14 72
20 32 2 -12 10 -27 17 -33 20 -17 31 13 19 49 -8 22 -15 26 -44 23 -24 -2 -31
0 -22 6 8 5 12 17 10 27 -3 20 -20 30 -31 19z m71 -90 c-3 -14 -5 -12 -10 9
-3 19 -2 25 4 19 6 -6 8 -18 6 -28z m-61 -36 c-3 -7 -5 -2 -5 12 0 14 2 19 5
13 2 -7 2 -19 0 -25z"/>
<path d="M2382 2668 c-14 -14 -16 -32 -3 -24 5 4 7 -3 4 -15 -5 -16 -8 -18
-15 -7 -6 9 -7 5 -3 -12 9 -31 14 -36 43 -45 18 -5 22 -2 22 14 0 12 -7 21
-15 21 -9 0 -15 10 -15 26 0 20 4 25 16 20 12 -5 15 -2 10 9 -3 9 -2 14 2 11
12 -7 13 -104 1 -112 -8 -4 -7 -9 2 -15 10 -6 8 -9 -9 -9 -13 0 -21 4 -18 9 6
10 -33 23 -46 15 -13 -8 -9 -40 6 -53 11 -9 16 -9 21 0 5 7 23 9 51 5 35 -4
44 -3 44 10 0 8 -6 17 -14 20 -11 4 -13 18 -9 60 4 36 2 59 -7 69 -15 18 -51
20 -68 3z"/>
<path d="M2505 2594 c1 -73 3 -87 19 -96 14 -8 24 -8 37 0 10 7 26 9 35 5 14
-5 16 -2 9 18 -4 13 -10 54 -12 92 -6 93 -28 91 -28 -2 0 -38 3 -67 7 -65 4 2
9 0 13 -6 6 -9 -8 -14 -28 -11 -5 1 -6 -3 -2 -9 3 -5 2 -10 -4 -10 -14 0 -20
30 -23 104 -5 95 -23 78 -23 -20z"/>
<path d="M2633 2668 c-13 -21 -10 -168 4 -168 8 0 13 25 15 78 3 80 19 104 28
42 3 -19 10 -35 15 -35 15 0 18 64 4 81 -14 17 -55 18 -66 2z"/>
<path d="M2731 2666 c-20 -24 -5 -65 25 -72 34 -9 40 1 15 23 -25 21 -27 33
-5 33 8 0 12 5 9 10 -3 6 -1 10 5 10 6 0 8 -10 4 -25 -5 -21 -3 -25 17 -26 13
0 18 -3 12 -6 -16 -6 -17 -63 -3 -63 6 0 5 -6 -2 -14 -13 -14 -32 0 -22 16 3
4 -2 8 -10 8 -8 0 -19 8 -25 18 -7 13 -12 14 -22 5 -16 -16 -4 -41 26 -53 14
-5 25 -14 25 -20 0 -5 7 -10 15 -10 8 0 15 7 15 15 0 8 6 15 14 15 21 0 46 28
46 51 0 12 -13 27 -30 37 -16 9 -31 26 -32 37 -4 26 -59 33 -77 11z m13 -42
c3 -8 2 -12 -4 -9 -6 3 -10 10 -10 16 0 14 7 11 14 -7z m106 -43 c0 -10 -3
-20 -6 -24 -10 -10 -34 4 -34 20 0 10 6 13 16 9 12 -5 15 -2 10 9 -3 9 -2 13
4 10 6 -3 10 -14 10 -24z"/>
<path d="M2894 2615 c-5 -14 -23 -98 -24 -107 0 -5 12 -8 28 -8 18 0 23 3 14
8 -14 9 -7 88 9 98 5 3 6 -9 3 -26 -4 -19 -2 -30 5 -30 13 0 34 47 28 63 -4
14 -58 16 -63 2z"/>
<path d="M1384 2321 c-11 -5 -32 -23 -46 -40 l-26 -30 2 32 c1 28 -3 32 -26
35 -37 4 -40 -6 -68 -213 -53 -399 -54 -386 26 -381 53 3 64 11 28 20 -26 7
-26 8 -21 79 3 40 17 144 32 232 30 179 51 225 110 245 31 10 94 8 115 -5 5
-3 10 -35 10 -71 l0 -64 -51 0 c-90 0 -139 -56 -139 -160 0 -125 131 -148 213
-38 12 17 25 58 32 100 9 62 14 73 30 73 11 1 20 5 21 10 0 6 -7 9 -17 7 -17
-3 -18 4 -17 65 3 98 -6 107 -107 110 -44 2 -89 -1 -101 -6z m126 -190 c0 -4
-7 -48 -15 -97 -17 -93 -36 -127 -69 -122 -17 2 -22 12 -24 43 -4 51 17 152
35 171 16 15 73 20 73 5z"/>
<path d="M2175 2324 c-5 -1 -22 -5 -36 -8 -26 -6 -112 -70 -104 -77 2 -3 -5
-36 -16 -74 -58 -209 -79 -299 -71 -307 5 -5 23 -6 42 -1 36 9 31 -4 101 273
28 107 55 167 81 176 39 12 42 -10 14 -110 -14 -53 -26 -101 -26 -106 0 -7 17
-10 42 -8 l42 3 18 70 c21 81 17 127 -15 147 -24 16 -57 26 -72 22z"/>
<path d="M2939 2290 l-38 -39 6 35 c6 35 6 35 -28 32 l-34 -3 -17 -115 c-9
-63 -26 -173 -38 -245 -35 -224 -34 -225 55 -224 50 0 50 0 23 15 -36 19 -36
40 2 271 33 199 37 214 73 257 21 25 32 30 84 34 56 4 62 2 76 -19 11 -17 14
-39 10 -76 l-6 -53 -52 0 c-88 0 -135 -56 -135 -160 0 -101 89 -136 179 -69
39 29 58 70 67 147 6 57 9 62 30 62 13 0 24 5 24 10 0 6 -10 10 -21 10 -20 0
-21 4 -16 48 12 103 -8 122 -130 122 -76 0 -76 0 -114 -40z m156 -182 c-24
-158 -33 -181 -72 -192 -44 -14 -49 51 -14 182 9 33 17 41 39 45 56 8 54 10
47 -35z"/>
<path d="M1710 2310 c0 -11 -37 -283 -49 -356 l-8 -52 75 -8 c52 -6 78 -14 85
-26 17 -27 -9 -48 -59 -48 -24 0 -44 -4 -44 -10 0 -16 113 -12 138 6 25 17 29
56 7 74 -8 6 -41 14 -74 17 -58 6 -60 7 -55 30 4 14 12 64 18 111 l12 87 82 3
c48 2 82 7 82 13 0 7 -30 9 -80 7 l-81 -3 5 35 c3 19 8 56 12 83 l6 47 -36 0
c-20 0 -36 -4 -36 -10z"/>
<path d="M3349 2308 c0 -7 -2 -31 -4 -53 -1 -22 -3 -64 -4 -92 -1 -46 -4 -53
-21 -53 -19 0 -20 7 -20 100 l0 100 -25 0 -25 0 0 -108 c0 -93 3 -111 18 -125
21 -19 74 -22 103 -6 14 7 24 7 33 0 17 -14 26 -4 26 28 0 15 -8 31 -19 38
-17 11 -19 20 -14 89 5 59 3 78 -8 85 -20 13 -39 11 -40 -3z"/>
<path d="M936 2245 c-3 -8 -1 -15 4 -15 6 0 10 7 10 15 0 8 -2 15 -4 15 -2 0
-6 -7 -10 -15z"/>
<path d="M660 2138 c-57 -39 -77 -135 -40 -195 33 -54 77 -65 115 -27 19 19
19 13 4 -92 -10 -63 -9 -78 2 -85 17 -10 389 -12 389 -2 0 5 -41 6 -91 4 -50
-1 -95 1 -100 6 -10 10 12 181 32 258 15 58 54 105 86 105 l26 0 -7 -72 c-3
-40 -9 -88 -12 -105 -6 -32 -5 -33 29 -33 35 0 36 1 47 52 6 29 13 78 17 109
5 52 4 57 -22 77 -42 33 -72 28 -114 -17 l-37 -40 4 35 c4 29 1 34 -17 36 -12
0 -26 1 -33 2 -7 1 -23 -67 -45 -194 -18 -107 -33 -198 -33 -202 0 -5 -13 -8
-30 -8 -38 0 -38 0 -1 225 29 178 28 185 -16 185 -16 0 -23 -6 -23 -18 0 -31
-11 -33 -32 -7 -24 31 -55 32 -98 3z m103 -94 c-2 -69 -29 -119 -64 -119 -21
0 -24 5 -27 40 -5 52 15 141 35 161 15 14 18 14 37 -6 17 -17 21 -31 19 -76z"/>
<path d="M2573 2140 c-42 -25 -63 -68 -63 -127 0 -45 17 -87 44 -105 21 -14
63 -8 81 12 10 11 20 19 22 17 2 -2 -4 -39 -12 -83 -23 -120 -25 -114 51 -114
41 0 63 4 59 10 -3 6 -17 10 -31 10 -13 0 -24 6 -24 13 0 7 11 75 24 152 14
77 26 160 28 185 3 44 2 45 -27 45 -25 0 -31 -5 -36 -30 l-6 -30 -11 26 c-17
43 -50 49 -99 19z m83 -25 c13 -20 15 -39 11 -81 -9 -86 -50 -135 -85 -101
-30 31 11 207 49 207 5 0 16 -11 25 -25z"/>
<path d="M3279 1993 c-10 -11 -14 -47 -14 -122 l0 -106 25 0 c24 0 25 3 26 60
1 33 2 77 3 98 1 30 5 37 21 37 17 0 20 -7 20 -40 0 -36 3 -40 24 -40 17 0 26
7 30 23 7 29 -9 88 -26 99 -23 14 -95 9 -109 -9z"/>
<path d="M1051 1640 c-15 -69 -14 -80 6 -80 15 0 14 -2 -3 -15 -19 -14 -19
-14 2 -15 29 0 52 27 30 36 -24 9 -20 43 7 54 18 7 19 9 4 9 -15 1 -17 6 -12
31 5 23 3 30 -8 30 -10 0 -19 -17 -26 -50z"/>
<path d="M621 1661 c-22 -22 -34 -85 -29 -146 2 -32 7 -40 23 -40 18 0 20 8
23 75 3 79 13 103 35 82 8 -9 12 -61 13 -180 l1 -167 27 -3 28 -3 -7 90 -8 91
32 0 c26 0 32 4 29 18 -2 10 -14 18 -31 20 -26 3 -27 5 -27 68 0 56 -4 68 -25
89 -29 30 -58 32 -84 6z"/>
<path d="M1339 1662 c-19 -16 -23 -31 -27 -105 -4 -83 -4 -86 17 -80 19 5 21
13 21 72 0 73 10 97 34 88 14 -6 16 -30 16 -182 l0 -175 25 0 c25 0 25 1 25
90 0 89 0 90 25 90 18 0 25 5 25 20 0 15 -7 20 -28 20 -26 0 -28 2 -24 35 6
52 -6 102 -30 125 -27 25 -49 25 -79 2z"/>
<path d="M887 1633 c-3 -5 -8 -23 -12 -40 -6 -32 -5 -33 24 -33 17 0 31 5 31
10 0 6 -6 10 -13 10 -9 0 -12 10 -9 30 4 27 -10 42 -21 23z"/>
<path d="M1517 1633 c-3 -5 -8 -23 -12 -42 l-7 -34 42 7 42 7 -7 -31 c-6 -28
-4 -30 20 -30 21 0 25 3 17 13 -7 8 -7 27 0 60 5 27 8 51 5 54 -10 9 -27 -8
-27 -27 0 -10 -5 -22 -11 -25 -6 -4 -9 2 -7 17 4 28 -15 41 -20 13 -2 -11 -9
-24 -14 -30 -7 -7 -9 -1 -4 17 6 25 -7 48 -17 31z"/>
<path d="M1636 1624 c-3 -9 -6 -26 -6 -38 0 -20 4 -23 44 -21 56 3 66 10 66
46 0 39 -17 37 -29 -3 l-9 -33 -1 33 c-1 41 -23 39 -32 -4 l-7 -29 -1 33 c-1
34 -15 43 -25 16z"/>
<path d="M1765 1626 c-11 -33 -22 -106 -17 -111 9 -9 42 -5 42 5 0 6 -4 10 -9
10 -5 0 -5 18 1 42 10 48 23 68 16 25 -4 -22 -2 -27 11 -25 10 2 17 15 19 34
3 28 1 31 -28 31 -18 0 -33 -5 -35 -11z"/>
<path d="M797 1623 c-4 -3 -7 -19 -7 -35 0 -38 23 -32 31 8 l7 29 1 -33 c1
-43 25 -38 29 6 3 29 1 32 -26 32 -16 0 -32 -3 -35 -7z"/>
<path d="M950 1574 c-10 -46 -9 -58 2 -65 23 -15 28 -10 22 21 -6 27 -4 30 20
30 14 0 26 6 26 13 0 6 3 22 6 35 6 20 3 22 -29 22 -35 0 -36 -1 -47 -56z m41
9 c-10 -17 -10 -16 -11 3 0 23 13 41 18 25 2 -6 -1 -18 -7 -28z"/>
<path d="M1127 1616 c-3 -7 -9 -34 -12 -60 -7 -42 -5 -46 13 -46 15 0 19 5 15
18 -2 10 0 34 5 53 10 33 10 33 11 6 1 -39 25 -30 29 11 3 29 1 32 -26 32 -17
0 -32 -6 -35 -14z"/>
<path d="M3032 1222 c2 -9 14 -20 28 -24 24 -7 24 -8 -2 -4 -18 2 -28 -1 -28
-10 0 -7 12 -17 28 -23 l27 -11 -27 5 c-35 7 -39 -20 -5 -29 45 -12 48 -9 45
46 -3 50 -4 53 -36 59 -27 5 -32 4 -30 -9z"/>
<path d="M3230 1207 c0 -33 1 -34 57 -44 77 -14 96 -7 72 27 -7 10 -12 11 -15
4 -5 -11 -78 -3 -91 10 -4 3 8 3 25 0 25 -5 32 -3 32 9 0 8 -13 17 -31 21 -48
9 -49 8 -49 -27z"/>
<path d="M1490 1194 c0 -32 2 -33 56 -44 61 -13 82 -5 70 27 -5 12 -9 14 -15
5 -5 -8 -19 -9 -51 -3 -34 7 -38 9 -17 10 38 1 30 24 -11 32 -31 6 -32 5 -32
-27z"/>
<path d="M1700 1219 c0 -8 -3 -23 -6 -35 -5 -19 1 -22 52 -32 73 -15 71 -15
77 8 5 21 -9 38 -15 18 -7 -19 -38 -1 -38 22 0 13 -7 20 -19 20 -11 0 -26 3
-35 6 -10 4 -16 1 -16 -7z m40 -29 c13 -8 13 -10 -2 -10 -9 0 -20 5 -23 10 -8
13 5 13 25 0z"/>
<path d="M2453 1215 c-11 -8 -24 -30 -27 -50 -4 -19 -9 -35 -12 -35 -3 0 -17
9 -32 20 -59 44 -207 46 -253 4 -26 -24 -21 -62 12 -86 18 -14 42 -19 86 -19
71 -1 100 12 109 46 7 30 8 30 49 5 41 -25 53 -50 24 -50 -22 0 -37 -26 -22
-41 6 -6 37 -7 77 -3 54 6 66 10 64 23 -2 10 -15 17 -36 19 -31 3 -32 4 -32
53 0 63 13 89 45 89 18 0 25 5 25 20 0 25 -45 28 -77 5z m-154 -88 c19 -23 -9
-37 -75 -37 -63 0 -80 9 -70 35 7 20 129 21 145 2z"/>
<path d="M2620 1215 c0 -9 9 -15 25 -15 14 0 25 -4 25 -9 0 -4 -12 -6 -26 -3
-34 6 -28 -19 7 -29 23 -7 23 -7 -4 -8 -39 -1 -30 -25 11 -29 l32 -3 0 49 c0
36 -4 52 -16 56 -28 11 -54 6 -54 -9z"/>
<path d="M2830 1215 c-22 -27 -7 -47 45 -61 28 -7 56 -13 63 -14 17 0 15 38
-3 56 -13 14 -15 14 -15 0 0 -24 -15 -19 -34 9 -19 28 -38 32 -56 10z m50 -24
c0 -5 -9 -7 -20 -4 -11 3 -20 7 -20 9 0 2 9 4 20 4 11 0 20 -4 20 -9z"/>
<path d="M634 1205 c-4 -8 -12 -15 -20 -15 -8 0 -14 -10 -14 -22 0 -21 5 -23
66 -25 56 -1 65 1 62 15 -2 11 -17 19 -43 23 -30 5 -33 7 -12 8 39 2 36 31 -3
31 -18 0 -33 -6 -36 -15z"/>
<path d="M1016 1205 c-6 -17 13 -33 53 -45 27 -7 31 -6 31 11 0 14 7 19 26 19
34 0 26 24 -10 28 -21 3 -29 -1 -33 -17 -6 -23 -33 -29 -33 -7 0 19 -27 28
-34 11z"/>
<path d="M1282 1192 c0 -24 5 -31 31 -41 l32 -11 -32 5 c-24 3 -33 1 -33 -9 0
-15 21 -26 51 -26 18 0 20 6 17 53 -3 50 -4 52 -34 55 -28 3 -31 0 -32 -26z
m45 -8 c-3 -3 -12 -4 -19 -1 -8 3 -5 6 6 6 11 1 17 -2 13 -5z"/>
<path d="M2510 1145 c0 -9 6 -12 15 -9 8 4 15 7 15 9 0 2 -7 5 -15 9 -9 3 -15
0 -15 -9z"/>
<path d="M856 954 c-21 -20 -21 -64 -1 -64 8 0 15 4 15 9 0 4 11 6 25 3 14 -2
25 0 25 6 0 6 10 12 23 14 20 3 18 5 -16 26 -45 26 -51 27 -71 6z"/>
<path d="M967 963 c-12 -11 -7 -25 6 -20 10 4 13 -2 9 -19 -5 -27 21 -43 46
-27 22 13 27 33 8 33 -9 0 -16 -6 -17 -12 0 -7 -5 2 -10 20 -9 30 -27 41 -42
25z"/>
<path d="M1117 959 c-15 -9 -14 -14 19 -45 42 -39 44 -40 44 -19 0 8 -5 15
-11 15 -8 0 -7 5 2 16 11 14 10 18 -6 30 -22 16 -25 17 -48 3z"/>
<path d="M1190 935 c0 -24 5 -35 18 -38 23 -6 95 -2 107 5 6 3 27 8 48 12 45
8 47 20 6 42 -36 18 -79 7 -79 -21 0 -23 -19 -18 -29 8 -7 18 -17 24 -40 25
-29 1 -31 -2 -31 -33z m150 15 c0 -5 -5 -10 -11 -10 -5 0 -7 5 -4 10 3 6 8 10
11 10 2 0 4 -4 4 -10z m-113 -32 c-3 -7 -5 -2 -5 12 0 14 2 19 5 13 2 -7 2
-19 0 -25z"/>
<path d="M1410 939 c0 -36 21 -47 88 -41 36 3 52 8 52 18 0 8 9 14 20 14 24 0
26 13 5 30 -19 16 -47 9 -60 -16 -12 -24 -35 -20 -35 6 0 14 -8 18 -35 18 -32
0 -35 -3 -35 -29z m37 -11 c-3 -8 -6 -5 -6 6 -1 11 2 17 5 13 3 -3 4 -12 1
-19z"/>
<path d="M604 946 c-3 -8 -3 -19 0 -25 3 -5 1 -11 -6 -13 -6 -2 -8 -10 -4 -16
5 -8 13 -9 25 -2 12 6 21 6 28 -1 6 -6 22 -7 36 -4 20 5 27 14 30 38 l4 32 1
-32 c3 -43 32 -46 32 -4 0 35 -12 45 -46 37 -19 -5 -24 -13 -24 -38 0 -17 -3
-28 -7 -24 -5 4 -8 20 -8 34 0 22 -5 28 -28 30 -17 2 -29 -2 -33 -12z"/>
<path d="M760 925 c0 -24 5 -35 15 -35 9 0 15 9 15 23 1 20 2 20 11 5 12 -22
29 -23 29 -4 0 16 -37 46 -57 46 -8 0 -13 -13 -13 -35z"/>
<path d="M1100 912 c0 -14 11 -21 26 -15 8 3 11 9 8 14 -7 11 -34 12 -34 1z"/>
<path d="M198 123 c7 -3 16 -2 19 1 4 3 -2 6 -13 5 -11 0 -14 -3 -6 -6z"/>
<path d="M15 100 c-3 -5 -1 -10 4 -10 6 0 11 5 11 10 0 6 -2 10 -4 10 -3 0 -8
-4 -11 -10z"/>
<path d="M25 60 c-3 -6 1 -13 9 -16 9 -3 13 -10 10 -16 -3 -5 -14 -2 -25 8
-18 16 -19 16 -19 -9 0 -25 3 -27 40 -27 28 0 40 4 40 14 0 9 7 12 20 9 16 -4
19 -2 14 12 -5 12 -14 15 -30 11 -17 -5 -24 -2 -24 9 0 17 -25 21 -35 5z"/>
<path d="M130 10 c0 -5 14 -10 32 -10 35 0 30 12 -7 17 -14 2 -25 -1 -25 -7z"/>
</g>
</svg>
