<?xml version="1.0" standalone="no"?>
<!DOCTYPE svg PUBLIC "-//W3C//DTD SVG 20010904//EN"
 "http://www.w3.org/TR/2001/REC-SVG-20010904/DTD/svg10.dtd">
<svg version="1.0" xmlns="http://www.w3.org/2000/svg"
 width="825.000000pt" height="1024.000000pt" viewBox="0 0 825.000000 1024.000000"
 preserveAspectRatio="xMidYMid meet">
<metadata>
Created by potrace 1.15, written by Peter Selinger 2001-2017
</metadata>
<g transform="translate(0.000000,1024.000000) scale(0.100000,-0.100000)"
fill="#000000" stroke="none">
<path d="M3022 7418 l-302 -563 36 -3 c22 -2 42 2 49 10 12 13 578 1068 590
1101 6 14 1 17 -32 17 l-40 0 -301 -562z"/>
<path d="M3543 7438 c-160 -299 -296 -554 -303 -567 -12 -23 -11 -23 32 -20
l44 4 1 -45 c0 -92 14 -196 30 -230 9 -19 17 -55 19 -79 1 -32 8 -50 23 -62
12 -10 21 -25 21 -33 0 -9 7 -19 15 -22 8 -4 12 -10 9 -15 -3 -5 1 -16 8 -23
7 -8 24 -31 38 -50 14 -19 35 -40 46 -47 12 -6 27 -22 34 -35 7 -13 28 -30 47
-39 19 -9 38 -26 43 -38 8 -22 36 -50 55 -55 6 -2 14 -10 18 -18 4 -8 13 -14
20 -14 7 0 23 -16 37 -36 14 -19 37 -51 53 -71 15 -20 27 -44 27 -54 0 -11 4
-19 10 -19 8 0 42 -53 45 -70 1 -3 11 -25 23 -49 12 -25 22 -51 22 -59 0 -7
15 -28 33 -45 18 -18 48 -52 67 -77 43 -57 156 -170 171 -170 5 0 21 -13 35
-29 14 -17 34 -33 44 -36 11 -4 20 -13 20 -21 0 -8 5 -14 11 -14 5 0 7 5 3 12
-4 7 -3 8 5 4 6 -4 9 -12 6 -17 -4 -5 -1 -9 4 -9 6 0 11 -5 11 -11 0 -9 55
-86 71 -99 4 -3 10 -19 13 -37 7 -32 68 -134 98 -163 8 -9 17 -20 19 -26 8
-22 86 -110 159 -181 41 -40 104 -101 140 -135 35 -35 68 -62 72 -61 5 2 8 -4
8 -14 0 -9 13 -28 29 -42 15 -14 31 -39 35 -54 4 -15 11 -25 16 -22 9 5 14 -7
12 -26 -1 -6 92 -154 115 -185 18 -24 34 -50 39 -66 4 -10 10 -18 15 -18 5 0
9 -6 9 -14 0 -8 7 -21 15 -29 8 -8 16 -21 17 -28 2 -8 13 -21 25 -29 12 -9 33
-31 46 -50 13 -19 39 -58 58 -85 19 -28 42 -68 53 -90 10 -22 22 -48 27 -57 5
-10 9 -24 9 -31 0 -20 60 -98 71 -91 5 3 9 0 9 -5 0 -6 7 -11 15 -11 8 0 15
-5 15 -11 0 -5 5 -7 10 -4 6 3 13 -1 16 -10 6 -14 -9 -53 -47 -127 -5 -10 -9
-29 -9 -44 0 -14 -7 -32 -15 -40 -8 -9 -15 -26 -15 -38 0 -13 -8 -34 -19 -47
-20 -26 -34 -112 -19 -127 5 -5 1 -18 -10 -33 -10 -13 -27 -46 -37 -74 -10
-27 -24 -59 -31 -69 -15 -21 -3 -46 21 -46 7 0 25 -7 41 -15 25 -13 29 -12 39
3 14 21 30 63 45 125 13 50 20 56 40 32 7 -8 16 -15 21 -15 4 0 35 -16 68 -35
32 -19 71 -35 85 -35 23 0 25 -3 20 -30 -6 -27 -3 -31 42 -51 27 -12 58 -26
69 -32 73 -38 68 -34 48 -48 -10 -8 -30 -35 -43 -61 -14 -25 -46 -76 -72 -112
-27 -37 -48 -70 -48 -73 0 -3 -13 -33 -29 -67 -16 -33 -46 -96 -66 -139 -20
-43 -34 -84 -31 -92 2 -7 -2 -19 -10 -25 -8 -7 -14 -22 -14 -35 0 -12 -9 -48
-20 -80 -11 -32 -18 -61 -15 -63 3 -3 0 -11 -6 -18 -6 -8 -9 -20 -6 -28 3 -7
0 -19 -6 -25 -6 -6 -7 -11 -1 -11 5 0 2 -4 -6 -10 -8 -5 -15 -22 -15 -39 0
-17 -10 -41 -21 -54 -11 -13 -23 -32 -26 -43 -3 -10 -9 -26 -12 -35 -10 -24
55 -63 94 -57 17 3 30 1 30 -4 0 -4 -4 -8 -9 -8 -16 0 -81 -72 -87 -96 -3 -13
-10 -24 -15 -24 -5 0 -9 -6 -9 -13 0 -7 -9 -30 -20 -52 -11 -22 -20 -46 -20
-54 0 -8 -12 -28 -27 -44 -25 -25 -28 -37 -29 -95 0 -37 -2 -69 -4 -72 -1 -3
-4 -29 -6 -59 -2 -35 -12 -67 -26 -90 -13 -20 -30 -49 -38 -66 -11 -20 -35
-40 -77 -60 -66 -32 -106 -63 -98 -76 10 -16 -14 -19 -66 -8 -30 6 -67 13 -84
15 -16 2 -61 8 -100 14 -66 10 -340 39 -377 40 -10 0 -18 -5 -18 -10 0 -6 3
-9 8 -8 4 0 14 -2 22 -5 8 -3 38 -8 65 -11 71 -7 177 -25 184 -32 9 -8 -152 7
-169 16 -21 11 -300 19 -300 9 0 -5 5 -9 10 -9 6 0 10 -4 10 -9 0 -5 -42 -12
-92 -15 -153 -9 -168 -11 -320 -56 -21 -6 -40 -15 -43 -20 -4 -6 -15 -10 -26
-10 -11 0 -43 -24 -72 -55 -28 -30 -57 -55 -64 -55 -16 0 -39 -47 -29 -57 4
-4 28 3 54 16 59 29 93 43 247 97 11 3 47 9 80 11 33 2 84 8 114 12 74 12 478
3 636 -14 28 -3 97 -8 155 -11 58 -3 109 -10 114 -14 5 -5 -25 -7 -65 -5 -110
7 -229 15 -269 20 -63 7 -444 7 -485 0 -144 -24 -257 -53 -320 -80 -16 -7 -46
-18 -65 -24 -19 -6 -51 -21 -70 -33 l-35 -21 55 -13 c30 -7 57 -9 60 -5 3 5
21 11 41 15 21 4 49 16 63 27 14 11 36 21 48 23 13 1 33 8 46 15 12 7 30 11
40 10 9 -1 28 3 42 9 21 9 62 17 135 27 6 0 35 4 65 9 110 15 573 8 601 -10
15 -9 -1 -25 -19 -20 -70 20 -454 21 -570 1 -23 -4 -52 -8 -65 -10 -79 -10
-233 -71 -258 -102 -12 -14 -11 -15 11 -8 14 4 32 8 40 9 8 1 18 6 22 11 5 6
8 6 8 -1 0 -7 10 -9 25 -6 15 2 22 9 18 16 -4 6 0 6 9 -2 13 -10 17 -10 22 3
3 9 10 14 15 10 5 -3 28 2 50 11 23 9 47 14 55 11 7 -3 23 1 34 9 12 8 45 17
74 20 100 9 429 12 469 3 64 -15 128 -19 134 -8 4 5 15 9 26 9 24 0 24 9 2 25
-14 11 -12 12 20 9 27 -3 42 1 56 15 11 11 29 25 41 31 11 6 18 15 15 21 -4 5
6 9 22 9 15 0 71 9 123 21 131 28 198 37 248 34 23 -2 45 1 48 6 3 6 12 6 22
0 9 -5 25 -6 36 -2 12 3 32 5 46 4 14 -2 57 -5 95 -7 39 -3 120 -8 180 -12
125 -8 178 -11 253 -13 37 -1 52 -5 52 -15 0 -10 -10 -13 -37 -10 -188 22
-750 24 -803 4 -3 -1 -8 -2 -11 -2 -3 1 -46 -6 -95 -14 -49 -9 -109 -18 -132
-21 -24 -3 -38 -9 -32 -13 13 -8 184 -5 198 4 5 3 38 8 74 11 36 3 85 9 109
13 88 16 645 1 814 -22 26 -4 75 -24 75 -31 0 -3 -12 -3 -27 0 -16 2 -71 7
-123 10 -52 3 -142 8 -200 11 -274 17 -690 4 -690 -20 0 -5 118 -9 195 -8 369
9 859 -9 882 -31 6 -6 -62 -8 -367 -10 -63 0 -189 3 -280 6 -94 4 -152 3 -135
-2 73 -20 147 -31 242 -35 56 -2 106 -7 112 -11 20 -12 93 -8 102 6 5 8 9 9 9
3 0 -11 128 -11 223 0 20 2 40 0 43 -5 3 -5 14 -9 25 -9 28 0 99 24 99 33 0 5
6 5 13 0 6 -4 64 -9 127 -10 63 -1 135 -4 160 -7 47 -5 145 -14 217 -20 23 -2
46 -7 52 -10 12 -8 51 10 51 24 0 20 -45 31 -155 35 -64 3 -120 7 -125 10 -4
3 -65 5 -134 6 -124 1 -157 10 -93 25 42 10 228 6 281 -6 62 -14 93 -12 100 7
14 35 -16 41 -231 42 -68 0 -115 -5 -138 -14 -48 -20 -55 -19 -55 11 0 22 -46
96 -72 114 -4 3 -19 23 -34 45 -28 41 -37 96 -21 128 5 11 10 74 13 140 2 67
6 139 10 159 4 21 2 50 -4 65 -5 16 -15 47 -22 70 -7 23 -26 54 -41 69 l-29
28 0 -65 c0 -76 -9 -139 -21 -139 -11 0 1 182 13 197 6 7 8 20 4 28 -4 12 6
15 59 15 101 0 101 1 102 268 1 127 6 244 13 277 9 43 9 91 0 203 -7 81 -14
154 -17 162 -10 26 -12 33 -28 119 -8 46 -20 90 -26 97 -17 20 -8 125 13 156
10 14 18 31 18 38 0 6 10 26 23 43 74 105 100 178 96 270 -3 63 6 107 21 107
13 0 31 65 24 86 -4 10 -16 31 -26 46 -10 14 -18 34 -18 43 0 9 -11 30 -25 47
-23 27 -35 65 -17 55 4 -2 24 -12 45 -22 36 -17 39 -17 79 1 64 29 78 49 78
114 0 31 -6 64 -14 75 -7 11 -17 31 -21 45 -4 14 -19 40 -33 57 -13 18 -19 33
-13 33 6 0 11 9 11 20 0 12 10 25 25 32 39 18 31 48 -28 106 -59 58 -103 69
-134 32 -17 -20 -18 -19 -59 21 -50 49 -91 60 -193 53 -82 -5 -100 -15 -126
-71 -14 -29 -15 -42 -5 -84 13 -53 52 -109 76 -109 34 0 0 -38 -74 -84 -35
-22 -41 -30 -36 -50 3 -13 1 -27 -4 -30 -6 -4 -9 -17 -6 -30 2 -13 -3 -29 -11
-36 -21 -18 -19 -70 5 -94 10 -12 26 -38 35 -59 14 -35 14 -37 -4 -37 -10 0
-31 -10 -46 -22 -22 -17 -31 -19 -44 -10 -9 7 -26 16 -38 22 -13 5 -30 28 -39
50 -9 22 -20 40 -25 40 -5 0 -9 6 -9 14 0 7 -7 19 -15 26 -9 7 -14 19 -11 26
3 7 1 16 -5 20 -6 3 -8 12 -5 20 3 7 1 16 -4 19 -6 4 -10 15 -10 26 0 10 -4
19 -8 19 -5 0 -21 22 -36 49 -23 43 -26 59 -24 123 3 63 0 77 -20 105 l-23 32
20 41 c18 37 18 40 2 40 -9 0 -33 8 -54 19 l-36 18 -12 -36 c-6 -20 -17 -50
-25 -68 -8 -17 -14 -40 -14 -52 0 -11 -11 -30 -24 -43 -21 -19 -30 -43 -35
-90 -1 -5 -12 -8 -25 -8 -14 0 -28 -4 -31 -10 -7 -11 23 -80 36 -80 4 0 2 -12
-6 -27 -33 -65 -45 -98 -45 -125 0 -15 -4 -28 -10 -28 -5 0 -10 -9 -10 -20 0
-27 -2 -26 -44 15 -20 19 -40 35 -44 35 -7 0 -53 81 -58 100 -7 35 -90 195
-123 240 -14 19 -46 57 -71 83 -24 26 -49 55 -54 65 -5 9 -15 21 -23 25 -7 4
-13 15 -13 24 0 9 -7 21 -15 27 -8 6 -16 21 -18 34 -2 13 -8 27 -14 30 -6 4
-25 39 -43 77 -47 103 -102 172 -224 287 -145 137 -224 217 -264 266 -46 55
-106 150 -122 192 -7 19 -22 44 -32 56 -10 11 -18 25 -18 31 0 6 -7 16 -16 24
-8 7 -24 29 -34 49 -12 23 -62 71 -134 129 -64 51 -116 97 -116 102 0 5 -5 9
-10 9 -12 0 -64 56 -96 104 -12 17 -54 96 -95 176 -64 124 -84 155 -148 220
-41 41 -74 78 -73 83 1 4 -4 7 -12 7 -14 0 -176 159 -176 173 0 5 -13 22 -30
38 -41 41 -114 197 -137 294 -21 84 -22 144 -5 282 10 82 11 84 260 550 138
258 254 476 257 486 6 14 1 17 -32 17 l-40 0 -290 -542z m2924 -3234 c18 -5
22 -12 18 -30 -3 -13 -7 -35 -10 -49 -3 -14 -1 -25 4 -25 5 0 13 20 17 45 3
25 11 48 16 51 6 4 7 -12 2 -42 -8 -56 -1 -55 20 2 17 46 21 26 5 -30 -8 -30
-8 -41 3 -47 17 -11 23 -3 41 51 8 24 21 46 28 48 9 2 10 1 3 -5 -10 -7 -35
-91 -33 -110 0 -4 10 10 20 32 11 22 17 29 14 15 -16 -63 -15 -74 4 -35 l20
40 0 -37 c1 -20 -3 -48 -9 -62 -11 -29 -6 -33 16 -12 8 8 14 29 14 47 0 26 3
30 12 21 7 -7 11 -39 11 -79 -1 -44 2 -62 8 -52 5 8 9 25 9 38 0 20 2 22 15
11 11 -9 15 -26 13 -53 -2 -23 2 -42 8 -44 7 -2 12 7 12 22 0 15 5 32 11 38
20 20 31 -12 31 -89 0 -48 5 -76 15 -90 15 -18 16 -18 14 6 -1 14 -1 43 0 65
l1 40 21 -34 c23 -38 27 -87 10 -120 -14 -26 -28 -27 -34 -3 -4 13 -5 12 -6
-5 0 -12 -6 -25 -12 -29 -8 -4 -9 4 -4 27 4 25 3 30 -4 19 -6 -8 -11 -28 -11
-43 0 -16 -4 -26 -9 -22 -5 3 -8 22 -5 43 l4 37 -20 -40 c-19 -37 -20 -38 -16
-10 3 17 8 39 12 50 6 16 4 18 -6 8 -7 -7 -16 -29 -20 -50 l-8 -38 -1 43 c0
24 4 52 9 63 6 10 7 19 2 19 -10 0 -27 -38 -35 -75 -3 -11 -5 -3 -6 17 0 20 3
39 8 42 12 8 21 45 11 51 -4 2 -15 -20 -25 -50 -9 -30 -21 -55 -26 -55 -12 0
-12 2 11 55 22 51 24 65 12 65 -5 0 -15 -18 -22 -41 -8 -22 -18 -43 -23 -46
-7 -4 -7 1 -2 13 15 38 34 104 29 104 -3 0 -16 -24 -29 -52 l-23 -53 5 45 c3
25 9 49 14 55 12 12 11 38 0 30 -5 -3 -12 -19 -16 -35 -4 -16 -10 -32 -15 -35
-4 -3 -2 17 5 45 16 59 10 65 -12 13 -21 -50 -27 -30 -9 30 8 26 11 47 8 47
-15 0 -31 -16 -30 -30 2 -32 -2 -51 -11 -46 -10 7 -2 56 12 74 5 7 7 16 3 19
-10 10 -26 -17 -26 -44 0 -13 -4 -23 -9 -23 -4 0 -5 19 0 43 11 55 11 57 -1
57 -5 0 -10 -13 -10 -30 0 -16 -5 -30 -11 -30 -12 0 -8 42 6 85 7 20 6 20 -9
1 -9 -11 -16 -30 -16 -43 0 -13 -5 -23 -11 -23 -10 0 -7 31 7 82 3 9 0 19 -6
23 -6 4 -10 -6 -10 -25 0 -17 -4 -29 -8 -26 -5 3 -7 20 -5 38 3 25 2 30 -6 18
-25 -34 -41 42 -21 94 10 28 13 29 47 20z m-572 -56 c-17 -75 -31 -92 -53 -65
-8 9 -5 24 10 55 27 52 53 58 43 10z m485 19 c0 -2 -12 -14 -26 -28 -25 -22
-26 -23 -15 -2 9 18 19 26 39 32 1 1 2 0 2 -2z m187 -42 c-6 -19 -14 -35 -19
-35 -11 0 -10 7 7 40 21 40 26 38 12 -5z m158 23 c2 -7 0 -29 -4 -48 -8 -32
-9 -32 -10 -8 -1 19 -5 26 -15 22 -14 -6 -30 22 -20 37 8 13 44 11 49 -3z
m-325 -6 c0 -5 -13 -18 -30 -30 -36 -27 -38 -23 -7 12 22 26 37 33 37 18z
m-30 -77 c-13 -14 -27 -22 -32 -19 -5 3 3 19 19 34 33 34 45 19 13 -15z m438
30 c2 -2 -1 -12 -7 -23 -6 -12 -11 -31 -11 -44 0 -28 -16 -55 -26 -45 -4 4 -2
13 4 19 7 7 12 28 12 48 l-1 35 -14 -25 c-9 -15 -14 -19 -15 -10 0 13 -1 13
-10 0 -13 -20 -13 1 0 35 9 23 14 26 38 20 15 -4 28 -8 30 -10z m-878 -124 c0
-51 5 -92 11 -98 13 -13 -6 -108 -23 -119 -11 -7 -1 61 14 89 5 10 5 17 -1 17
-10 0 -31 -54 -31 -81 0 -10 -5 -21 -11 -25 -6 -3 -10 1 -9 12 4 32 0 40 -10
24 -8 -12 -10 -11 -10 7 0 13 -8 24 -20 28 -16 5 -20 15 -20 52 0 28 -6 53
-16 64 -8 9 -14 28 -12 41 4 22 5 22 24 -9 27 -47 35 -41 17 13 -10 30 -12 49
-5 56 13 13 52 -38 52 -71 0 -14 5 -33 10 -41 14 -21 13 65 0 91 -15 27 5 65
26 48 10 -8 14 -35 14 -98z m460 74 c-13 -14 -28 -25 -34 -25 -5 0 3 13 19 30
16 16 31 28 33 25 3 -3 -5 -16 -18 -30z m450 6 c0 -5 -7 -11 -14 -14 -10 -4
-13 -1 -9 9 6 15 23 19 23 5z m-438 -33 c-7 -7 -12 -8 -12 -2 0 14 12 26 19
19 2 -3 -1 -11 -7 -17z m40 -106 c-3 -33 -8 -41 -27 -45 -13 -2 -30 0 -37 4
-8 6 -2 9 20 9 31 0 32 1 32 41 0 22 4 38 8 35 4 -2 6 -22 4 -44z m-652 6 c11
-18 20 -40 20 -48 0 -23 -38 20 -45 53 -9 36 1 34 25 -5z m620 5 c0 -22 -2
-25 -10 -13 -6 10 -10 11 -10 3 0 -7 -4 -13 -9 -13 -5 0 -7 9 -4 20 3 11 9 17
14 14 5 -3 9 0 9 5 0 6 2 11 5 11 3 0 5 -12 5 -27z m58 -27 c-5 -24 -8 -64 -6
-88 3 -38 5 -35 12 30 5 40 13 75 19 79 10 6 8 -13 -9 -104 -4 -21 -2 -33 5
-33 6 0 11 12 12 28 1 15 5 38 10 52 6 19 8 13 4 -22 -3 -28 0 -48 5 -48 6 0
10 11 10 25 0 14 5 25 10 25 26 0 6 -61 -37 -109 -29 -33 -29 -56 0 -95 13
-17 27 -45 30 -62 6 -29 4 -32 -22 -36 -47 -7 -69 6 -63 38 3 18 1 25 -6 20
-6 -3 -12 2 -14 11 -4 14 -9 9 -21 -17 -11 -21 -16 -26 -13 -12 4 21 -7 31
-17 15 -2 -5 -2 -2 0 5 2 8 6 26 9 40 l5 27 -16 -25 -16 -25 6 35 c5 31 4 33
-8 18 -20 -25 -30 -22 -22 5 6 22 6 22 -10 2 l-17 -20 4 20 c2 11 11 20 20 20
28 0 33 14 30 83 -2 45 0 62 7 53 5 -8 8 -23 6 -33 -2 -10 0 -29 5 -41 7 -19
9 -17 9 15 1 20 5 39 10 42 4 3 6 -10 4 -29 -2 -21 1 -35 7 -35 6 0 10 6 9 13
-1 6 -1 28 0 47 1 40 17 30 24 -15 2 -16 5 2 6 40 1 77 9 117 21 110 4 -3 3
-25 -2 -49z m-695 -31 c15 -19 23 -35 17 -35 -14 0 -60 46 -60 60 0 19 15 10
43 -25z m573 -7 c-3 -13 -6 -45 -6 -72 0 -28 -4 -46 -8 -40 -11 13 -2 134 10
134 6 0 8 -10 4 -22z m-566 -56 c0 -17 -30 -102 -55 -160 -27 -58 -29 -61 -46
-46 -13 12 -15 21 -9 33 10 17 31 75 56 154 13 42 17 46 34 37 11 -6 20 -14
20 -18z m186 -18 c-4 -9 -9 -15 -11 -12 -3 3 -3 13 1 22 4 9 9 15 11 12 3 -3
3 -13 -1 -22z m344 0 c0 -14 -4 -23 -9 -20 -5 3 -7 15 -4 26 7 28 13 25 13 -6z
m274 -2 c3 -5 -4 -23 -15 -40 -10 -18 -19 -40 -19 -50 -1 -16 -2 -15 -15 1
-15 20 -10 47 12 60 7 4 13 15 13 22 0 16 16 20 24 7z m-721 -112 c13 -49 15
-75 7 -105 -13 -52 -13 -112 0 -120 6 -3 10 -14 10 -24 0 -9 43 -59 95 -110
52 -52 95 -99 95 -106 0 -7 -7 -29 -15 -49 -14 -33 -19 -36 -54 -36 -31 0 -41
5 -46 20 -3 11 -27 29 -52 40 -41 18 -48 19 -63 5 -22 -20 -23 -19 -71 11 -26
16 -47 40 -59 67 -11 24 -30 53 -44 66 -22 21 -23 26 -11 45 7 11 19 40 26 64
7 23 15 42 19 42 4 0 7 6 8 13 2 25 32 122 64 203 l32 84 22 -22 c11 -13 28
-52 37 -88z m127 90 c0 -5 -2 -10 -4 -10 -3 0 -8 5 -11 10 -3 6 -1 10 4 10 6
0 11 -4 11 -10z m-37 -47 c-9 -63 -31 -149 -32 -127 -1 19 16 123 25 152 8 26
12 10 7 -25z m647 18 c-10 -20 -30 -37 -30 -27 0 6 33 46 38 46 1 0 -2 -9 -8
-19z m-580 -12 c-6 -11 -9 -28 -7 -37 3 -14 6 -12 15 8 11 25 11 25 11 -7 1
-18 -3 -54 -9 -80 -5 -26 -12 -68 -15 -93 -3 -25 -8 -69 -11 -98 -7 -54 -24
-82 -24 -39 0 14 6 60 14 103 18 100 25 184 16 184 -10 0 -20 -38 -20 -79 0
-42 -19 -148 -31 -176 -10 -23 -2 59 11 115 5 19 12 69 15 110 7 77 18 110 36
110 6 0 6 -7 -1 -21z m257 -9 c-8 -22 -13 -26 -19 -16 -10 18 0 46 17 46 11 0
11 -6 2 -30z m-362 -35 c-3 -26 -8 -45 -11 -43 -2 3 -1 26 2 52 4 25 9 44 12
42 2 -3 1 -26 -3 -51z m55 -37 c-7 -46 -17 -90 -22 -98 -6 -10 -7 -4 -3 20 3
19 9 60 11 90 7 64 12 85 21 77 3 -4 0 -44 -7 -89z m332 57 c-2 -14 -9 -25
-14 -25 -5 0 -7 3 -5 8 2 4 7 15 10 25 9 25 15 21 9 -8z m205 -7 c-3 -7 -5 -2
-5 12 0 14 2 19 5 13 2 -7 2 -19 0 -25z m117 6 c-5 -18 -1 -30 15 -45 11 -11
21 -30 21 -42 0 -16 -8 -8 -31 31 -25 43 -29 55 -19 67 18 21 21 19 14 -11z
m45 -36 l11 -33 -20 24 c-21 25 -26 41 -11 41 5 0 14 -15 20 -32z m-49 -46 c0
-9 -7 -6 -20 11 -11 14 -20 29 -20 33 0 4 9 -1 20 -11 11 -10 20 -25 20 -33z
m-62 26 c14 -14 16 -54 3 -62 -5 -3 -11 4 -14 17 -2 12 -8 30 -12 40 -8 20 5
23 23 5z m-499 -65 c-3 -57 -2 -68 12 -67 13 1 15 -5 8 -42 -5 -24 -11 -72
-13 -106 -3 -35 -5 -66 -5 -70 -1 -5 -6 -8 -12 -8 -6 0 -8 11 -5 28 3 15 8 54
11 87 3 33 7 69 8 79 1 10 -3 21 -10 23 -8 3 -12 -9 -11 -35 1 -61 -13 -142
-24 -142 -6 0 -7 7 -4 16 3 9 11 66 16 128 10 118 19 176 27 176 3 0 3 -30 2
-67z m281 48 c0 -13 -12 -20 -26 -14 -20 8 -17 19 6 20 11 1 20 -2 20 -6z
m352 -81 c-2 -25 -9 -51 -15 -57 -14 -19 3 -16 26 5 20 17 20 17 2 -17 -14
-27 -17 -58 -16 -157 2 -117 -7 -154 -24 -101 -7 21 -8 21 -15 -8 -4 -16 -8
-24 -9 -17 0 6 -5 12 -10 12 -5 0 -8 -28 -8 -62 1 -35 -3 -71 -8 -80 -8 -12
-10 -1 -10 44 0 40 -4 63 -13 65 -9 4 -10 -1 -2 -21 11 -31 4 -107 -15 -153
-18 -42 -26 -43 -14 -1 12 44 12 148 -1 148 -6 0 -10 -32 -10 -75 0 -41 -3
-75 -8 -75 -4 0 -6 19 -4 43 2 23 -1 53 -7 67 -10 24 -11 23 -10 -10 2 -77 -1
-110 -12 -110 -5 0 -9 12 -8 28 3 42 0 72 -8 72 -5 0 -7 -24 -5 -53 2 -31 -2
-67 -11 -88 -14 -33 -14 -33 -9 32 2 37 0 69 -5 72 -5 3 -9 -18 -10 -46 0 -29
-6 -63 -12 -77 -9 -21 -10 -17 -6 25 3 28 1 57 -5 65 -7 11 -10 5 -11 -25 -1
-68 -7 -98 -24 -114 -15 -15 -15 -14 -6 12 13 35 14 104 2 111 -5 3 -9 -16 -9
-43 -1 -48 -27 -130 -38 -118 -3 3 -1 14 5 25 14 27 15 94 1 72 -5 -8 -10 -24
-10 -36 0 -24 -22 -74 -33 -74 -4 0 -1 13 8 30 17 33 20 60 5 60 -5 0 -10 -7
-10 -15 0 -24 -29 -89 -37 -81 -4 3 -1 12 5 18 7 7 12 21 12 32 0 17 -3 16
-16 -9 -22 -43 -28 -45 -20 -5 24 114 23 176 -1 202 -34 38 -36 58 -8 58 14 0
25 -6 25 -12 0 -7 7 -22 16 -33 14 -19 15 -17 9 20 -5 31 -3 44 9 54 13 11 17
9 27 -15 5 -16 14 -63 18 -104 6 -66 8 -71 15 -40 6 32 3 58 -20 155 -6 26 -5
28 8 15 19 -19 38 -75 38 -111 0 -16 5 -29 11 -29 14 0 3 80 -17 129 -21 51
-7 51 37 1 21 -25 39 -41 39 -37 0 24 -31 76 -49 82 -12 3 -21 9 -21 13 0 10
82 52 102 52 9 0 20 5 23 10 4 6 21 8 38 6 79 -13 117 -15 122 -6 6 10 -6 14
-85 29 -65 13 -120 -3 -213 -62 -66 -43 -72 -44 -57 -17 6 11 7 20 1 20 -11 0
-23 -29 -16 -40 5 -9 -33 -45 -40 -38 -8 8 51 166 69 183 9 9 20 34 26 55 11
40 23 50 36 29 11 -18 128 -2 169 22 39 24 40 24 20 59 -17 29 -19 60 -5 60 6
0 10 -8 10 -18 0 -19 18 -42 34 -42 5 0 2 8 -7 18 -18 20 -22 32 -9 32 12 0
35 -43 43 -80 l7 -35 1 37 c0 21 -8 54 -20 75 l-21 38 31 -35 31 -34 1 54 c0
37 3 49 8 35 4 -11 6 -40 3 -65z m-605 28 c-3 -8 -6 -5 -6 6 -1 11 2 17 5 13
3 -3 4 -12 1 -19z m-417 -9 c15 -26 7 -34 -19 -19 -22 11 -26 22 -14 33 11 12
22 8 33 -14z m756 -6 c-10 -10 -19 5 -10 18 6 11 8 11 12 0 2 -7 1 -15 -2 -18z
m-74 -3 c18 -11 45 -20 61 -20 34 0 35 -13 2 -34 -25 -16 -26 -16 -43 14 -21
36 -37 39 -28 5 8 -30 -9 -33 -24 -6 -10 20 -14 61 -5 61 2 0 19 -9 37 -20z
m-441 -70 c-7 -20 -10 -22 -15 -9 -4 8 -1 29 5 45 11 25 13 26 16 9 2 -12 0
-32 -6 -45z m386 -2 c-3 -22 -4 -21 -11 4 -5 16 -5 36 0 45 7 16 8 15 11 -4 3
-13 3 -33 0 -45z m-639 16 c10 -20 9 -24 -3 -24 -12 0 -35 36 -35 55 0 13 29
-10 38 -31z m484 -6 c-6 -6 -7 0 -4 19 5 21 7 23 10 9 2 -10 0 -22 -6 -28z
m428 -15 c0 -21 -49 -26 -98 -10 l-47 15 55 25 55 25 17 -21 c10 -12 18 -28
18 -34z m-457 0 c-3 -59 -12 -127 -24 -173 -6 -26 -7 -20 -3 25 10 91 12 127
13 163 1 17 4 32 9 32 4 0 6 -21 5 -47z m-168 7 c-4 -12 -9 -19 -12 -17 -3 3
-2 15 2 27 4 12 9 19 12 17 3 -3 2 -15 -2 -27z m320 -15 c1 -25 -3 -45 -7 -45
-4 0 -8 20 -8 45 0 25 3 45 8 45 4 0 7 -20 7 -45z m464 -41 c-17 -44 -23 -11
-7 43 12 43 13 44 16 17 2 -17 -2 -43 -9 -60z m-549 51 c0 -8 -4 -15 -8 -15
-5 0 -9 7 -9 15 0 8 4 15 9 15 4 0 8 -7 8 -15z m-545 -36 c8 -36 -8 -59 -41
-59 -22 0 -23 2 -13 28 33 80 42 86 54 31z m600 32 c3 -5 2 -12 -3 -15 -5 -3
-9 1 -9 9 0 17 3 19 12 6z m-106 -75 c-9 -8 -10 -7 -5 7 3 10 7 31 8 45 1 22
2 21 5 -7 3 -19 -1 -38 -8 -45z m99 31 c12 -3 10 -5 -5 -6 -19 -1 -23 4 -22
27 1 22 2 23 6 5 2 -12 12 -24 21 -26z m240 15 c3 -9 -4 -11 -25 -6 -44 10
-54 26 -14 22 19 -2 36 -9 39 -16z m-113 -24 c-7 -18 -27 -59 -44 -91 -17 -32
-35 -76 -41 -99 -18 -66 -29 -90 -39 -83 -13 7 32 135 75 213 19 34 31 62 27
62 -14 0 -71 -114 -104 -206 -18 -49 -35 -93 -39 -97 -12 -13 7 75 26 122 13
33 15 48 6 61 -9 14 -8 19 3 24 10 3 12 0 8 -12 -3 -9 -4 -15 -1 -12 11 9 75
107 81 124 4 10 11 15 16 11 5 -3 12 -1 16 5 15 24 23 7 10 -22z m-83 -32
c-15 -24 -28 -43 -30 -41 -5 5 42 85 50 85 4 0 -5 -20 -20 -44z m-32 9 c0 -8
-4 -15 -8 -15 -5 0 -9 7 -9 15 0 8 4 15 9 15 4 0 8 -7 8 -15z m-33 -47 c-2
-13 -4 -5 -4 17 -1 22 1 32 4 23 2 -10 2 -28 0 -40z m-49 -12 c2 -23 -1 -36
-6 -32 -6 3 -8 15 -5 26 3 11 -1 28 -8 37 -12 14 -12 16 1 11 9 -3 16 -20 18
-42z m-499 -66 c11 -27 34 -59 51 -72 17 -13 43 -33 59 -45 16 -13 36 -23 45
-23 17 0 22 -33 10 -64 -10 -26 -22 -18 -18 12 l4 27 -15 -30 -16 -30 4 33 c2
17 0 32 -3 32 -4 0 -12 -15 -18 -32 l-12 -33 5 38 c2 22 0 35 -6 32 -5 -4 -9
-12 -9 -20 0 -8 -4 -16 -9 -20 -6 -3 -6 7 -1 27 10 33 5 53 -6 24 -3 -9 -10
-16 -15 -16 -4 0 -6 7 -3 15 10 24 -6 17 -17 -7 -8 -20 -9 -19 -5 9 4 22 1 33
-11 37 -9 4 -17 5 -17 4 -1 -2 -6 -13 -12 -25 -8 -20 -11 -21 -29 -7 l-20 16
20 -4 c15 -2 21 3 23 22 2 24 2 24 -13 6 -15 -20 -15 -20 -15 0 -1 16 -3 16
-15 -6 -10 -18 -14 -20 -15 -8 0 11 -6 16 -19 13 -11 -2 -26 4 -33 12 -12 15
-9 16 25 10 33 -5 37 -4 27 8 -7 8 -19 15 -26 15 -8 0 -14 5 -14 11 0 6 6 9
13 6 38 -14 57 -17 57 -10 0 16 -24 33 -47 33 -14 0 -23 6 -23 15 0 19 56 17
72 -2 6 -7 15 -13 20 -13 15 0 -6 28 -41 54 -32 24 -32 25 -9 28 31 5 52 -14
77 -72z m473 -2 c2 -21 1 -38 -3 -38 -8 0 -16 63 -10 81 5 17 8 7 13 -43z m69
-15 c-12 -20 -14 -14 -5 12 4 9 9 14 11 11 3 -2 0 -13 -6 -23z m-89 -95 c2
-20 0 -34 -4 -32 -4 3 -7 26 -7 52 1 49 5 42 11 -20z m67 24 c-4 -21 -13 -49
-19 -63 -8 -20 -9 -16 -4 21 7 59 14 80 24 80 4 0 4 -17 -1 -38z m-39 2 c0 -8
-4 -12 -10 -9 -5 3 -10 10 -10 16 0 5 5 9 10 9 6 0 10 -7 10 -16z m-601 -33
c11 -7 7 -22 -21 -77 -43 -87 -70 -82 -38 6 5 14 14 37 19 53 11 29 18 32 40
18z m121 -38 c-11 -17 -11 -17 -6 0 3 10 6 24 7 30 0 9 2 9 5 0 3 -7 0 -20 -6
-30z m237 -9 c11 -37 18 -32 13 9 -3 30 39 2 46 -31 3 -15 8 -33 10 -40 5 -17
-19 -64 -42 -83 -16 -13 -16 -12 0 13 10 15 16 33 13 40 -3 8 -9 3 -15 -12 -5
-14 -18 -32 -28 -40 -14 -12 -14 -7 5 23 12 20 21 43 18 50 -2 6 -14 -8 -26
-31 -12 -24 -24 -42 -27 -39 -2 2 2 17 11 33 9 17 11 30 5 32 -6 2 -10 13 -10
25 -1 18 -5 14 -21 -15 -11 -21 -24 -38 -30 -38 -6 0 -1 13 10 29 12 16 24 50
27 76 8 54 24 54 41 -1z m193 37 c0 -6 -4 -13 -10 -16 -5 -3 -10 1 -10 9 0 9
5 16 10 16 6 0 10 -4 10 -9z m-19 -80 c16 -16 29 -39 29 -50 0 -11 5 -23 10
-26 13 -8 13 36 0 69 -5 14 -6 26 -1 26 14 0 29 -24 35 -54 3 -16 10 -34 17
-40 8 -8 10 1 5 36 l-7 47 30 -10 c32 -11 61 -47 61 -76 0 -27 -26 -94 -33
-87 -3 3 -19 -9 -36 -28 -17 -18 -31 -27 -31 -20 0 6 4 12 9 12 11 0 41 62 41
87 0 10 -9 0 -20 -23 -12 -23 -33 -52 -48 -65 l-27 -24 21 25 c26 30 44 64 44
82 0 7 -10 -2 -21 -20 -23 -36 -38 -37 -19 -2 6 12 9 24 7 27 -3 3 -12 -8 -20
-24 -16 -31 -54 -69 -62 -62 -2 3 6 16 18 29 12 14 28 39 35 55 11 25 4 20
-38 -25 -40 -43 -45 -46 -22 -15 16 22 32 48 35 58 10 26 -8 20 -21 -8 -6 -14
-16 -25 -22 -25 -6 0 -3 11 6 25 10 15 12 25 5 25 -6 0 -11 -4 -11 -8 0 -4
-14 -23 -31 -42 -17 -19 -26 -28 -20 -19 19 28 42 89 32 89 -5 0 -14 -13 -21
-29 -6 -16 -21 -38 -33 -48 -21 -19 -17 -4 8 27 7 8 15 25 18 38 4 19 3 21 -9
11 -8 -6 -14 -17 -14 -24 0 -7 -7 -18 -14 -25 -9 -7 -5 9 10 39 13 28 24 62
24 76 0 36 43 34 81 -4z m-211 -66 c-7 -13 -17 -22 -21 -19 -5 3 -1 16 7 30
21 31 32 23 14 -11z m671 -42 c-8 -15 -10 -15 -11 -2 0 17 10 32 18 25 2 -3
-1 -13 -7 -23z m-30 -20 c-12 -20 -14 -14 -5 12 4 9 9 14 11 11 3 -2 0 -13 -6
-23z m29 -58 c0 -9 -26 -28 -61 -45 -34 -16 -76 -41 -94 -55 -32 -24 -75 -45
-103 -51 -9 -2 -12 4 -9 17 3 10 1 19 -4 19 -5 0 -9 -9 -9 -20 0 -11 -7 -20
-15 -20 -10 0 -15 10 -15 30 0 26 4 30 28 30 36 0 98 20 147 48 47 26 63 35
90 50 28 15 45 14 45 -3z m-430 -15 c0 -5 -5 -10 -11 -10 -5 0 -7 5 -4 10 3 6
8 10 11 10 2 0 4 -4 4 -10z m110 6 c0 -2 -8 -10 -17 -17 -16 -13 -17 -12 -4 4
13 16 21 21 21 13z m23 -24 c-5 -22 -23 -31 -23 -12 0 10 23 40 27 36 1 -1 0
-12 -4 -24z m-262 -15 c-10 -9 -11 -8 -5 6 3 10 9 15 12 12 3 -3 0 -11 -7 -18z
m60 -24 c-10 -17 -10 -16 -11 3 0 23 13 41 18 25 2 -6 -1 -18 -7 -28z m44 -2
c-7 -23 -25 -29 -25 -8 0 14 21 39 28 33 2 -3 1 -14 -3 -25z m38 -1 c-3 -11
-13 -20 -22 -19 -10 0 -11 2 -3 6 6 2 12 11 12 19 0 8 4 14 9 14 5 0 7 -9 4
-20z m30 -10 c-8 -29 -24 -36 -19 -8 3 13 5 27 5 31 1 5 5 6 10 3 5 -3 7 -15
4 -26z m31 -24 c-7 -30 -24 -35 -24 -8 0 18 20 45 27 38 2 -2 1 -15 -3 -30z
m36 15 c0 -24 -10 -51 -19 -51 -4 0 -5 16 -3 35 4 37 22 49 22 16z m266 -3
c-16 -56 -47 -530 -33 -518 3 3 8 50 11 105 14 232 26 362 35 390 l9 30 1 -28
c1 -16 -3 -70 -9 -120 -5 -51 -12 -157 -14 -237 -6 -207 -24 -569 -31 -634 -4
-32 -2 -56 3 -56 9 0 17 111 28 375 3 77 8 143 11 148 3 5 9 104 13 220 4 117
13 223 18 237 8 18 9 -9 7 -100 -5 -176 -14 -402 -21 -485 -11 -159 -16 -375
-7 -375 8 0 27 324 43 750 l6 165 3 -120 c4 -184 2 -430 -5 -637 -5 -149 -10
-188 -20 -188 -8 0 -14 5 -14 10 0 6 -4 10 -10 10 -5 0 -10 -7 -10 -15 0 -17
-12 -18 -60 -9 l-32 7 7 226 c17 584 17 619 9 633 -3 4 -1 8 4 8 5 0 15 52 22
115 10 88 17 115 28 115 10 0 12 -6 8 -22z m-492 -47 c5 -35 1 -71 -14 -125
-11 -42 -20 -88 -21 -103 -1 -30 -26 -105 -30 -88 -1 6 -3 24 -5 40 -2 17 -10
79 -19 139 -8 60 -13 111 -11 114 6 5 10 -13 26 -123 12 -82 16 -93 26 -82 3
3 -1 41 -10 85 -9 43 -16 97 -15 118 1 30 4 23 14 -35 8 -40 19 -79 26 -85 9
-8 10 -7 6 7 -4 10 -8 53 -10 95 -2 42 -2 61 0 42 2 -19 9 -39 15 -45 6 -7 7
9 3 49 -5 38 -4 57 2 53 6 -4 13 -29 17 -56z m39 19 c-8 -31 -23 -34 -23 -6 0
16 6 26 14 26 9 0 12 -7 9 -20z m387 -55 c-5 -39 -12 -155 -15 -260 -3 -104
-10 -269 -16 -365 -5 -96 -9 -218 -8 -270 1 -52 -2 -94 -7 -92 -5 1 -13 3 -19
5 -12 4 -14 122 -4 190 9 56 27 366 35 592 6 180 10 230 24 256 18 32 19 20
10 -56z m-350 48 c0 -10 -4 -24 -9 -31 -7 -11 -9 -11 -14 2 -7 19 1 46 14 46
5 0 9 -8 9 -17z m15 -50 c-11 -106 -13 -193 -4 -198 5 -4 9 15 9 43 0 89 13
202 23 202 14 0 0 -197 -28 -375 -20 -130 -26 -195 -15 -167 9 22 27 137 37
237 2 28 7 57 10 65 10 25 12 41 16 133 3 79 10 108 21 96 12 -11 -41 -486
-70 -626 -16 -83 -17 -103 -6 -103 5 0 14 39 21 88 6 48 16 114 21 147 24 153
32 219 40 334 5 71 14 128 21 135 17 16 1 -327 -22 -469 -6 -33 -14 -94 -20
-135 -5 -41 -14 -111 -20 -155 -6 -44 -13 -126 -16 -183 -3 -65 -9 -105 -16
-108 -7 -2 -32 -1 -56 4 l-45 7 3 65 c2 36 4 76 6 90 1 14 5 57 9 95 3 39 9
102 12 140 4 39 8 95 9 125 2 30 5 71 8 90 3 19 8 91 12 159 3 68 8 127 10
132 3 4 8 29 10 56 8 75 16 123 21 123 3 0 2 -21 -1 -47z m291 -15 c-9 -100
-32 -545 -43 -850 l-5 -128 -27 0 c-15 0 -36 -7 -47 -15 -10 -8 -22 -15 -27
-15 -7 0 -2 150 9 250 2 25 7 90 9 145 3 55 10 143 16 196 5 53 9 100 8 105
-1 5 -1 82 0 172 1 137 3 162 16 162 18 0 18 -9 6 -172 -13 -166 -20 -492 -10
-448 5 19 11 112 14 205 3 94 8 188 11 210 2 22 7 79 11 128 8 115 22 122 17
9 -21 -513 -24 -573 -35 -625 -5 -26 -8 -78 -8 -115 l2 -67 8 60 c7 53 20 198
34 387 2 34 7 124 10 198 6 159 11 222 20 250 12 38 17 20 11 -42z m-326 -16
l0 -27 -14 25 c-13 26 -11 44 5 35 5 -4 9 -18 9 -33z m174 -19 c-3 -32 -9
-130 -15 -218 -5 -88 -13 -189 -18 -225 -5 -36 -14 -105 -20 -155 -5 -49 -15
-117 -20 -150 -6 -33 -11 -99 -11 -147 0 -60 -4 -88 -11 -88 -16 0 -1 291 17
340 6 15 22 136 30 220 2 25 9 81 14 125 6 44 12 134 15 200 2 66 4 128 4 138
1 9 5 17 10 17 6 0 8 -25 5 -57z m333 35 c-3 -8 -6 -5 -6 6 -1 11 2 17 5 13 3
-3 4 -12 1 -19z m-316 -331 c-6 -106 -12 -203 -14 -217 -13 -78 -37 -326 -40
-395 -1 -45 -6 -80 -12 -80 -27 0 -14 230 25 475 21 124 30 224 37 385 5 111
9 145 11 97 2 -40 -2 -159 -7 -265z m-364 286 c-3 -10 -5 -4 -5 12 0 17 2 24
5 18 2 -7 2 -21 0 -30z m162 -48 c0 -40 -15 -15 -24 40 -6 39 -6 39 9 15 8
-14 15 -38 15 -55z m576 -185 c3 -80 0 -197 -6 -260 -12 -135 -14 -304 -4
-349 4 -21 2 -35 -8 -46 -9 -8 -17 -20 -20 -27 -11 -33 -13 12 -6 202 4 113 8
318 9 455 1 234 2 247 16 210 10 -26 17 -91 19 -185z m-758 153 c-3 -10 -5 -2
-5 17 0 19 2 27 5 18 2 -10 2 -26 0 -35z m30 15 c-3 -8 -6 -5 -6 6 -1 11 2 17
5 13 3 -3 4 -12 1 -19z m131 -5 c13 -32 14 -135 2 -128 -12 7 -44 94 -37 101
3 3 12 -7 21 -23 20 -37 21 -7 1 41 -8 20 -11 36 -6 36 5 0 13 -12 19 -27z
m-134 -133 c9 -46 19 -86 21 -89 8 -7 5 39 -5 89 -5 26 -4 51 1 60 6 11 8 5 9
-19 0 -18 5 -50 11 -71 9 -29 8 -52 -4 -106 -9 -38 -19 -102 -23 -142 -4 -40
-9 -70 -12 -67 -5 4 -23 77 -52 210 -5 22 -9 54 -9 70 l1 30 8 -30 c19 -70 30
-127 30 -150 0 -13 5 -27 10 -30 13 -8 13 65 0 100 -5 14 -12 43 -15 63 -2 20
-9 53 -15 72 -5 19 -10 44 -9 55 1 20 24 -60 35 -122 3 -18 11 -52 19 -75 13
-43 13 -43 14 -10 1 27 -12 98 -45 242 -3 16 -2 21 4 15 5 -5 17 -48 26 -95z
m120 4 c29 -53 30 -54 16 -54 -9 0 -50 80 -50 96 0 13 11 -1 34 -42z m-224 1
c0 -5 -5 -3 -10 5 -5 8 -10 20 -10 25 0 6 5 3 10 -5 5 -8 10 -19 10 -25z m37
-17 c-2 -13 -4 -5 -4 17 -1 22 1 32 4 23 2 -10 2 -28 0 -40z m195 -92 c-7 -13
-41 55 -41 84 0 20 5 14 23 -25 13 -27 21 -54 18 -59z m-28 1 c14 -30 26 -60
26 -68 -1 -16 -32 42 -48 90 -16 47 -7 37 22 -22z m-227 21 c-3 -8 -6 -5 -6 6
-1 11 2 17 5 13 3 -3 4 -12 1 -19z m46 -20 c8 -59 45 -223 59 -264 8 -21 11
-50 8 -64 l-6 -25 -7 25 c-4 14 -7 39 -7 56 0 17 -3 34 -7 38 -4 3 -8 14 -9
24 -7 46 -28 142 -40 180 -16 49 -18 76 -5 68 5 -3 11 -20 14 -38z m196 -133
c0 -29 -1 -29 -17 12 -9 23 -20 45 -24 49 -5 4 -8 21 -8 37 0 29 1 27 25 -19
14 -27 25 -62 24 -79z m-261 90 c-3 -3 -9 2 -12 12 -6 14 -5 15 5 6 7 -7 10
-15 7 -18z m9 -62 c-3 -10 -5 -4 -5 12 0 17 2 24 5 18 2 -7 2 -21 0 -30z m250
-106 c-5 -13 -67 114 -67 135 1 7 17 -18 36 -55 19 -38 33 -74 31 -80z m-228
32 c4 -24 25 -106 45 -183 20 -76 35 -141 32 -143 -3 -3 -12 21 -21 53 -9 33
-21 77 -27 99 -5 22 -14 51 -19 65 -8 25 -29 135 -29 154 0 22 11 -3 19 -45z
m35 -4 c5 -22 4 -26 -4 -15 -5 8 -10 24 -10 34 0 26 6 18 14 -19z m161 -26
c15 -28 24 -56 22 -62 -2 -7 -17 16 -34 51 -35 74 -25 84 12 11z m-258 -21
c-3 -8 -6 -5 -6 6 -1 11 2 17 5 13 3 -3 4 -12 1 -19z m273 -102 c-1 -13 -12 1
-30 37 -39 77 -39 108 0 38 17 -30 30 -64 30 -75z m-151 54 c0 -10 -3 -8 -9 5
-12 27 -12 43 0 25 5 -8 9 -22 9 -30z m-99 -9 c4 -17 5 -33 0 -36 -8 -5 -20
28 -20 59 0 26 9 16 20 -23z m250 -128 c0 -19 -20 -16 -26 5 -3 9 -17 42 -30
73 -39 91 -27 101 16 14 22 -44 40 -86 40 -92z m-283 95 c-3 -7 -5 -2 -5 12 0
14 2 19 5 13 2 -7 2 -19 0 -25z m162 -88 c-1 -28 -27 55 -28 85 0 24 3 19 14
-20 8 -27 14 -57 14 -65z m97 -35 c9 -13 14 -30 12 -36 -5 -14 -39 41 -56 90
-19 55 -13 70 8 18 11 -26 27 -58 36 -72z m-198 48 c7 -27 22 -81 34 -121 11
-40 18 -75 16 -77 -6 -7 -37 82 -57 168 -20 83 -14 108 7 30z m-111 5 c-3 -8
-6 -5 -6 6 -1 11 2 17 5 13 3 -3 4 -12 1 -19z m71 -3 c-3 -3 -9 2 -12 12 -6
14 -5 15 5 6 7 -7 10 -15 7 -18z m231 -100 c6 -3 11 -21 11 -38 0 -28 -5 -23
-40 47 -22 43 -40 88 -40 100 0 13 12 -3 30 -40 15 -34 33 -65 39 -69z m-230
-30 c-1 -16 -26 57 -32 95 -4 19 2 8 13 -25 11 -33 19 -64 19 -70z m-80 69 c7
-26 10 -49 7 -52 -3 -3 -7 1 -10 9 -19 66 -23 89 -16 89 4 0 13 -21 19 -46z
m101 -3 c7 -21 11 -44 8 -51 -2 -6 -11 11 -20 39 -9 28 -13 51 -9 51 4 0 14
-17 21 -39z m169 -41 c16 -33 34 -67 41 -75 6 -8 10 -22 8 -32 -3 -11 -20 14
-46 69 -23 48 -42 89 -42 92 0 19 14 -1 39 -54z m-295 15 c5 -22 4 -26 -4 -15
-5 8 -10 24 -10 34 0 26 6 18 14 -19z m225 -100 c0 -25 -27 45 -32 85 -6 44
-5 43 14 -15 10 -33 19 -64 18 -70z m-249 95 c0 -5 -4 -10 -10 -10 -5 0 -10 5
-10 10 0 6 5 10 10 10 6 0 10 -4 10 -10z m98 -25 c-3 -3 -9 2 -12 12 -6 14 -5
15 5 6 7 -7 10 -15 7 -18z m221 -64 c18 -36 26 -59 17 -52 -19 16 -56 87 -56
108 0 21 1 19 39 -56z m-139 28 c0 -6 -4 -7 -10 -4 -5 3 -10 11 -10 16 0 6 5
7 10 4 6 -3 10 -11 10 -16z m-105 -159 c0 -88 -3 -160 -7 -160 -4 0 -8 26 -8
58 -1 31 -1 91 -2 132 -1 103 1 130 10 130 4 0 7 -72 7 -160z m32 -2 c-2 -29
-3 -6 -3 52 0 58 1 81 3 53 2 -29 2 -77 0 -105z m192 92 c0 -11 -3 -10 -14 4
-8 11 -15 27 -15 35 0 11 4 10 15 -5 8 -10 14 -26 14 -34z m-146 -67 c-2 -132
-3 -135 -13 -101 -13 43 -11 208 3 208 9 0 11 -30 10 -107z m-120 -50 c4 -114
-2 -152 -18 -103 -7 22 -5 210 3 223 8 15 9 2 15 -120z m151 64 c2 -32 0 -60
-5 -63 -5 -3 -9 25 -9 62 0 80 9 80 14 1z m31 24 c3 -5 1 -12 -5 -16 -5 -3
-10 1 -10 9 0 18 6 21 15 7z m104 -36 c4 2 32 -5 62 -16 63 -24 111 -25 229
-5 l35 6 3 -71 c1 -39 9 -84 17 -99 8 -16 15 -39 15 -52 0 -31 10 -99 17 -118
4 -8 7 -17 8 -20 21 -79 40 -129 55 -145 10 -11 28 -42 39 -68 22 -47 22 -48
3 -75 -11 -15 -22 -39 -25 -53 -7 -26 -9 -27 -64 -23 -32 2 -67 5 -78 8 -11 3
-110 8 -220 12 -110 3 -208 8 -218 10 -10 2 -29 -1 -42 -6 -13 -5 -25 -6 -27
-2 -3 8 -187 -2 -228 -13 -19 -5 -18 -3 8 11 18 9 32 24 32 35 0 10 4 20 9 23
5 3 11 20 14 38 3 18 8 44 12 58 4 14 8 32 9 40 3 23 49 89 66 95 23 8 92 100
107 143 8 20 15 55 17 77 4 55 15 93 41 141 45 81 47 83 73 73 13 -5 27 -7 31
-4z m368 -7 c-3 -8 -6 -5 -6 6 -1 11 2 17 5 13 3 -3 4 -12 1 -19z m30 -15 c-3
-10 -5 -4 -5 12 0 17 2 24 5 18 2 -7 2 -21 0 -30z m60 5 c-3 -7 -5 -2 -5 12 0
14 2 19 5 13 2 -7 2 -19 0 -25z m55 -85 c-2 -65 -7 -121 -10 -125 -7 -7 -4
208 3 230 9 26 10 9 7 -105z m31 -20 c-3 -69 -10 -123 -15 -123 -6 0 -8 6 -5
14 3 8 7 66 8 130 1 64 6 113 10 109 4 -4 5 -63 2 -130z m-873 107 c0 -5 -4
-10 -10 -10 -5 0 -10 5 -10 10 0 6 5 10 10 10 6 0 10 -4 10 -10z m0 -92 c0
-34 -2 -59 -4 -57 -8 10 -13 129 -5 123 5 -3 9 -33 9 -66z m-43 -25 c-2 -16
-4 -5 -4 22 0 28 2 40 4 28 2 -13 2 -35 0 -50z m740 35 c-3 -8 -6 -5 -6 6 -1
11 2 17 5 13 3 -3 4 -12 1 -19z m-574 -65 c3 -43 2 -73 -4 -73 -5 0 -9 35 -9
77 0 94 5 92 13 -4z m684 45 c-3 -7 -5 -2 -5 12 0 14 2 19 5 13 2 -7 2 -19 0
-25z m-36 -68 l-10 -55 4 65 c5 74 6 81 11 60 3 -8 0 -40 -5 -70z m167 -2
c-16 -44 -26 -16 -14 37 10 42 11 43 18 20 3 -14 2 -40 -4 -57z m-130 -13 c0
-25 -4 -43 -9 -39 -16 9 -10 84 7 84 1 0 2 -20 2 -45z m-885 1 c8 -19 -3 -57
-14 -50 -12 7 -12 64 0 64 5 0 11 -6 14 -14z m40 -35 c-7 -42 -13 -37 -13 10
0 30 3 39 9 30 5 -8 7 -26 4 -40z m37 35 c0 -7 3 -29 6 -47 5 -23 3 -31 -3
-24 -14 14 -24 85 -12 85 5 0 9 -6 9 -14z m50 -48 c0 -62 -5 -60 -14 5 -5 31
-4 47 3 47 7 0 11 -22 11 -52z m44 -26 c2 -23 -1 -42 -5 -42 -5 0 -9 8 -9 19
0 10 -3 34 -6 52 -5 25 -4 31 5 23 6 -5 13 -29 15 -52z m841 22 c-32 -25 -45
-30 -45 -15 0 12 63 52 70 45 3 -3 -8 -17 -25 -30z m-89 -29 c-4 -13 -84 -11
-96 1 -7 7 10 10 45 10 32 -1 54 -5 51 -11z m114 10 c0 -9 -77 -55 -106 -64
-21 -6 -40 -3 -69 10 l-40 17 38 -5 c24 -4 50 0 70 10 53 25 107 41 107 32z
m-1073 -57 c-3 -7 -5 -2 -5 12 0 14 2 19 5 13 2 -7 2 -19 0 -25z m33 -158 c0
-99 -4 -180 -8 -180 -5 0 -8 73 -7 163 3 191 4 197 9 197 3 0 5 -81 6 -180z
m67 133 c-3 -10 -5 -2 -5 17 0 19 2 27 5 18 2 -10 2 -26 0 -35z m969 -45 c-4
-51 -9 -126 -12 -165 -5 -62 -3 -79 17 -120 13 -26 36 -60 52 -74 53 -49 87
-119 57 -119 -5 0 -10 8 -10 18 0 9 -5 24 -11 32 -8 11 -9 7 -6 -18 6 -52 -11
-48 -20 5 l-8 48 -6 -45 -6 -45 -1 58 c-2 71 -22 76 -22 5 0 -80 -19 -45 -22
42 l-3 75 -11 -75 -11 -75 -2 123 c0 74 -5 122 -11 122 -6 0 -10 -38 -10 -92
0 -51 -5 -100 -11 -108 -12 -18 -2 224 11 271 5 17 5 29 -1 29 -5 0 -9 -3 -9
-7 0 -5 -5 -37 -11 -73 -5 -36 -14 -101 -19 -145 -8 -76 -8 -73 -5 40 2 66 8
167 15 225 11 95 15 108 41 133 16 15 32 27 36 27 3 0 3 -42 -1 -92z m-996
-35 c0 -64 -3 -113 -7 -110 -6 7 -12 207 -6 220 10 20 13 -2 13 -110z m77 55
c-3 -7 -5 -2 -5 12 0 14 2 19 5 13 2 -7 2 -19 0 -25z m753 7 c0 -5 -2 -28 -6
-50 -7 -44 -15 -34 -28 37 -6 35 -5 37 13 30 11 -4 20 -11 21 -17z m47 -7 c-3
-13 -9 -47 -13 -75 -3 -29 -10 -50 -15 -47 -9 5 -3 119 7 135 11 18 26 8 21
-13z m36 -45 c-3 -38 -12 -86 -19 -108 -12 -37 -12 -31 -7 60 5 103 8 115 23
115 5 0 7 -29 3 -67z m-886 -15 c-2 -13 -4 -3 -4 22 0 25 2 35 4 23 2 -13 2
-33 0 -45z m-107 -113 l-7 -100 -1 115 c-1 63 2 108 7 100 4 -8 5 -60 1 -115z
m-35 -54 c4 -55 3 -91 -2 -88 -5 3 -10 48 -12 99 -1 51 0 91 2 88 3 -3 8 -47
12 -99z m-38 -33 c-2 -13 -4 -5 -4 17 -1 22 1 32 4 23 2 -10 2 -28 0 -40z
m-28 -28 c1 -13 0 -13 -9 0 -5 8 -9 26 -9 40 l1 25 8 -25 c4 -14 8 -32 9 -40z
m-29 -17 c0 -55 -5 -54 -14 5 -4 26 -2 42 4 42 5 0 10 -21 10 -47z m-37 -11
c3 -24 1 -40 -4 -36 -5 3 -9 24 -9 46 0 51 5 47 13 -10z m-378 6 c13 -6 2 -7
-34 -4 -30 3 -59 10 -64 15 -11 11 68 3 98 -11z m-305 -8 c9 -6 -6 -7 -45 -3
-33 3 -62 7 -64 9 -10 9 95 3 109 -6z m360 0 c0 -5 -7 -7 -15 -4 -8 4 -15 8
-15 10 0 2 7 4 15 4 8 0 15 -4 15 -10z m-160 -15 c112 -12 151 -18 141 -25 -6
-3 -62 0 -124 7 -61 7 -129 13 -150 15 -21 1 -41 6 -43 10 -5 8 46 6 176 -7z
m430 -6 c0 -11 -4 -18 -10 -14 -5 3 -7 12 -3 20 7 21 13 19 13 -6z m1180 -26
c0 -51 -14 -51 -16 0 -2 31 2 47 12 47 2 0 4 -21 4 -47z m-1902 8 c62 -1 83
-4 79 -13 -2 -9 -23 -12 -63 -11 -134 5 -323 4 -374 -1 -132 -15 -197 -27
-263 -51 -26 -9 -50 -15 -52 -13 -10 10 54 46 91 51 21 4 55 11 74 17 19 5 64
13 100 16 36 4 67 8 69 10 3 3 61 2 130 0 69 -3 164 -5 209 -5z m217 -17 c33
-2 77 -7 98 -9 38 -5 102 -11 227 -19 82 -6 131 -16 125 -26 -5 -8 -67 -4 -95
6 -8 3 -69 8 -135 10 -101 4 -196 11 -240 19 -5 1 -31 3 -57 3 -27 1 -48 6
-48 11 0 12 30 20 50 14 8 -2 42 -7 75 -9z m340 6 c18 -8 18 -9 -5 -9 -14 0
-43 4 -65 8 l-40 9 45 0 c25 0 54 -3 65 -8z m355 1 c-16 -10 -123 -31 -128
-26 -2 1 16 9 40 18 48 16 113 22 88 8z"/>
<path d="M6447 4167 c-4 -10 -7 -28 -6 -40 0 -21 1 -21 10 2 5 14 8 32 7 40
-3 13 -5 13 -11 -2z"/>
<path d="M5837 3894 c-4 -4 -7 -14 -7 -23 0 -11 3 -12 11 -4 6 6 10 16 7 23
-2 6 -7 8 -11 4z"/>
<path d="M5857 3860 c-3 -11 -1 -20 4 -20 5 0 9 9 9 20 0 11 -2 20 -4 20 -2 0
-6 -9 -9 -20z"/>
<path d="M5887 3840 c-3 -11 -1 -20 4 -20 5 0 9 9 9 20 0 11 -2 20 -4 20 -2 0
-6 -9 -9 -20z"/>
<path d="M6460 3575 c0 -8 2 -15 4 -15 2 0 6 7 10 15 3 8 1 15 -4 15 -6 0 -10
-7 -10 -15z"/>
<path d="M6485 3570 c-3 -5 -1 -10 4 -10 6 0 11 5 11 10 0 6 -2 10 -4 10 -3 0
-8 -4 -11 -10z"/>
<path d="M6371 3379 c-5 -13 -18 -45 -30 -71 -11 -27 -17 -48 -12 -48 11 0 65
129 58 137 -4 3 -11 -5 -16 -18z"/>
<path d="M6399 3345 c-15 -30 -23 -55 -18 -55 10 0 59 82 59 98 0 26 -16 9
-41 -43z"/>
<path d="M6051 1927 c-12 -67 -14 -103 -6 -96 7 7 27 150 22 155 -3 3 -10 -24
-16 -59z"/>
<path d="M6042 1790 c0 -14 2 -19 5 -12 2 6 2 18 0 25 -3 6 -5 1 -5 -13z"/>
<path d="M6270 1785 c0 -14 5 -25 10 -25 6 0 10 11 10 25 0 14 -4 25 -10 25
-5 0 -10 -11 -10 -25z"/>
<path d="M720 7931 c0 -22 6 -30 25 -35 20 -5 28 -17 40 -64 80 -290 190 -584
327 -874 l51 -108 37 0 37 0 71 158 c85 187 189 456 262 677 54 161 85 215
124 215 11 0 16 9 16 30 l0 30 -135 0 -135 0 0 -29 c0 -22 6 -30 24 -35 48
-12 42 -99 -20 -304 -60 -198 -198 -562 -213 -562 -17 0 -205 482 -260 670
-40 139 -43 182 -13 195 15 7 22 18 22 37 l0 28 -130 0 -130 0 0 -29z"/>
<path d="M1880 7439 c-73 -29 -125 -99 -137 -185 -6 -43 -5 -46 17 -42 15 2
26 14 35 42 8 22 28 53 45 70 29 29 35 31 108 31 71 0 91 -6 257 -69 259 -98
341 -100 427 -9 54 56 80 173 39 173 -14 0 -22 -11 -30 -44 -12 -48 -63 -101
-107 -112 -48 -12 -122 5 -285 66 -237 89 -306 104 -369 79z"/>
<path d="M3890 7439 c-73 -29 -125 -99 -137 -185 -6 -43 -5 -46 17 -42 15 2
26 14 35 42 8 22 28 53 45 70 29 29 35 31 108 31 71 0 91 -6 257 -69 259 -98
341 -100 427 -9 54 56 80 173 39 173 -14 0 -22 -11 -30 -44 -12 -48 -63 -101
-107 -112 -48 -12 -122 5 -285 66 -237 89 -306 104 -369 79z"/>
<path d="M4880 7439 c-73 -29 -125 -99 -137 -185 -6 -43 -5 -46 17 -42 15 2
26 14 35 42 8 22 28 53 45 70 29 29 35 31 108 31 71 0 91 -6 257 -69 259 -98
341 -100 427 -9 54 56 80 173 39 173 -14 0 -22 -11 -30 -44 -12 -48 -63 -101
-107 -112 -48 -12 -122 5 -285 66 -237 89 -306 104 -369 79z"/>
<path d="M4360 6870 c0 -5 5 -10 10 -10 6 0 10 5 10 10 0 6 -4 10 -10 10 -5 0
-10 -4 -10 -10z"/>
<path d="M5256 6843 c-6 -14 -5 -15 5 -6 7 7 10 15 7 18 -3 3 -9 -2 -12 -12z"/>
<path d="M6260 6520 c0 -5 5 -10 11 -10 5 0 7 5 4 10 -3 6 -8 10 -11 10 -2 0
-4 -4 -4 -10z"/>
<path d="M3460 4970 c0 -5 5 -10 11 -10 5 0 7 5 4 10 -3 6 -8 10 -11 10 -2 0
-4 -4 -4 -10z"/>
<path d="M3710 4697 c0 -8 7 -18 16 -21 11 -4 14 -1 12 11 -4 21 -28 30 -28
10z"/>
<path d="M4475 1030 c3 -5 10 -10 16 -10 5 0 9 5 9 10 0 6 -7 10 -16 10 -8 0
-12 -4 -9 -10z"/>
<path d="M4488 685 c-46 -12 -99 -29 -118 -37 l-35 -15 70 4 c172 9 196 11
210 23 8 7 15 9 15 4 0 -14 264 -8 316 6 45 13 46 14 23 26 -18 10 -74 13
-211 12 -158 -1 -200 -5 -270 -23z"/>
<path d="M5740 346 c0 -9 5 -16 10 -16 6 0 10 4 10 9 0 6 -4 13 -10 16 -5 3
-10 -1 -10 -9z"/>
</g>
</svg>
