<?xml version="1.0" standalone="no"?>
<!DOCTYPE svg PUBLIC "-//W3C//DTD SVG 20010904//EN"
 "http://www.w3.org/TR/2001/REC-SVG-20010904/DTD/svg10.dtd">
<svg version="1.0" xmlns="http://www.w3.org/2000/svg"
 width="106.000000pt" height="58.000000pt" viewBox="0 0 106.000000 58.000000"
 preserveAspectRatio="xMidYMid meet">
<metadata>
Created by potrace 1.15, written by Peter Selinger 2001-2017
</metadata>
<g transform="translate(0.000000,58.000000) scale(0.100000,-0.100000)"
fill="#000000" stroke="none">
<path d="M84 290 c0 -162 2 -229 3 -147 2 81 2 213 0 295 -1 81 -3 14 -3 -148z"/>
<path d="M440 453 c0 -23 36 -113 45 -113 6 0 19 24 28 53 20 62 20 67 8 67
-5 0 -14 -21 -21 -47 l-13 -48 -15 48 c-9 26 -19 47 -24 47 -4 0 -8 -3 -8 -7z"/>
<path d="M760 288 c0 -39 1 -40 18 -25 17 16 21 14 67 -33 26 -27 53 -47 58
-43 5 3 -14 29 -42 57 -48 49 -50 53 -34 69 16 16 15 17 -25 17 l-42 0 0 -42z"/>
<path d="M248 253 c-2 -10 -1 -31 3 -48 6 -28 7 -28 9 -5 1 14 3 35 4 48 3 26
-10 30 -16 5z"/>
<path d="M540 225 c0 -27 3 -46 6 -42 3 3 6 22 6 42 0 20 -3 39 -6 42 -3 4 -6
-15 -6 -42z"/>
<path d="M401 254 c-2 -18 20 -74 29 -74 10 0 34 69 27 76 -3 3 -8 -8 -12 -25
-9 -40 -19 -39 -33 2 -5 17 -10 27 -11 21z"/>
<path d="M287 233 c-4 -3 -7 -17 -7 -30 0 -35 34 -26 38 10 3 26 -14 37 -31
20z m23 -23 c0 -11 -4 -20 -10 -20 -5 0 -10 9 -10 20 0 11 5 20 10 20 6 0 10
-9 10 -20z"/>
<path d="M341 206 c1 -24 3 -26 6 -8 2 12 9 22 14 22 5 0 9 4 9 8 0 5 -7 9
-15 9 -10 0 -15 -10 -14 -31z"/>
<path d="M472 210 c0 -19 2 -27 5 -17 2 9 2 25 0 35 -3 9 -5 1 -5 -18z"/>
<path d="M505 230 c-4 -6 -2 -17 5 -24 8 -11 8 -15 -2 -19 -9 -4 -9 -6 -1 -6
18 -1 26 18 13 33 -8 11 -8 15 2 19 9 4 9 6 1 6 -6 1 -15 -4 -18 -9z"/>
<path d="M568 210 c2 -16 6 -30 8 -30 2 0 4 14 4 30 0 17 -4 30 -8 30 -5 0 -7
-13 -4 -30z"/>
<path d="M609 238 c0 -2 -3 -15 -5 -30 -4 -22 -1 -27 16 -25 15 1 20 8 20 29
0 18 -5 28 -15 28 -8 0 -15 -1 -16 -2z m21 -32 c0 -3 -4 -8 -10 -11 -5 -3 -10
-1 -10 4 0 6 5 11 10 11 6 0 10 -2 10 -4z"/>
<path d="M661 190 c0 -25 3 -38 6 -30 3 8 12 19 19 23 8 4 14 19 14 32 0 18
-5 23 -20 22 -17 -1 -20 -8 -19 -47z m25 3 c-11 -11 -19 6 -11 24 8 17 8 17
12 0 3 -10 2 -21 -1 -24z"/>
</g>
</svg>
