<?xml version="1.0" standalone="no"?>
<!DOCTYPE svg PUBLIC "-//W3C//DTD SVG 20010904//EN"
 "http://www.w3.org/TR/2001/REC-SVG-20010904/DTD/svg10.dtd">
<svg version="1.0" xmlns="http://www.w3.org/2000/svg"
 width="1000.000000pt" height="1000.000000pt" viewBox="0 0 1000.000000 1000.000000"
 preserveAspectRatio="xMidYMid meet">
<metadata>
Created by potrace 1.15, written by Peter Selinger 2001-2017
</metadata>
<g transform="translate(0.000000,1000.000000) scale(0.100000,-0.100000)"
fill="#000000" stroke="none">
<path d="M3525 8136 c-130 -54 -200 -88 -199 -97 1 -8 304 -764 674 -1681
l673 -1668 202 0 202 0 728 1700 c429 1002 724 1704 719 1709 -7 7 -372 121
-387 121 -2 0 -285 -678 -627 -1506 -467 -1129 -626 -1502 -632 -1488 -5 11
-262 687 -571 1503 -309 817 -567 1486 -572 1487 -6 1 -100 -35 -210 -80z"/>
<path d="M1066 6284 c-165 -40 -322 -174 -438 -374 l-26 -45 80 -110 c111
-154 99 -148 143 -68 70 128 135 197 229 243 75 37 139 45 246 30 126 -17 211
-49 455 -170 286 -143 353 -163 540 -164 125 -1 146 2 200 23 94 38 179 96
251 174 67 73 164 211 164 234 0 13 -165 243 -174 243 -3 0 -29 -35 -59 -77
-112 -159 -190 -226 -301 -258 -113 -33 -214 -5 -518 144 -229 112 -342 155
-466 176 -104 18 -248 18 -326 -1z"/>
<path d="M7406 6284 c-165 -40 -322 -174 -438 -374 l-26 -45 80 -110 c111
-154 99 -148 143 -68 70 128 135 197 229 243 75 37 139 45 246 30 126 -17 211
-49 455 -170 286 -143 353 -163 540 -164 125 -1 146 2 200 23 94 38 179 96
251 174 67 73 164 211 164 234 0 13 -165 243 -174 243 -3 0 -29 -35 -59 -77
-112 -159 -190 -226 -301 -258 -113 -33 -214 -5 -518 144 -229 112 -342 155
-466 176 -104 18 -248 18 -326 -1z"/>
<path d="M2392 3443 c-65 -19 -134 -78 -157 -135 -11 -26 -20 -82 -23 -140
l-5 -98 -73 0 -74 0 0 -45 0 -45 74 0 74 0 -6 -330 -5 -330 60 0 60 0 7 61 c3
34 6 183 6 330 l0 269 100 0 100 0 0 45 0 45 -101 0 -101 0 4 93 c4 107 23
149 78 178 19 11 54 19 77 19 l43 0 0 50 0 50 -42 -1 c-24 0 -67 -8 -96 -16z"/>
<path d="M6057 3033 c-4 -223 -7 -475 -7 -560 l0 -153 65 0 65 0 0 264 0 263
50 47 c86 80 168 104 246 71 64 -26 68 -50 61 -367 l-6 -278 64 0 65 0 0 298
c0 183 -4 312 -11 336 -26 94 -87 131 -214 131 -93 -1 -142 -21 -214 -89 l-43
-41 5 243 5 242 -63 0 -62 0 -6 -407z"/>
<path d="M5130 3290 l0 -70 65 0 65 0 0 70 0 70 -65 0 -65 0 0 -70z"/>
<path d="M2833 3071 c-97 -36 -156 -94 -207 -201 -29 -62 -31 -71 -31 -185 1
-100 5 -129 23 -176 30 -76 90 -142 160 -176 51 -25 68 -28 157 -28 87 0 107
3 155 26 278 132 288 609 15 730 -71 32 -201 37 -272 10z m217 -100 c129 -65
164 -347 60 -489 -84 -116 -258 -116 -334 1 -39 61 -51 111 -50 217 0 77 4
105 23 146 57 130 186 184 301 125z"/>
<path d="M3735 3071 c-44 -20 -82 -57 -114 -111 l-21 -35 0 73 0 72 -58 0 -59
0 -6 -272 c-4 -149 -7 -318 -7 -375 l0 -103 65 0 65 0 0 248 0 247 35 47 c53
72 99 103 157 103 l48 0 19 57 c17 49 17 57 4 62 -29 11 -89 5 -128 -13z"/>
<path d="M4367 3075 c-27 -7 -51 -16 -54 -18 -4 -4 99 -289 247 -680 l22 -58
61 3 60 3 149 360 c81 198 148 362 148 366 0 10 -114 40 -121 31 -3 -4 -57
-144 -119 -310 l-113 -304 -62 179 c-34 98 -82 238 -106 311 -24 72 -48 132
-54 131 -5 0 -32 -7 -58 -14z"/>
<path d="M5576 3074 c-98 -36 -150 -109 -150 -211 1 -94 29 -131 147 -188 51
-25 97 -45 103 -45 5 0 26 -14 46 -30 73 -60 59 -153 -29 -192 -56 -25 -102
-20 -179 17 -31 15 -56 25 -58 24 -22 -30 -46 -69 -46 -74 0 -3 30 -20 66 -37
118 -55 241 -49 326 15 82 62 111 171 69 263 -24 54 -65 83 -181 133 -52 22
-105 52 -117 66 -44 50 -22 140 39 166 47 20 125 16 180 -9 l48 -21 26 35 c34
44 24 57 -63 84 -76 23 -170 25 -227 4z"/>
<path d="M7081 3074 c-46 -17 -51 -19 -138 -73 -52 -32 -52 -33 -38 -59 30
-56 28 -56 95 -13 145 94 256 74 268 -48 7 -80 -2 -101 -44 -101 -54 0 -181
-29 -238 -54 -113 -50 -162 -124 -154 -231 7 -77 34 -126 92 -163 35 -23 52
-27 116 -27 86 0 131 18 190 74 l37 36 18 -43 c29 -71 98 -91 181 -53 51 23
57 33 43 65 -13 29 -21 31 -51 15 -11 -6 -31 -8 -44 -5 -38 10 -44 57 -36 296
10 280 3 319 -71 374 -36 27 -164 33 -226 10z m179 -471 l0 -107 -46 -43 c-75
-69 -160 -80 -223 -27 -53 44 -53 128 0 189 32 36 110 67 209 84 30 5 56 9 58
10 1 0 2 -47 2 -106z"/>
<path d="M7893 3074 c-23 -8 -62 -33 -87 -55 l-46 -41 0 46 0 46 -58 0 -59 0
-6 -137 c-4 -75 -7 -329 -7 -565 l0 -428 60 0 60 0 0 225 0 226 38 -30 c85
-69 200 -80 300 -30 145 72 224 245 201 443 -14 132 -79 239 -174 288 -52 28
-164 34 -222 12z m142 -103 c22 -10 48 -27 57 -37 59 -67 87 -244 54 -344 -63
-191 -233 -249 -350 -119 l-36 39 0 177 0 177 53 51 c76 73 146 91 222 56z"/>
<path d="M5136 2978 c-3 -50 -6 -219 -6 -375 l0 -283 58 0 59 0 6 107 c4 58 7
227 7 375 l0 268 -59 0 -58 0 -7 -92z"/>
</g>
</svg>
