<?xml version="1.0" standalone="no"?>
<!DOCTYPE svg PUBLIC "-//W3C//DTD SVG 20010904//EN"
 "http://www.w3.org/TR/2001/REC-SVG-20010904/DTD/svg10.dtd">
<svg version="1.0" xmlns="http://www.w3.org/2000/svg"
 width="1550.000000pt" height="1550.000000pt" viewBox="0 0 1550.000000 1550.000000"
 preserveAspectRatio="xMidYMid meet">
<metadata>
Created by potrace 1.15, written by Peter Selinger 2001-2017
</metadata>
<g transform="translate(0.000000,1550.000000) scale(0.100000,-0.100000)"
fill="#000000" stroke="none">
<path d="M7635 12894 c-106 -12 -297 -48 -340 -64 -15 -6 -46 -10 -70 -10 -24
0 -47 -4 -50 -10 -3 -5 -19 -10 -35 -10 -16 0 -41 -5 -57 -11 -15 -6 -45 -13
-67 -15 -57 -6 -146 -34 -146 -46 0 -6 -10 -8 -23 -4 -12 3 -35 -1 -51 -9 -16
-8 -39 -15 -52 -15 -22 0 -89 -31 -203 -95 -24 -14 -48 -25 -54 -25 -5 0 -26
-13 -47 -30 -21 -16 -41 -30 -46 -30 -4 0 -15 -6 -23 -14 -17 -15 -76 -50
-156 -90 -27 -14 -63 -38 -80 -53 -16 -15 -34 -27 -39 -25 -8 3 -92 -65 -166
-135 -65 -60 -117 -103 -128 -103 -5 0 -12 -6 -15 -14 -3 -8 -22 -22 -41 -31
-20 -10 -36 -21 -36 -26 0 -6 -8 -13 -19 -17 -24 -9 -124 -98 -199 -176 -31
-33 -69 -72 -84 -87 -16 -15 -28 -32 -28 -38 0 -6 -3 -11 -7 -11 -17 0 -188
-172 -188 -188 0 -9 -5 -17 -10 -18 -18 -1 -45 -16 -45 -24 0 -9 -74 -92 -137
-156 -18 -18 -33 -35 -33 -37 0 -5 -40 -52 -99 -115 -24 -26 -54 -62 -68 -79
-14 -18 -31 -33 -38 -33 -7 0 -31 -20 -53 -45 -22 -25 -43 -45 -46 -45 -9 0
-90 -62 -94 -72 -2 -5 -8 -8 -14 -8 -5 0 -24 -11 -42 -25 -18 -14 -36 -25 -40
-25 -7 0 -106 -82 -148 -122 -10 -10 -22 -18 -26 -18 -5 0 -52 -43 -106 -95
-54 -52 -102 -95 -106 -95 -5 0 -55 -39 -112 -86 -57 -47 -113 -91 -124 -96
-23 -11 -44 -47 -44 -76 0 -10 9 -33 19 -53 11 -20 33 -103 51 -185 17 -82 34
-162 38 -179 3 -16 7 -34 7 -40 1 -5 6 -28 13 -50 6 -22 16 -67 22 -100 14
-67 40 -154 52 -171 5 -6 17 -47 29 -90 11 -44 32 -108 46 -144 30 -73 49
-143 68 -245 8 -38 18 -83 24 -98 20 -51 14 -102 -14 -128 -44 -40 -100 -97
-110 -111 -5 -8 -29 -37 -52 -65 -24 -28 -43 -56 -43 -62 0 -6 -4 -11 -10 -11
-5 0 -10 -6 -10 -14 0 -18 -13 -27 -48 -32 -15 -2 -38 -6 -50 -8 -51 -8 -57
-27 -54 -154 4 -134 10 -265 13 -272 1 -3 3 -32 4 -65 1 -33 5 -87 8 -120 10
-82 18 -211 21 -325 2 -52 8 -120 14 -150 12 -59 31 -202 38 -288 2 -30 6 -58
10 -63 3 -5 7 -30 9 -57 3 -44 12 -105 35 -262 5 -36 19 -117 31 -180 12 -63
22 -128 24 -145 22 -244 45 -395 80 -530 15 -55 30 -118 35 -140 38 -187 62
-295 70 -320 5 -16 11 -46 14 -65 13 -110 38 -292 46 -335 5 -27 12 -66 15
-85 3 -19 10 -48 14 -65 8 -28 19 -151 25 -300 1 -33 8 -82 14 -110 6 -27 19
-104 28 -170 22 -160 63 -413 74 -450 5 -16 14 -64 21 -105 6 -41 15 -79 19
-85 4 -5 10 -44 14 -85 4 -41 16 -120 26 -175 25 -133 48 -301 55 -405 3 -47
12 -137 20 -200 8 -63 17 -135 20 -160 3 -25 12 -72 20 -105 8 -33 17 -95 19
-138 3 -64 8 -83 26 -102 19 -20 26 -22 43 -14 12 7 48 9 96 5 42 -4 108 -9
146 -12 39 -3 103 -14 142 -25 40 -10 80 -19 89 -19 9 0 32 -8 52 -17 25 -12
37 -14 39 -6 3 7 10 10 18 7 9 -4 15 4 17 27 3 28 9 34 43 46 22 7 58 22 80
33 22 10 65 27 95 36 67 20 65 19 120 50 61 34 156 82 265 134 50 23 98 46
108 51 38 19 53 27 87 41 19 8 69 31 110 51 41 19 102 46 135 58 33 13 67 29
76 36 8 7 20 13 26 13 6 0 16 6 22 14 6 7 26 16 44 20 17 4 48 17 69 31 20 13
49 27 65 31 15 4 66 27 113 52 47 24 85 43 85 41 0 -6 140 64 146 73 3 5 13
10 21 11 8 2 27 13 43 25 15 12 40 25 54 28 14 2 76 29 136 59 95 46 163 78
250 115 11 4 63 29 115 54 52 25 100 46 106 46 7 0 17 7 24 15 7 8 18 14 24
13 10 -2 73 19 141 47 65 27 171 55 330 89 33 7 70 19 82 27 20 12 25 11 50
-9 15 -12 44 -31 64 -41 19 -11 54 -35 77 -53 22 -18 57 -44 78 -58 34 -23
119 -94 189 -158 17 -15 46 -45 65 -67 20 -22 54 -57 75 -77 22 -20 58 -57 80
-82 96 -108 175 -186 190 -186 8 0 15 -4 15 -9 0 -4 24 -31 53 -60 40 -40 57
-50 74 -46 12 3 24 1 27 -4 7 -10 86 2 143 23 24 8 71 18 105 21 35 4 82 16
106 27 33 16 46 17 57 8 8 -6 20 -8 26 -4 7 4 42 9 78 11 106 7 115 8 129 16
7 5 21 5 32 2 26 -8 136 -18 175 -16 54 4 75 4 236 2 77 -1 83 4 138 107 44
82 90 156 125 198 14 18 26 37 26 43 0 6 8 19 18 29 34 34 80 98 105 145 31
59 120 182 210 290 37 45 78 96 92 112 13 17 38 45 55 63 16 18 30 35 30 38 0
2 50 53 110 113 61 59 110 111 110 115 0 4 15 22 33 40 17 18 55 58 82 89 28
32 55 55 62 53 12 -5 43 24 43 41 0 6 14 23 30 36 21 18 30 35 30 56 0 32 -18
51 -29 32 -6 -9 -14 -7 -31 7 -27 22 -57 18 -65 -9 -11 -33 -40 -41 -61 -17
-17 19 -74 50 -99 54 -22 3 -75 29 -75 36 0 4 -7 8 -15 8 -24 0 -63 29 -140
103 -98 96 -100 97 -118 97 -10 0 -17 6 -17 13 0 17 -23 38 -70 63 -19 10 -41
27 -48 37 -7 9 -18 15 -23 11 -6 -3 -32 17 -60 45 -31 32 -54 48 -64 45 -10
-4 -18 3 -25 20 -5 14 -16 26 -25 26 -8 0 -15 5 -15 10 0 12 -33 60 -67 98
-27 29 -27 31 -9 58 8 11 17 46 19 78 3 34 11 62 20 69 9 7 25 33 37 58 28 61
343 380 393 398 6 2 23 17 38 32 16 16 35 29 44 29 8 0 15 4 15 8 0 5 59 57
131 117 72 59 145 124 162 143 18 19 85 89 149 155 64 66 119 126 122 133 3 8
10 14 15 14 14 0 111 148 111 171 0 11 7 22 15 25 8 4 15 12 15 19 0 7 7 15
15 19 8 3 15 14 15 23 0 10 9 26 20 36 15 12 18 22 11 39 -4 13 -11 52 -15 86
-4 35 -12 75 -17 90 -5 14 -18 55 -28 91 -20 71 -61 172 -74 182 -4 3 -10 18
-13 34 -3 15 -14 45 -24 66 -11 21 -20 46 -20 56 0 10 -7 27 -15 37 -8 11 -15
26 -15 33 0 7 -20 65 -45 129 -25 63 -45 122 -45 131 0 9 -6 24 -14 32 -8 9
-23 50 -35 91 -11 41 -35 113 -52 160 -17 47 -34 100 -39 118 -4 18 -12 38
-18 45 -5 7 -12 28 -16 47 -3 19 -20 73 -37 120 -34 92 -115 302 -129 335 -4
11 -17 40 -28 65 -11 25 -27 77 -37 115 -10 39 -26 88 -35 110 -10 22 -39 94
-65 160 -27 66 -56 138 -65 160 -10 22 -32 83 -50 135 -17 52 -36 104 -41 115
-12 26 -82 223 -124 350 -48 145 -67 211 -69 247 -4 49 -58 77 -86 43 -21 -26
-30 -17 -30 33 0 26 -4 63 -10 82 -24 91 -31 306 -13 420 7 47 14 101 16 120
2 20 6 41 10 47 4 6 9 36 12 67 2 32 7 61 9 65 3 4 10 44 15 90 6 45 17 94 25
109 8 15 24 61 36 102 18 64 84 214 151 341 10 20 19 42 19 48 0 16 91 202
112 231 15 19 27 24 52 22 20 -2 39 3 49 12 9 9 20 16 25 16 12 0 82 76 82 89
0 21 -13 41 -27 41 -8 0 -28 -11 -45 -25 -41 -35 -68 -33 -32 2 28 28 5 92
-33 93 -13 0 -63 -50 -63 -62 0 -5 -8 -16 -17 -26 -10 -9 -25 -27 -33 -39 -15
-22 -22 -22 -260 -27 -245 -5 -340 -15 -369 -39 -10 -8 -27 -11 -46 -7 -69 14
-82 -7 -90 -145 -3 -55 -8 -118 -11 -141 -3 -22 -7 -54 -9 -70 -18 -134 -44
-214 -116 -356 -5 -10 -9 -26 -9 -36 0 -9 -8 -28 -17 -41 -16 -24 -69 -163
-80 -211 -3 -14 -9 -27 -12 -30 -4 -3 -15 -32 -25 -65 -25 -79 -56 -165 -68
-189 -5 -10 -12 -30 -14 -44 -3 -15 -9 -31 -14 -37 -10 -12 -42 -198 -45 -255
0 -19 -4 -60 -8 -90 -4 -30 -10 -95 -12 -145 -8 -123 -9 -132 -17 -140 -4 -4
-4 -13 -2 -20 3 -7 -4 -31 -15 -53 -18 -35 -18 -41 -5 -61 17 -24 11 -41 -16
-41 -20 0 -50 -35 -50 -59 0 -29 30 -50 64 -44 17 3 36 9 41 13 17 13 137 50
162 50 12 0 23 4 23 9 0 5 15 11 33 14 73 13 97 20 97 27 0 4 17 10 38 13 20
2 73 15 117 27 44 12 91 23 105 25 14 2 27 4 30 6 3 1 10 3 15 4 22 4 70 30
78 42 4 7 16 13 26 13 11 0 29 8 42 19 19 15 29 17 58 9 20 -6 41 -14 48 -20
7 -5 20 -7 30 -4 13 4 24 -2 36 -23 9 -16 17 -35 17 -43 0 -8 21 -68 46 -133
25 -66 50 -133 55 -150 5 -16 13 -39 18 -50 6 -11 23 -58 40 -105 16 -47 39
-109 50 -137 12 -29 29 -74 40 -100 10 -27 33 -82 51 -123 46 -108 90 -227
104 -285 13 -50 76 -218 116 -310 12 -27 30 -72 40 -100 38 -109 123 -363 140
-420 24 -83 137 -403 155 -442 8 -17 15 -36 15 -43 0 -10 60 -173 120 -325 46
-115 73 -225 74 -300 1 -65 -3 -78 -47 -165 -57 -114 -65 -126 -97 -161 -14
-15 -65 -71 -115 -124 -168 -181 -295 -305 -313 -305 -6 0 -12 -3 -14 -7 -1
-5 -25 -26 -53 -48 -27 -22 -68 -58 -90 -80 -48 -48 -135 -115 -150 -115 -6 0
-32 -22 -58 -50 -26 -27 -51 -50 -56 -50 -13 0 -142 -133 -167 -172 -13 -20
-28 -39 -34 -43 -28 -17 -112 -169 -116 -210 -7 -67 -16 -95 -40 -130 -30 -44
-24 -73 15 -81 18 -4 70 -47 140 -115 111 -108 163 -149 210 -164 14 -4 39
-22 56 -39 51 -52 207 -192 262 -235 67 -52 111 -78 227 -130 75 -35 75 -31
11 -98 -16 -17 -64 -70 -105 -116 -41 -47 -82 -88 -90 -91 -8 -3 -28 -26 -44
-52 -16 -25 -47 -61 -70 -80 -23 -19 -60 -58 -82 -86 -21 -28 -52 -65 -69 -82
-67 -71 -141 -171 -206 -276 -48 -78 -162 -239 -198 -278 -12 -12 -21 -27 -21
-32 0 -6 -9 -20 -20 -32 -35 -40 -44 -52 -82 -109 -20 -31 -43 -56 -50 -56
-42 -2 -148 -15 -180 -22 -25 -6 -38 -5 -38 1 0 7 -16 8 -42 5 -25 -3 -59 0
-84 9 -59 20 -149 16 -170 -7 -12 -14 -21 -16 -41 -8 -15 6 -49 5 -91 -1 -37
-6 -79 -12 -92 -14 -14 -1 -38 -8 -53 -14 -16 -7 -37 -12 -48 -12 -11 0 -29
-4 -39 -10 -10 -5 -33 -10 -51 -11 -46 -2 -142 -20 -152 -29 -5 -4 -34 19 -65
51 -30 32 -58 57 -61 54 -2 -3 -10 8 -17 25 -7 16 -19 30 -27 30 -8 0 -43 30
-78 68 -35 37 -85 86 -111 110 -27 23 -48 46 -48 50 0 13 -84 95 -128 126 -23
17 -42 36 -42 43 0 7 -8 13 -18 13 -11 0 -24 11 -30 25 -7 14 -20 25 -31 25
-10 0 -21 8 -23 17 -3 10 -27 29 -54 42 -27 14 -63 41 -79 61 -28 34 -106 90
-126 90 -5 0 -9 4 -9 8 0 5 -19 24 -41 42 -40 32 -42 32 -69 17 -26 -16 -28
-15 -44 2 -15 16 -54 31 -91 35 -5 1 -17 6 -25 11 -79 50 -140 66 -265 69
-104 3 -185 14 -201 27 -6 5 -44 13 -83 18 -40 5 -77 14 -84 19 -18 14 -66 24
-88 17 -27 -9 -48 -81 -28 -99 13 -12 144 -43 219 -51 19 -2 46 -6 60 -8 90
-17 172 -27 215 -26 64 2 102 -4 140 -21 17 -7 32 -14 35 -15 3 0 15 -6 27
-13 12 -7 26 -12 30 -11 4 1 23 -5 41 -12 51 -21 37 -41 -33 -44 -57 -2 -102
-10 -135 -22 -8 -4 -17 -7 -20 -8 -3 0 -23 -7 -45 -15 -22 -8 -44 -14 -50 -15
-5 0 -24 -8 -41 -17 -17 -10 -34 -15 -37 -11 -12 11 -177 -62 -177 -78 0 -5
-11 -9 -24 -9 -14 0 -27 -4 -31 -9 -8 -14 -65 -41 -85 -41 -10 0 -29 -9 -43
-20 -14 -11 -28 -20 -32 -20 -12 0 -120 -55 -123 -62 -2 -5 -12 -8 -21 -8 -10
0 -26 -9 -36 -20 -10 -11 -20 -18 -23 -15 -3 2 -17 -2 -31 -9 -14 -7 -53 -26
-86 -42 -33 -16 -62 -32 -65 -35 -6 -7 -86 -48 -145 -74 -22 -10 -49 -23 -60
-28 -25 -13 -59 -30 -107 -53 -21 -10 -38 -22 -38 -26 0 -5 -8 -8 -18 -8 -15
0 -85 -34 -307 -148 -27 -14 -54 -26 -60 -28 -5 -1 -55 -23 -110 -49 -252
-119 -344 -165 -350 -175 -3 -5 -17 -10 -29 -10 -13 0 -29 -7 -36 -15 -7 -8
-22 -15 -34 -15 -11 0 -32 -9 -46 -20 -14 -11 -31 -20 -37 -20 -13 0 -85 -30
-145 -61 -20 -10 -45 -19 -54 -19 -10 0 -36 -11 -58 -24 -23 -13 -63 -27 -90
-31 -31 -4 -55 -14 -66 -27 -14 -18 -21 -19 -51 -10 -19 6 -56 13 -84 15 -27
2 -57 7 -65 10 -8 3 -51 8 -95 12 -122 9 -168 14 -172 19 -3 2 -7 31 -9 63 -3
32 -11 75 -19 96 -8 20 -15 54 -15 75 0 21 -4 42 -10 48 -5 5 -14 57 -20 114
-28 290 -36 340 -55 340 -18 0 -19 12 -4 27 8 8 8 35 0 94 -16 133 -28 206
-34 216 -3 5 -11 43 -16 84 -21 154 -32 214 -47 258 -9 25 -18 66 -21 91 -2
25 -5 52 -7 60 -1 8 -6 42 -10 75 -5 33 -15 89 -23 125 -8 36 -19 99 -24 140
-5 41 -13 95 -18 120 -5 25 -12 86 -16 135 -12 169 -14 190 -34 305 -10 63
-24 158 -31 210 -6 52 -14 102 -17 110 -2 8 -6 39 -8 68 -6 86 -43 276 -85
427 -12 44 -25 98 -30 120 -5 22 -14 58 -20 80 -32 113 -68 327 -74 440 -2 55
-7 107 -10 115 -3 8 -7 35 -10 60 -10 87 -19 135 -26 145 -4 6 -11 42 -16 80
-9 86 -8 77 -18 94 -5 8 -10 37 -12 65 -4 70 -12 144 -20 186 -11 51 -12 65
-18 176 -3 55 -9 120 -15 145 -5 24 -12 85 -16 134 -3 50 -11 140 -17 200 -6
61 -12 137 -13 170 -2 33 -6 121 -9 195 -4 74 -9 169 -11 210 -6 97 6 130 49
130 24 0 37 8 56 36 14 19 30 41 35 47 6 7 17 24 25 39 8 14 32 45 53 67 20
22 37 45 37 51 0 5 6 10 14 10 8 0 16 5 18 12 2 6 9 8 15 5 7 -5 10 -26 7 -55
-2 -26 -4 -96 -3 -157 0 -160 -1 -343 -2 -352 -1 -4 0 -10 1 -13 4 -8 11 -131
10 -185 0 -27 7 -99 15 -160 9 -60 18 -130 21 -154 3 -24 10 -53 16 -65 6 -11
13 -41 15 -66 2 -25 4 -63 6 -85 2 -22 9 -50 15 -62 7 -12 12 -37 11 -55 -2
-41 16 -196 36 -310 8 -48 12 -100 9 -116 -7 -33 12 -102 27 -102 5 0 7 -11 3
-24 -3 -15 3 -43 15 -71 12 -26 21 -60 21 -75 0 -25 6 -44 35 -115 10 -23 13
-36 21 -88 4 -20 10 -40 15 -43 5 -3 9 -18 9 -33 0 -16 7 -46 16 -67 15 -37
71 -115 86 -122 4 -2 12 -18 18 -37 13 -40 49 -53 84 -30 13 9 27 22 30 30 2
7 -19 44 -47 82 -29 38 -58 89 -65 113 -7 25 -18 59 -24 75 -6 17 -17 55 -25
85 -8 30 -21 70 -29 88 -12 26 -35 91 -49 142 -1 3 -5 23 -9 45 -4 22 -11 56
-17 75 -5 19 -12 78 -14 130 -3 52 -7 106 -9 120 -13 75 -29 179 -32 210 -6
63 -12 104 -29 195 -33 179 -51 303 -59 410 -3 33 -6 60 -7 60 -2 0 -11 151
-11 215 -1 36 1 179 3 318 4 201 2 255 -8 264 -9 7 -11 19 -6 32 4 12 7 37 8
56 0 29 5 37 30 48 78 34 80 35 79 82 -1 29 -7 47 -19 57 -26 18 -38 17 -68
-11 -30 -28 -32 -27 -42 34 -4 25 -20 88 -36 140 -16 52 -29 102 -29 113 0 10
-9 37 -20 59 -11 23 -20 50 -20 60 0 10 -4 18 -10 18 -5 0 -10 10 -10 23 0 12
-14 60 -31 107 -17 47 -37 114 -45 150 -8 36 -21 77 -29 92 -8 14 -15 43 -15
65 -1 41 -21 127 -33 139 -4 4 -7 20 -7 35 0 15 -4 31 -10 34 -5 3 -10 28 -10
54 0 27 -9 77 -20 112 l-20 63 32 29 c18 16 44 36 58 45 14 9 31 25 38 35 7 9
38 35 67 57 29 22 83 68 118 102 60 58 87 83 182 163 19 16 35 36 35 43 0 8 6
12 14 9 8 -3 20 1 26 9 7 8 19 14 26 14 8 0 34 20 60 45 25 25 51 45 59 45 7
0 22 10 32 23 10 12 32 29 48 37 17 8 43 26 59 40 51 45 210 207 236 240 14
18 40 46 58 63 17 17 32 35 32 41 0 5 7 16 15 25 44 47 74 78 91 92 10 9 29
27 41 40 12 13 28 29 35 36 7 7 18 18 24 25 6 7 26 27 45 45 44 42 59 60 59
73 0 6 11 16 25 22 14 6 25 15 25 20 0 4 20 27 45 50 25 23 45 50 45 60 0 10
6 18 14 18 13 0 32 15 108 84 20 19 66 58 102 87 36 29 66 56 66 61 0 5 11 13
24 18 13 5 27 18 31 29 3 12 10 21 15 21 5 0 26 11 47 25 21 14 47 31 57 38
11 6 42 34 69 60 27 27 67 55 88 63 20 9 48 31 61 50 13 18 31 34 42 34 10 0
34 13 52 30 19 16 46 33 61 36 14 4 33 13 42 20 89 74 239 145 431 205 36 12
73 25 83 30 10 5 22 7 26 4 5 -3 12 2 15 10 5 13 10 14 26 5 16 -8 25 -8 35 0
8 6 22 10 32 9 22 -3 71 9 95 22 10 5 37 9 60 10 24 0 66 5 93 10 28 5 70 12
95 15 25 4 52 12 61 20 10 9 50 16 115 19 54 2 117 7 139 11 22 4 67 6 100 5
33 -1 188 -4 345 -6 304 -5 427 -18 478 -50 1 -1 -4 -15 -12 -31 -8 -16 -17
-67 -19 -114 -6 -98 -14 -135 -55 -245 -38 -104 -70 -172 -99 -211 -13 -17
-23 -36 -23 -43 0 -6 -12 -30 -27 -54 -41 -64 -133 -247 -133 -265 0 -8 -7
-20 -15 -26 -16 -12 -175 -272 -175 -286 0 -5 -12 -24 -27 -42 -41 -49 -73
-96 -73 -108 0 -5 -5 -10 -12 -10 -14 0 -75 -66 -115 -125 -16 -22 -38 -48
-51 -58 -12 -10 -30 -33 -38 -50 -9 -18 -35 -54 -58 -82 -23 -27 -53 -66 -66
-85 -13 -19 -46 -62 -73 -95 -26 -33 -54 -67 -60 -75 -7 -8 -30 -37 -53 -65
-22 -27 -69 -86 -103 -130 -34 -44 -81 -100 -103 -125 -22 -25 -46 -59 -54
-76 -7 -17 -20 -34 -28 -37 -8 -3 -23 -21 -32 -39 -9 -18 -26 -40 -38 -49 -11
-9 -34 -44 -51 -78 -16 -33 -38 -63 -47 -66 -9 -3 -19 -18 -23 -33 -3 -15 -19
-42 -35 -61 -17 -18 -30 -40 -30 -48 0 -8 -9 -26 -20 -40 -11 -14 -20 -31 -20
-38 0 -7 -6 -18 -14 -24 -8 -7 -17 -24 -20 -39 -6 -25 -13 -41 -46 -114 -7
-15 -10 -33 -7 -42 4 -10 -1 -16 -15 -18 -20 -3 -34 -31 -60 -118 -5 -19 -14
-40 -20 -47 -5 -7 -7 -17 -4 -22 4 -6 -3 -15 -14 -21 -11 -6 -20 -16 -20 -23
-1 -7 -9 -30 -20 -52 -11 -22 -19 -53 -20 -68 0 -15 -7 -41 -15 -56 -8 -16
-12 -31 -9 -33 2 -3 -2 -11 -11 -18 -8 -7 -15 -19 -15 -27 0 -8 -9 -26 -20
-40 -11 -14 -20 -34 -20 -44 0 -10 -20 -52 -44 -93 -32 -54 -45 -88 -48 -123
l-3 -48 50 -27 c58 -31 56 -30 73 -20 9 6 10 16 1 40 -12 35 2 80 60 200 17
34 31 68 31 76 0 7 7 19 15 26 8 7 29 58 46 113 18 55 41 116 52 134 11 19 24
55 28 79 5 25 18 58 29 74 11 15 20 37 20 48 0 11 7 22 15 26 8 3 15 15 15 27
0 12 13 44 30 70 16 27 33 61 36 76 4 15 15 36 25 46 9 10 15 27 12 38 -4 13
0 19 10 19 8 0 28 21 43 48 15 26 51 82 81 124 29 42 53 81 53 87 0 5 9 16 19
23 10 7 43 49 72 93 29 44 85 117 126 163 40 45 73 87 73 93 0 6 11 20 25 30
14 12 22 26 18 34 -3 9 1 15 11 15 9 0 16 5 16 10 0 6 11 20 26 32 14 13 44
47 67 78 23 30 55 71 72 91 16 20 38 47 47 60 9 13 32 44 50 68 18 24 53 72
78 106 67 93 128 168 192 238 32 34 58 70 58 80 0 10 13 29 28 42 15 13 41 47
57 77 16 29 33 58 37 63 20 25 58 87 58 95 0 6 5 10 10 10 6 0 10 9 10 20 0
11 4 20 9 20 6 0 35 51 66 113 31 61 67 130 80 152 13 22 36 63 51 90 15 28
37 63 50 78 13 16 24 33 24 37 0 5 18 46 40 91 22 44 42 97 46 117 4 21 13 49
20 64 8 15 14 38 14 51 0 12 5 28 10 33 6 6 10 48 11 95 0 56 5 89 15 99 11
13 11 20 0 42 -12 23 -12 29 0 39 8 6 14 9 14 5 0 -4 11 1 25 10 14 9 25 26
25 38 -1 28 -35 68 -63 72 -12 1 -44 10 -72 18 -27 9 -68 16 -90 16 -23 0 -46
5 -53 12 -13 13 -47 13 -460 6 -127 -2 -260 -1 -295 2 -34 3 -107 0 -162 -6z
m765 -38 c0 -3 -4 -8 -10 -11 -5 -3 -10 -1 -10 4 0 6 5 11 10 11 6 0 10 -2 10
-4z m107 -12 c-3 -3 -12 -4 -19 -1 -8 3 -5 6 6 6 11 1 17 -2 13 -5z m228 -114
c3 -5 1 -10 -4 -10 -6 0 -11 5 -11 10 0 6 2 10 4 10 3 0 8 -4 11 -10z m2181
-962 c4 -4 12 -4 18 0 21 13 54 13 52 0 -3 -16 -39 -94 -132 -284 -40 -83 -76
-164 -80 -180 -4 -16 -10 -34 -15 -39 -24 -32 -95 -276 -86 -299 3 -7 0 -22
-7 -32 -37 -55 -98 -530 -77 -599 6 -16 12 -66 14 -110 3 -44 10 -111 16 -148
25 -151 25 -154 -6 -162 -16 -3 -59 -21 -98 -39 -38 -18 -99 -38 -133 -46 -35
-7 -80 -21 -100 -32 -20 -10 -46 -18 -59 -18 -12 0 -25 -4 -28 -10 -3 -5 -20
-8 -38 -6 -22 2 -42 -4 -62 -19 -17 -13 -53 -26 -83 -30 -33 -4 -56 -13 -59
-22 -5 -13 -7 -13 -15 1 -5 9 -5 23 1 35 12 21 41 294 41 377 0 30 7 71 15 91
8 21 19 82 24 136 6 54 14 104 19 110 5 7 17 41 26 77 10 36 24 72 31 80 7 8
18 39 24 68 6 29 20 70 31 92 11 22 20 46 20 54 0 8 15 48 34 88 29 63 48 110
51 128 0 3 14 32 31 65 43 84 103 269 108 335 3 30 10 82 15 115 6 33 11 83
11 111 0 27 6 57 13 66 11 14 124 35 240 44 22 1 40 4 42 6 7 6 194 2 201 -4z
m-207 -1782 c10 -12 8 -13 -8 -9 -12 3 -18 9 -15 14 7 12 10 11 23 -5z m-29
-26 c0 -5 -2 -10 -4 -10 -3 0 -8 5 -11 10 -3 6 -1 10 4 10 6 0 11 -4 11 -10z
m130 -76 c0 -22 -16 -17 -17 6 -1 11 2 18 8 15 5 -4 9 -13 9 -21z m-6590
-1204 c0 -5 -5 -10 -11 -10 -5 0 -7 5 -4 10 3 6 8 10 11 10 2 0 4 -4 4 -10z
m4057 -5076 c-3 -3 -12 -4 -19 -1 -8 3 -5 6 6 6 11 1 17 -2 13 -5z m-77 -34
c0 -5 -2 -10 -4 -10 -3 0 -8 5 -11 10 -3 6 -1 10 4 10 6 0 11 -4 11 -10z
m-3550 -725 c0 -12 -19 -12 -23 0 -4 9 -1 12 9 8 7 -3 14 -7 14 -8z"/>
<path d="M9180 12735 c-6 -8 -13 -28 -13 -45 -2 -33 -7 -29 127 -104 27 -15
55 -25 63 -22 8 3 24 -3 36 -14 12 -11 27 -18 34 -16 6 3 26 -2 43 -11 17 -8
42 -13 56 -10 13 2 27 1 30 -4 7 -12 123 -44 249 -69 61 -12 114 -26 119 -31
6 -5 21 -9 35 -9 23 0 93 -19 146 -41 20 -8 70 -19 110 -25 11 -1 46 -10 78
-18 32 -9 71 -16 87 -16 16 0 32 -5 36 -11 3 -6 19 -9 34 -5 20 3 30 1 34 -10
5 -12 15 -14 45 -9 29 5 40 3 44 -8 3 -8 24 -18 46 -22 23 -4 43 -10 46 -15 3
-4 20 -8 37 -8 18 0 53 -6 78 -12 25 -7 68 -15 95 -19 28 -5 57 -11 65 -14 8
-4 38 -9 65 -11 51 -5 221 -51 287 -79 30 -13 42 -13 62 -4 30 14 35 51 9 66
-15 8 -15 11 -3 25 20 25 -2 40 -63 42 -28 1 -79 9 -112 18 -33 9 -75 19 -95
20 -19 2 -59 9 -88 16 -29 7 -56 9 -59 6 -3 -3 -17 1 -32 8 -24 12 -53 16
-152 20 -20 0 -45 9 -55 18 -11 9 -41 18 -69 21 -28 2 -71 11 -95 19 -73 25
-132 39 -185 42 -27 2 -63 11 -80 20 -16 9 -38 16 -47 16 -9 0 -19 4 -22 9 -5
8 -46 16 -106 22 -8 1 -19 5 -25 9 -5 5 -32 11 -60 15 -27 4 -54 11 -60 15
-11 9 -86 30 -125 36 -14 2 -40 8 -58 13 -18 5 -40 7 -48 4 -9 -3 -25 -1 -37
5 -33 17 -115 42 -136 42 -52 0 -233 75 -292 122 -41 31 -61 35 -79 13z"/>
<path d="M9174 12573 c-15 -16 -36 -27 -52 -28 -24 0 -29 -7 -53 -76 -15 -41
-38 -100 -51 -130 -14 -29 -33 -76 -43 -104 -10 -27 -26 -61 -36 -75 -23 -34
-86 -169 -94 -203 -4 -15 -11 -30 -17 -33 -5 -3 -6 -14 -3 -24 3 -10 -2 -25
-12 -35 -25 -25 -53 -82 -53 -107 0 -13 -9 -34 -20 -48 -11 -14 -20 -33 -20
-42 0 -9 -10 -29 -23 -45 -56 -69 -127 -194 -127 -222 0 -12 -6 -21 -15 -21
-8 0 -22 -21 -32 -51 -10 -28 -26 -55 -35 -60 -9 -5 -25 -26 -34 -47 -10 -20
-36 -62 -59 -92 -23 -30 -53 -75 -67 -101 -15 -25 -45 -64 -67 -87 -23 -23
-41 -45 -41 -48 0 -10 -78 -98 -182 -207 -54 -56 -101 -110 -104 -119 -3 -10
-12 -18 -20 -18 -7 0 -25 -17 -38 -37 -13 -21 -37 -50 -53 -65 -88 -84 -109
-106 -123 -123 -9 -11 -53 -62 -98 -113 -45 -51 -82 -97 -82 -102 0 -4 -13
-22 -30 -38 -16 -17 -30 -35 -30 -41 0 -6 -9 -16 -20 -23 -11 -7 -20 -17 -20
-21 0 -5 -10 -23 -22 -40 -13 -17 -27 -39 -33 -48 -5 -9 -28 -40 -50 -69 -41
-56 -58 -82 -120 -187 -20 -35 -45 -67 -55 -73 -11 -6 -20 -15 -20 -21 0 -6
-6 -17 -12 -24 -7 -8 -22 -27 -33 -41 -11 -15 -30 -38 -42 -51 -13 -13 -23
-30 -23 -37 0 -8 -7 -16 -14 -19 -8 -3 -26 -31 -40 -61 -14 -30 -29 -57 -35
-60 -5 -4 -12 -19 -16 -34 -3 -16 -19 -43 -35 -61 -17 -18 -30 -36 -30 -40 0
-5 -17 -39 -38 -77 -22 -38 -47 -85 -58 -104 -10 -19 -22 -37 -25 -40 -4 -3
-21 -34 -38 -70 -17 -36 -35 -72 -41 -80 -5 -8 -11 -26 -14 -40 -3 -14 -23
-49 -45 -78 -22 -29 -43 -62 -47 -75 -7 -21 -81 -137 -94 -147 -11 -8 -140
-182 -140 -189 0 -3 -25 -33 -55 -66 -31 -33 -69 -89 -86 -125 -16 -35 -33
-67 -37 -70 -14 -10 -34 -57 -32 -76 4 -33 1 -35 -22 -14 -29 27 -35 26 -58
-12 -20 -33 -27 -88 -12 -88 5 0 17 -18 28 -40 10 -22 22 -40 27 -40 4 0 7 -9
7 -20 0 -11 4 -20 9 -20 4 0 14 -21 21 -47 7 -27 21 -66 31 -88 9 -22 17 -47
17 -55 0 -8 5 -35 11 -60 7 -25 17 -63 22 -85 5 -22 16 -54 24 -72 8 -17 15
-38 15 -47 0 -9 9 -51 20 -94 33 -132 49 -244 55 -399 3 -81 10 -173 16 -204
18 -94 2 -536 -21 -580 -6 -11 -15 -59 -20 -107 -6 -48 -12 -100 -14 -117 -3
-16 -5 -48 -6 -70 -6 -152 -25 -332 -46 -428 -8 -40 -24 -119 -34 -177 -22
-124 -54 -248 -69 -263 -6 -6 -11 -18 -11 -26 0 -9 -7 -29 -15 -45 -8 -15 -15
-32 -15 -37 0 -5 -12 -34 -26 -66 -46 -102 -52 -117 -84 -198 -35 -89 -48
-122 -61 -147 -5 -10 -9 -25 -9 -33 0 -8 -4 -23 -9 -33 -44 -81 -81 -225 -89
-344 -7 -100 -6 -107 14 -125 31 -27 66 -43 94 -43 68 1 267 7 281 8 9 1 33
16 54 32 21 17 48 30 60 30 12 0 28 7 35 15 7 8 21 15 31 15 10 0 21 4 24 10
3 5 41 26 83 46 42 20 89 45 104 55 14 11 34 19 43 19 9 0 19 9 22 19 3 11 15
22 27 25 22 5 38 18 101 74 17 15 42 33 58 41 15 8 27 20 27 28 0 7 11 13 25
13 15 0 25 6 25 14 0 8 7 17 15 20 9 3 20 18 26 33 6 19 17 28 33 29 12 1 44
22 70 48 26 25 54 46 62 46 8 0 20 11 26 25 6 14 26 34 44 45 17 11 54 45 81
75 28 30 53 55 56 55 3 0 29 25 59 56 29 31 74 76 101 101 26 25 47 50 47 54
0 4 10 19 23 32 32 34 90 106 102 127 6 9 29 39 52 66 23 27 83 98 135 158
117 136 160 189 223 272 28 36 61 78 75 92 41 43 130 149 130 155 0 9 132 137
141 137 5 0 15 14 24 30 9 17 22 30 29 30 8 0 28 16 45 35 17 19 33 35 37 35
4 0 23 12 43 27 20 15 37 26 38 23 1 -3 14 7 30 21 42 38 100 79 112 79 6 0
11 5 11 10 0 6 8 10 18 10 10 0 22 4 27 9 20 19 147 82 153 76 3 -3 1 -14 -5
-23 -26 -38 -123 -239 -123 -254 0 -9 -4 -19 -9 -22 -5 -3 -21 -45 -36 -93
-15 -49 -40 -112 -56 -140 -16 -29 -29 -60 -29 -68 0 -9 -4 -14 -9 -10 -11 6
-41 -49 -41 -74 0 -9 -11 -33 -25 -53 -14 -21 -44 -77 -66 -125 -67 -144 -86
-179 -192 -356 -10 -17 -26 -49 -35 -71 -14 -37 -25 -54 -72 -113 -8 -10 -31
-31 -50 -47 -19 -16 -50 -49 -70 -74 -19 -25 -45 -56 -57 -68 -13 -13 -23 -28
-23 -34 0 -5 -6 -10 -12 -10 -7 0 -28 -22 -46 -49 -19 -27 -49 -57 -68 -67
-19 -10 -34 -22 -34 -26 0 -5 -4 -8 -9 -8 -10 0 -48 -30 -85 -66 -11 -11 -29
-23 -39 -27 -9 -4 -43 -24 -75 -45 -31 -22 -74 -45 -94 -53 -21 -7 -38 -17
-38 -21 0 -4 -6 -8 -13 -8 -7 0 -36 -18 -66 -40 -29 -22 -64 -40 -77 -40 -20
0 -54 -13 -159 -60 -11 -5 -40 -14 -65 -20 -25 -6 -54 -15 -65 -19 -11 -5 -39
-17 -62 -26 -24 -10 -43 -22 -43 -28 0 -5 -7 -15 -15 -21 -11 -8 -14 -20 -9
-45 7 -32 8 -33 45 -27 21 3 54 15 73 27 20 11 40 18 45 15 5 -4 25 3 43 14
18 11 41 20 52 20 10 0 35 8 55 18 71 36 196 92 206 92 6 0 144 67 204 100 18
10 44 29 58 42 13 13 25 21 26 19 3 -6 77 41 77 49 0 4 11 11 24 14 13 3 61
41 107 85 122 116 124 117 139 148 8 15 38 53 66 83 29 30 65 71 80 90 16 19
44 50 62 70 17 19 35 43 38 53 3 11 15 28 25 38 10 10 19 26 19 34 0 8 12 36
27 62 14 26 31 57 37 68 6 10 28 41 49 68 20 27 37 57 37 67 0 10 16 46 35 80
19 34 35 65 35 69 0 4 22 50 49 102 26 52 59 114 71 139 13 25 29 52 35 60 19
23 81 171 89 210 13 64 30 120 38 120 4 0 5 6 2 14 -4 10 0 13 13 10 17 -5 19
-15 16 -122 -3 -149 -10 -227 -22 -277 -27 -110 -38 -332 -26 -515 7 -108 36
-277 51 -301 5 -8 9 -27 10 -44 2 -36 49 -292 59 -320 4 -11 11 -29 15 -40 5
-11 20 -69 34 -130 15 -60 33 -132 40 -160 8 -27 18 -70 21 -95 7 -42 22 -101
74 -293 12 -42 35 -107 51 -142 17 -36 30 -68 30 -70 0 -3 14 -34 30 -68 17
-35 30 -67 30 -71 0 -3 14 -25 30 -48 17 -22 30 -46 30 -53 0 -24 37 -46 71
-43 28 2 35 8 43 36 8 29 5 37 -22 71 -18 22 -37 51 -43 65 -7 14 -15 26 -19
26 -4 0 -10 12 -13 28 -3 15 -17 44 -31 64 -13 20 -28 58 -32 83 -3 25 -13 53
-21 61 -15 14 -31 62 -58 174 -8 30 -18 73 -24 95 -5 22 -15 67 -21 100 -7 33
-20 82 -31 108 -10 27 -24 76 -31 110 -7 34 -17 65 -22 69 -5 3 -10 19 -12 35
-6 54 -23 139 -43 213 -24 89 -61 277 -68 340 -2 25 -9 55 -15 67 -6 12 -8 33
-6 48 3 14 1 47 -4 73 -17 86 -7 343 17 442 12 49 17 86 20 150 2 36 6 82 9
102 4 22 2 40 -5 43 -6 4 -7 14 -4 24 4 9 9 86 12 171 2 85 5 180 6 211 2 60
18 89 48 89 10 0 22 6 26 13 4 6 17 17 28 23 16 9 19 20 17 51 l-3 40 125 -3
c68 -1 129 -5 135 -9 6 -3 11 -26 11 -50 0 -24 4 -46 9 -49 4 -3 11 -29 15
-58 7 -57 16 -104 39 -208 20 -90 37 -182 37 -206 0 -10 7 -31 14 -46 8 -16
18 -49 21 -75 13 -91 16 -107 24 -118 5 -5 11 -23 14 -40 2 -16 15 -55 27 -85
12 -30 34 -92 48 -137 15 -45 35 -92 45 -103 9 -11 17 -27 17 -36 0 -8 11 -32
25 -52 14 -20 25 -43 26 -52 0 -8 11 -35 24 -60 13 -25 37 -72 53 -105 17 -33
54 -95 84 -139 29 -43 61 -92 70 -109 9 -16 28 -42 42 -56 14 -15 26 -32 26
-37 0 -6 16 -25 35 -43 19 -17 35 -36 35 -41 0 -6 5 -10 11 -10 6 0 27 -16 47
-35 20 -19 45 -35 56 -35 10 0 36 -20 58 -44 l39 -45 33 20 c19 11 37 27 40
35 13 33 -16 94 -44 94 -52 0 -204 141 -300 279 -36 51 -72 101 -81 111 -9 10
-22 34 -29 54 -6 20 -15 36 -19 36 -8 0 -71 132 -71 150 0 11 -64 144 -79 165
-4 6 -13 30 -20 55 -17 61 -59 150 -71 150 -6 0 -10 10 -10 21 0 19 -20 90
-41 144 -4 11 -8 27 -8 35 -1 41 -15 111 -22 116 -5 3 -9 16 -9 30 0 14 -5 35
-12 47 -6 12 -12 38 -13 57 -3 52 -44 268 -61 318 -8 24 -12 48 -8 53 3 6 0
16 -6 25 -10 11 -10 27 -1 71 11 57 6 72 -25 73 -10 0 -31 116 -39 215 -5 61
-35 208 -45 220 -6 7 -12 50 -15 96 -2 46 -9 104 -14 129 -6 25 -10 75 -11
112 0 37 -5 79 -11 95 -6 15 -11 55 -11 88 0 33 -3 64 -6 69 -3 6 -7 54 -8
107 -1 54 -5 103 -9 110 -10 15 -22 111 -35 264 -5 66 -14 139 -20 162 -5 23
-10 56 -10 72 0 30 -7 70 -30 161 -19 79 -61 346 -65 420 -2 25 -6 94 -10 154
-6 88 -5 108 6 104 7 -2 14 -22 16 -44 2 -33 10 -81 38 -219 13 -63 19 -82 31
-96 8 -9 11 -18 8 -21 -3 -4 4 -45 16 -93 12 -47 19 -92 17 -100 -3 -7 2 -28
12 -46 10 -19 22 -50 26 -69 4 -19 11 -41 16 -50 5 -8 15 -33 23 -55 61 -175
79 -221 92 -231 8 -6 14 -20 14 -30 0 -10 7 -32 15 -48 8 -15 15 -33 15 -40 0
-6 16 -31 36 -56 19 -24 42 -59 51 -78 9 -18 27 -41 40 -49 13 -9 38 -29 55
-45 46 -43 155 -91 203 -90 22 0 67 8 100 17 33 9 71 16 84 16 13 -1 29 3 35
8 6 4 29 14 51 21 41 13 115 74 115 96 0 6 16 32 35 57 19 25 35 53 35 62 0 9
8 29 18 43 40 60 134 411 141 525 1 21 8 55 16 75 14 39 26 118 30 217 2 33 9
92 15 130 19 110 24 204 11 218 -6 8 -7 17 -1 23 10 10 20 78 24 154 1 25 6
51 10 58 4 7 10 50 13 94 3 45 10 93 15 107 13 32 19 106 19 236 0 55 0 103 0
107 -1 4 -14 14 -29 22 -26 13 -31 13 -56 -7 l-28 -22 12 -82 c6 -45 8 -92 5
-105 -3 -13 -7 -36 -10 -53 -2 -16 -13 -84 -24 -150 -11 -66 -23 -163 -26
-215 -3 -52 -8 -115 -11 -140 -3 -25 -7 -61 -8 -80 -13 -149 -30 -301 -43
-385 -9 -55 -19 -125 -23 -155 -13 -97 -40 -254 -49 -280 -5 -14 -17 -52 -26
-85 -32 -110 -58 -180 -79 -215 -12 -19 -33 -57 -48 -85 -31 -58 -102 -102
-162 -100 -26 0 -38 -4 -41 -16 -5 -14 -15 -17 -48 -14 -69 5 -99 13 -187 54
-49 23 -114 97 -155 176 -9 18 -73 165 -97 225 -6 14 -16 36 -23 50 -7 14 -15
39 -19 55 -4 17 -13 37 -20 45 -19 22 -56 133 -56 166 0 16 -10 49 -22 74 -11
25 -20 55 -19 66 2 24 -27 123 -40 139 -5 5 -9 23 -9 40 0 16 -7 43 -15 59 -8
16 -14 34 -13 40 3 20 -14 96 -23 102 -5 3 -6 16 -3 30 7 26 -20 200 -37 242
-5 13 -7 27 -5 31 3 4 1 41 -4 82 -23 181 -11 608 20 709 11 36 20 81 20 101
0 19 9 53 19 75 69 143 83 180 78 211 -3 18 -3 33 1 33 4 0 23 30 42 68 32 63
136 232 160 260 6 7 20 32 30 55 10 23 30 52 43 63 15 13 27 37 31 64 4 24 18
56 31 72 14 16 28 42 31 56 3 15 9 36 13 47 25 63 34 98 48 170 8 44 19 94 25
110 5 17 16 66 24 110 25 155 93 437 124 522 l20 53 -25 16 c-14 9 -25 23 -25
30 0 8 -6 14 -14 14 -17 0 -216 103 -275 142 -24 16 -50 27 -57 24 -7 -3 -23
8 -34 24 -12 17 -27 30 -35 30 -19 0 -195 163 -288 268 -35 39 -51 40 -83 5z
m68 -165 c-1 -4 11 -14 28 -23 34 -17 80 -58 80 -71 1 -9 120 -100 178 -136
58 -36 174 -98 184 -98 6 0 33 -16 59 -35 27 -19 56 -35 64 -35 25 0 39 -39
25 -69 -7 -14 -19 -53 -26 -86 -7 -33 -17 -80 -23 -105 -5 -25 -15 -76 -22
-115 -6 -38 -17 -81 -24 -95 -13 -27 -24 -88 -30 -170 -1 -29 -8 -57 -14 -63
-6 -6 -11 -21 -11 -33 0 -12 -7 -38 -16 -59 -8 -20 -13 -40 -10 -43 3 -3 2
-10 -3 -16 -5 -6 -14 -29 -21 -51 -16 -50 -99 -220 -126 -260 -12 -16 -38 -57
-59 -90 -20 -33 -46 -72 -56 -87 -11 -15 -19 -32 -19 -39 0 -6 -8 -23 -18 -37
-25 -37 -62 -110 -62 -124 0 -6 -8 -18 -18 -27 -10 -9 -25 -28 -34 -42 -14
-22 -14 -28 -3 -40 12 -12 12 -22 0 -66 -7 -28 -19 -62 -26 -74 -25 -48 -69
-258 -80 -384 -6 -71 -12 -218 -14 -325 -1 -125 -6 -194 -12 -193 -54 11 -83
-199 -53 -384 10 -58 15 -113 13 -123 -3 -9 5 -100 17 -201 17 -139 23 -251
25 -454 1 -180 8 -320 20 -420 10 -88 18 -241 20 -370 2 -121 8 -258 14 -305
6 -46 11 -105 11 -130 0 -64 17 -85 62 -76 31 6 37 11 43 43 6 35 -4 120 -27
213 -6 25 -10 54 -9 65 2 11 2 55 2 97 0 42 4 80 9 83 9 6 18 -21 19 -60 0
-11 2 -51 5 -90 4 -65 7 -84 21 -175 3 -19 7 -55 10 -80 2 -25 11 -92 19 -150
8 -58 20 -152 26 -210 7 -58 16 -116 20 -130 5 -14 10 -38 12 -54 3 -25 -1
-30 -22 -31 -14 -2 -29 1 -35 5 -5 4 -62 7 -125 8 -178 2 -358 10 -369 16 -5
4 -12 3 -15 -2 -3 -5 -35 -5 -72 0 -37 4 -70 6 -72 3 -3 -3 -11 0 -18 6 -8 6
-38 11 -68 10 -33 0 -61 5 -68 13 -15 14 -107 39 -150 41 -15 0 -35 8 -46 18
-10 9 -27 17 -38 17 -10 0 -31 6 -46 14 -15 8 -42 17 -60 21 -18 4 -37 11 -43
15 -5 4 -28 13 -50 20 -22 6 -62 22 -90 35 -27 13 -57 27 -65 30 -8 3 -28 14
-45 25 -39 25 -165 99 -213 125 -20 12 -68 39 -107 61 -38 22 -83 47 -100 56
-36 20 -147 75 -230 113 -33 15 -62 30 -65 34 -3 3 -21 15 -40 25 -19 10 -54
32 -78 48 -24 15 -51 28 -60 28 -9 0 -23 9 -29 19 -7 11 -25 22 -41 25 -15 4
-40 18 -55 31 -14 14 -30 25 -35 25 -4 0 -23 16 -42 35 -19 19 -37 35 -42 35
-7 0 -95 57 -108 70 -3 3 -27 16 -54 30 -27 14 -68 44 -92 68 -23 23 -49 42
-57 42 -8 0 -17 6 -20 14 -3 8 -27 29 -54 47 -26 18 -84 64 -128 102 -44 39
-84 74 -89 78 -15 13 72 210 120 271 24 31 44 61 44 67 0 6 4 11 10 11 5 0 31
33 58 73 27 39 66 89 86 110 20 21 36 47 36 57 0 10 9 25 21 34 26 18 69 80
69 100 0 8 10 27 23 43 13 15 32 46 42 68 66 145 107 225 115 225 5 0 7 6 4
14 -3 8 -1 17 4 20 6 3 20 26 32 50 11 24 27 47 35 50 8 3 15 12 15 20 0 21
52 117 77 143 13 12 23 28 23 35 0 7 9 24 20 38 11 14 20 33 20 42 0 10 9 22
20 28 11 6 20 19 20 29 0 10 18 38 40 62 75 83 80 90 80 106 0 9 16 31 35 50
19 19 35 40 35 48 0 8 4 15 9 15 5 0 20 17 33 37 24 37 58 88 93 139 11 16 26
34 33 39 13 10 29 36 54 85 22 44 89 129 106 135 10 3 37 33 62 66 25 33 52
68 60 77 8 10 30 35 49 57 50 59 180 201 229 250 23 24 42 48 42 53 0 6 16 19
35 31 20 11 38 28 42 37 3 9 54 65 113 124 60 60 120 129 135 154 15 25 31 46
35 46 5 0 11 9 15 19 3 11 21 36 40 57 19 21 35 44 35 52 0 8 17 35 38 61 49
60 72 97 72 116 0 8 4 15 10 15 10 0 70 83 70 98 0 5 16 36 35 68 19 32 35 65
35 73 0 8 11 26 24 40 13 15 38 55 56 91 17 36 35 72 40 80 4 9 11 31 15 49 4
18 16 42 26 52 10 10 19 27 19 37 0 10 4 22 9 28 5 5 19 34 31 64 13 30 53
118 91 196 38 78 69 147 69 154 0 6 10 33 23 59 13 25 27 58 30 73 4 15 12 39
18 54 l10 28 21 -35 c12 -19 21 -37 20 -41z m-1292 -1918 c0 -5 -5 -10 -11
-10 -5 0 -7 5 -4 10 3 6 8 10 11 10 2 0 4 -4 4 -10z m1226 -1297 c-10 -10 -19
5 -10 18 6 11 8 11 12 0 2 -7 1 -15 -2 -18z m-6 -48 c-7 -9 -15 -13 -17 -11
-7 7 7 26 19 26 6 0 6 -6 -2 -15z m7 -61 c-3 -3 -12 -4 -19 -1 -8 3 -5 6 6 6
11 1 17 -2 13 -5z m-17 -44 c0 -5 -2 -10 -4 -10 -3 0 -8 5 -11 10 -3 6 -1 10
4 10 6 0 11 -4 11 -10z m70 -56 c0 -8 -4 -12 -10 -9 -5 3 -10 10 -10 16 0 5 5
9 10 9 6 0 10 -7 10 -16z m-30 -28 c0 -3 -4 -8 -10 -11 -5 -3 -10 -1 -10 4 0
6 5 11 10 11 6 0 10 -2 10 -4z m60 -1066 c0 -5 -2 -10 -4 -10 -3 0 -8 5 -11
10 -3 6 -1 10 4 10 6 0 11 -4 11 -10z m-5 -40 c3 -5 1 -10 -4 -10 -6 0 -11 5
-11 10 0 6 2 10 4 10 3 0 8 -4 11 -10z m13 -65 c-3 -3 -9 2 -12 12 -6 14 -5
15 5 6 7 -7 10 -15 7 -18z m-18 -109 c0 -3 -4 -8 -10 -11 -5 -3 -10 -1 -10 4
0 6 5 11 10 11 6 0 10 -2 10 -4z m-3020 -26 c0 -5 -5 -10 -11 -10 -5 0 -7 5
-4 10 3 6 8 10 11 10 2 0 4 -4 4 -10z m3050 -20 c0 -5 -4 -10 -10 -10 -5 0
-10 5 -10 10 0 6 5 10 10 10 6 0 10 -4 10 -10z m-3040 -30 c0 -5 -2 -10 -4
-10 -3 0 -8 5 -11 10 -3 6 -1 10 4 10 6 0 11 -4 11 -10z m3043 -20 c3 -11 1
-23 -4 -26 -5 -3 -9 6 -9 20 0 31 6 34 13 6z m-2999 -35 c9 -14 23 -25 31 -25
8 0 40 -23 70 -50 31 -28 60 -48 66 -45 5 4 25 -9 43 -27 45 -43 75 -68 81
-68 3 0 11 -5 18 -10 34 -29 134 -100 232 -164 61 -40 116 -80 124 -89 7 -9
22 -17 32 -17 11 0 19 -3 19 -7 0 -9 55 -35 112 -54 21 -7 40 -21 44 -31 3
-10 13 -18 23 -18 10 0 24 -7 31 -15 22 -26 162 -85 203 -85 9 0 21 -8 26 -19
6 -10 32 -28 58 -40 26 -12 55 -26 63 -31 8 -5 40 -21 70 -36 30 -14 63 -33
72 -41 9 -8 22 -12 27 -8 6 3 14 0 17 -9 3 -8 18 -20 32 -26 35 -14 71 -35 85
-49 6 -6 19 -11 28 -11 10 0 25 -7 33 -16 9 -8 25 -17 37 -19 12 -2 32 -11 45
-20 13 -8 32 -15 44 -15 11 0 20 -3 20 -8 0 -9 46 -30 88 -38 18 -4 35 -10 38
-15 2 -4 11 -6 19 -3 8 3 27 -1 42 -9 28 -15 156 -64 188 -73 52 -12 170 -46
175 -49 4 -2 76 -7 161 -10 85 -4 156 -7 159 -8 3 -1 23 3 45 7 73 16 85 14
85 -12 0 -19 -5 -23 -24 -20 -12 1 -38 -5 -57 -14 -19 -9 -53 -25 -76 -34 -24
-10 -45 -26 -49 -36 -4 -13 -15 -18 -39 -18 -19 0 -38 -6 -42 -13 -4 -7 -34
-25 -65 -41 -32 -15 -67 -37 -79 -47 -12 -10 -27 -19 -34 -19 -6 0 -22 -11
-35 -25 -13 -14 -43 -36 -66 -50 -23 -14 -60 -45 -82 -70 -22 -25 -45 -45 -51
-45 -6 0 -16 -11 -21 -25 -5 -14 -14 -25 -19 -25 -15 0 -140 -120 -146 -141
-4 -10 -12 -19 -19 -19 -7 0 -27 -21 -44 -47 -17 -27 -48 -66 -69 -89 -45 -48
-152 -176 -209 -250 -22 -29 -53 -65 -70 -81 -37 -36 -96 -107 -178 -213 -36
-47 -74 -94 -85 -106 -12 -12 -21 -25 -21 -30 0 -5 -45 -55 -100 -112 -55 -56
-100 -107 -100 -112 0 -5 -9 -12 -21 -15 -11 -4 -25 -18 -31 -31 -6 -13 -18
-26 -27 -29 -9 -3 -56 -43 -104 -90 -49 -47 -93 -85 -99 -85 -15 0 -112 -89
-120 -111 -4 -11 -14 -19 -22 -19 -8 0 -19 -6 -23 -13 -10 -15 -79 -67 -90
-67 -4 0 -19 -12 -33 -27 -28 -29 -220 -158 -250 -168 -11 -4 -20 -11 -20 -16
0 -5 -11 -9 -25 -9 -14 0 -28 -7 -31 -15 -6 -14 -52 -39 -129 -68 -22 -8 -67
-26 -100 -39 -51 -21 -74 -24 -155 -23 -52 2 -101 3 -108 4 -16 1 -8 126 14
214 26 101 104 313 184 497 42 97 110 292 105 300 -6 10 15 83 29 100 17 21
37 92 48 175 5 39 12 88 15 110 3 22 5 53 4 69 0 16 3 34 8 40 13 17 21 56 27
121 2 33 9 116 16 185 6 69 11 134 10 145 0 11 6 52 13 90 8 39 19 95 25 125
5 30 12 64 15 75 4 17 7 227 5 330 -1 17 -1 52 -1 79 0 26 -4 57 -9 67 -6 10
-12 117 -15 236 -3 154 -9 233 -19 268 -8 28 -20 82 -26 120 -6 39 -23 102
-37 140 -14 39 -26 80 -27 92 -2 13 -6 26 -9 30 -4 3 -7 17 -7 31 0 30 -20
102 -33 119 -5 7 -6 17 -2 23 11 17 32 11 49 -15z m2996 -45 c0 -5 -2 -10 -4
-10 -3 0 -8 5 -11 10 -3 6 -1 10 4 10 6 0 11 -4 11 -10z m0 -62 c0 -18 -2 -20
-9 -8 -6 8 -7 18 -5 22 9 14 14 9 14 -14z m34 -33 c-4 -8 -8 -15 -10 -15 -2 0
-4 7 -4 15 0 8 4 15 10 15 5 0 7 -7 4 -15z m-47 -30 c-15 -16 -19 -13 -11 9 3
9 10 13 15 10 5 -3 3 -11 -4 -19z m-317 -1465 c0 -5 -4 -10 -10 -10 -5 0 -10
5 -10 10 0 6 5 10 10 10 6 0 10 -4 10 -10z"/>
<path d="M5926 7479 c-14 -17 -26 -39 -26 -48 0 -10 -11 -39 -25 -65 -14 -26
-25 -52 -25 -58 0 -11 -49 -113 -73 -153 -7 -11 -28 -45 -47 -77 -19 -31 -48
-80 -65 -109 -16 -28 -44 -70 -61 -94 -18 -23 -35 -51 -38 -63 -4 -11 -17 -31
-30 -43 -13 -13 -36 -46 -51 -74 -32 -58 -63 -99 -134 -175 -28 -30 -51 -58
-51 -61 0 -3 -18 -24 -39 -47 -28 -29 -38 -47 -34 -62 4 -15 2 -19 -9 -15 -10
4 -27 -12 -51 -47 -20 -29 -50 -72 -67 -96 -16 -23 -30 -47 -30 -53 0 -6 -4
-8 -9 -5 -5 3 -16 -11 -24 -32 -8 -21 -22 -44 -31 -51 -9 -8 -16 -18 -16 -24
0 -6 -6 -18 -13 -26 -8 -9 -28 -50 -47 -91 -24 -56 -32 -88 -31 -125 1 -46 21
-131 41 -180 5 -11 15 -47 23 -80 29 -119 68 -257 77 -273 5 -10 32 -66 61
-126 50 -106 85 -166 112 -196 8 -8 24 -33 36 -55 22 -41 34 -61 62 -105 9
-14 23 -45 30 -69 7 -23 19 -45 26 -48 7 -3 13 -10 13 -15 0 -6 16 -28 36 -50
22 -25 33 -46 29 -55 -3 -9 3 -24 15 -35 11 -10 22 -31 26 -46 3 -15 13 -42
21 -61 15 -34 14 -39 -18 -103 -5 -10 -9 -31 -9 -47 0 -17 -5 -33 -11 -36 -5
-4 -9 -14 -7 -22 4 -20 64 -25 79 -7 6 8 14 14 18 14 11 0 6 -43 -9 -73 -19
-40 -4 -62 45 -62 29 -1 41 5 53 23 22 34 25 115 6 201 l-16 73 53 87 c29 47
55 88 59 91 4 3 15 22 24 42 10 21 32 52 50 71 31 33 106 213 106 256 0 11 6
26 13 33 15 14 43 116 34 124 -2 3 2 26 10 52 8 26 16 68 18 95 1 26 7 53 13
60 11 13 23 88 48 287 8 69 19 159 24 200 17 136 20 213 9 226 -7 9 -6 19 4
36 12 19 30 124 32 188 0 8 3 20 7 25 11 18 18 98 23 265 2 91 5 167 5 170 4
22 0 385 -5 429 -7 60 -49 207 -71 250 -8 14 -14 31 -14 36 0 6 -13 26 -30 45
-16 19 -29 41 -30 48 0 6 -6 12 -14 12 -7 0 -19 7 -26 15 -18 21 -25 19 -54
-16z m74 -174 c0 -14 12 -50 26 -82 43 -94 50 -258 29 -743 -3 -69 -10 -159
-16 -200 -6 -41 -15 -120 -19 -175 -5 -55 -13 -129 -18 -165 -6 -36 -13 -94
-16 -130 -3 -36 -11 -94 -17 -130 -6 -36 -12 -83 -14 -105 -9 -110 -16 -168
-19 -174 -3 -4 -7 -27 -10 -51 -7 -60 -25 -150 -31 -160 -3 -5 -10 -44 -15
-87 -9 -71 -47 -202 -70 -245 -6 -10 -10 -23 -10 -28 0 -19 -51 -120 -61 -120
-5 0 -9 -6 -9 -14 0 -7 -7 -19 -16 -27 -8 -7 -24 -29 -35 -48 -11 -20 -28 -49
-39 -66 -10 -16 -19 -37 -19 -46 -1 -14 -29 -35 -36 -27 -6 6 -85 155 -99 183
-7 17 -23 41 -35 54 -11 13 -21 31 -21 39 0 20 -55 118 -91 162 -16 19 -29 40
-29 47 0 7 -3 13 -7 13 -5 0 -17 15 -27 33 -40 67 -65 117 -60 117 3 0 -5 19
-17 43 -12 23 -25 50 -30 59 -5 10 -9 27 -9 38 0 11 -4 20 -10 20 -5 0 -12 17
-15 38 -4 20 -10 46 -15 57 -4 11 -15 47 -24 80 -9 33 -28 101 -42 150 -53
188 -51 217 15 315 22 33 41 62 41 64 0 9 65 111 83 131 10 11 27 36 37 55 10
19 30 46 45 60 15 14 34 42 42 63 8 20 19 37 24 37 4 0 15 16 24 35 10 19 25
37 36 40 10 4 19 10 19 14 0 4 27 36 60 71 33 35 60 67 60 72 0 12 122 192
137 201 7 4 13 17 13 27 0 10 6 23 13 27 6 4 27 37 46 73 19 36 47 81 62 100
15 20 39 61 52 92 14 30 29 58 35 62 13 8 42 64 42 82 0 7 9 33 20 59 20 48
40 52 40 10z"/>
</g>
</svg>
