<?xml version="1.0" standalone="no"?>
<!DOCTYPE svg PUBLIC "-//W3C//DTD SVG 20010904//EN"
 "http://www.w3.org/TR/2001/REC-SVG-20010904/DTD/svg10.dtd">
<svg version="1.0" xmlns="http://www.w3.org/2000/svg"
 width="1550.000000pt" height="1550.000000pt" viewBox="0 0 1550.000000 1550.000000"
 preserveAspectRatio="xMidYMid meet">
<metadata>
Created by potrace 1.15, written by Peter Selinger 2001-2017
</metadata>
<g transform="translate(0.000000,1550.000000) scale(0.100000,-0.100000)"
fill="#000000" stroke="none">
<path d="M7657 12888 c-23 -17 -57 -87 -57 -115 0 -14 -15 -39 -35 -59 -19
-19 -38 -46 -41 -59 -3 -14 -10 -25 -15 -25 -5 0 -9 -7 -9 -15 0 -9 -11 -32
-24 -53 -12 -20 -58 -109 -101 -197 -154 -318 -187 -380 -255 -481 -16 -25
-30 -51 -30 -58 0 -7 -11 -22 -25 -34 -14 -12 -25 -28 -25 -34 0 -7 -16 -40
-36 -73 -20 -33 -49 -90 -64 -126 -15 -36 -44 -90 -65 -119 -21 -30 -46 -72
-57 -94 -24 -52 -78 -133 -112 -167 -14 -15 -26 -31 -26 -36 0 -6 -9 -18 -20
-28 -11 -10 -20 -22 -20 -26 0 -5 -33 -57 -73 -116 -40 -59 -85 -130 -101
-158 -16 -27 -37 -59 -48 -70 -23 -24 -88 -126 -88 -138 0 -5 -11 -23 -25 -41
-14 -18 -25 -37 -25 -42 0 -5 -18 -36 -40 -69 -22 -33 -40 -68 -40 -77 0 -10
-4 -18 -10 -18 -5 0 -10 -6 -10 -12 0 -7 -14 -26 -30 -42 -17 -16 -30 -36 -30
-44 0 -8 -11 -23 -25 -34 -14 -11 -34 -37 -45 -57 -10 -21 -26 -43 -34 -51 -9
-7 -23 -27 -31 -44 -8 -17 -54 -76 -100 -131 -47 -55 -88 -110 -91 -122 -4
-13 -10 -23 -15 -23 -5 0 -9 -6 -9 -12 0 -7 -21 -44 -46 -82 -25 -39 -52 -84
-60 -100 -33 -69 -56 -110 -90 -158 -20 -27 -44 -69 -54 -92 -34 -74 -85 -162
-112 -194 -15 -18 -29 -41 -33 -52 -3 -11 -12 -20 -18 -20 -7 0 -34 -21 -61
-47 -43 -42 -47 -50 -43 -81 6 -31 1 -38 -65 -100 -39 -37 -75 -69 -82 -72
-24 -11 -72 -46 -88 -65 -38 -44 -8 -92 62 -97 l45 -4 -3 -134 c-3 -184 -12
-237 -72 -425 -17 -55 -36 -127 -41 -159 -6 -33 -13 -64 -17 -70 -7 -11 -11
-27 -50 -216 -10 -53 -24 -105 -29 -115 -6 -11 -13 -36 -16 -56 -2 -19 -9 -44
-15 -56 -13 -23 -81 -281 -88 -333 -9 -62 -14 -113 -24 -213 -6 -55 -12 -103
-15 -107 -3 -4 -9 -40 -15 -81 -6 -40 -14 -77 -19 -83 -9 -12 -17 -51 -31
-169 -5 -43 -12 -82 -15 -87 -5 -9 -22 -101 -45 -250 -5 -30 -16 -81 -24 -113
-9 -32 -14 -63 -11 -67 3 -5 1 -17 -4 -27 -29 -53 -101 -449 -86 -473 3 -4 -1
-21 -9 -37 -17 -34 -48 -155 -52 -203 -2 -19 -10 -80 -18 -135 -13 -89 -13
-101 0 -111 11 -9 12 -13 3 -16 -8 -3 -13 -37 -15 -99 -2 -53 -5 -102 -8 -110
-2 -8 -9 -29 -15 -47 -6 -18 -22 -101 -36 -185 -13 -84 -32 -177 -41 -207 -8
-30 -19 -78 -23 -107 -4 -29 -10 -55 -13 -59 -13 -12 14 -62 36 -68 12 -3 43
-21 69 -41 25 -19 61 -38 79 -42 18 -3 43 -14 56 -24 30 -23 152 -70 194 -74
18 -2 42 -6 53 -9 11 -3 71 -17 132 -30 62 -13 151 -40 197 -60 46 -20 86 -36
89 -36 10 0 115 -69 122 -80 3 -5 14 -10 23 -10 10 0 22 -10 27 -22 13 -28 72
-60 96 -53 17 6 24 -3 20 -27 -2 -13 73 -85 105 -101 17 -9 38 -27 47 -41 25
-38 77 -83 119 -103 21 -10 38 -25 38 -33 0 -8 14 -26 30 -40 17 -14 39 -33
50 -42 11 -10 24 -18 29 -18 5 0 15 -8 22 -17 11 -15 11 -16 0 -6 -11 9 -17 9
-27 -1 -7 -7 -30 -16 -51 -19 -32 -5 -42 -13 -56 -42 -29 -61 11 -113 65 -84
13 7 23 11 23 10 0 -2 17 4 39 13 21 9 41 16 44 16 3 0 24 8 46 19 52 23 142
51 170 51 11 1 32 7 46 15 14 8 35 14 47 15 12 0 77 18 145 41 137 45 124 42
304 67 73 10 138 23 145 29 8 5 40 13 72 17 32 3 65 10 75 15 9 5 37 15 62 22
25 7 59 21 76 31 17 10 51 25 74 33 24 8 50 21 58 27 8 7 55 26 105 44 113 38
124 42 162 60 17 7 55 18 85 25 30 6 63 18 72 26 12 11 21 12 36 4 15 -8 23
-7 32 4 6 7 17 12 25 9 7 -3 16 -1 20 5 3 6 20 11 36 11 16 0 41 7 54 16 13 9
39 17 57 19 32 3 74 21 208 89 36 18 77 36 93 40 15 3 27 11 27 16 0 6 9 10
19 10 11 0 23 5 26 10 4 6 10 8 14 6 4 -3 38 11 76 30 37 19 95 41 128 49 33
8 64 18 70 24 5 5 22 7 37 4 34 -6 165 13 194 30 11 6 28 13 36 14 40 6 132
33 143 41 7 5 29 15 50 21 20 7 37 18 37 25 0 7 14 17 32 22 31 9 109 95 123
137 4 10 24 36 46 58 21 22 39 43 39 47 0 4 34 43 76 87 41 44 87 97 101 117
13 20 41 54 62 76 20 21 45 55 54 75 10 19 21 37 26 39 8 3 35 41 133 185 16
23 34 57 40 75 6 18 24 49 40 68 15 19 28 40 28 46 0 7 3 14 8 16 10 4 82 103
82 113 0 4 10 21 22 38 13 18 30 44 38 59 8 15 45 72 83 127 37 55 67 103 67
108 0 4 9 19 20 33 11 14 20 32 20 41 0 15 10 41 66 166 8 17 14 37 14 45 0 8
4 18 10 24 5 5 13 32 17 59 7 51 50 133 89 172 13 11 40 27 61 34 21 6 52 22
68 34 17 12 68 40 115 63 47 22 96 51 110 63 14 13 46 37 70 53 25 16 53 40
63 53 10 13 25 23 33 23 8 0 14 4 14 8 0 5 17 18 38 30 59 33 152 125 152 150
0 12 4 22 9 22 5 0 15 26 22 58 7 31 16 62 20 68 5 5 11 59 14 118 3 59 8 113
12 119 4 6 8 29 9 52 5 92 17 191 25 201 5 6 8 24 7 40 0 16 2 46 5 66 3 21 1
40 -4 44 -5 3 -7 10 -3 15 3 5 9 7 14 4 5 -3 12 5 16 17 10 31 13 257 5 329
-5 37 -3 89 4 130 13 72 46 124 124 193 19 17 60 57 92 89 32 31 62 57 68 57
6 0 29 18 52 39 22 22 44 41 49 43 14 5 113 93 199 178 85 84 187 173 204 179
7 2 24 18 40 34 27 31 35 61 18 71 -5 3 -12 23 -16 43 -7 41 -41 120 -56 129
-5 3 -6 16 -3 29 4 15 -6 48 -30 98 -20 41 -36 81 -36 89 0 7 -4 18 -9 24 -5
5 -21 43 -36 84 -15 41 -38 103 -50 136 -12 34 -30 72 -39 85 -9 13 -16 31
-16 41 0 10 -11 39 -24 65 -14 27 -30 68 -37 93 -15 57 -40 113 -56 123 -7 4
-13 20 -13 35 0 15 -6 39 -14 53 -7 14 -16 43 -20 64 -4 20 -23 70 -42 111
-19 40 -34 81 -34 91 0 10 -11 36 -25 58 -13 22 -25 48 -25 58 0 11 -6 33 -14
50 -28 66 -75 205 -91 272 -9 39 -24 93 -34 120 -35 96 -61 184 -61 205 0 22
-24 109 -41 145 -26 59 -71 172 -74 185 -2 15 -10 37 -25 75 -4 11 -22 58 -40
105 -18 47 -40 99 -51 116 -10 17 -15 34 -12 38 4 4 -2 15 -13 24 -11 9 -33
50 -48 90 -16 40 -39 86 -52 101 -13 16 -24 35 -24 43 0 8 -9 24 -20 36 -11
12 -20 30 -20 41 0 11 -8 26 -18 33 -11 7 -22 29 -26 49 -3 19 -25 64 -48 100
-23 35 -42 69 -43 74 0 22 -51 85 -70 86 -37 3 -50 5 -100 14 -69 12 -197 6
-238 -10 -9 -4 -23 -3 -30 2 -6 6 -28 9 -47 7 -19 -2 -67 -5 -107 -7 -42 -2
-78 -9 -88 -17 -15 -12 -19 -12 -29 1 -13 18 -75 11 -102 -12 -13 -11 -18 -11
-21 -1 -6 17 -157 16 -219 -3 -30 -9 -50 -11 -52 -5 -5 13 -83 13 -118 0 -18
-7 -30 -7 -39 0 -8 7 -31 6 -70 -1 -32 -6 -67 -8 -78 -5 -12 3 -27 0 -35 -6
-11 -10 -16 -8 -24 6 -8 15 -18 16 -66 10 -31 -4 -77 -6 -102 -6 -25 1 -88 1
-140 1 -52 -1 -144 -1 -205 0 -60 0 -141 0 -178 0 -38 0 -74 4 -80 10 -7 5
-32 9 -57 9 -25 0 -75 2 -112 6 -42 3 -69 2 -73 -5 -4 -6 -11 -7 -18 -1 -7 6
-41 8 -77 7 -86 -5 -89 -5 -135 -4 -22 1 -47 -2 -55 -5 -11 -4 -21 4 -32 26
-16 32 -59 169 -79 253 -6 22 -19 48 -30 58 -10 10 -19 27 -19 39 0 11 -15 45
-32 75 -18 30 -38 63 -44 73 -32 56 -131 179 -145 180 -8 0 -23 -6 -32 -12z
m33 -132 c0 -8 -4 -18 -10 -21 -5 -3 -10 3 -10 14 0 12 5 21 10 21 6 0 10 -6
10 -14z m45 -96 c3 -16 13 -34 22 -41 8 -7 24 -33 35 -58 19 -45 25 -57 45
-96 13 -25 49 -143 65 -212 6 -29 15 -53 20 -53 4 0 11 -18 14 -40 11 -69 19
-74 135 -77 57 -2 109 -3 114 -3 6 0 71 2 145 5 76 3 151 0 170 -5 75 -22 245
-26 590 -16 118 3 269 6 335 6 371 2 395 2 485 14 99 13 162 17 400 22 225 6
264 6 320 0 14 -2 40 -4 58 -4 29 -2 35 -8 65 -69 17 -38 40 -74 50 -81 9 -7
17 -20 17 -29 0 -17 76 -144 121 -203 15 -19 34 -56 44 -82 10 -26 24 -53 32
-59 7 -7 18 -31 24 -55 6 -24 17 -49 25 -55 8 -6 14 -20 14 -30 0 -11 4 -27
10 -37 5 -9 25 -66 45 -127 20 -60 40 -119 45 -130 5 -11 16 -38 24 -60 8 -22
26 -69 42 -105 15 -36 31 -83 36 -105 5 -22 13 -58 18 -80 5 -22 16 -64 24
-93 8 -29 29 -101 45 -160 17 -59 40 -132 52 -162 11 -30 38 -108 60 -174 22
-65 49 -136 59 -157 11 -21 20 -44 20 -51 0 -7 14 -40 31 -73 16 -33 47 -107
69 -165 21 -58 52 -141 69 -185 17 -44 31 -84 31 -89 0 -8 48 -120 94 -221 13
-27 36 -86 51 -130 15 -44 33 -93 40 -110 8 -16 23 -61 34 -98 12 -38 28 -78
36 -90 8 -12 15 -31 15 -44 0 -12 5 -33 11 -47 18 -38 3 -73 -42 -102 -23 -14
-90 -74 -149 -132 -59 -59 -129 -124 -156 -145 -27 -21 -79 -66 -116 -100 -75
-70 -164 -142 -214 -173 -54 -33 -124 -119 -124 -152 0 -11 -5 -24 -11 -27 -6
-4 -7 -19 -4 -35 3 -16 2 -31 -4 -35 -13 -7 -14 -140 -2 -200 9 -49 -11 -303
-29 -360 -11 -36 -45 -303 -41 -327 1 -10 -2 -25 -7 -35 -6 -10 -13 -63 -17
-118 -3 -54 -11 -107 -16 -116 -5 -10 -9 -28 -9 -41 0 -13 -11 -39 -25 -58
-14 -19 -25 -40 -25 -47 0 -7 -7 -13 -16 -13 -9 0 -32 -13 -51 -30 -18 -16
-39 -30 -45 -30 -6 0 -39 -26 -74 -58 -89 -82 -136 -122 -143 -122 -18 0 -91
-47 -91 -59 0 -9 -7 -11 -23 -7 -35 8 -119 -26 -164 -67 -13 -11 -23 -17 -23
-14 0 16 -83 -36 -87 -54 -3 -10 -9 -19 -15 -19 -13 0 -44 -76 -59 -146 -7
-32 -21 -76 -31 -96 -10 -21 -18 -44 -18 -53 0 -8 -4 -23 -8 -33 -43 -87 -52
-109 -52 -123 0 -9 -10 -31 -22 -50 -13 -19 -30 -47 -38 -64 -8 -16 -35 -58
-58 -94 -24 -36 -55 -88 -69 -116 -14 -27 -34 -56 -44 -63 -11 -7 -19 -19 -19
-27 0 -18 -43 -81 -74 -109 -13 -11 -27 -32 -31 -46 -4 -14 -15 -34 -25 -45
-9 -11 -29 -44 -44 -73 -14 -29 -47 -80 -73 -113 -81 -103 -132 -173 -132
-186 -1 -6 -17 -21 -36 -33 -19 -12 -35 -25 -35 -30 0 -16 -54 -90 -66 -90 -7
0 -21 -15 -33 -32 -11 -18 -47 -60 -80 -93 -34 -33 -61 -68 -61 -78 0 -10 -9
-21 -20 -24 -11 -3 -20 -12 -20 -19 0 -8 -4 -14 -9 -14 -5 0 -12 -8 -15 -18
-9 -28 -74 -94 -86 -87 -5 3 -13 0 -16 -8 -3 -8 -19 -18 -36 -21 -18 -3 -39
-12 -47 -20 -9 -7 -27 -16 -41 -19 -14 -3 -50 -15 -80 -26 -30 -12 -68 -22
-85 -23 -16 0 -34 -3 -40 -6 -5 -3 -27 -7 -50 -8 -37 -1 -80 -13 -195 -50 -25
-9 -52 -16 -60 -16 -8 -1 -26 -9 -39 -20 -13 -10 -30 -18 -38 -18 -23 0 -73
-33 -73 -48 0 -7 -8 -12 -17 -11 -34 4 -123 -32 -184 -74 -13 -10 -30 -17 -38
-17 -8 0 -26 -11 -40 -24 -20 -17 -46 -26 -106 -34 -45 -6 -103 -20 -129 -32
-27 -11 -70 -25 -95 -31 -25 -5 -53 -12 -61 -16 -13 -6 -61 -18 -149 -38 -13
-3 -37 -13 -52 -21 -16 -8 -29 -12 -29 -8 0 3 -11 -1 -25 -10 -13 -9 -29 -16
-35 -16 -26 0 -254 -106 -257 -120 -3 -11 -17 -16 -46 -16 -51 -1 -89 -8 -142
-27 -22 -8 -46 -12 -53 -9 -8 2 -24 -1 -35 -7 -12 -6 -62 -12 -112 -14 -49 -2
-98 -7 -108 -12 -10 -4 -21 -5 -24 -2 -3 4 -20 -3 -36 -15 -18 -13 -43 -21
-58 -19 -15 1 -38 -3 -51 -11 -22 -12 -92 -33 -150 -45 -16 -3 -28 -9 -28 -14
0 -5 -15 -9 -34 -9 -19 0 -41 -7 -50 -15 -8 -8 -29 -15 -46 -15 -17 0 -40 -5
-50 -10 -28 -15 -70 -2 -70 21 0 10 -12 26 -26 36 -14 10 -48 36 -74 58 -27
22 -75 60 -106 85 -31 25 -77 64 -103 88 -25 23 -51 42 -58 42 -6 0 -33 23
-60 51 -26 28 -60 57 -74 64 -14 8 -61 43 -105 80 -67 56 -177 123 -194 118
-3 0 -13 3 -22 8 -11 6 -19 5 -23 -2 -5 -6 -12 -3 -21 10 -14 19 -51 33 -134
51 -19 5 -60 15 -90 23 -30 8 -76 18 -103 22 -26 4 -50 11 -53 16 -3 5 -12 9
-21 9 -26 0 -155 67 -192 101 -19 16 -41 27 -48 25 -7 -3 -13 -1 -13 5 0 6 -4
7 -10 4 -6 -3 -10 0 -10 9 0 8 -5 16 -11 18 -9 3 -8 17 0 53 7 28 18 79 25
115 7 36 16 72 20 80 3 8 13 60 21 115 8 55 17 115 21 133 4 22 3 32 -6 32 -9
0 -8 6 3 18 10 10 17 30 17 43 -1 195 20 372 65 559 9 36 17 79 19 95 1 17 6
41 11 55 5 14 9 39 10 55 5 63 24 182 34 208 6 14 11 45 12 69 2 24 6 50 10
58 4 8 12 26 18 40 6 14 15 48 20 75 5 28 16 84 25 125 9 41 18 98 20 125 1
28 5 57 8 65 11 29 27 116 33 175 4 33 11 78 17 100 10 39 12 52 24 160 4 28
10 55 16 62 5 6 11 44 14 85 8 125 12 162 22 189 6 14 13 65 16 113 5 58 14
102 27 127 11 22 17 44 14 49 -3 5 0 24 8 42 37 85 75 214 92 316 9 48 19 98
24 112 8 24 23 89 37 155 3 17 7 46 9 65 3 45 35 56 36 13 2 -66 -3 -273 -8
-338 -3 -38 -6 -88 -8 -110 -1 -22 -6 -90 -9 -151 -3 -62 -9 -165 -13 -230 -9
-164 -6 -351 7 -422 6 -33 13 -84 16 -113 3 -30 12 -99 19 -154 8 -55 17 -131
19 -170 3 -38 8 -95 11 -125 14 -111 84 -284 139 -343 14 -15 26 -33 26 -40 0
-13 50 -114 81 -162 10 -16 30 -50 44 -75 53 -92 74 -125 88 -135 8 -6 24 -31
35 -56 12 -26 28 -49 36 -52 8 -3 24 -23 36 -44 11 -21 26 -47 33 -58 6 -11
26 -43 44 -71 37 -62 45 -71 170 -200 54 -55 106 -104 116 -107 9 -4 21 -17
26 -30 5 -13 20 -30 33 -39 13 -8 54 -45 92 -82 37 -37 84 -75 104 -85 21 -11
48 -31 61 -45 14 -14 31 -26 38 -26 8 0 16 -6 19 -14 3 -8 20 -20 37 -27 18
-7 50 -25 72 -40 50 -33 133 -74 215 -107 168 -68 376 -85 555 -47 115 25 162
44 242 98 104 70 186 167 234 277 6 14 15 32 20 40 39 70 52 100 65 149 62
228 65 244 65 344 1 112 -16 314 -30 349 -9 23 -33 103 -37 125 -1 7 -10 27
-19 45 -9 18 -25 58 -35 88 -10 30 -25 69 -34 85 -9 17 -16 33 -16 37 0 11
-53 128 -93 206 -18 35 -32 67 -32 70 -1 19 -163 285 -270 446 -33 49 -72 107
-87 130 -15 23 -28 37 -28 32 0 -5 -19 20 -42 56 -24 36 -62 88 -86 114 -59
68 -142 181 -142 194 0 5 -4 10 -8 10 -5 0 -18 17 -29 38 -12 20 -41 59 -65
86 -44 49 -85 102 -186 236 -31 41 -83 104 -117 140 -58 62 -132 146 -260 294
-139 161 -266 273 -370 326 -43 22 -85 46 -94 55 -9 8 -40 36 -70 62 -30 27
-64 57 -75 69 -31 31 -135 97 -186 119 -81 35 -264 132 -267 142 -2 6 46 60
107 122 l110 112 42 -5 c118 -16 557 -24 578 -11 5 3 48 6 95 6 47 1 87 5 90
9 3 5 31 8 63 8 63 0 221 9 322 17 36 3 101 8 145 11 44 2 94 7 110 10 33 5
159 22 220 29 22 2 59 10 83 16 23 7 45 9 48 7 3 -3 22 -1 42 4 20 5 100 20
177 33 77 14 149 29 160 34 11 5 44 15 72 21 29 7 64 21 77 31 14 11 28 19 33
18 16 -4 69 15 143 51 41 21 105 52 142 70 37 18 73 39 79 46 6 8 17 14 24 14
12 0 32 17 159 130 95 85 107 99 125 132 9 18 22 42 28 53 28 50 44 98 38 113
-4 9 -9 32 -12 51 -2 18 -10 49 -18 68 -8 19 -13 39 -10 43 8 13 -74 128 -96
135 -10 3 -21 16 -25 28 -9 28 -82 117 -97 117 -6 0 -19 8 -29 17 -11 10 -38
18 -66 19 -26 1 -72 7 -102 13 -30 6 -80 16 -110 22 -30 6 -59 14 -65 17 -5 3
-16 7 -25 8 -8 1 -46 9 -85 19 -77 18 -183 14 -242 -10 -18 -8 -58 -21 -90
-29 -32 -9 -68 -18 -81 -22 -19 -5 -21 -3 -15 12 6 19 49 64 59 64 3 0 70 61
149 136 79 75 153 143 165 151 11 8 53 47 94 88 40 40 87 80 104 89 18 9 32
20 32 24 0 4 18 18 40 32 22 13 40 29 40 35 0 5 13 16 29 23 16 7 49 31 74 52
25 22 48 40 51 40 3 0 25 20 50 44 24 25 46 42 49 40 2 -3 26 16 53 41 48 45
141 112 177 127 9 4 17 12 17 17 0 9 65 51 79 51 5 0 16 -15 26 -32 32 -62 43
-79 67 -106 33 -37 77 -106 108 -169 14 -29 43 -71 65 -94 22 -23 44 -50 50
-59 11 -19 86 -119 116 -154 9 -12 37 -46 61 -76 24 -30 72 -89 106 -132 34
-42 62 -79 62 -83 0 -3 20 -35 45 -72 25 -36 45 -74 45 -84 0 -11 4 -19 10
-19 5 0 17 -16 26 -35 9 -19 20 -35 25 -35 5 0 9 -7 9 -15 0 -8 5 -15 10 -15
6 0 10 -6 10 -14 0 -8 6 -21 13 -28 16 -16 86 -106 107 -138 8 -12 23 -32 33
-43 16 -19 18 -34 14 -107 -6 -107 -40 -318 -55 -347 -7 -12 -12 -29 -12 -38
0 -10 -11 -39 -25 -67 -24 -47 -51 -140 -80 -275 -19 -85 -41 -150 -72 -208
-15 -27 -27 -52 -27 -55 1 -3 -5 -19 -13 -37 -7 -18 -13 -37 -13 -43 0 -5 -4
-10 -8 -10 -4 0 -14 -21 -21 -47 -20 -69 -57 -146 -99 -210 -20 -31 -44 -68
-52 -83 -15 -27 -40 -60 -92 -124 -16 -19 -28 -39 -28 -45 0 -6 -13 -23 -30
-38 -16 -14 -30 -31 -30 -37 0 -13 -114 -136 -126 -136 -4 0 -20 -11 -34 -25
-29 -27 -154 -95 -176 -95 -8 0 -22 -4 -32 -9 -9 -5 -35 -14 -58 -20 -31 -8
-45 -19 -59 -46 -22 -40 -13 -86 19 -91 17 -2 28 1 101 31 17 7 62 23 100 36
39 13 85 34 104 46 19 13 40 23 47 23 25 0 206 198 219 239 4 13 22 38 39 56
17 17 61 80 96 139 36 60 70 110 76 113 7 2 15 16 19 30 3 13 14 34 25 45 10
11 21 32 25 46 3 14 15 37 26 50 10 14 19 40 19 58 0 19 4 34 10 34 9 0 52 85
86 170 10 25 26 64 36 87 16 38 44 152 68 278 10 55 18 73 55 125 34 49 67
160 80 272 3 24 9 72 15 108 5 36 12 103 15 151 l5 85 -36 35 c-20 18 -61 70
-90 114 -30 44 -79 109 -109 145 -31 36 -67 90 -81 120 -25 52 -104 173 -128
195 -6 6 -23 29 -39 53 -15 23 -31 42 -36 42 -5 0 -23 22 -39 49 -17 27 -44
57 -60 67 -17 9 -33 29 -36 43 -2 14 -24 47 -48 72 -84 89 -185 224 -238 318
-8 15 -35 55 -60 90 -25 35 -54 81 -65 102 -11 21 -30 47 -41 58 -12 11 -24
25 -26 32 -7 20 -44 1 -99 -51 -30 -28 -58 -50 -64 -50 -5 0 -22 -11 -37 -25
-15 -14 -30 -25 -34 -25 -6 0 -61 -51 -170 -157 -24 -24 -48 -43 -53 -43 -5 0
-14 -7 -21 -15 -13 -16 -277 -225 -284 -225 -7 0 -66 -52 -137 -120 -37 -36
-119 -112 -181 -170 -62 -58 -137 -129 -167 -157 -30 -29 -57 -53 -60 -53 -3
0 -44 -41 -90 -90 -46 -49 -88 -87 -93 -84 -5 3 -14 1 -21 -4 -7 -5 -29 -12
-50 -16 -35 -7 -140 -61 -169 -89 -7 -6 -30 -21 -51 -32 -21 -11 -54 -35 -74
-52 -19 -18 -39 -33 -42 -33 -14 0 -61 -25 -61 -32 0 -5 -5 -8 -12 -8 -15 0
-142 -62 -146 -71 -2 -4 -38 -24 -80 -45 -42 -21 -81 -44 -85 -51 -4 -7 -14
-13 -21 -13 -7 0 -22 -11 -34 -25 -12 -14 -29 -25 -37 -25 -8 0 -15 -4 -15 -9
0 -6 -20 -24 -45 -42 -27 -19 -45 -40 -45 -52 0 -15 -3 -17 -13 -9 -10 8 -24
1 -57 -28 -25 -22 -49 -39 -53 -40 -18 -1 -80 -50 -91 -71 -8 -17 -21 -24 -45
-25 -21 -1 -44 -11 -60 -27 -14 -14 -43 -41 -63 -60 -21 -19 -38 -39 -38 -45
0 -16 -177 -188 -185 -180 -8 8 31 107 54 138 11 16 21 36 21 45 0 8 4 15 9
15 5 0 16 17 25 38 15 33 58 119 74 149 4 6 46 70 95 142 48 72 87 134 87 137
0 4 13 19 28 34 15 14 37 40 48 57 45 72 73 109 93 127 11 11 21 24 21 31 0 6
18 31 40 56 22 24 40 48 40 53 0 4 14 25 30 46 17 21 30 42 30 47 0 6 9 18 20
28 11 10 20 26 20 36 0 9 4 19 8 21 16 6 81 107 112 171 16 35 50 85 75 111
25 27 45 52 45 58 0 5 11 26 25 46 14 20 25 43 25 51 0 8 10 25 21 37 12 13
27 32 33 42 28 48 78 120 103 151 15 18 39 50 53 71 80 118 100 150 100 159 0
6 6 14 13 18 19 12 45 56 109 182 32 62 62 119 66 125 5 6 15 27 21 46 6 20
23 49 39 66 15 16 47 70 72 120 25 49 47 91 50 94 13 13 67 109 80 140 7 19
19 42 25 50 7 8 20 33 30 55 9 22 35 77 56 122 22 46 39 87 39 93 0 5 4 10 10
10 5 0 26 35 47 78 20 42 51 97 68 122 18 25 40 62 50 83 17 36 19 37 36 21
10 -9 21 -29 24 -44z m905 -1210 c0 -5 -5 -10 -11 -10 -5 0 -7 5 -4 10 3 6 8
10 11 10 2 0 4 -4 4 -10z m10 -34 c0 -3 -4 -8 -10 -11 -5 -3 -10 -1 -10 4 0 6
5 11 10 11 6 0 10 -2 10 -4z m-1320 -1141 c7 -9 8 -15 2 -15 -5 0 -12 7 -16
15 -3 8 -4 15 -2 15 2 0 9 -7 16 -15z m464 -15 c50 -12 109 -25 131 -30 58
-13 140 -31 156 -34 8 -1 41 -9 74 -16 33 -8 63 -13 67 -12 4 1 14 -11 23 -28
8 -16 21 -33 28 -37 7 -4 20 -19 29 -33 10 -14 30 -43 45 -65 34 -48 47 -77
61 -130 22 -82 23 -104 3 -115 -10 -5 -22 -21 -25 -35 -8 -33 -90 -115 -188
-189 -43 -32 -78 -61 -78 -65 0 -3 -13 -12 -29 -19 -16 -7 -39 -22 -52 -33
-12 -11 -34 -22 -48 -25 -40 -9 -131 -54 -131 -64 0 -5 -8 -8 -17 -8 -10 1
-44 -11 -76 -25 -32 -15 -62 -27 -67 -27 -5 0 -13 -8 -19 -17 -8 -14 -12 -15
-22 -6 -10 10 -16 10 -26 1 -8 -6 -29 -13 -46 -14 -18 -2 -54 -5 -82 -8 -27
-2 -62 -9 -77 -15 -16 -6 -28 -8 -28 -5 0 4 -6 1 -13 -5 -8 -6 -17 -8 -20 -5
-4 4 -17 0 -29 -8 -13 -7 -50 -15 -82 -17 -33 -1 -69 -7 -80 -14 -12 -6 -39
-12 -61 -13 -119 -7 -203 -15 -229 -24 -16 -6 -56 -10 -90 -10 -34 0 -90 -5
-126 -11 -67 -11 -117 -15 -307 -23 -62 -2 -118 -8 -125 -13 -14 -8 -658 -13
-658 -4 0 10 54 61 64 61 6 0 22 11 36 25 79 77 128 129 155 161 62 76 115
118 203 165 12 7 22 16 22 21 0 4 5 8 10 8 14 0 135 93 163 125 12 14 29 27
38 28 9 2 40 23 70 49 30 25 70 53 89 63 19 10 42 23 50 30 8 7 49 31 90 52
41 22 86 46 100 55 14 9 36 18 50 22 14 3 38 17 54 31 16 14 35 25 43 25 7 0
13 5 13 10 0 6 6 10 13 10 6 0 30 16 51 35 22 19 44 35 48 35 5 0 18 9 30 20
12 11 28 20 35 20 7 0 13 5 13 10 0 6 7 10 16 10 14 0 14 -3 4 -15 -7 -8 -19
-15 -27 -15 -9 0 -13 -6 -9 -15 3 -8 2 -15 -2 -15 -5 0 -39 -30 -78 -68 -38
-37 -85 -78 -104 -92 -19 -13 -63 -48 -98 -77 -35 -29 -69 -53 -77 -53 -8 0
-20 -9 -27 -19 -8 -10 -30 -29 -51 -41 -20 -12 -37 -26 -37 -30 0 -4 -11 -11
-24 -14 -14 -3 -37 -17 -53 -30 -47 -39 -162 -116 -175 -116 -6 0 -19 -6 -27
-14 -9 -8 -43 -29 -76 -47 -76 -42 -107 -70 -96 -87 7 -12 18 -11 68 1 52 14
154 54 190 75 7 4 43 28 80 53 37 26 109 72 158 104 50 32 92 61 95 65 3 3 35
28 72 54 38 26 80 61 95 77 16 16 33 29 40 29 14 0 304 287 329 325 12 19 25
25 53 25 20 1 62 7 94 14 31 8 57 12 57 10 0 -3 9 0 21 6 18 10 226 58 258 59
7 1 55 -8 105 -19z m-709 -110 c-3 -5 -12 -10 -18 -10 -7 0 -6 4 3 10 19 12
23 12 15 0z m-1545 -1060 c0 -5 -2 -10 -4 -10 -3 0 -8 5 -11 10 -3 6 -1 10 4
10 6 0 11 -4 11 -10z m-135 -30 c3 -6 -1 -7 -9 -4 -18 7 -21 14 -7 14 6 0 13
-4 16 -10z m115 6 c0 -3 -4 -8 -10 -11 -5 -3 -10 -1 -10 4 0 6 5 11 10 11 6 0
10 -2 10 -4z m-110 -46 c0 -5 -2 -10 -4 -10 -3 0 -8 5 -11 10 -3 6 -1 10 4 10
6 0 11 -4 11 -10z m-138 -440 c24 -22 101 -60 122 -60 7 0 19 -7 26 -15 7 -8
20 -15 30 -15 10 0 23 -7 30 -15 6 -8 16 -13 20 -12 9 2 91 -58 161 -118 97
-83 125 -106 151 -119 15 -8 40 -21 55 -29 15 -9 42 -20 58 -26 27 -10 70 -47
192 -162 43 -42 137 -145 182 -203 17 -21 41 -48 53 -60 54 -52 186 -204 303
-348 7 -9 19 -27 26 -40 7 -13 46 -62 87 -110 41 -47 79 -95 86 -106 6 -10 23
-37 38 -58 15 -21 36 -50 45 -64 9 -14 36 -45 58 -70 23 -25 50 -59 61 -75 25
-40 127 -169 137 -173 4 -2 7 -12 7 -22 0 -10 9 -25 21 -34 20 -13 29 -27 66
-99 9 -16 21 -31 29 -34 8 -3 14 -11 14 -17 0 -7 18 -39 40 -70 22 -32 52 -81
66 -109 15 -29 32 -59 39 -67 7 -8 15 -27 18 -41 4 -14 17 -41 30 -60 12 -19
29 -53 36 -77 8 -23 20 -47 28 -53 7 -6 13 -16 13 -22 0 -5 11 -34 25 -63 14
-29 26 -61 28 -72 2 -11 7 -26 13 -34 5 -7 21 -46 34 -86 14 -41 28 -76 32
-79 5 -2 8 -14 8 -27 0 -12 5 -27 10 -32 6 -6 13 -21 16 -35 38 -181 39 -195
38 -377 0 -110 -4 -166 -12 -174 -7 -7 -12 -21 -12 -33 0 -27 -52 -185 -83
-256 -36 -79 -96 -169 -153 -228 -49 -52 -129 -101 -162 -101 -9 0 -28 -7 -41
-16 -14 -10 -49 -18 -92 -20 -39 -1 -79 -6 -90 -9 -60 -19 -231 -9 -281 16 -9
5 -35 11 -58 14 -22 3 -48 9 -57 14 -10 5 -31 14 -48 21 -107 44 -264 131
-325 180 -25 20 -65 49 -89 65 -25 15 -82 64 -127 109 -46 44 -118 115 -161
156 -42 41 -92 95 -111 120 -63 83 -87 113 -124 157 -21 24 -38 51 -38 59 0 9
-13 29 -30 46 -16 16 -30 34 -30 39 0 5 -7 12 -15 15 -8 4 -15 12 -15 20 0 8
-9 19 -20 26 -11 7 -20 18 -20 24 0 15 -29 72 -41 79 -5 4 -9 13 -9 22 0 8
-20 43 -43 77 -24 33 -59 93 -77 131 -18 39 -43 86 -55 105 -12 19 -25 47 -28
62 -4 15 -13 33 -20 40 -7 7 -18 33 -24 58 -6 25 -18 74 -27 110 -28 111 -34
153 -36 220 0 36 -3 72 -6 81 -5 18 -10 56 -24 204 -5 61 -14 151 -19 200 -6
50 -8 135 -5 190 2 55 6 181 9 280 2 99 6 203 9 230 6 49 14 215 17 317 0 29
-2 107 -6 173 -10 177 -4 553 10 575 9 14 13 13 37 -10z m1878 -4280 c0 -5 -2
-10 -4 -10 -3 0 -8 5 -11 10 -3 6 -1 10 4 10 6 0 11 -4 11 -10z m-1195 -1219
c3 -5 1 -12 -4 -15 -5 -3 -11 1 -15 9 -6 16 9 21 19 6z"/>
</g>
</svg>
