<?xml version="1.0" standalone="no"?>
<!DOCTYPE svg PUBLIC "-//W3C//DTD SVG 20010904//EN"
 "http://www.w3.org/TR/2001/REC-SVG-20010904/DTD/svg10.dtd">
<svg version="1.0" xmlns="http://www.w3.org/2000/svg"
 width="1550.000000pt" height="1550.000000pt" viewBox="0 0 1550.000000 1550.000000"
 preserveAspectRatio="xMidYMid meet">
<metadata>
Created by potrace 1.15, written by Peter Selinger 2001-2017
</metadata>
<g transform="translate(0.000000,1550.000000) scale(0.100000,-0.100000)"
fill="#000000" stroke="none">
<path d="M8483 13750 c-18 -11 -33 -24 -33 -29 0 -10 -22 -20 -58 -27 -70 -14
-195 -88 -272 -162 -24 -23 -46 -40 -49 -38 -3 2 -19 -5 -36 -15 -43 -27 -114
-59 -131 -59 -8 0 -22 -4 -32 -9 -59 -30 -70 -33 -90 -22 -15 8 -23 7 -32 -4
-9 -11 -17 -12 -30 -5 -13 7 -21 7 -25 0 -4 -6 -10 -8 -14 -6 -10 6 -230 -22
-245 -31 -6 -4 -29 -8 -51 -9 -22 -1 -67 -9 -100 -18 -66 -19 -140 -36 -285
-66 -92 -19 -141 -33 -245 -70 -51 -17 -131 -42 -195 -59 -19 -5 -93 -30 -165
-55 -71 -25 -140 -46 -151 -46 -23 0 -84 -23 -97 -37 -5 -4 -12 -8 -15 -9
-130 -10 -189 -17 -197 -24 -5 -4 -26 -11 -45 -15 -19 -4 -53 -11 -75 -16 -22
-5 -71 -11 -109 -14 -38 -2 -74 -9 -80 -15 -5 -5 -33 -10 -60 -10 -28 0 -80
-7 -115 -15 -35 -9 -66 -13 -69 -10 -3 3 -10 1 -16 -4 -6 -5 -31 -11 -56 -14
-90 -12 -123 -27 -176 -83 -28 -30 -59 -74 -69 -97 -9 -23 -24 -58 -33 -77 -8
-20 -18 -84 -22 -150 -4 -63 -10 -124 -13 -135 -10 -39 -20 -201 -19 -295 1
-71 9 -125 31 -210 16 -63 30 -115 31 -115 0 0 3 -21 5 -46 4 -43 53 -203 95
-309 63 -162 61 -180 -22 -199 -72 -16 -114 -16 -168 -1 -25 7 -52 13 -60 15
-9 2 -43 16 -76 32 -32 17 -75 36 -94 43 -19 7 -62 22 -95 35 -47 17 -67 20
-93 13 -27 -7 -31 -12 -22 -23 6 -8 9 -23 5 -34 -10 -33 27 -61 80 -61 25 0
53 -4 63 -9 9 -5 28 -14 42 -20 14 -7 41 -26 60 -42 19 -17 47 -37 62 -45 15
-8 31 -20 35 -28 4 -8 44 -43 88 -78 44 -36 102 -86 129 -112 28 -27 54 -45
62 -42 9 3 14 -1 14 -13 0 -10 17 -31 38 -47 20 -15 51 -40 67 -56 35 -33 101
-87 175 -143 29 -22 65 -53 81 -70 90 -93 111 -117 163 -192 32 -46 61 -83 66
-83 5 0 18 -19 30 -42 32 -66 45 -86 81 -126 59 -65 123 -165 169 -262 24 -52
52 -108 62 -125 9 -16 29 -55 44 -85 15 -30 30 -57 33 -60 3 -3 7 -16 9 -30 1
-13 6 -27 11 -30 4 -3 19 -27 33 -55 13 -27 30 -59 36 -70 6 -11 34 -67 62
-125 52 -109 85 -170 124 -230 12 -19 30 -55 40 -79 9 -24 32 -72 50 -105 39
-72 175 -317 219 -396 17 -30 55 -102 84 -159 30 -57 65 -120 79 -140 13 -19
24 -42 24 -49 0 -7 8 -27 17 -45 9 -18 18 -39 19 -47 2 -8 7 -23 12 -35 31
-65 77 -205 86 -260 20 -127 25 -185 31 -325 9 -198 -4 -274 -70 -430 -35 -85
-85 -218 -85 -229 0 -6 -17 -45 -38 -88 -34 -72 -146 -223 -164 -223 -4 0 -8
-6 -8 -13 0 -27 -118 -125 -190 -157 -25 -12 -53 -25 -63 -31 -43 -24 -217
-29 -307 -9 -66 14 -194 74 -232 108 -14 13 -32 22 -40 20 -7 -3 -37 13 -67
35 -70 51 -363 346 -378 380 -7 14 -24 33 -38 43 -14 9 -25 22 -25 29 0 8 -11
27 -25 43 -14 17 -25 35 -25 40 0 6 -15 30 -33 54 -39 52 -97 145 -97 157 0 4
-9 16 -20 26 -11 10 -20 22 -20 28 0 5 -13 37 -29 71 -16 33 -47 99 -69 146
-22 47 -47 92 -56 99 -9 7 -16 21 -16 30 -1 27 -38 125 -49 129 -6 2 -11 14
-11 26 0 12 -9 39 -20 61 -11 22 -20 47 -20 57 0 9 -4 20 -10 23 -5 3 -10 18
-10 33 0 29 -35 139 -50 157 -5 6 -21 60 -35 120 -14 61 -33 129 -42 153 -9
23 -13 45 -10 49 4 3 1 13 -5 21 -7 7 -14 24 -15 35 -2 12 -8 26 -13 31 -6 6
-10 24 -10 42 0 38 -18 94 -31 94 -5 0 -9 11 -9 24 0 14 -8 32 -17 41 -12 13
-14 21 -6 34 10 16 -4 133 -19 156 -3 6 -6 27 -6 47 0 20 -4 42 -8 49 -4 7 -9
96 -10 198 -1 103 -5 202 -8 221 -3 19 -8 89 -11 155 -6 140 -12 202 -21 217
-4 6 -8 31 -9 57 -6 103 -16 188 -26 218 -6 18 -8 36 -6 40 3 5 2 29 -3 55 -4
27 -5 50 -2 53 3 3 7 56 9 118 5 134 5 116 -2 202 -18 219 -20 267 -13 292 10
33 1 195 -14 273 -11 55 -12 160 -2 192 3 10 -8 29 -26 48 l-32 33 -26 -20
c-23 -18 -27 -27 -25 -69 1 -27 -5 -103 -13 -169 -7 -66 -16 -142 -19 -170 -7
-82 -13 -117 -29 -178 -9 -31 -18 -76 -21 -100 -19 -165 -76 -507 -95 -572
-18 -61 -50 -242 -50 -283 0 -23 -4 -50 -9 -60 -9 -15 -19 -59 -53 -237 -5
-27 -13 -68 -18 -90 -36 -176 -49 -265 -55 -360 -3 -60 -8 -139 -11 -175 -2
-36 -7 -101 -10 -145 -3 -44 -7 -96 -9 -115 -2 -19 -13 -120 -24 -225 -17
-162 -40 -292 -80 -465 -5 -19 -20 -89 -35 -155 -14 -66 -33 -140 -40 -165 -8
-25 -22 -78 -32 -118 -9 -40 -21 -75 -25 -78 -5 -3 -9 -15 -9 -27 0 -12 -7
-31 -15 -41 -22 -29 -18 -70 9 -99 40 -43 173 -310 217 -435 64 -183 72 -232
65 -417 -3 -88 -8 -171 -10 -185 -2 -14 -9 -65 -15 -113 -5 -48 -13 -92 -16
-97 -4 -6 -8 -27 -10 -48 -5 -55 -34 -212 -45 -247 -5 -16 -16 -79 -24 -140
-8 -60 -21 -130 -30 -155 -8 -25 -18 -64 -22 -87 -6 -42 -5 -44 45 -92 29 -26
65 -55 79 -62 15 -8 31 -20 35 -26 4 -7 14 -13 21 -13 8 0 59 -43 114 -96 63
-61 131 -114 188 -148 77 -46 93 -60 119 -107 52 -93 85 -139 100 -139 8 0 15
-7 15 -15 0 -8 4 -15 10 -15 5 0 14 -18 20 -40 6 -22 20 -46 30 -53 11 -6 20
-17 20 -24 0 -7 22 -41 49 -76 26 -36 55 -77 63 -93 35 -66 73 -131 97 -164
14 -19 31 -44 38 -55 26 -42 98 -170 102 -180 2 -5 23 -33 47 -62 24 -28 44
-56 44 -61 0 -6 6 -17 13 -24 7 -7 18 -24 25 -38 32 -62 51 -93 68 -111 19
-21 61 -99 155 -287 34 -67 65 -125 70 -128 5 -3 9 -12 9 -19 0 -17 88 -199
153 -320 24 -44 54 -99 66 -123 13 -23 39 -56 59 -72 45 -37 151 -89 188 -93
16 -1 65 -17 109 -36 44 -18 96 -39 115 -46 19 -7 44 -17 55 -21 11 -4 27 -9
35 -10 8 -1 51 -9 94 -19 43 -9 92 -17 108 -17 32 -1 78 36 78 63 0 29 215
169 259 169 15 0 52 7 83 15 57 14 229 30 301 26 28 -1 44 5 63 24 24 24 25
28 11 48 -17 25 -51 28 -182 15 -44 -5 -99 -8 -122 -8 -24 1 -63 -6 -89 -15
-45 -15 -87 -23 -132 -24 -14 -1 -26 -8 -29 -19 -2 -10 -25 -25 -54 -35 -27
-10 -49 -22 -49 -27 0 -6 -6 -10 -12 -10 -7 0 -39 -25 -72 -56 -38 -35 -64
-53 -74 -49 -8 3 -43 8 -76 11 -34 3 -77 12 -96 19 -19 8 -55 16 -80 20 -25 3
-65 19 -90 35 -25 17 -55 30 -67 30 -21 0 -72 19 -118 43 -11 6 -33 17 -48 25
-16 8 -31 22 -34 31 -4 9 -21 37 -39 62 -19 25 -51 79 -72 120 -48 94 -62 116
-89 147 -13 14 -23 31 -23 39 0 7 -4 21 -9 31 -13 22 -100 210 -113 242 -6 14
-14 32 -19 40 -5 8 -13 24 -18 36 -5 11 -28 49 -50 84 -23 35 -41 69 -41 76 0
15 -53 95 -75 114 -8 7 -15 18 -15 25 0 17 -51 95 -62 95 -4 0 -17 18 -28 40
-11 22 -26 40 -33 40 -7 0 -19 17 -26 38 -11 31 -31 67 -96 173 -5 9 -23 39
-40 65 -16 27 -37 58 -47 68 -10 11 -18 25 -18 31 0 11 -20 43 -123 194 -31
46 -57 86 -57 89 0 3 -14 21 -31 38 -17 18 -36 41 -43 52 -6 11 -22 38 -36 61
-14 23 -38 67 -55 98 -21 40 -41 62 -70 77 -88 47 -133 78 -151 101 -10 14
-23 25 -29 25 -6 0 -23 16 -39 35 -16 19 -35 35 -41 35 -6 0 -21 14 -33 30
-13 17 -27 30 -32 30 -16 0 -84 52 -117 90 -25 29 -29 39 -21 60 5 14 8 41 7
60 -2 19 2 60 9 90 6 30 14 78 17 105 7 70 20 136 45 235 17 66 19 89 10 103
-7 12 -8 23 -1 30 5 7 12 30 16 52 4 22 16 85 26 140 20 103 27 317 14 440 -6
58 -28 142 -46 177 -5 10 -9 23 -9 30 0 33 -22 88 -35 88 -14 0 -20 24 -18 68
1 8 -7 22 -18 33 -10 10 -19 26 -19 34 0 8 -8 29 -18 47 -10 18 -24 49 -32 68
-7 19 -29 59 -47 88 -18 29 -33 62 -33 74 0 51 66 342 96 423 8 22 16 60 18
85 2 25 6 52 8 60 11 31 27 96 32 125 2 17 13 80 24 140 18 98 36 255 34 310
0 11 4 36 9 55 12 49 35 341 44 560 4 92 27 260 46 325 6 22 12 49 13 60 2 11
8 38 14 60 11 42 32 149 38 200 2 17 10 64 19 105 8 41 24 131 35 200 11 69
25 145 31 170 5 25 13 59 15 75 3 17 12 65 20 108 8 44 12 82 9 87 -2 4 0 22
5 41 9 29 21 131 24 196 1 12 4 24 8 28 4 4 3 18 -3 31 -8 22 -7 24 9 15 21
-12 21 -3 26 -376 6 -329 6 -329 35 -530 10 -71 19 -164 20 -205 1 -41 6 -79
11 -85 5 -6 8 -26 8 -45 -1 -19 2 -61 6 -93 4 -32 8 -145 11 -250 5 -251 28
-392 107 -642 23 -71 45 -141 49 -155 4 -14 18 -74 30 -135 12 -60 27 -117 34
-125 7 -8 16 -31 19 -50 7 -34 18 -65 37 -102 5 -10 9 -29 9 -43 0 -30 24
-104 55 -170 54 -114 85 -186 85 -194 0 -4 11 -24 23 -43 13 -19 27 -47 31
-62 4 -15 20 -55 36 -88 17 -34 30 -65 30 -70 0 -9 61 -111 71 -118 4 -3 14
-21 23 -40 9 -19 27 -51 39 -71 12 -20 42 -71 66 -113 24 -42 54 -84 67 -93
13 -8 24 -22 24 -30 0 -8 19 -36 43 -62 23 -26 86 -96 140 -157 101 -113 134
-141 250 -220 50 -33 72 -43 80 -35 17 17 27 13 27 -10 0 -26 53 -70 104 -87
23 -7 55 -19 71 -27 65 -29 199 -55 265 -50 36 3 82 5 103 4 22 0 58 9 80 20
23 10 59 27 80 36 20 10 37 21 37 26 0 5 17 20 38 33 50 32 182 164 182 181 0
8 9 19 20 25 11 6 20 19 20 30 0 10 9 25 20 33 24 17 115 189 125 238 4 19 14
43 21 54 7 11 20 46 28 78 8 32 24 70 34 85 24 33 48 107 62 190 13 74 20 251
11 257 -4 2 -8 57 -9 122 -2 131 -17 227 -39 249 -8 8 -10 14 -4 14 6 0 8 13
5 33 -10 54 -76 240 -97 270 -11 16 -32 54 -48 85 -16 31 -41 77 -54 101 -14
24 -25 52 -25 61 0 10 -7 24 -16 31 -9 8 -25 33 -35 56 -10 24 -23 43 -28 43
-5 0 -13 10 -16 23 -12 37 -60 131 -93 180 -18 25 -32 48 -32 51 0 3 -17 34
-38 68 -21 35 -62 115 -92 178 -61 129 -76 151 -96 143 -10 -4 -14 3 -14 27 0
31 -38 119 -64 150 -7 8 -18 30 -24 47 -6 18 -24 52 -40 75 -31 47 -90 167
-142 290 -18 43 -39 83 -46 89 -8 6 -14 18 -14 26 0 29 -79 174 -122 223 -29
33 -94 126 -112 160 -32 61 -144 190 -165 190 -6 0 -11 9 -11 19 0 11 -4 23
-10 26 -5 3 -10 14 -10 24 0 9 -18 34 -41 56 -22 21 -48 49 -56 62 -8 12 -23
23 -33 23 -9 0 -30 18 -46 41 -33 49 -60 69 -91 69 -15 0 -27 8 -32 23 -9 24
-41 56 -41 41 0 -4 -11 8 -25 27 -14 19 -27 32 -29 29 -2 -3 -23 13 -48 35
-62 56 -97 85 -103 85 -3 0 -24 19 -48 43 -56 56 -131 117 -145 117 -6 0 -9 6
-6 14 4 11 18 13 58 9 49 -5 153 16 181 36 6 4 24 8 40 9 54 3 82 63 50 106
-8 10 -17 39 -21 65 -7 51 -33 122 -69 194 -14 26 -25 58 -25 70 0 13 -9 50
-19 83 -10 32 -24 90 -31 128 -6 38 -16 79 -22 90 -6 12 -13 43 -15 71 -9 111
-4 364 7 425 7 36 14 97 15 135 4 75 33 180 64 231 19 31 70 64 98 64 7 0 13
5 13 11 0 6 9 9 19 6 20 -5 92 9 189 36 28 9 52 13 52 11 0 -3 14 3 31 11 17
9 43 15 57 14 15 -1 34 1 42 4 8 3 33 8 55 10 22 3 87 10 145 17 58 6 111 17
118 23 7 6 32 12 55 13 55 3 147 27 178 47 25 15 76 34 174 62 33 10 76 25 95
34 19 8 39 14 44 12 6 -1 19 2 30 8 12 5 42 17 68 25 26 9 56 20 65 25 25 14
260 72 306 76 21 2 52 8 70 13 18 5 57 15 87 21 30 6 96 21 145 33 50 11 101
22 115 24 14 2 54 8 90 13 36 6 92 13 125 16 33 3 89 11 125 16 36 6 98 10
137 10 63 -1 76 2 95 21 13 13 26 22 30 21 9 -3 141 95 151 113 4 8 14 14 21
14 7 0 21 9 31 20 10 11 24 20 30 20 7 0 18 7 26 16 19 23 84 54 114 54 14 0
42 9 62 20 20 10 39 17 43 15 6 -4 31 -86 50 -165 21 -90 33 -206 32 -325 -1
-71 5 -175 14 -229 13 -91 13 -100 -2 -117 -10 -11 -15 -28 -12 -44 3 -15 -3
-42 -13 -63 -11 -20 -19 -42 -19 -50 0 -12 -78 -179 -100 -212 -15 -24 -60
-123 -60 -133 0 -5 -7 -23 -15 -40 -54 -118 -96 -232 -115 -317 -4 -19 -27
-75 -50 -125 -39 -84 -49 -112 -86 -255 -7 -30 -25 -98 -39 -150 -14 -52 -28
-104 -30 -115 -2 -11 -16 -65 -30 -120 -13 -55 -25 -110 -25 -123 0 -13 -5
-32 -10 -42 -6 -10 -11 -38 -11 -62 -1 -24 -8 -72 -16 -107 -8 -35 -13 -78
-10 -95 3 -18 -1 -55 -8 -84 -13 -48 -13 -80 -1 -187 3 -22 8 -80 11 -130 4
-49 18 -144 31 -210 14 -66 29 -145 35 -175 10 -52 29 -128 50 -196 5 -17 9
-44 9 -61 0 -16 3 -33 7 -37 4 -4 8 -24 9 -44 1 -20 7 -59 13 -87 7 -27 17
-75 23 -105 6 -30 24 -101 40 -158 16 -57 36 -146 43 -198 8 -52 26 -123 39
-157 13 -34 30 -80 36 -102 7 -22 16 -44 21 -50 5 -5 9 -20 9 -34 0 -31 21
-91 32 -91 4 0 8 -7 8 -16 0 -31 131 -254 150 -254 5 0 10 -7 10 -16 0 -9 14
-36 30 -60 17 -24 44 -65 62 -91 43 -63 47 -68 91 -117 97 -106 151 -155 195
-177 26 -12 54 -28 62 -35 8 -6 33 -17 55 -24 22 -7 46 -17 52 -22 7 -6 34 -7
60 -4 27 4 60 8 75 10 15 1 33 7 40 13 7 6 28 13 46 16 20 4 50 23 74 47 23
22 45 40 50 40 4 0 8 7 8 15 0 8 18 33 39 55 21 22 46 55 55 73 9 17 30 55 47
82 73 123 89 167 105 296 9 71 15 177 13 249 -1 69 -2 136 -1 150 1 14 2 123
2 242 1 171 -2 225 -14 250 -14 33 -33 165 -41 292 -3 37 -8 72 -11 78 -7 11
-23 114 -27 178 -1 19 -6 40 -10 47 -4 6 -10 46 -12 88 -3 42 -12 92 -21 110
-9 19 -13 38 -10 43 5 8 -7 62 -22 102 -6 17 -13 70 -14 112 -1 15 -7 29 -14
32 -9 4 -14 23 -14 56 0 28 -4 58 -9 68 -5 9 -15 43 -21 75 -6 32 -18 70 -26
85 -8 15 -14 42 -14 60 0 18 -5 43 -11 54 -7 12 -15 47 -19 77 -23 171 -33
228 -40 246 -5 11 -17 40 -28 65 -11 25 -23 58 -26 73 -4 16 -18 46 -31 68
-14 21 -25 42 -25 47 0 4 -13 34 -30 65 -16 32 -30 67 -30 77 0 10 -4 22 -10
25 -5 3 -10 14 -10 25 0 10 -6 20 -13 23 -7 2 -25 30 -40 60 -18 38 -45 71
-86 104 -67 55 -90 83 -63 78 9 -2 17 -4 17 -5 0 -1 11 -4 24 -6 14 -2 32 -11
40 -18 9 -8 38 -20 66 -27 27 -7 58 -22 70 -34 29 -30 117 -92 146 -103 41
-16 128 -90 145 -125 9 -17 31 -50 49 -72 17 -22 49 -71 69 -110 33 -60 74
-118 119 -168 7 -7 17 -20 22 -29 65 -105 182 -251 195 -243 5 3 15 -3 22 -13
7 -11 27 -26 44 -35 17 -9 54 -41 82 -72 28 -30 55 -55 61 -55 5 0 16 -9 24
-20 7 -11 56 -54 108 -96 123 -99 197 -172 267 -264 31 -40 73 -90 92 -110 47
-49 69 -77 82 -106 6 -13 14 -24 18 -24 4 0 33 -46 65 -102 31 -57 67 -114 81
-128 35 -37 154 -198 154 -209 0 -6 6 -14 13 -18 16 -10 49 -58 75 -108 11
-22 50 -71 86 -108 36 -38 66 -72 66 -77 0 -5 9 -20 20 -32 74 -83 100 -117
114 -148 17 -38 37 -72 47 -80 10 -7 22 -107 22 -175 1 -77 -26 -144 -102
-263 -33 -50 -58 -98 -56 -105 3 -7 -12 -19 -39 -30 -41 -17 -66 -48 -66 -82
0 -8 -4 -15 -9 -15 -5 0 -13 -9 -16 -20 -3 -11 -12 -26 -18 -32 -27 -29 -67
-95 -67 -111 0 -9 -5 -17 -10 -17 -19 0 -131 -119 -146 -155 -20 -48 -18 -98
6 -125 11 -13 20 -30 20 -39 0 -9 9 -27 21 -41 11 -14 36 -50 56 -80 20 -30
46 -67 57 -81 12 -14 34 -43 51 -65 31 -42 95 -107 188 -192 31 -29 64 -65 72
-80 24 -44 123 -182 158 -222 66 -75 78 -91 91 -128 8 -20 17 -55 20 -77 5
-35 2 -45 -24 -73 -16 -18 -33 -32 -37 -32 -4 0 -27 -17 -49 -37 -23 -21 -64
-56 -92 -78 -60 -47 -86 -102 -77 -161 4 -22 7 -46 9 -54 3 -18 34 -125 48
-162 6 -16 14 -28 18 -28 5 0 11 -13 15 -30 3 -16 14 -39 24 -52 9 -13 23 -48
30 -78 7 -30 38 -100 67 -154 30 -54 54 -103 54 -108 0 -4 4 -16 9 -26 28 -56
33 -146 16 -307 -2 -22 -4 -102 -4 -178 -1 -106 -5 -147 -17 -172 -9 -19 -13
-38 -10 -43 3 -5 -15 -28 -39 -52 -24 -23 -41 -49 -38 -56 3 -7 -2 -21 -11
-29 -9 -9 -19 -28 -23 -43 -3 -15 -17 -41 -30 -58 -12 -17 -23 -45 -23 -62 0
-17 -4 -32 -9 -34 -5 -1 -33 -34 -61 -73 -59 -81 -253 -281 -281 -290 -10 -4
-19 -13 -19 -21 0 -8 -11 -19 -24 -24 -13 -5 -27 -18 -31 -29 -3 -12 -11 -22
-16 -22 -5 -1 -12 -2 -16 -3 -16 -2 -90 -61 -133 -106 -25 -25 -53 -49 -63
-53 -9 -3 -17 -13 -17 -21 0 -8 -16 -23 -35 -35 -19 -11 -35 -25 -35 -31 0 -5
-6 -10 -12 -10 -7 0 -29 -16 -48 -35 -19 -20 -63 -64 -98 -99 -45 -45 -69 -62
-82 -59 -13 4 -26 -6 -44 -36 -22 -35 -31 -41 -60 -41 -18 0 -39 -7 -46 -15
-7 -8 -25 -15 -40 -15 -16 0 -30 -7 -34 -15 -3 -8 -14 -15 -25 -15 -29 0 -51
-11 -51 -25 0 -7 -16 -20 -35 -29 -19 -10 -42 -28 -51 -42 -30 -45 -37 -29
-30 64 4 48 7 130 7 182 -1 52 -1 162 -2 243 0 82 4 153 9 160 10 12 28 95 23
111 -1 4 3 22 8 40 12 35 17 63 32 156 18 105 10 401 -11 440 -5 9 -7 40 -5
70 2 29 1 58 -3 64 -4 6 -7 22 -8 36 -4 62 -33 181 -52 211 -12 19 -28 49 -36
67 -8 17 -19 32 -25 32 -5 0 -23 12 -39 27 -41 38 -90 75 -123 93 -15 8 -54
36 -88 63 -54 42 -64 47 -98 42 -21 -3 -100 -2 -176 2 -107 6 -141 5 -149 -4
-6 -7 -32 -13 -59 -13 -46 0 -51 -3 -109 -60 -48 -49 -60 -67 -60 -93 0 -21
-7 -36 -19 -44 -10 -6 -27 -38 -36 -70 -10 -32 -22 -62 -27 -67 -4 -6 -8 -22
-8 -37 0 -15 -5 -40 -10 -55 -7 -18 -7 -30 0 -39 5 -6 7 -15 3 -19 -4 -3 -7
-42 -8 -85 -1 -43 -5 -82 -7 -87 -9 -16 10 -153 25 -182 89 -170 109 -205 153
-271 17 -25 34 -58 37 -73 4 -14 28 -46 55 -70 26 -23 101 -100 167 -171 65
-70 123 -127 128 -127 16 0 127 -117 127 -134 0 -9 4 -16 10 -16 5 0 19 -20
31 -44 11 -25 27 -50 35 -57 9 -7 21 -27 29 -45 7 -18 36 -62 64 -99 28 -36
51 -70 51 -75 0 -5 14 -23 30 -40 29 -30 30 -32 14 -61 -11 -22 -21 -29 -38
-27 -26 3 -76 -33 -76 -56 0 -9 -5 -16 -10 -16 -6 0 -20 -11 -32 -25 -12 -14
-28 -25 -36 -25 -17 0 -105 -62 -147 -103 -16 -16 -42 -34 -58 -39 -15 -6 -30
-20 -33 -33 -4 -15 -15 -25 -35 -29 -16 -3 -44 -19 -62 -36 -18 -16 -36 -30
-41 -30 -16 0 -125 -85 -126 -98 0 -7 -7 -15 -15 -18 -8 -4 -15 -12 -15 -19 0
-7 -7 -18 -15 -25 -8 -7 -15 -21 -15 -31 0 -11 -4 -19 -9 -19 -5 0 -12 -11
-15 -25 -4 -14 -17 -30 -30 -35 -15 -5 -34 -30 -50 -64 -15 -31 -31 -56 -36
-56 -6 0 -10 -4 -10 -10 0 -12 -60 -94 -98 -134 -29 -31 -46 -60 -117 -203
-25 -51 -49 -93 -53 -93 -4 0 -17 -24 -30 -53 -45 -104 -95 -213 -128 -282
-43 -91 -69 -151 -83 -197 -15 -47 -25 -53 -53 -34 -12 9 -30 16 -40 16 -10 0
-18 5 -18 10 0 6 -8 10 -17 10 -10 0 -38 14 -62 30 -24 17 -49 30 -56 30 -7 0
-31 14 -53 30 -25 18 -42 25 -42 18 0 -7 -16 6 -35 29 -20 23 -63 57 -98 77
-34 19 -76 48 -94 64 -18 17 -36 32 -41 34 -10 3 -86 66 -134 111 -16 15 -32
27 -35 27 -5 0 -43 31 -93 73 -8 8 -32 24 -53 36 -20 13 -42 31 -47 42 -6 10
-16 19 -23 19 -7 0 -33 20 -57 45 -24 25 -50 45 -57 45 -6 0 -16 6 -20 13 -13
23 -95 77 -115 77 -10 0 -18 4 -18 9 0 5 -17 19 -37 32 -21 12 -50 33 -64 46
-20 19 -39 24 -92 27 -66 3 -97 16 -97 42 0 22 -42 16 -72 -10 -23 -21 -33
-48 -29 -81 2 -19 124 -65 171 -65 36 0 73 -13 130 -45 14 -8 33 -12 42 -9 11
3 19 -2 23 -15 8 -25 77 -83 123 -102 18 -8 34 -21 37 -30 3 -8 33 -36 68 -61
34 -26 74 -58 88 -71 14 -14 53 -46 87 -71 34 -25 62 -50 62 -55 0 -9 37 -34
70 -46 9 -4 24 -19 35 -35 11 -16 22 -27 26 -24 4 2 14 -4 21 -15 8 -11 26
-25 41 -32 15 -7 27 -15 27 -19 0 -4 8 -10 18 -14 30 -10 111 -61 124 -77 22
-28 84 -69 103 -69 10 0 35 -16 56 -35 22 -19 45 -35 52 -35 7 0 34 -13 60
-30 26 -16 58 -32 71 -36 13 -3 34 -17 47 -30 29 -31 67 -31 102 2 15 14 31
23 36 20 14 -9 23 25 11 39 -8 9 -6 24 4 51 8 22 17 52 21 68 3 17 14 41 24
55 10 14 28 55 41 91 24 70 42 112 51 120 15 14 49 79 49 95 0 9 8 29 19 43
10 15 43 76 72 135 80 161 90 178 137 238 23 31 42 60 42 65 0 5 18 29 40 54
22 25 43 54 46 65 4 10 12 24 18 31 17 17 110 144 121 166 5 10 15 18 21 18 6
0 16 10 23 23 11 20 61 58 131 98 42 23 120 81 173 127 27 23 54 42 60 42 7 0
28 13 47 30 19 16 42 29 51 30 15 0 69 53 117 115 19 24 25 27 32 15 6 -8 10
-24 10 -34 0 -11 7 -27 15 -37 23 -24 53 -7 101 59 46 63 125 137 183 172 23
14 46 25 49 26 29 3 68 20 83 35 10 10 25 16 32 13 8 -3 20 2 27 11 7 8 19 15
28 15 17 0 112 70 112 82 0 4 7 8 16 8 9 0 21 13 27 30 6 16 15 30 19 30 5 0
42 34 83 75 41 41 78 75 82 75 3 0 29 24 57 53 28 29 83 80 121 113 39 32 72
61 75 64 3 3 20 17 39 30 18 13 52 41 75 62 22 22 51 43 64 49 13 5 31 22 40
39 9 16 21 30 25 30 14 0 82 73 113 120 16 24 41 58 56 74 25 27 118 203 118
223 0 4 16 34 35 66 19 32 35 63 35 70 0 7 11 24 24 39 36 38 58 97 51 138 -9
58 -6 311 4 365 14 70 13 149 -1 163 -7 7 -14 31 -15 55 -4 49 -36 122 -69
156 -13 13 -24 31 -24 39 0 9 -9 35 -20 58 -12 23 -23 52 -25 64 -2 13 -16 39
-29 59 -14 20 -31 59 -38 86 -6 28 -20 62 -30 76 -28 41 -39 79 -43 142 -3 53
-1 63 29 105 18 26 43 52 56 59 32 16 95 62 134 98 64 59 71 191 15 262 -16
20 -29 39 -29 44 0 15 -44 49 -63 49 -15 0 -18 5 -14 21 4 14 -3 28 -24 46
-16 15 -29 34 -29 43 0 10 -7 23 -15 30 -8 7 -15 18 -15 25 0 7 -15 28 -32 48
-44 47 -92 106 -96 118 -2 5 -8 9 -13 9 -9 0 -38 21 -73 55 -12 11 -24 19 -28
18 -4 -2 -14 12 -22 30 -7 17 -38 62 -68 99 -31 37 -66 84 -79 105 -12 21 -29
42 -36 46 -7 4 -13 16 -13 26 0 10 -8 21 -18 23 -14 4 -22 22 -31 66 -13 69
-13 71 50 155 11 15 26 27 32 27 13 1 117 149 117 167 0 6 6 18 13 25 6 7 24
32 39 55 15 23 57 72 93 110 58 60 88 103 142 205 22 43 42 158 38 223 -11
181 -39 251 -149 367 -30 32 -57 66 -60 75 -3 10 -35 40 -71 66 -56 42 -66 54
-71 88 -5 28 -17 49 -46 75 -22 19 -45 47 -51 62 -21 47 -69 122 -78 122 -5 0
-9 6 -9 14 0 8 -12 24 -27 36 -15 12 -36 36 -48 55 -11 19 -47 74 -80 122 -33
48 -62 93 -65 98 -3 6 -17 27 -32 46 -16 20 -28 39 -28 44 0 4 -13 22 -29 39
-85 91 -112 123 -116 137 -3 9 -14 19 -24 22 -11 3 -22 18 -26 36 -4 21 -15
35 -31 41 -14 6 -27 17 -30 25 -4 8 -12 15 -20 15 -8 0 -14 7 -14 15 0 8 -19
28 -42 44 -24 17 -54 41 -67 56 -13 14 -38 32 -56 41 -18 8 -46 33 -61 55 -14
21 -33 39 -41 39 -8 0 -17 9 -20 20 -3 11 -11 20 -19 20 -7 0 -18 9 -24 20 -6
11 -20 20 -30 20 -11 0 -20 7 -20 15 0 9 -9 15 -25 15 -17 0 -29 9 -40 30 -8
16 -24 34 -35 40 -11 6 -20 19 -20 29 0 22 -25 45 -39 36 -7 -3 -8 0 -5 9 3 9
-10 29 -36 52 -23 21 -50 55 -61 76 -11 21 -24 38 -29 38 -6 0 -10 7 -10 15 0
8 -3 15 -7 15 -8 0 -45 57 -49 75 -6 34 -48 115 -59 115 -7 0 -23 16 -36 35
-13 19 -27 35 -31 35 -4 0 -15 15 -24 32 -24 47 -67 98 -82 98 -7 0 -15 7 -18
15 -3 8 -30 26 -59 40 -29 14 -62 36 -73 50 -11 14 -25 25 -31 25 -6 0 -11 4
-11 9 0 17 -31 41 -53 41 -12 0 -42 11 -67 24 -25 13 -56 27 -70 31 -14 3 -47
17 -75 30 -27 13 -70 29 -95 35 -65 17 -165 56 -246 95 -38 19 -75 35 -81 35
-6 0 -17 7 -24 16 -12 15 -15 14 -31 -6 -35 -43 -18 -100 28 -100 13 0 26 -5
29 -10 4 -6 21 -16 39 -24 18 -7 54 -30 80 -50 26 -20 54 -36 62 -36 8 0 14
-4 14 -10 0 -5 6 -10 13 -10 18 0 217 -201 217 -219 0 -14 34 -71 43 -71 4 0
7 -5 7 -11 0 -6 26 -66 59 -133 70 -144 111 -261 117 -329 2 -27 8 -55 13 -61
5 -6 11 -24 14 -41 15 -82 28 -128 42 -156 9 -17 14 -37 12 -44 -3 -7 -2 -16
2 -21 14 -17 64 -197 86 -314 9 -47 21 -93 26 -102 5 -10 9 -29 9 -44 0 -14 4
-33 9 -42 5 -10 12 -37 15 -62 10 -83 17 -125 36 -215 11 -49 31 -180 45 -290
27 -208 39 -299 55 -400 6 -33 11 -226 11 -430 1 -329 -1 -379 -18 -455 -20
-88 -45 -150 -74 -185 -9 -11 -32 -49 -50 -85 -33 -64 -98 -153 -131 -178 -9
-7 -24 -19 -32 -27 -8 -8 -38 -20 -68 -26 -29 -5 -63 -15 -76 -21 -17 -9 -31
-9 -56 0 -18 7 -53 14 -76 16 -35 3 -49 10 -74 41 -25 30 -37 36 -61 33 -25
-3 -31 1 -33 22 -3 16 -26 44 -63 75 -32 28 -68 68 -80 90 -12 22 -39 57 -60
77 -21 21 -39 45 -39 55 0 10 -11 28 -24 40 -13 13 -36 49 -51 80 -16 32 -34
62 -42 66 -15 9 -73 126 -73 146 0 7 -7 19 -15 27 -8 9 -15 23 -15 32 0 10 -9
42 -21 72 -11 30 -22 65 -24 78 -2 12 -12 37 -22 55 -19 32 -29 83 -39 202 -8
105 -23 161 -49 185 -19 18 -25 34 -25 65 0 22 -4 45 -10 51 -5 5 -11 23 -12
39 -1 17 -6 35 -11 42 -5 7 -10 34 -12 60 -2 26 -9 77 -15 113 -6 36 -13 76
-14 90 -2 14 -9 38 -15 54 -7 16 -15 50 -18 75 -3 25 -10 54 -15 63 -27 53
-60 266 -74 468 -3 52 -8 99 -12 104 -7 12 -7 55 1 76 3 8 5 22 5 30 0 68 22
193 41 229 7 13 11 34 8 48 -2 13 2 54 10 91 8 37 16 85 18 107 2 22 10 56 18
75 8 19 18 55 22 80 4 25 12 51 18 58 5 7 7 15 4 19 -3 3 0 20 7 37 7 17 16
54 20 81 5 27 15 63 23 78 8 16 16 39 17 51 7 51 20 101 32 125 8 14 14 34 14
43 0 9 5 20 10 23 14 9 50 90 50 114 0 11 5 23 10 26 6 3 10 15 10 25 0 10 5
31 12 47 13 33 11 27 26 83 7 25 19 56 27 70 7 14 23 50 35 79 11 29 34 72 50
96 16 23 32 55 36 71 4 16 15 40 26 53 10 13 18 29 18 37 0 7 16 43 35 81 19
37 39 88 44 113 5 24 16 49 24 55 8 5 17 24 22 40 10 38 8 125 -4 139 -4 6
-12 56 -16 111 -4 55 -9 113 -10 130 -2 16 -1 34 3 40 12 19 11 50 -4 155 -17
114 -59 304 -75 332 -5 10 -9 34 -9 53 0 29 -5 37 -26 45 -33 13 -34 13 -71
-10z m-4048 -3020 c3 -5 1 -10 -4 -10 -6 0 -11 5 -11 10 0 6 2 10 4 10 3 0 8
-4 11 -10z m-17 -38 c2 -7 -2 -10 -12 -6 -9 3 -16 11 -16 16 0 13 23 5 28 -10z
m19 -37 c-4 -8 -11 -15 -17 -15 -6 0 -6 7 2 20 14 22 24 19 15 -5z m-7 -55 c0
-5 -8 -10 -17 -10 -15 0 -16 2 -3 10 19 12 20 12 20 0z m5062 -4845 c32 -1 63
-7 71 -13 7 -6 29 -9 48 -6 26 4 45 0 70 -15 19 -11 40 -21 47 -21 7 0 25 -11
40 -25 15 -14 32 -25 39 -25 7 0 13 -6 13 -12 0 -7 16 -24 35 -37 41 -28 105
-101 130 -150 9 -18 26 -86 36 -150 11 -64 25 -143 30 -176 19 -109 17 -448
-3 -480 -3 -6 -18 -71 -33 -145 -26 -124 -28 -155 -29 -377 -1 -174 -4 -244
-13 -247 -6 -3 -14 6 -17 19 -3 12 -17 33 -31 46 -14 13 -37 48 -51 77 -15 28
-30 52 -34 52 -5 0 -14 17 -21 37 -6 21 -17 43 -23 50 -6 7 -27 35 -46 63 -19
27 -43 53 -53 56 -11 3 -44 33 -75 66 -103 110 -177 178 -191 178 -6 0 -11 8
-11 18 0 17 -60 72 -80 72 -6 0 -15 12 -20 26 -6 15 -19 38 -29 53 -10 14 -24
43 -31 63 -8 20 -24 41 -37 47 -15 7 -21 16 -17 26 4 9 -2 26 -13 38 -10 12
-25 36 -33 52 -8 17 -22 39 -31 50 -26 31 -37 82 -38 180 -1 49 -5 103 -10
120 -12 36 -11 106 1 121 5 7 15 38 24 70 8 31 23 74 33 93 9 20 28 57 41 84
12 26 33 57 46 70 20 20 98 48 146 52 10 1 21 4 25 8 4 4 14 5 22 1 9 -4 42
-8 73 -9z m1368 -1525 c0 -5 -2 -10 -4 -10 -3 0 -8 5 -11 10 -3 6 -1 10 4 10
6 0 11 -4 11 -10z m-835 -580 c3 -5 1 -10 -4 -10 -6 0 -11 5 -11 10 0 6 2 10
4 10 3 0 8 -4 11 -10z m-1680 -1759 c3 -5 1 -12 -4 -15 -5 -3 -11 1 -15 9 -6
16 9 21 19 6z m155 -59 c0 -13 -12 -22 -22 -16 -10 6 -1 24 13 24 5 0 9 -4 9
-8z m35 -1 c3 -5 2 -12 -3 -15 -5 -3 -9 1 -9 9 0 17 3 19 12 6z"/>
</g>
</svg>
