<?xml version="1.0" standalone="no"?>
<!DOCTYPE svg PUBLIC "-//W3C//DTD SVG 20010904//EN"
 "http://www.w3.org/TR/2001/REC-SVG-20010904/DTD/svg10.dtd">
<svg version="1.0" xmlns="http://www.w3.org/2000/svg"
 width="1550.000000pt" height="1550.000000pt" viewBox="0 0 1550.000000 1550.000000"
 preserveAspectRatio="xMidYMid meet">
<metadata>
Created by potrace 1.15, written by Peter Selinger 2001-2017
</metadata>
<g transform="translate(0.000000,1550.000000) scale(0.100000,-0.100000)"
fill="#000000" stroke="none">
<path d="M4437 12712 c-8 -9 -21 -30 -29 -47 -70 -139 -86 -176 -97 -215 -7
-25 -19 -70 -28 -100 -8 -30 -19 -69 -24 -86 -5 -17 -9 -37 -9 -44 0 -14 -37
-119 -65 -185 -7 -16 -18 -50 -25 -75 -6 -25 -15 -54 -20 -65 -5 -11 -13 -45
-18 -75 -10 -57 -22 -95 -54 -167 -10 -24 -18 -54 -18 -67 0 -14 -4 -28 -10
-31 -5 -3 -10 -14 -10 -24 0 -10 -9 -26 -20 -36 -11 -10 -20 -21 -20 -26 0 -8
-81 -135 -99 -156 -6 -7 -11 -14 -11 -17 0 -2 -31 -35 -68 -73 -99 -99 -102
-110 -57 -202 54 -111 67 -141 131 -306 31 -82 63 -159 71 -170 7 -11 13 -27
13 -37 0 -30 61 -210 76 -225 8 -8 14 -18 14 -23 0 -4 16 -42 35 -83 19 -41
35 -83 35 -92 0 -10 10 -39 21 -64 12 -25 26 -57 32 -71 5 -14 15 -37 23 -51
7 -14 16 -46 19 -70 4 -24 12 -60 20 -79 27 -73 56 -146 65 -165 5 -11 12 -40
14 -64 7 -57 33 -136 52 -151 7 -7 14 -26 14 -44 0 -28 21 -94 55 -171 8 -16
17 -46 21 -65 3 -19 10 -39 14 -45 23 -33 61 -200 63 -281 2 -77 18 -98 66
-90 20 3 42 7 49 8 8 1 20 11 27 22 17 26 2 116 -46 286 -10 34 -46 241 -69
390 -6 41 -13 109 -16 150 -3 41 -10 80 -15 86 -5 6 -11 65 -13 130 -2 66 -7
133 -11 149 -4 18 0 47 9 71 8 24 12 58 9 81 -3 22 0 73 7 114 7 41 12 81 12
89 0 8 6 42 12 75 7 33 14 76 15 95 1 19 8 47 16 64 8 16 15 36 15 45 0 9 7
25 15 35 8 11 15 27 15 35 0 9 9 31 20 49 18 30 22 32 36 18 8 -9 18 -28 20
-43 3 -16 13 -37 24 -48 24 -26 80 -139 80 -162 0 -10 7 -27 15 -37 14 -19 46
-113 51 -151 2 -11 12 -78 24 -150 11 -71 25 -167 30 -212 5 -46 14 -109 20
-140 6 -32 12 -72 14 -89 2 -18 9 -41 15 -52 6 -12 11 -30 11 -42 0 -11 11
-65 24 -118 26 -103 40 -192 37 -231 0 -13 3 -29 8 -35 26 -33 29 -315 4 -429
-23 -110 -24 -131 -11 -147 12 -14 91 -40 123 -40 9 0 27 -7 41 -16 14 -10 61
-30 106 -45 45 -16 89 -35 98 -44 9 -8 26 -15 38 -15 12 0 39 -9 59 -20 21
-11 50 -20 65 -20 15 0 30 -5 33 -10 4 -6 11 -8 16 -4 6 3 32 -4 59 -15 27
-12 73 -24 102 -27 29 -3 60 -11 68 -18 8 -7 31 -18 50 -26 19 -7 58 -23 85
-36 62 -29 252 -84 291 -84 16 0 56 -13 89 -29 33 -16 74 -31 91 -34 17 -3 41
-10 52 -16 11 -6 29 -11 40 -11 11 0 33 -7 48 -15 16 -8 42 -15 57 -15 16 0
37 -5 48 -11 11 -6 37 -12 57 -13 20 -2 50 -8 65 -14 16 -7 34 -12 40 -12 7 0
21 -6 32 -13 11 -7 40 -19 65 -27 25 -7 50 -16 55 -19 6 -3 15 -6 20 -6 14 -1
45 -14 76 -31 14 -7 29 -11 33 -7 3 3 16 2 29 -4 40 -20 81 -32 157 -49 41 -9
80 -19 85 -23 12 -8 82 -25 180 -42 39 -7 74 -16 80 -21 5 -4 19 -8 31 -8 31
0 142 -37 179 -60 18 -11 42 -20 54 -20 11 0 21 -4 21 -10 0 -5 5 -10 11 -10
7 0 33 -13 58 -28 25 -15 62 -34 81 -41 52 -20 129 -55 285 -132 77 -38 150
-70 162 -72 11 -2 28 -8 35 -15 8 -6 18 -9 21 -5 4 3 7 -1 7 -10 0 -10 -8 -17
-17 -17 -24 0 -53 -53 -45 -82 8 -33 29 -45 90 -52 29 -4 79 -16 110 -27 31
-11 71 -25 87 -29 17 -5 68 -23 115 -40 153 -56 195 -71 215 -75 11 -3 63 -16
115 -30 52 -13 108 -25 123 -25 16 0 37 -5 48 -11 11 -5 42 -10 69 -11 28 0
52 -4 55 -8 3 -4 14 -6 24 -3 10 3 22 0 25 -6 4 -6 14 -11 23 -11 9 0 35 -9
58 -20 24 -12 71 -22 113 -25 40 -2 80 -8 90 -13 9 -5 37 -8 62 -7 25 1 54 -2
66 -6 11 -4 26 -4 33 0 7 5 31 5 54 0 24 -4 47 -3 54 2 7 7 13 6 17 0 4 -6 19
-10 34 -10 15 0 54 -2 87 -6 96 -10 244 -18 325 -18 130 -1 411 14 464 24 28
5 72 9 97 9 25 0 58 6 73 14 52 27 71 -8 30 -55 -8 -8 -14 -20 -14 -26 0 -6
-7 -24 -14 -40 -14 -25 -18 -37 -26 -68 -2 -5 -10 -15 -20 -22 -9 -7 -32 -47
-51 -90 -18 -43 -50 -108 -71 -145 -21 -37 -38 -69 -38 -72 0 -6 -81 -139 -95
-156 -7 -8 -25 -37 -40 -65 -15 -27 -41 -75 -58 -105 -65 -116 -220 -428 -243
-489 -14 -35 -33 -80 -43 -100 -17 -33 -33 -68 -75 -163 -9 -21 -21 -38 -25
-38 -5 0 -12 -12 -15 -27 -4 -14 -20 -45 -35 -67 -16 -23 -47 -77 -70 -121
-24 -44 -49 -91 -56 -105 -32 -58 -85 -174 -85 -186 0 -8 -3 -14 -8 -14 -4 0
-13 -15 -20 -33 -7 -17 -20 -45 -29 -62 -9 -16 -27 -51 -41 -77 -14 -27 -28
-48 -32 -48 -4 0 -10 -8 -14 -17 -3 -10 -15 -31 -25 -48 -29 -44 -61 -110 -61
-124 0 -7 -11 -27 -25 -45 -14 -18 -25 -38 -25 -44 0 -7 -7 -12 -15 -12 -8 0
-18 -12 -21 -27 -4 -16 -17 -41 -28 -58 -34 -48 -45 -67 -70 -120 -36 -76 -64
-102 -116 -108 -25 -3 -63 -12 -85 -20 -22 -8 -53 -14 -70 -13 -16 1 -43 -5
-58 -12 -16 -7 -31 -11 -35 -8 -3 3 -11 1 -18 -5 -7 -6 -29 -12 -50 -15 -20
-2 -42 -8 -48 -12 -6 -3 -19 -5 -28 -4 -16 3 -87 -18 -125 -36 -116 -56 -116
-56 -149 -117 -18 -33 -33 -66 -34 -73 0 -7 -11 -25 -25 -40 -14 -15 -25 -32
-25 -39 0 -7 -3 -13 -8 -13 -4 0 -13 -15 -21 -32 -8 -18 -28 -49 -45 -69 -17
-19 -38 -46 -46 -59 -19 -29 -91 -117 -124 -151 -14 -15 -26 -32 -26 -38 0 -6
-7 -11 -15 -11 -9 0 -21 -11 -27 -25 -6 -14 -22 -32 -35 -40 -12 -9 -23 -20
-23 -27 0 -11 -46 -58 -58 -58 -12 0 -62 -68 -62 -84 0 -9 -8 -16 -17 -16 -10
0 -29 -12 -42 -25 -13 -14 -27 -25 -33 -25 -5 0 -28 -9 -50 -20 -23 -11 -49
-20 -57 -20 -9 0 -43 -9 -76 -20 -33 -10 -87 -27 -120 -37 -33 -9 -73 -26 -88
-36 -15 -10 -35 -16 -43 -13 -9 3 -28 -3 -44 -14 -15 -11 -44 -20 -63 -20 -19
0 -40 -7 -47 -15 -7 -8 -20 -15 -29 -15 -9 0 -29 -7 -45 -15 -15 -8 -33 -15
-38 -15 -5 0 -34 -11 -64 -25 -30 -14 -59 -25 -63 -25 -5 0 -22 -6 -38 -14
-15 -8 -41 -20 -58 -26 -16 -7 -43 -19 -60 -26 -16 -7 -70 -29 -120 -49 -171
-69 -179 -73 -231 -107 -23 -16 -46 -28 -52 -28 -17 0 -103 -52 -108 -65 -3
-7 -13 -11 -23 -8 -9 2 -23 -3 -30 -11 -8 -9 -20 -16 -27 -16 -8 0 -31 -10
-52 -23 -76 -46 -90 -51 -114 -39 -42 21 -280 82 -319 82 -9 0 -37 9 -62 20
-25 11 -59 22 -76 24 -17 2 -37 8 -44 14 -7 6 -51 20 -97 31 -47 10 -130 30
-185 44 -55 14 -112 28 -127 31 -18 4 -28 13 -28 25 0 10 -6 24 -13 30 -8 6
-19 34 -26 63 -6 29 -30 98 -52 153 -55 136 -77 224 -104 415 -9 58 -18 123
-21 145 -4 22 -10 45 -14 50 -4 6 -11 30 -15 55 -23 158 -68 380 -92 460 -9
30 -17 66 -18 80 -1 14 -7 45 -13 70 -5 25 -18 83 -27 130 -10 47 -23 100 -31
117 -7 18 -11 40 -8 48 4 8 2 21 -4 28 -5 6 -12 31 -15 54 -3 23 -12 56 -21
74 -9 17 -13 36 -10 41 3 5 0 15 -6 24 -8 9 -10 28 -6 52 3 20 -1 62 -8 92
-22 84 -54 230 -61 275 -4 22 -15 74 -25 115 -11 41 -24 108 -30 147 -7 40
-16 75 -21 79 -5 3 -9 17 -9 31 0 15 -4 40 -9 57 -11 35 -27 117 -45 224 -7
40 -18 78 -24 84 -7 7 -12 28 -12 48 0 20 -9 63 -19 96 -11 32 -22 78 -26 102
-4 24 -13 56 -21 70 -8 15 -14 31 -14 35 0 5 -6 14 -13 22 -8 7 -17 46 -21 86
-3 40 -13 86 -21 103 -8 16 -15 39 -15 51 0 11 -4 25 -8 31 -5 5 -14 34 -21
64 -8 30 -17 60 -21 65 -4 6 -8 27 -8 48 -1 21 -8 52 -16 70 -8 18 -17 48 -20
67 -4 19 -11 58 -15 85 -13 74 -43 175 -52 175 -5 0 -8 12 -8 28 1 30 -10 99
-34 207 -8 39 -18 94 -22 123 -4 28 -11 52 -16 52 -5 0 -9 12 -9 28 1 31 -12
94 -29 135 -6 16 -11 39 -11 52 0 13 -4 25 -9 27 -5 2 -11 26 -13 53 -2 28 -7
55 -11 62 -4 6 -10 40 -13 75 -4 34 -12 74 -19 88 -7 14 -15 46 -18 71 -3 26
-12 62 -20 80 -8 19 -17 61 -21 94 -8 62 -22 125 -37 160 -9 24 -21 79 -25
120 -2 17 -6 57 -9 90 -9 90 -7 217 3 227 6 6 33 -14 70 -51 34 -34 64 -61 68
-61 4 0 25 -15 48 -33 23 -19 48 -37 56 -40 8 -4 29 -16 45 -26 93 -58 215
-129 245 -143 70 -32 166 -75 198 -87 17 -8 32 -17 32 -20 0 -4 16 -15 35 -24
19 -9 51 -31 72 -50 51 -46 152 -109 163 -102 5 3 12 0 15 -5 4 -6 17 -15 28
-21 12 -5 29 -13 37 -17 8 -5 26 -15 40 -22 14 -8 49 -27 77 -43 29 -15 57
-26 62 -22 6 3 27 -4 48 -15 21 -11 43 -20 50 -20 16 0 16 -7 18 -230 1 -196
12 -361 26 -397 5 -13 16 -26 24 -29 8 -4 15 -12 15 -18 0 -7 10 -22 23 -34
12 -11 36 -39 52 -62 17 -22 40 -53 52 -68 12 -16 30 -48 39 -73 10 -24 28
-59 41 -78 13 -19 23 -40 23 -47 0 -8 4 -14 9 -14 9 0 51 -74 51 -90 0 -12 62
-100 71 -100 15 0 31 -60 24 -92 -11 -53 -54 -138 -70 -138 -8 0 -16 -4 -16
-10 -1 -5 -2 -14 -3 -18 -1 -8 -23 -56 -49 -107 -6 -11 -21 -42 -34 -70 -13
-27 -33 -67 -44 -88 -10 -22 -19 -44 -19 -49 0 -6 -11 -34 -24 -62 -66 -143
-146 -362 -146 -402 0 -11 -5 -25 -11 -31 -6 -6 -14 -26 -19 -44 -4 -19 -17
-68 -28 -109 -11 -41 -23 -95 -27 -120 -4 -25 -17 -81 -30 -125 -36 -125 -38
-134 -55 -238 -6 -40 -17 -85 -25 -102 -72 -167 -74 -175 -50 -195 8 -7 15
-20 15 -29 0 -9 12 -47 26 -86 14 -38 30 -92 36 -120 15 -79 34 -146 58 -205
12 -30 24 -64 27 -75 5 -22 41 -97 103 -215 21 -41 39 -84 39 -95 1 -11 9 -32
18 -45 10 -14 28 -46 40 -72 12 -27 27 -48 32 -48 6 0 18 -27 28 -60 9 -33 20
-60 25 -60 4 0 8 -8 8 -19 0 -26 56 -144 100 -211 45 -68 114 -208 136 -275
53 -162 53 -162 95 -169 23 -4 49 -2 60 5 18 9 20 17 15 57 -3 25 -10 50 -16
56 -5 5 -10 19 -10 30 0 19 -65 166 -112 251 -12 22 -34 64 -50 94 -15 30 -32
59 -36 65 -5 6 -17 34 -27 61 -10 28 -25 59 -34 70 -9 11 -25 45 -36 75 -17
49 -68 164 -95 212 -6 10 -10 25 -10 33 0 8 -4 15 -10 15 -5 0 -10 6 -10 14 0
7 -9 25 -20 39 -11 14 -20 33 -20 41 0 9 -10 30 -21 46 -12 16 -31 53 -42 82
-10 29 -26 71 -34 93 -8 22 -20 54 -27 70 -21 48 -44 135 -55 202 -9 59 -24
102 -57 166 -19 38 -18 50 6 94 11 21 20 45 20 53 0 8 11 60 25 115 14 55 32
129 39 165 53 252 188 707 250 841 47 103 66 149 66 162 0 7 14 29 31 50 17
21 29 41 26 44 -9 9 54 125 94 171 6 7 8 16 5 19 -3 4 0 13 7 22 7 9 19 35 27
58 7 23 16 40 21 38 4 -3 9 1 12 7 2 7 8 0 12 -17 12 -48 58 -149 72 -158 7
-4 13 -13 13 -20 0 -25 55 -127 72 -133 10 -3 18 -14 18 -24 0 -10 7 -31 14
-47 8 -15 49 -100 91 -188 42 -88 81 -167 86 -175 19 -33 49 -103 49 -116 0
-7 5 -16 10 -19 6 -4 24 -36 41 -71 17 -35 35 -64 40 -64 5 0 9 -7 9 -17 0
-18 47 -104 63 -115 6 -3 12 -20 13 -36 2 -17 17 -54 34 -82 16 -28 30 -56 30
-62 0 -6 29 -65 65 -130 36 -66 65 -125 65 -132 0 -8 7 -16 15 -20 8 -3 15
-13 15 -23 0 -24 30 -104 47 -124 7 -8 13 -22 13 -30 0 -8 14 -36 30 -64 16
-27 30 -57 30 -65 0 -9 9 -34 21 -55 19 -37 46 -107 119 -308 30 -83 47 -102
93 -105 58 -4 61 4 63 151 2 130 18 263 36 299 4 9 11 42 13 73 3 31 10 64 14
73 7 14 34 149 57 287 7 44 36 152 49 180 8 17 21 53 30 80 10 28 28 72 41 99
13 28 24 59 24 71 0 11 11 36 24 55 13 19 36 76 51 125 16 50 35 98 43 107 8
9 11 22 7 27 -3 6 1 14 9 17 9 4 19 23 22 45 4 21 13 44 20 50 8 6 14 16 14
21 0 5 18 40 40 79 22 39 40 79 40 89 0 10 4 20 8 22 15 5 93 144 103 184 6
20 22 55 35 75 13 21 24 45 24 53 0 8 10 26 23 39 21 22 38 48 82 127 11 19
23 37 26 40 11 10 79 117 79 125 0 5 8 18 19 29 10 12 38 59 61 106 24 47 60
108 82 136 21 28 38 56 38 61 0 6 6 16 14 22 8 7 27 37 42 68 16 31 41 65 56
76 58 43 26 77 -70 77 l-59 0 -43 -82 c-23 -46 -53 -101 -66 -123 -13 -22 -31
-55 -41 -72 -9 -18 -20 -33 -24 -33 -4 0 -19 -24 -33 -52 -41 -82 -90 -171
-116 -214 -14 -21 -31 -53 -40 -69 -8 -17 -35 -58 -60 -90 -78 -102 -129 -195
-181 -325 -31 -79 -97 -206 -124 -240 -7 -8 -18 -32 -25 -54 -7 -21 -23 -54
-36 -74 -13 -19 -28 -51 -34 -71 -5 -20 -16 -45 -24 -57 -18 -26 -66 -150 -66
-172 0 -8 -7 -23 -15 -32 -9 -10 -23 -39 -33 -66 -9 -27 -25 -60 -35 -74 -9
-13 -17 -32 -17 -42 0 -10 -11 -41 -23 -70 -13 -29 -30 -80 -36 -113 -7 -33
-17 -69 -21 -80 -13 -33 -33 -136 -37 -188 -1 -26 -7 -56 -12 -65 -5 -9 -14
-50 -20 -91 -6 -40 -15 -81 -20 -90 -4 -9 -14 -43 -21 -76 -11 -52 -15 -74
-19 -107 -1 -4 -8 -5 -17 -1 -8 3 -13 12 -9 21 3 8 1 20 -5 27 -6 7 -10 17 -8
21 1 5 -6 24 -16 42 -9 19 -15 36 -12 40 3 3 2 10 -3 16 -5 6 -25 49 -44 96
-66 163 -152 340 -179 370 -9 10 -20 31 -24 47 -4 15 -16 43 -26 61 -10 18
-18 37 -18 43 0 5 -11 26 -24 47 -12 20 -27 48 -31 62 -4 14 -18 39 -30 55
-12 17 -29 51 -39 77 -9 25 -24 52 -32 58 -7 7 -14 17 -14 22 0 5 -41 91 -92
191 -126 250 -167 329 -177 347 -4 8 -41 80 -80 160 -40 80 -83 165 -96 190
-14 25 -25 53 -25 62 0 9 -4 18 -8 20 -5 2 -28 42 -51 90 -23 48 -46 90 -51
93 -5 3 -11 19 -15 36 -5 24 -11 29 -26 24 -14 -5 -21 0 -29 19 -5 14 -14 26
-20 26 -5 0 -10 8 -10 19 0 10 -8 29 -17 42 -24 33 -42 61 -50 79 -28 68 -65
135 -86 158 -9 9 -23 36 -32 60 -10 25 -29 49 -47 60 -25 15 -40 32 -77 92
-20 33 -44 173 -42 255 4 249 0 316 -21 342 -5 7 -7 26 -3 43 5 24 3 31 -12
36 -10 3 -26 10 -36 15 -10 5 -22 7 -27 4 -5 -3 -15 3 -22 15 -7 11 -23 20
-35 20 -23 0 -198 81 -243 113 -13 9 -45 24 -71 32 -26 9 -55 25 -64 35 -10
11 -23 20 -28 20 -5 0 -47 25 -92 55 -46 30 -91 58 -101 62 -11 3 -30 15 -43
25 -14 11 -32 16 -46 12 -16 -4 -32 3 -56 24 -19 16 -61 39 -94 53 -33 13 -78
37 -100 54 -22 17 -51 36 -65 42 -27 12 -106 71 -153 116 -15 15 -31 27 -35
27 -4 0 -34 30 -68 67 -61 65 -63 66 -111 65 -66 -1 -101 -16 -115 -49 -15
-34 -20 -319 -8 -383 19 -94 72 -315 78 -325 4 -5 5 -18 4 -27 -2 -10 2 -18 9
-18 7 0 10 -10 6 -28 -3 -16 0 -40 7 -53 7 -14 13 -40 14 -58 1 -37 11 -88 22
-111 15 -32 39 -117 49 -175 6 -33 16 -82 22 -110 6 -27 14 -67 19 -87 4 -20
15 -50 26 -65 10 -15 19 -46 19 -68 3 -74 18 -165 27 -165 6 0 7 -7 4 -16 -4
-10 1 -25 9 -34 10 -11 13 -20 6 -24 -11 -7 -3 -37 13 -48 6 -4 12 -24 13 -45
1 -21 2 -54 3 -73 2 -37 28 -128 41 -145 4 -5 7 -21 7 -35 -1 -44 11 -119 22
-139 5 -11 10 -31 10 -45 0 -13 16 -62 35 -107 19 -46 35 -91 35 -99 0 -9 4
-20 10 -26 5 -5 11 -23 11 -39 3 -55 22 -120 56 -192 8 -17 17 -57 18 -88 2
-32 8 -62 14 -68 6 -6 11 -23 11 -38 0 -15 5 -31 10 -34 6 -3 10 -21 10 -39 0
-17 5 -37 11 -43 7 -7 13 -27 15 -45 10 -92 20 -128 36 -128 6 0 8 -16 6 -37
-3 -21 -1 -55 4 -76 4 -20 10 -52 12 -70 7 -51 18 -91 29 -105 6 -7 12 -23 13
-35 2 -12 8 -44 14 -72 6 -27 12 -68 14 -90 3 -22 14 -67 26 -100 12 -33 24
-78 25 -100 6 -78 29 -220 37 -226 5 -3 10 -28 12 -56 2 -28 9 -73 15 -99 27
-120 65 -298 85 -404 12 -63 28 -126 35 -139 11 -19 11 -25 0 -32 -11 -7 -12
-9 -1 -9 9 0 13 -10 11 -27 -3 -33 6 -88 33 -203 11 -47 21 -94 23 -105 1 -11
9 -45 16 -75 7 -30 12 -58 11 -61 -3 -14 17 -115 28 -144 14 -34 16 -47 24
-168 3 -48 10 -95 15 -105 5 -9 12 -39 16 -67 8 -52 55 -205 80 -259 43 -94
66 -172 60 -208 -6 -31 -3 -40 18 -58 14 -12 28 -37 32 -56 7 -38 11 -39 66
-23 26 8 41 20 50 40 6 16 13 29 14 29 2 0 23 -11 46 -25 24 -14 59 -25 77
-25 17 0 32 -4 32 -10 0 -5 12 -13 28 -16 64 -15 251 -77 297 -99 90 -42 119
-52 220 -75 55 -12 121 -31 147 -41 26 -11 54 -19 62 -19 9 0 16 -4 16 -10 0
-22 43 -8 76 25 19 19 41 35 48 35 8 0 19 7 26 15 7 8 20 15 29 15 10 0 36 16
59 36 23 19 47 34 54 33 26 -3 37 2 78 36 23 19 50 35 60 35 9 0 29 9 43 20
14 11 32 20 41 20 9 0 45 16 81 35 36 19 69 34 73 32 11 -3 92 34 127 57 16
12 37 20 46 18 8 -1 24 7 34 18 10 11 31 20 48 20 16 0 50 10 76 23 25 13 80
34 121 47 41 13 82 29 91 37 8 7 36 13 61 13 32 0 50 6 63 20 10 11 30 20 44
20 14 0 81 18 149 40 67 22 142 40 167 40 27 0 58 8 82 22 49 28 159 134 180
173 9 17 25 39 37 50 12 12 53 57 91 100 39 44 86 96 105 116 50 52 100 116
100 128 0 5 9 16 20 24 11 8 21 26 22 41 1 15 10 32 20 37 10 5 18 15 18 22 0
7 8 20 18 29 30 29 43 48 54 81 11 30 26 54 73 112 15 19 45 32 115 51 52 14
102 29 110 34 18 8 69 21 109 25 14 2 55 11 91 20 36 9 83 19 105 22 22 3 45
8 50 12 6 4 23 8 39 9 16 1 40 9 52 17 19 12 119 170 182 288 12 23 33 60 45
82 32 56 52 95 68 130 8 17 23 44 35 60 29 40 95 170 113 220 7 22 22 52 32
66 10 15 31 57 47 95 29 72 64 140 107 209 63 103 95 164 95 182 0 11 9 28 20
38 11 10 20 26 20 36 0 10 11 30 24 46 25 29 86 162 86 185 0 12 71 167 102
223 19 34 36 68 54 110 9 22 20 42 24 45 4 3 19 29 33 58 15 29 34 60 42 68 8
9 15 22 15 30 0 8 21 47 47 87 26 40 58 92 70 117 13 25 32 59 43 75 10 17 46
84 80 150 81 160 111 215 136 250 11 17 28 48 38 70 9 22 21 47 26 55 6 8 15
26 21 40 29 68 43 98 60 131 10 20 19 43 19 51 0 23 -37 51 -59 45 -11 -3 -22
0 -24 7 -3 7 -18 3 -44 -11 -23 -13 -46 -23 -52 -23 -6 0 -30 -9 -54 -19 -23
-11 -53 -20 -67 -20 -14 0 -47 -3 -75 -6 -27 -3 -108 -10 -180 -15 -71 -6
-139 -14 -150 -18 -20 -8 -39 -8 -305 3 -271 12 -295 13 -375 19 -44 3 -114 8
-155 11 -41 2 -82 6 -90 8 -94 20 -183 41 -217 53 -23 8 -54 17 -70 20 -41 7
-126 26 -143 32 -8 3 -22 6 -32 7 -74 8 -124 18 -133 25 -5 4 -14 9 -20 10
-13 3 -20 5 -90 28 -33 11 -82 25 -110 32 -27 7 -69 20 -91 31 -23 10 -51 15
-63 12 -20 -5 -22 -2 -25 29 -1 8 28 12 87 14 49 2 94 8 101 13 9 7 16 7 24
-1 6 -6 18 -7 29 -3 10 5 36 9 58 11 22 1 72 7 110 13 39 5 95 10 125 10 30 0
68 5 85 11 16 6 75 14 130 16 55 3 107 8 115 11 8 3 36 5 62 5 26 -1 50 3 53
8 4 6 12 7 18 3 17 -10 178 -11 210 0 19 6 32 5 42 -3 8 -6 18 -9 22 -7 7 5
139 12 312 19 34 1 55 7 58 15 4 10 9 11 18 3 7 -6 62 -13 121 -16 184 -9 233
-12 242 -18 4 -2 27 -7 49 -10 77 -9 186 -52 226 -90 15 -14 30 -26 32 -26 3
0 27 -16 54 -35 53 -38 85 -43 119 -19 31 22 30 77 -3 109 -13 14 -30 25 -37
25 -8 0 -45 20 -83 45 -39 25 -75 45 -81 45 -6 0 -42 15 -80 34 -38 19 -89 37
-114 41 -25 4 -61 14 -80 22 -19 8 -48 16 -65 17 -16 2 -37 6 -45 9 -62 24
-122 29 -288 28 -142 -1 -188 2 -210 13 -18 9 -43 13 -70 9 -37 -5 -42 -3 -42
13 0 12 11 24 28 31 15 7 47 24 72 39 56 34 294 154 304 154 4 0 20 9 36 20
15 11 52 25 81 31 30 6 58 15 64 20 5 5 19 9 32 9 12 0 27 9 33 20 7 13 18 19
28 16 10 -3 42 3 72 15 30 11 69 22 87 24 73 7 111 66 75 114 -11 16 -24 46
-27 67 -7 39 -66 166 -90 194 -7 8 -30 49 -51 90 -20 41 -43 79 -50 83 -8 4
-14 17 -14 28 0 11 -11 30 -25 43 -16 15 -25 34 -25 54 0 17 -6 37 -14 44 -7
8 -23 35 -34 61 -11 26 -32 61 -45 79 -14 18 -28 44 -32 58 -4 14 -15 30 -24
36 -8 7 -16 29 -18 50 -1 21 -7 40 -13 42 -5 2 -10 12 -10 22 0 10 -4 21 -9
24 -5 4 -17 32 -27 64 -9 31 -25 66 -36 78 -10 11 -18 27 -18 35 0 8 -7 25
-16 37 -8 12 -13 26 -10 31 3 5 -1 14 -9 21 -8 7 -15 19 -15 26 0 8 -7 14 -15
14 -10 0 -15 10 -15 30 0 32 -29 100 -42 100 -4 0 -8 9 -8 20 0 11 -4 20 -8
20 -5 0 -15 19 -22 43 -13 44 -32 88 -99 228 -23 47 -41 92 -41 100 0 8 -4 19
-9 25 -5 5 -26 49 -46 99 -20 49 -44 103 -53 120 -21 39 -42 96 -42 116 0 9
-9 24 -20 34 -15 14 -20 31 -20 70 0 53 -19 85 -50 85 -8 0 -31 12 -51 26 -20
14 -47 26 -60 28 -13 1 -45 14 -70 29 -25 15 -50 27 -56 27 -5 0 -17 8 -27 19
-9 10 -36 26 -59 36 -23 11 -49 25 -58 32 -28 24 -131 73 -141 67 -5 -3 -24 8
-44 25 -19 17 -49 38 -67 46 -31 14 -45 22 -99 58 -14 9 -32 17 -40 17 -8 0
-24 11 -36 25 -27 30 -67 48 -104 46 -37 -2 -41 20 -22 104 46 204 48 221 30
314 -18 97 -22 331 -6 347 18 18 15 321 -3 374 -9 25 -21 74 -28 110 -13 66
-60 154 -89 164 -8 3 -33 22 -54 41 -22 19 -46 35 -54 35 -10 0 -12 8 -7 30 9
39 -12 47 -122 46 -46 -1 -83 2 -83 7 0 4 -12 7 -27 6 -16 0 -64 4 -108 9 -44
6 -128 14 -188 17 -59 4 -110 11 -113 16 -3 5 -26 9 -52 9 -26 0 -73 4 -106
10 -37 6 -65 6 -76 0 -13 -7 -20 -6 -22 2 -3 9 -55 13 -189 16 -101 1 -191 3
-199 3 -8 0 -79 -1 -158 -3 -78 -2 -142 0 -142 4 0 4 -21 5 -46 2 -25 -3 -51
-1 -58 5 -6 6 -43 10 -81 10 -39 0 -104 3 -145 7 -41 3 -115 7 -165 9 -98 5
-114 7 -132 18 -6 4 -18 4 -27 1 -9 -3 -71 -1 -138 6 -114 11 -200 15 -553 23
-72 2 -136 7 -143 11 -7 4 -17 4 -23 1 -17 -11 -366 -14 -479 -4 -58 5 -113 9
-122 10 -10 0 -20 4 -23 10 -4 5 -13 5 -23 0 -11 -6 -47 -4 -97 5 -44 8 -96
14 -115 14 -19 -1 -66 2 -105 6 -38 3 -140 8 -227 9 -136 3 -158 1 -171 -13z
m299 -59 c-7 -7 -26 7 -26 19 0 6 6 6 15 -2 9 -7 13 -15 11 -17z m84 -68 c69
-4 148 -8 175 -9 28 0 55 -3 60 -7 6 -3 39 -6 75 -8 36 -2 88 -7 115 -11 28
-4 57 -4 67 1 9 5 39 6 65 2 83 -13 356 -9 361 5 3 10 7 10 19 0 17 -14 169
-16 217 -3 18 5 42 3 62 -4 42 -15 182 -22 190 -10 3 5 11 6 17 2 7 -5 30 -9
52 -9 22 -1 67 -5 100 -8 33 -4 112 -8 176 -10 64 -2 121 -6 127 -10 5 -3 48
-8 94 -11 47 -3 99 -7 116 -9 33 -5 236 -17 342 -21 36 -1 65 -3 65 -4 0 -9
241 0 257 10 6 4 20 3 30 -2 10 -5 98 -11 196 -14 97 -2 189 -8 203 -13 17 -7
30 -7 36 -1 6 6 20 6 38 -1 16 -6 40 -9 52 -5 13 3 33 1 44 -5 11 -6 35 -12
52 -12 18 0 40 -5 50 -10 17 -9 136 -21 182 -19 11 1 49 -4 85 -9 56 -9 117
-15 221 -23 14 -1 33 -8 42 -15 8 -7 23 -14 33 -16 40 -8 74 -26 74 -38 0 -7
8 -18 18 -24 10 -7 23 -29 30 -50 64 -218 72 -276 59 -454 -11 -153 -10 -391
2 -403 10 -10 2 -134 -9 -157 -5 -9 -10 -42 -11 -74 -2 -33 -9 -82 -17 -110
-7 -28 -19 -75 -27 -104 -7 -29 -19 -60 -28 -70 -8 -9 -23 -55 -31 -102 -18
-93 -33 -140 -48 -140 -10 0 -67 -38 -83 -56 -5 -6 -24 -21 -42 -33 -18 -12
-45 -34 -61 -49 -16 -15 -51 -45 -77 -67 -70 -58 -104 -92 -159 -160 -26 -33
-70 -83 -97 -112 -27 -28 -49 -55 -49 -60 0 -5 -12 -20 -26 -34 -14 -13 -35
-41 -47 -61 -11 -21 -24 -38 -29 -38 -5 0 -27 -17 -51 -39 -23 -21 -53 -42
-67 -46 -14 -4 -33 -14 -42 -22 -26 -23 -162 -38 -201 -22 -38 15 -122 75
-157 112 -14 15 -29 27 -35 27 -25 1 -55 43 -84 113 -29 75 -30 82 -31 239 0
173 -4 221 -26 307 -7 29 -11 58 -8 62 3 5 2 15 -3 22 -7 12 -38 116 -49 167
-3 14 -10 35 -15 48 -5 12 -14 34 -20 50 -6 15 -15 35 -20 45 -13 25 -40 106
-46 136 -9 53 -45 151 -64 175 -10 13 -19 34 -19 45 0 11 -9 26 -20 33 -11 7
-20 19 -20 26 0 7 -27 39 -60 72 -33 33 -60 64 -60 70 0 6 -11 16 -25 22 -14
6 -25 17 -25 23 0 7 -14 18 -30 25 -17 7 -35 21 -41 31 -19 37 -121 73 -204
72 -70 -1 -174 -15 -230 -33 -74 -22 -103 -30 -199 -55 -55 -14 -113 -32 -129
-40 -17 -8 -40 -15 -52 -15 -11 0 -30 -7 -41 -15 -10 -8 -26 -15 -35 -15 -9 0
-36 -11 -60 -23 -24 -13 -56 -27 -70 -30 -14 -4 -42 -20 -62 -36 -20 -16 -71
-46 -112 -66 -41 -21 -75 -42 -75 -46 0 -5 -7 -9 -15 -9 -23 0 -142 -60 -161
-81 -9 -10 -27 -19 -39 -19 -22 0 -65 -33 -65 -50 0 -6 -10 -10 -22 -10 -24 0
-110 -39 -116 -52 -2 -5 -10 -8 -18 -8 -7 0 -29 -9 -47 -19 -59 -33 -71 -39
-106 -52 -18 -7 -46 -23 -61 -36 -16 -13 -44 -30 -62 -38 -19 -7 -40 -21 -48
-29 -7 -9 -18 -16 -24 -16 -6 -1 -27 -14 -46 -30 -19 -17 -40 -30 -46 -30 -7
0 -21 -11 -31 -24 -21 -27 -57 -41 -75 -30 -29 18 -51 8 -99 -44 -52 -57 -89
-119 -89 -149 0 -10 -9 -26 -20 -36 -11 -9 -20 -26 -20 -38 0 -12 -4 -38 -9
-58 -23 -90 -31 -142 -36 -221 -3 -47 -8 -125 -12 -175 -7 -104 -7 -134 1
-270 8 -144 14 -187 25 -194 5 -3 11 -31 13 -61 3 -47 0 -55 -16 -58 -14 -3
-17 0 -13 13 4 9 0 32 -8 52 -9 20 -22 66 -31 102 -24 107 -84 288 -102 313
-10 13 -35 77 -56 143 -22 66 -42 125 -46 130 -17 25 -80 185 -80 203 0 11 -6
25 -14 31 -8 7 -14 28 -14 47 0 20 -5 41 -11 47 -6 6 -11 19 -11 29 0 10 -4
26 -9 36 -6 9 -24 54 -42 100 -18 46 -40 94 -50 107 -11 13 -19 31 -19 41 0 9
-6 25 -13 33 -8 9 -22 46 -31 83 l-18 67 41 41 c23 23 41 47 41 55 0 7 7 15
15 19 8 3 15 14 15 24 0 11 7 25 15 32 8 6 33 46 56 88 23 43 49 88 59 102 20
30 63 129 65 150 1 17 32 114 45 145 5 11 8 27 8 36 -1 9 7 34 16 54 10 21 20
50 22 65 3 15 14 45 24 66 11 21 20 48 20 59 0 12 5 26 11 32 6 6 15 29 19 50
5 21 18 71 29 110 12 40 21 83 21 95 1 13 9 41 20 63 11 22 19 48 20 57 0 9 5
20 10 23 11 7 50 83 50 99 0 5 7 17 16 27 17 18 37 19 304 4z m2013 -1004 c18
-10 38 -16 45 -14 6 3 12 -2 12 -11 0 -8 9 -20 21 -26 27 -15 48 -37 83 -87
15 -23 39 -49 52 -58 13 -8 24 -22 24 -30 0 -7 13 -28 29 -46 32 -35 40 -52
67 -144 9 -33 23 -67 30 -75 7 -9 12 -25 12 -37 -1 -11 5 -38 14 -59 9 -22 19
-51 22 -66 3 -15 15 -30 26 -33 15 -5 20 -15 20 -45 0 -34 11 -71 40 -130 4
-8 6 -36 4 -61 -1 -28 4 -58 13 -75 9 -16 15 -40 14 -53 0 -13 3 -29 8 -35 4
-6 5 -63 1 -126 -4 -63 -4 -127 1 -142 4 -15 6 -44 4 -65 -1 -21 2 -49 8 -63
6 -14 10 -28 9 -32 -2 -11 57 -136 67 -142 5 -3 8 -35 8 -71 0 -38 4 -70 11
-77 7 -7 12 -26 12 -43 0 -17 9 -47 20 -68 11 -20 20 -47 20 -59 0 -13 9 -38
20 -56 11 -18 38 -85 59 -150 21 -64 45 -133 54 -152 9 -19 30 -73 47 -120 18
-47 36 -89 41 -94 5 -6 9 -18 9 -28 0 -9 6 -32 14 -50 13 -30 38 -94 56 -143
4 -11 21 -50 39 -87 17 -36 31 -69 31 -73 0 -3 12 -32 26 -63 25 -55 65 -162
86 -231 5 -19 21 -58 34 -87 13 -29 24 -59 24 -66 0 -7 9 -28 20 -46 11 -18
20 -40 20 -50 0 -34 26 -88 61 -132 20 -25 58 -88 83 -142 26 -53 52 -98 59
-101 49 -18 125 41 113 88 -4 14 -12 25 -19 25 -6 1 -23 24 -37 53 -14 28 -44
79 -67 114 -24 34 -43 68 -43 75 0 8 -6 22 -14 33 -33 48 -86 161 -86 185 0
14 -9 40 -20 58 -11 18 -20 38 -20 45 0 6 -14 39 -30 71 -17 32 -30 64 -30 71
0 6 -9 20 -20 30 -11 10 -20 27 -20 38 0 12 -13 48 -29 81 -16 34 -36 78 -46
99 -9 20 -20 37 -25 37 -5 0 -7 7 -4 15 6 14 -23 102 -47 147 -5 10 -9 22 -9
28 0 6 -9 29 -19 53 -10 23 -24 60 -29 82 -6 22 -24 78 -41 125 -17 47 -31 94
-31 105 0 12 -4 25 -9 31 -4 5 -30 72 -56 149 -27 77 -56 154 -65 170 -14 25
-15 33 -4 43 17 15 24 15 24 0 1 -17 80 -75 137 -100 37 -16 60 -19 112 -15
72 5 189 41 207 63 6 8 17 14 25 14 39 0 209 154 209 189 0 5 11 18 25 29 14
11 25 24 25 30 0 5 21 31 46 58 95 102 159 177 172 200 7 13 19 24 27 24 8 0
23 7 33 15 9 9 53 46 97 82 44 36 81 72 83 79 2 8 7 14 12 14 15 0 20 -31 11
-73 -6 -23 -13 -94 -16 -157 -9 -160 -32 -377 -46 -425 -6 -22 -13 -49 -14
-60 -2 -11 -6 -29 -9 -40 -14 -52 -36 -162 -40 -204 -7 -56 -22 -144 -32 -174
-4 -12 -6 -37 -6 -56 1 -19 -2 -39 -7 -45 -5 -6 -11 -27 -14 -46 -6 -41 -36
-234 -42 -270 -2 -14 -9 -52 -14 -85 -15 -90 -31 -226 -41 -355 -5 -63 -12
-137 -15 -165 -4 -27 -7 -59 -6 -71 0 -12 -6 -86 -13 -165 -8 -79 -11 -149 -9
-156 3 -8 0 -48 -6 -91 -6 -42 -12 -103 -12 -135 -1 -49 2 -61 23 -81 15 -13
36 -22 49 -20 13 1 24 3 24 3 0 1 32 3 70 4 58 3 80 9 127 36 32 18 72 51 90
74 18 23 47 56 63 74 34 36 97 217 93 269 -1 16 2 36 6 43 5 7 10 53 12 101 2
48 8 107 14 131 7 24 18 94 25 156 7 62 16 116 18 120 3 5 10 47 16 93 6 47
16 103 21 125 5 22 11 87 14 145 2 58 7 139 10 180 3 41 7 120 10 175 4 55 12
145 18 200 7 55 11 110 10 122 -2 13 2 33 9 44 6 12 13 57 15 100 2 43 8 88
15 100 10 20 13 312 6 686 -2 111 -2 113 21 113 12 0 22 -4 22 -10 0 -5 5 -10
11 -10 6 0 41 -18 78 -40 37 -22 75 -40 86 -40 10 0 32 -10 49 -23 17 -13 54
-34 81 -46 28 -13 52 -26 55 -30 21 -26 210 -131 236 -131 19 0 47 -33 74 -87
13 -27 31 -59 40 -73 10 -14 20 -38 23 -55 10 -57 26 -108 34 -114 5 -3 34
-60 66 -126 32 -66 65 -133 74 -150 28 -54 71 -140 82 -165 6 -14 24 -48 39
-76 15 -28 34 -70 41 -95 7 -24 26 -67 42 -95 16 -28 29 -58 29 -65 0 -16 56
-127 76 -150 8 -8 14 -26 14 -39 0 -13 6 -31 13 -39 8 -9 19 -35 26 -59 12
-43 95 -219 130 -277 10 -16 18 -38 18 -47 0 -27 33 -96 94 -193 31 -49 66
-108 78 -130 12 -22 26 -47 31 -55 15 -24 43 -94 41 -104 -1 -5 5 -17 14 -26
13 -15 14 -23 5 -40 -10 -18 -14 -19 -27 -8 -11 9 -54 13 -142 14 -69 1 -163
3 -208 4 -44 1 -87 -1 -94 -6 -7 -4 -35 -9 -63 -10 -27 -2 -59 -7 -70 -13 -18
-8 -119 -40 -151 -46 -5 -2 -58 -14 -116 -29 -59 -14 -120 -26 -135 -26 -16 0
-42 -7 -58 -15 -15 -8 -41 -15 -57 -15 -15 0 -30 -4 -33 -9 -3 -4 -24 -11 -46
-15 -23 -3 -49 -10 -58 -15 -39 -21 -175 -59 -232 -65 -14 -2 -41 -8 -60 -14
-19 -6 -49 -13 -66 -15 -17 -3 -39 -9 -50 -14 -10 -5 -34 -17 -52 -26 -19 -9
-45 -17 -58 -17 -13 0 -32 -4 -42 -9 -9 -5 -33 -16 -52 -25 -19 -8 -60 -31
-90 -51 -30 -19 -58 -35 -63 -35 -5 0 -39 -14 -75 -32 -37 -17 -70 -31 -73
-30 -4 1 -15 -8 -24 -18 -10 -11 -24 -20 -32 -20 -7 0 -16 -7 -19 -15 -4 -8
-12 -15 -19 -15 -6 0 -25 -7 -41 -15 -31 -15 -73 -10 -134 17 -14 6 -38 17
-55 24 -16 7 -68 28 -113 48 -46 20 -89 36 -95 36 -6 0 -18 7 -27 15 -9 9 -54
28 -98 44 -45 15 -87 32 -94 38 -7 5 -26 15 -43 22 -16 7 -43 19 -58 27 -16 8
-34 14 -42 14 -7 0 -18 7 -25 15 -7 8 -23 15 -37 15 -13 0 -36 6 -51 14 -15 8
-62 21 -104 30 -42 9 -88 20 -103 26 -15 6 -30 8 -35 5 -5 -3 -12 -1 -15 5 -5
8 -11 8 -20 0 -10 -9 -20 -7 -39 5 -14 9 -31 15 -38 13 -7 -3 -37 6 -66 20
-29 13 -63 25 -76 26 -24 3 -79 20 -211 67 -44 15 -99 33 -122 39 -23 6 -45
15 -49 21 -3 6 -17 8 -31 4 -16 -4 -34 0 -49 10 -13 8 -46 17 -74 19 -46 3
-145 31 -218 62 -18 8 -42 14 -53 14 -21 0 -131 33 -184 55 -16 7 -61 21 -100
30 -38 10 -99 30 -135 46 -36 15 -78 31 -95 35 -16 4 -43 15 -58 25 -16 9 -37
14 -48 12 -11 -3 -27 1 -37 8 -37 30 -103 52 -192 64 -8 1 -24 6 -35 10 -47
17 -72 24 -106 30 -21 3 -53 17 -73 30 -20 14 -41 25 -46 25 -4 0 -31 11 -58
25 -28 14 -55 25 -60 25 -6 0 -26 10 -46 23 -33 21 -34 24 -28 62 10 63 6 302
-8 390 -6 44 -14 102 -16 129 -5 73 -23 159 -34 170 -6 6 -10 26 -10 46 0 20
-5 41 -12 48 -6 6 -15 33 -19 59 -5 27 -13 75 -19 108 -6 33 -13 83 -15 110
-2 28 -6 70 -10 95 -3 25 -12 99 -20 165 -18 164 -31 225 -53 255 -16 22 -51
131 -54 168 -1 7 -7 11 -13 8 -9 -3 -14 11 -17 42 -3 28 -15 64 -31 87 -14 22
-29 52 -32 67 -4 16 -11 26 -15 23 -9 -6 -26 15 -26 31 1 18 69 84 86 84 8 0
48 27 89 60 41 33 82 60 90 60 9 0 22 9 29 20 7 11 19 20 28 20 9 0 28 6 42
14 15 8 43 21 63 30 19 8 43 24 54 36 10 11 28 20 41 20 26 0 153 65 234 120
30 20 65 40 78 44 12 4 22 12 22 17 0 5 7 9 14 9 23 0 167 78 196 105 14 14
33 25 42 25 9 0 20 5 23 10 3 6 13 10 21 10 8 0 26 7 40 17 23 14 124 54 179
69 11 3 44 17 73 30 29 13 64 24 78 24 14 0 37 6 52 14 15 7 47 16 71 20 24 4
56 13 72 21 15 8 44 15 63 15 19 0 38 4 41 10 11 17 173 3 208 -19z m2286
-786 c24 -19 52 -35 62 -35 12 0 19 -7 19 -19 0 -24 -19 -38 -29 -22 -4 6 -25
12 -46 13 -53 4 -77 38 -66 93 2 11 18 3 60 -30z m161 -15 c0 -5 -2 -10 -4
-10 -3 0 -8 5 -11 10 -3 6 -1 10 4 10 6 0 11 -4 11 -10z m20 -29 c0 -5 -7 -11
-14 -14 -10 -4 -13 -1 -9 9 6 15 23 19 23 5z m-4640 -21 c0 -5 -4 -10 -10 -10
-5 0 -10 5 -10 10 0 6 5 10 10 10 6 0 10 -4 10 -10z m7 -36 c-3 -3 -12 -4 -19
-1 -8 3 -5 6 6 6 11 1 17 -2 13 -5z m4444 -90 c18 -6 26 -77 34 -274 5 -138 6
-420 1 -429 -2 -3 -7 -31 -10 -61 -11 -93 -17 -132 -32 -210 -15 -72 -23 -194
-30 -463 -2 -71 -6 -133 -9 -137 -3 -4 -7 -49 -10 -100 -2 -50 -7 -96 -11
-102 -4 -6 -8 -43 -9 -82 -1 -40 -4 -77 -7 -82 -9 -16 -17 -58 -27 -147 -6
-48 -14 -93 -18 -100 -4 -7 -8 -34 -9 -62 -2 -65 -13 -165 -20 -177 -4 -5 -14
-64 -24 -130 -10 -67 -25 -127 -33 -136 -8 -9 -18 -28 -22 -41 -8 -27 -77
-101 -94 -101 -6 0 -11 -7 -11 -15 0 -9 -9 -15 -25 -15 -14 0 -37 -7 -51 -16
-23 -16 -26 -15 -44 1 -15 13 -19 27 -15 49 2 17 7 107 10 199 3 93 7 178 10
190 2 12 7 69 10 127 2 58 7 114 10 125 13 44 31 305 22 314 -5 5 -2 19 7 34
17 25 37 152 28 175 -2 7 0 23 6 35 11 25 58 268 71 372 5 39 14 81 19 95 13
31 26 99 23 122 -1 10 3 28 10 40 17 30 38 132 50 243 5 50 14 104 18 120 5
17 9 37 9 45 -1 53 13 204 22 252 6 31 12 83 14 115 2 32 6 86 11 121 7 56 10
62 31 62 13 0 24 5 24 12 0 18 32 49 44 43 6 -3 18 -8 27 -11z m-231 -98 c0
-3 -4 -8 -10 -11 -5 -3 -10 -1 -10 4 0 6 5 11 10 11 6 0 10 -2 10 -4z m-1430
-216 c0 -5 -5 -10 -11 -10 -5 0 -7 5 -4 10 3 6 8 10 11 10 2 0 4 -4 4 -10z
m142 -432 c-7 -7 -12 -8 -12 -2 0 14 12 26 19 19 2 -3 -1 -11 -7 -17z m58 -40
c0 -20 -18 -5 -23 19 -5 26 -4 26 9 8 8 -10 14 -22 14 -27z m-40 12 c0 -5 -5
-10 -11 -10 -5 0 -7 5 -4 10 3 6 8 10 11 10 2 0 4 -4 4 -10z m514 -4 c-3 -8
-12 -17 -20 -20 -12 -4 -12 -2 -4 14 12 23 32 27 24 6z m-3664 -342 c0 -10 -6
-14 -14 -11 -7 3 -19 0 -25 -6 -6 -6 -11 -7 -11 -3 0 10 31 35 43 36 4 0 7 -7
7 -16z m4 -51 c-3 -12 -14 -23 -25 -26 -24 -6 -24 -4 3 26 26 29 29 29 22 0z
m34 -25 c-2 -6 -10 -14 -16 -16 -7 -2 -10 2 -6 12 7 18 28 22 22 4z m-38 -37
c0 -6 -4 -13 -10 -16 -5 -3 -10 1 -10 9 0 9 5 16 10 16 6 0 10 -4 10 -9z m54
-36 c-6 -16 -24 -21 -24 -7 0 11 11 22 21 22 5 0 6 -7 3 -15z m-14 -45 c0 -5
-4 -10 -10 -10 -5 0 -10 5 -10 10 0 6 5 10 10 10 6 0 10 -4 10 -10z m20 -61
c0 -6 -4 -7 -10 -4 -5 3 -10 11 -10 16 0 6 5 7 10 4 6 -3 10 -11 10 -16z m-5
-39 c3 -5 1 -10 -4 -10 -6 0 -11 5 -11 10 0 6 2 10 4 10 3 0 8 -4 11 -10z m95
-330 c0 -5 -2 -10 -4 -10 -3 0 -8 5 -11 10 -3 6 -1 10 4 10 6 0 11 -4 11 -10z
m533 -200 c3 -11 3 -20 1 -20 -2 0 -8 9 -14 20 -6 11 -7 20 -2 20 6 0 12 -9
15 -20z m-824 -51 c-19 -11 -24 -3 -8 14 8 9 16 11 18 5 2 -6 -3 -14 -10 -19z
m6395 -620 c11 -11 -13 -29 -41 -32 -18 -2 -38 -8 -45 -14 -7 -6 -29 -14 -48
-18 -19 -4 -43 -14 -52 -23 -10 -8 -18 -12 -18 -8 0 4 -12 -1 -27 -12 -16 -11
-44 -27 -64 -36 -20 -9 -42 -28 -49 -42 -8 -13 -19 -23 -26 -20 -17 6 -74 -22
-81 -40 -3 -8 -11 -14 -18 -14 -17 0 -95 -51 -95 -62 0 -4 -6 -8 -14 -8 -8 0
-32 -16 -53 -36 -21 -19 -62 -54 -90 -76 -36 -28 -53 -48 -53 -63 0 -31 -32
-36 -145 -25 -5 1 -44 -3 -85 -9 -41 -6 -129 -17 -195 -26 -66 -9 -131 -18
-145 -21 -24 -5 -47 -6 -72 -3 -20 2 -148 -10 -156 -15 -4 -2 -48 -7 -99 -10
-50 -4 -115 -14 -144 -22 -29 -9 -63 -14 -76 -11 -14 2 -43 0 -65 -5 -55 -12
-70 3 -38 37 13 14 30 23 37 21 7 -3 17 4 23 15 6 11 16 18 23 17 15 -3 87 40
87 53 0 5 10 9 22 9 12 0 29 6 37 14 29 26 331 175 345 170 7 -3 19 2 26 11 7
8 25 15 41 15 15 0 30 4 33 9 3 5 20 11 38 14 18 2 79 16 136 31 56 14 106 25
110 24 7 -1 50 15 85 33 9 5 36 11 60 14 23 2 71 13 107 25 36 12 79 23 95 26
61 8 142 27 211 50 39 12 80 21 90 18 11 -3 33 0 49 7 17 7 38 11 48 10 10 -1
27 5 37 14 12 10 29 15 42 12 13 -2 34 -1 48 3 26 7 157 7 164 -1z m41 1 c3
-5 1 -10 -4 -10 -6 0 -11 5 -11 10 0 6 2 10 4 10 3 0 8 -4 11 -10z m35 -30 c0
-5 -2 -10 -4 -10 -3 0 -8 5 -11 10 -3 6 -1 10 4 10 6 0 11 -4 11 -10z m100
-10 c0 -5 -4 -10 -10 -10 -5 0 -10 5 -10 10 0 6 5 10 10 10 6 0 10 -4 10 -10z
m-138 -9 c-8 -4 -10 -15 -6 -26 5 -12 4 -16 -3 -12 -6 4 -13 15 -15 25 -4 13
1 18 16 20 14 1 16 -2 8 -7z m-592 -391 c0 -5 -5 -10 -11 -10 -5 0 -7 5 -4 10
3 6 8 10 11 10 2 0 4 -4 4 -10z m40 -50 c0 -5 -4 -10 -10 -10 -5 0 -10 5 -10
10 0 6 5 10 10 10 6 0 10 -4 10 -10z m-40 -34 c0 -2 -7 -7 -16 -10 -8 -3 -12
-2 -9 4 6 10 25 14 25 6z m320 -16 c0 -5 -5 -10 -11 -10 -5 0 -7 5 -4 10 3 6
8 10 11 10 2 0 4 -4 4 -10z m220 6 c0 -3 -4 -8 -10 -11 -5 -3 -10 -1 -10 4 0
6 5 11 10 11 6 0 10 -2 10 -4z m-523 -30 c-7 -14 -16 -21 -21 -16 -5 5 -2 15
5 24 21 23 29 19 16 -8z m343 20 c0 -3 -4 -8 -10 -11 -5 -3 -10 -1 -10 4 0 6
5 11 10 11 6 0 10 -2 10 -4z m85 -6 c3 -6 -1 -7 -9 -4 -18 7 -21 14 -7 14 6 0
13 -4 16 -10z m-315 -20 c0 -5 -4 -10 -10 -10 -5 0 -10 5 -10 10 0 6 5 10 10
10 6 0 10 -4 10 -10z m-1580 -171 c0 -6 -4 -7 -10 -4 -5 3 -10 11 -10 16 0 6
5 7 10 4 6 -3 10 -11 10 -16z m190 -19 c0 -5 -4 -10 -10 -10 -5 0 -10 5 -10
10 0 6 5 10 10 10 6 0 10 -4 10 -10z m2540 -300 c0 -5 -4 -10 -10 -10 -5 0
-10 5 -10 10 0 6 5 10 10 10 6 0 10 -4 10 -10z m-5 -50 c-3 -5 -11 -10 -16
-10 -6 0 -7 5 -4 10 3 6 11 10 16 10 6 0 7 -4 4 -10z m-30 -39 c-3 -6 -11 -11
-17 -11 -6 0 -6 6 2 15 14 17 26 13 15 -4z m-5280 -81 c-4 -6 -1 -17 5 -25 7
-9 8 -15 2 -15 -10 0 -22 23 -22 41 0 5 5 9 11 9 5 0 7 -5 4 -10z m-35 -707
c0 -5 -5 -15 -10 -23 -8 -12 -10 -11 -10 8 0 12 5 22 10 22 6 0 10 -3 10 -7z
m1610 -942 c0 -6 -4 -13 -10 -16 -5 -3 -10 1 -10 9 0 9 5 16 10 16 6 0 10 -4
10 -9z m-86 -347 c3 -8 2 -12 -4 -9 -6 3 -10 10 -10 16 0 14 7 11 14 -7z m-29
-153 c-3 -6 -11 -11 -17 -11 -6 0 -6 6 2 15 14 17 26 13 15 -4z m-1960 -70 c3
-5 1 -12 -5 -16 -5 -3 -10 1 -10 9 0 18 6 21 15 7z m1885 -205 c0 -3 -4 -8
-10 -11 -5 -3 -10 -1 -10 4 0 6 5 11 10 11 6 0 10 -2 10 -4z m-25 -46 c3 -5 1
-10 -4 -10 -6 0 -11 5 -11 10 0 6 2 10 4 10 3 0 8 -4 11 -10z m-55 -25 c6 -8
10 -20 8 -26 -2 -6 -12 0 -21 15 -18 27 -8 37 13 11z m60 -5 c0 -5 -7 -10 -16
-10 -8 0 -12 5 -9 10 3 6 10 10 16 10 5 0 9 -4 9 -10z m-20 -70 c0 -5 -5 -10
-11 -10 -5 0 -7 5 -4 10 3 6 8 10 11 10 2 0 4 -4 4 -10z m-1718 -78 c-7 -2 -9
-9 -6 -14 4 -7 2 -8 -4 -4 -6 4 -9 13 -6 21 4 8 11 12 17 8 8 -5 7 -8 -1 -11z
m1728 -3 c0 -5 -4 -9 -10 -9 -5 0 -10 7 -10 16 0 8 5 12 10 9 6 -3 10 -10 10
-16z m-1706 -54 c-4 -8 -10 -12 -15 -9 -11 6 -2 24 11 24 5 0 7 -7 4 -15z
m4186 -15 c-6 -11 -13 -20 -16 -20 -2 0 0 9 6 20 6 11 13 20 16 20 2 0 0 -9
-6 -20z m-4070 -230 c0 -5 -2 -10 -4 -10 -3 0 -8 5 -11 10 -3 6 -1 10 4 10 6
0 11 -4 11 -10z m3385 -110 c3 -6 -1 -7 -9 -4 -18 7 -21 14 -7 14 6 0 13 -4
16 -10z m-3118 -502 c-3 -8 -6 -5 -6 6 -1 11 2 17 5 13 3 -3 4 -12 1 -19z
m-689 -140 c-2 -6 -10 -14 -16 -16 -7 -2 -10 2 -6 12 7 18 28 22 22 4z m837
-138 c3 -5 1 -10 -4 -10 -6 0 -11 5 -11 10 0 6 2 10 4 10 3 0 8 -4 11 -10z
m-655 -540 c0 -5 -2 -10 -4 -10 -3 0 -8 5 -11 10 -3 6 -1 10 4 10 6 0 11 -4
11 -10z m854 -285 c3 -8 1 -15 -4 -15 -6 0 -10 7 -10 15 0 8 2 15 4 15 2 0 6
-7 10 -15z"/>
</g>
</svg>
