<?xml version="1.0" standalone="no"?>
<!DOCTYPE svg PUBLIC "-//W3C//DTD SVG 20010904//EN"
 "http://www.w3.org/TR/2001/REC-SVG-20010904/DTD/svg10.dtd">
<svg version="1.0" xmlns="http://www.w3.org/2000/svg"
 width="1550.000000pt" height="1550.000000pt" viewBox="0 0 1550.000000 1550.000000"
 preserveAspectRatio="xMidYMid meet">
<metadata>
Created by potrace 1.15, written by Peter Selinger 2001-2017
</metadata>
<g transform="translate(0.000000,1550.000000) scale(0.100000,-0.100000)"
fill="#000000" stroke="none">
<path d="M7017 13634 c-4 -4 -28 -8 -54 -9 -66 -2 -184 -24 -200 -37 -9 -7
-17 -7 -27 1 -10 8 -16 9 -21 1 -3 -6 -11 -8 -16 -5 -13 9 -80 -17 -106 -40
-12 -11 -25 -35 -28 -53 -6 -37 -34 -112 -47 -127 -4 -5 -8 -19 -8 -32 0 -13
-4 -23 -10 -23 -5 0 -10 -11 -10 -25 0 -14 -5 -25 -11 -25 -5 0 -15 -13 -20
-30 -6 -16 -15 -30 -19 -30 -5 0 -16 -21 -26 -47 -9 -27 -25 -57 -35 -68 -64
-72 -100 -117 -135 -170 -64 -97 -135 -197 -171 -241 -38 -47 -83 -128 -83
-150 0 -7 -6 -14 -12 -14 -15 0 -58 -60 -58 -79 0 -7 -10 -21 -22 -31 -13 -10
-34 -40 -48 -66 -14 -27 -34 -59 -44 -72 -11 -12 -29 -37 -40 -56 -12 -19 -56
-86 -98 -149 -43 -63 -78 -121 -78 -129 0 -8 -9 -23 -20 -33 -11 -10 -20 -23
-20 -29 0 -6 -14 -31 -30 -56 -16 -25 -30 -53 -30 -63 0 -11 -8 -21 -18 -24
-25 -6 -82 -107 -82 -144 0 -16 -4 -29 -10 -29 -5 0 -10 -7 -10 -15 0 -8 -4
-15 -9 -15 -14 0 -45 -92 -46 -135 0 -28 -4 -40 -14 -40 -8 0 -19 -15 -25 -33
-6 -18 -17 -36 -24 -41 -6 -4 -16 -28 -20 -53 -8 -42 -24 -73 -91 -176 -27
-41 -71 -147 -71 -170 0 -9 -10 -29 -23 -46 -13 -17 -34 -58 -46 -91 -13 -33
-27 -67 -32 -75 -20 -34 -59 -123 -59 -136 0 -7 -5 -16 -10 -19 -6 -4 -17 -23
-26 -43 -8 -20 -23 -46 -33 -57 -10 -11 -24 -38 -31 -60 -7 -22 -21 -52 -31
-67 -11 -14 -19 -30 -19 -35 0 -4 -9 -19 -20 -33 -11 -14 -20 -34 -20 -44 0
-10 -6 -24 -14 -30 -8 -6 -25 -31 -38 -56 -13 -25 -35 -63 -49 -85 -40 -65
-48 -78 -70 -119 -12 -22 -28 -46 -35 -54 -8 -7 -14 -20 -14 -29 0 -9 -14 -38
-31 -66 -17 -27 -41 -73 -54 -101 -37 -79 -179 -350 -185 -356 -11 -8 -40 -72
-40 -86 0 -7 -11 -24 -25 -38 -14 -14 -25 -31 -25 -38 0 -7 -16 -35 -35 -62
-19 -27 -35 -60 -35 -73 0 -13 -6 -23 -12 -23 -12 0 -24 -18 -78 -109 -8 -14
-32 -54 -53 -87 -20 -34 -37 -66 -37 -71 0 -6 -9 -21 -19 -35 -11 -13 -23 -38
-27 -54 -4 -16 -15 -37 -25 -47 -11 -10 -19 -25 -19 -35 0 -9 -7 -26 -15 -36
-8 -11 -15 -27 -15 -35 0 -9 -9 -27 -20 -41 -11 -14 -20 -33 -20 -42 0 -10 -6
-18 -14 -18 -7 0 -27 -28 -44 -63 -38 -76 -52 -89 -153 -139 -36 -17 -54 -54
-42 -86 7 -18 46 -32 71 -26 27 8 31 -17 27 -161 -5 -187 -30 -290 -105 -435
-16 -30 -42 -82 -59 -115 -17 -33 -31 -65 -31 -71 0 -6 -7 -25 -16 -42 -8 -18
-12 -37 -9 -43 4 -6 -2 -13 -14 -16 -13 -3 -21 -13 -21 -27 0 -12 -4 -26 -9
-32 -5 -5 -21 -38 -37 -74 -15 -36 -36 -74 -45 -85 -10 -11 -32 -63 -49 -115
-16 -52 -43 -122 -58 -155 -16 -33 -36 -91 -46 -130 -9 -38 -21 -72 -27 -75
-5 -4 -12 -24 -16 -46 -3 -21 -12 -47 -20 -56 -19 -22 -10 -49 37 -113 21 -27
40 -63 44 -78 10 -41 72 -166 106 -212 16 -22 29 -50 30 -62 0 -12 4 -24 9
-28 5 -3 12 -19 16 -35 4 -17 11 -30 16 -30 5 0 18 -18 29 -40 11 -22 27 -40
35 -40 8 0 12 -6 10 -12 -3 -7 13 -37 35 -66 22 -29 40 -59 40 -67 0 -8 9 -20
20 -27 11 -7 20 -23 20 -35 0 -12 11 -39 25 -59 14 -20 25 -43 25 -51 0 -8 9
-26 20 -40 11 -14 20 -31 20 -38 0 -7 7 -18 15 -25 8 -7 15 -20 15 -29 0 -10
13 -30 29 -45 15 -15 34 -45 40 -67 7 -22 20 -48 29 -57 10 -10 29 -43 42 -75
14 -31 33 -59 42 -63 10 -3 22 -23 28 -44 6 -22 22 -52 35 -68 14 -17 25 -37
25 -47 0 -9 11 -31 25 -49 14 -18 25 -40 25 -48 0 -9 7 -18 15 -22 8 -3 15
-14 15 -25 0 -11 4 -22 9 -26 5 -3 13 -20 17 -38 3 -17 15 -43 25 -56 11 -13
19 -29 19 -36 0 -17 70 -164 81 -171 5 -3 9 -12 9 -21 0 -9 11 -31 25 -49 14
-18 25 -42 25 -53 0 -12 5 -21 10 -21 6 0 15 -12 21 -27 23 -58 44 -99 66
-126 13 -16 23 -41 23 -57 0 -30 19 -80 30 -80 3 0 17 -23 29 -51 13 -28 30
-53 37 -56 8 -3 14 -11 14 -18 0 -7 7 -15 15 -19 8 -3 15 -13 15 -23 0 -10 9
-29 20 -43 11 -14 20 -33 20 -42 0 -9 6 -21 14 -25 7 -4 24 -30 36 -58 12 -27
29 -54 36 -58 8 -4 14 -19 14 -32 0 -13 11 -32 25 -43 14 -11 25 -27 25 -36 0
-9 11 -28 25 -42 14 -14 25 -34 25 -45 0 -11 16 -54 35 -95 19 -41 35 -78 35
-82 0 -5 15 -26 34 -47 19 -21 33 -42 31 -45 -4 -6 39 -98 65 -140 15 -25 60
-128 60 -138 0 -5 7 -15 15 -22 8 -7 15 -18 15 -25 0 -12 39 -102 59 -135 11
-19 50 -105 86 -190 40 -93 59 -130 66 -130 4 0 25 -34 46 -77 21 -42 46 -78
55 -81 9 -2 22 -17 28 -33 11 -25 77 -69 104 -69 5 0 41 -19 80 -43 39 -24
112 -56 161 -72 87 -27 145 -50 211 -82 48 -23 241 -23 274 0 13 9 41 17 62
17 45 0 66 27 46 60 -7 11 -18 18 -25 16 -7 -3 -16 2 -21 11 -8 14 -16 13 -75
-6 -37 -13 -75 -20 -84 -17 -10 3 -52 8 -93 11 -41 4 -79 11 -85 16 -5 5 -18
9 -30 9 -12 0 -26 5 -33 12 -14 14 -70 36 -132 51 -25 6 -48 16 -53 23 -4 7
-21 15 -37 19 -17 4 -30 11 -30 15 0 5 -28 23 -62 40 -77 37 -133 86 -152 132
-8 19 -22 40 -30 48 -9 7 -16 19 -16 26 0 16 -78 172 -98 196 -8 9 -11 21 -8
27 4 5 2 13 -4 16 -6 4 -24 33 -40 65 -16 32 -34 61 -40 65 -5 3 -15 27 -21
51 -7 25 -18 48 -25 51 -8 3 -14 14 -14 25 0 10 -12 44 -27 74 -23 48 -29 53
-39 39 -14 -19 -27 -5 -18 19 3 9 0 26 -9 39 -8 12 -18 41 -21 64 -5 24 -20
55 -37 74 -16 18 -29 41 -29 51 0 9 -13 27 -30 39 -22 17 -31 33 -36 66 -3 23
-9 43 -13 43 -4 0 -15 16 -24 35 -9 19 -21 35 -26 35 -6 0 -17 15 -26 34 -11
23 -22 33 -31 29 -16 -6 -19 12 -4 22 15 9 12 23 -10 42 -11 10 -20 26 -20 36
0 27 -47 118 -81 158 -16 19 -34 51 -39 71 -6 20 -15 40 -22 44 -6 4 -23 35
-39 70 -16 35 -34 64 -39 64 -6 0 -10 7 -10 15 0 8 -4 15 -9 15 -10 0 -20 23
-27 59 -3 13 -11 30 -19 38 -8 8 -15 21 -15 29 0 15 -91 197 -114 227 -7 9
-19 17 -27 17 -10 0 -15 15 -16 52 -3 64 -19 105 -44 113 -10 4 -19 13 -19 22
0 10 -6 13 -16 9 -13 -5 -15 -1 -12 19 3 14 1 25 -3 25 -5 0 -9 17 -9 38 0 31
-5 41 -30 55 -16 10 -30 26 -30 36 0 26 -26 85 -44 101 -9 7 -16 19 -16 27 0
7 -6 16 -13 19 -7 2 -13 20 -13 39 0 23 -8 42 -27 61 -15 15 -27 33 -27 41 0
15 -30 74 -42 83 -4 3 -17 27 -29 54 -21 48 -93 150 -123 176 -9 7 -16 22 -16
35 0 34 -20 85 -34 85 -7 0 -20 25 -30 55 -9 30 -23 58 -30 62 -8 5 -21 33
-31 65 -9 31 -22 62 -30 68 -8 7 -15 21 -15 31 0 10 -8 23 -17 28 -10 5 -27
27 -38 48 -38 73 -59 98 -79 95 -14 -3 -17 0 -13 12 3 8 2 18 -3 21 -6 4 -10
17 -10 30 0 13 -11 46 -25 73 -14 28 -25 56 -25 63 0 8 -8 28 -18 44 -9 17
-23 48 -31 70 -7 22 -19 47 -26 55 -19 23 -29 108 -14 126 12 14 26 69 35 134
5 36 14 60 44 120 10 19 21 46 25 60 22 76 90 246 101 253 7 4 11 14 7 22 -3
9 6 30 20 49 14 18 29 46 33 62 4 16 16 43 26 59 27 45 108 214 108 226 0 6 8
23 19 37 10 15 22 38 26 52 4 14 15 36 25 50 58 86 71 165 74 433 l2 167 26
25 c15 14 31 25 36 25 5 0 15 6 21 14 12 15 233 126 251 126 5 0 18 4 28 9 40
20 94 41 106 41 7 0 28 13 46 29 19 16 39 27 46 24 12 -5 67 19 94 42 8 6 38
18 65 25 67 17 118 33 130 41 6 3 39 12 75 18 144 25 168 30 229 46 36 8 70
19 75 24 12 9 80 22 146 26 49 4 115 16 200 38 30 8 84 20 120 27 36 7 69 17
74 21 6 5 22 9 36 9 15 0 29 3 32 6 4 3 33 7 66 9 34 2 87 11 119 19 55 14
232 42 538 86 77 11 165 25 195 32 30 6 91 14 135 19 44 5 98 11 120 14 235
31 446 54 563 60 42 2 127 8 187 14 61 6 136 13 167 15 32 2 61 7 66 10 5 3
74 10 153 16 79 5 160 13 179 16 19 3 72 6 117 5 45 -1 84 2 87 7 2 4 123 6
268 5 145 -2 301 -3 348 -3 47 0 100 -6 119 -11 18 -6 36 -7 40 -3 3 5 40 31
81 59 41 27 77 52 80 56 3 3 19 13 35 22 17 8 50 34 75 56 24 23 47 41 51 41
3 0 29 21 57 48 72 68 172 152 182 152 5 0 10 6 12 14 4 17 227 191 257 201
12 3 21 10 21 14 0 5 19 21 43 37 23 15 53 38 67 50 27 24 44 26 182 21 43 -2
81 -6 85 -10 3 -4 16 -7 27 -7 25 -1 118 -32 164 -55 40 -20 92 -7 116 30 15
23 14 25 -25 64 -33 34 -46 41 -79 41 -21 0 -42 5 -45 10 -4 6 -15 8 -25 5
-10 -3 -21 -1 -25 5 -3 5 -24 10 -46 10 -22 0 -48 4 -59 10 -15 8 -119 14
-170 10 -8 -1 -31 1 -50 5 -67 12 -83 8 -115 -29 -16 -20 -34 -36 -38 -36 -4
0 -36 -22 -70 -50 -34 -27 -66 -50 -72 -50 -6 0 -28 -18 -50 -39 -21 -22 -42
-39 -46 -38 -11 3 -129 -94 -129 -105 0 -4 -7 -8 -15 -8 -8 0 -22 -11 -31 -25
-9 -14 -20 -25 -25 -25 -14 0 -99 -85 -99 -99 0 -7 -5 -9 -11 -6 -6 4 -18 -3
-26 -15 -8 -12 -38 -37 -67 -56 -69 -45 -86 -59 -86 -71 0 -5 -12 -16 -27 -24
-16 -8 -48 -26 -72 -41 -43 -27 -47 -27 -210 -27 -91 -1 -182 -1 -201 -1 -19
-1 -95 1 -169 5 -101 4 -159 1 -230 -11 -52 -9 -114 -14 -137 -10 -23 3 -44 3
-47 -1 -4 -3 -35 -7 -69 -9 -59 -3 -99 -8 -158 -19 -14 -3 -50 -7 -81 -8 -31
-2 -61 -7 -68 -11 -6 -4 -20 -5 -30 -1 -11 3 -22 2 -24 -2 -3 -5 -36 -10 -74
-11 -134 -6 -239 -16 -263 -26 -8 -3 -31 -5 -50 -4 -19 1 -69 -2 -110 -7 -41
-4 -95 -9 -120 -11 -80 -5 -224 -25 -240 -34 -9 -5 -35 -9 -58 -8 -23 0 -49
-5 -57 -12 -11 -9 -19 -9 -28 -2 -8 7 -48 3 -132 -14 -66 -14 -140 -26 -165
-28 -52 -5 -183 -24 -214 -32 -12 -2 -37 -6 -56 -8 -19 -2 -73 -11 -120 -19
-47 -9 -114 -18 -149 -22 -35 -3 -70 -10 -77 -16 -7 -6 -18 -9 -26 -8 -28 6
-196 -28 -215 -43 -7 -5 -27 -8 -45 -7 -18 2 -42 -2 -53 -8 -23 -12 -80 -23
-145 -28 -27 -3 -50 -11 -57 -22 -12 -16 -14 -16 -28 3 -9 12 -17 15 -22 8 -5
-5 -35 -16 -68 -23 -118 -25 -150 -34 -166 -48 -13 -11 -18 -11 -21 -2 -3 8
-12 7 -35 -5 -18 -9 -44 -16 -58 -16 -14 0 -45 -4 -68 -9 -23 -5 -69 -15 -102
-21 -33 -7 -65 -17 -72 -22 -7 -5 -17 -7 -24 -3 -6 4 -21 3 -32 -3 -12 -5 -62
-24 -111 -42 -93 -34 -156 -66 -156 -81 0 -4 -7 -6 -15 -3 -8 3 -26 -3 -41
-15 -14 -11 -30 -18 -35 -15 -5 3 -39 -11 -76 -30 -38 -19 -80 -37 -96 -41
-15 -3 -37 -15 -48 -26 -11 -11 -27 -18 -35 -15 -18 7 -18 22 1 30 11 4 14 13
9 31 -5 19 -2 25 10 25 18 0 36 29 36 58 0 11 7 25 15 32 8 7 15 19 15 26 0 8
11 32 25 54 14 21 22 46 19 55 -3 8 -1 15 5 15 16 0 69 87 81 132 6 20 23 47
38 60 34 29 84 121 77 140 -3 8 11 33 35 59 22 24 40 48 40 53 0 5 6 17 13 25
8 9 19 35 26 59 6 23 25 57 40 75 22 24 28 39 24 60 -4 22 3 36 36 72 22 24
41 52 41 61 0 10 11 37 25 61 14 24 25 49 23 56 -2 6 9 28 25 48 15 20 27 40
27 46 0 5 9 18 20 28 11 10 20 27 20 37 0 10 11 29 24 41 13 12 26 32 30 44 4
11 13 27 21 33 8 7 15 21 15 31 0 10 11 29 24 42 13 13 31 48 41 78 10 30 23
61 29 69 7 8 27 47 46 85 18 39 42 81 52 94 10 13 18 31 18 41 0 9 9 25 20 35
11 10 20 24 20 32 0 8 16 44 35 80 19 37 40 84 47 105 6 21 19 45 30 54 10 10
18 25 18 34 0 9 11 29 24 45 13 15 29 46 36 69 6 22 16 48 21 56 5 8 18 35 29
60 11 25 30 62 41 84 17 30 19 40 9 46 -14 8 -14 7 35 63 14 15 25 35 25 44 0
16 25 75 61 145 10 20 19 50 19 66 0 16 7 35 15 42 8 6 17 22 21 33 4 12 17
36 29 52 12 17 25 42 29 58 16 70 20 81 37 98 11 11 19 30 19 44 0 14 8 33 18
43 51 54 96 109 105 132 6 14 22 39 34 56 13 17 23 43 23 57 0 15 5 27 10 27
6 0 10 6 10 13 0 6 22 36 48 65 26 29 70 88 97 132 28 44 60 95 72 112 13 18
31 49 40 68 10 19 26 42 35 50 25 23 68 91 68 109 0 9 9 27 20 41 11 14 20 31
20 39 0 7 10 24 23 37 39 41 56 62 71 91 9 15 34 46 56 68 22 22 40 48 40 58
0 9 7 20 15 23 8 4 15 14 15 25 0 10 13 26 29 35 16 10 37 34 47 55 9 21 23
40 30 43 8 3 14 12 14 21 0 18 12 40 58 107 17 26 32 53 32 60 0 6 10 22 22
35 12 13 21 36 21 54 0 22 7 34 23 41 22 10 27 20 48 92 6 22 18 42 26 46 8 4
26 13 39 20 14 7 51 14 83 15 33 2 65 9 73 15 11 9 137 31 185 32 106 1 385
-15 452 -27 18 -4 65 -8 103 -10 39 -2 83 -6 99 -10 42 -11 68 -12 92 -4 12 4
26 3 32 -3 6 -6 35 -12 64 -13 29 -2 55 -4 58 -5 3 -2 16 -4 30 -6 60 -7 97
-19 138 -41 23 -13 76 -35 117 -49 41 -14 87 -32 102 -39 16 -8 37 -15 48 -15
12 0 25 -4 30 -8 6 -5 44 -19 85 -32 41 -13 81 -27 87 -33 7 -5 19 -7 28 -4 8
4 27 0 42 -8 15 -8 36 -12 45 -9 9 2 36 -4 60 -15 24 -10 72 -26 108 -34 36
-8 90 -25 120 -37 30 -12 64 -22 75 -22 11 1 26 -5 35 -12 23 -20 78 -39 94
-33 8 3 20 -1 26 -9 7 -8 19 -14 28 -14 9 0 29 -4 46 -9 17 -6 57 -15 89 -22
32 -7 60 -16 63 -21 3 -5 14 -6 25 -3 10 4 19 2 19 -3 0 -12 109 -54 121 -46
8 5 25 -6 86 -56 7 -6 16 -10 21 -10 5 0 22 -13 38 -29 15 -16 34 -27 40 -24
6 2 14 -3 17 -11 4 -9 11 -16 17 -16 6 0 39 -22 74 -50 35 -27 68 -50 74 -50
6 0 20 -12 32 -27 12 -15 42 -43 68 -63 57 -42 92 -77 92 -89 0 -5 15 -20 33
-32 74 -52 199 -185 252 -269 12 -19 39 -78 60 -130 21 -52 42 -99 46 -104 5
-6 9 -17 9 -27 0 -9 9 -28 20 -42 11 -14 20 -31 20 -37 0 -7 9 -31 19 -54 11
-23 34 -77 51 -121 18 -44 38 -87 46 -95 7 -8 17 -33 23 -55 5 -22 23 -78 39
-125 24 -72 57 -197 103 -400 15 -62 15 -63 33 -175 18 -106 22 -122 55 -225
25 -77 59 -237 72 -335 5 -38 10 -248 11 -465 2 -416 3 -402 -48 -625 -8 -38
-17 -86 -19 -105 -2 -19 -8 -53 -14 -75 -15 -58 -4 -103 38 -144 20 -20 43
-45 51 -56 21 -27 170 -330 170 -345 0 -7 6 -24 14 -38 26 -50 35 -77 52 -147
9 -38 31 -117 49 -175 17 -58 44 -144 58 -191 15 -47 27 -95 27 -107 0 -11 4
-23 9 -27 6 -3 13 -26 17 -50 3 -25 10 -45 14 -45 4 0 7 -12 7 -27 1 -60 25
-169 49 -224 15 -32 24 -65 21 -73 -5 -12 -45 -23 -112 -31 -5 -1 -17 -4 -25
-8 -8 -3 -42 -11 -75 -16 -89 -15 -117 -21 -129 -29 -6 -3 -15 -7 -21 -7 -16
-2 -68 -16 -98 -27 -16 -6 -43 -11 -60 -10 -18 0 -42 -6 -55 -14 -13 -8 -32
-12 -42 -9 -14 4 -20 2 -20 -9 0 -10 -9 -16 -24 -16 -13 0 -37 -7 -53 -15 -44
-23 -175 -81 -203 -90 -14 -4 -31 -16 -38 -26 -7 -11 -19 -19 -26 -19 -13 0
-76 -34 -134 -72 -15 -10 -36 -22 -47 -27 -11 -5 -37 -25 -59 -45 -21 -20 -44
-36 -51 -36 -7 0 -16 -7 -19 -16 -4 -9 -9 -14 -12 -11 -9 9 -125 -73 -119 -83
3 -6 -1 -7 -10 -4 -8 4 -18 18 -21 33 -3 14 -8 33 -11 41 -4 8 -6 18 -5 22 1
3 -5 37 -13 75 -8 37 -15 85 -15 105 0 21 -7 58 -15 83 -9 25 -20 73 -25 107
-27 182 -47 278 -65 323 -7 17 -23 63 -36 103 -12 40 -27 76 -31 78 -5 3 -6
14 -3 25 4 10 -1 33 -9 51 -9 18 -16 56 -16 90 0 36 -7 72 -17 91 -9 18 -17
55 -19 82 -3 83 -15 198 -21 208 -9 15 -16 191 -13 347 2 116 1 127 -16 145
-37 37 -114 -12 -152 -96 -21 -48 -42 -40 -42 15 0 23 -6 50 -13 61 -8 11 -22
43 -32 70 -10 28 -23 55 -28 62 -5 7 -6 21 -2 32 6 19 14 20 218 16 185 -3
235 -6 257 -16 9 -4 340 -22 385 -20 6 0 91 2 190 6 99 3 201 1 226 -3 32 -6
51 -5 63 3 20 15 20 28 0 82 -13 34 -22 43 -48 49 -17 3 -40 14 -51 24 -19 17
-41 26 -82 35 -10 2 -36 11 -58 21 -22 9 -70 18 -106 19 -36 1 -71 5 -78 9 -6
4 -52 9 -101 11 -50 2 -95 7 -100 10 -11 7 -113 15 -240 19 -52 2 -102 6 -110
9 -8 3 -57 8 -109 11 -51 4 -96 8 -100 10 -8 5 -199 -22 -211 -29 -5 -3 -29
-8 -54 -11 -48 -5 -96 -39 -96 -67 0 -8 11 -29 25 -45 22 -26 23 -31 10 -42
-9 -7 -18 -10 -22 -6 -3 3 -14 -1 -24 -10 -9 -8 -32 -18 -51 -21 -18 -2 -37
-9 -42 -14 -6 -5 -19 -9 -30 -9 -12 0 -32 -9 -46 -20 -14 -11 -33 -20 -42 -20
-10 0 -18 -5 -18 -11 0 -5 -13 -15 -29 -20 -16 -6 -32 -17 -35 -25 -3 -8 -13
-14 -22 -14 -9 0 -41 -16 -70 -35 -29 -19 -59 -35 -67 -35 -7 0 -19 -11 -25
-25 -6 -14 -19 -25 -28 -25 -21 0 -156 -71 -167 -87 -4 -7 -14 -13 -22 -13 -8
0 -22 -11 -31 -25 -9 -14 -22 -25 -28 -25 -7 0 -19 -12 -26 -26 -8 -14 -40
-44 -72 -66 -32 -23 -58 -44 -58 -49 0 -4 -28 -36 -62 -72 -104 -107 -182
-197 -202 -234 -11 -20 -28 -38 -38 -41 -10 -2 -18 -7 -18 -11 0 -3 -19 -26
-41 -51 -22 -25 -47 -57 -55 -72 -8 -16 -18 -28 -23 -28 -5 0 -19 -20 -31 -45
-12 -25 -26 -45 -31 -45 -5 0 -13 -8 -16 -17 -4 -10 -17 -33 -30 -52 -12 -18
-20 -37 -17 -42 3 -5 -2 -12 -11 -15 -14 -6 -135 -177 -135 -192 0 -2 -17 -25
-39 -51 -21 -25 -51 -71 -66 -101 -15 -30 -38 -68 -50 -85 -12 -16 -28 -45
-35 -62 -7 -18 -16 -33 -20 -33 -4 0 -13 -15 -21 -32 -7 -18 -26 -53 -43 -78
-41 -59 -50 -75 -80 -135 -14 -27 -44 -79 -67 -115 -22 -36 -57 -99 -76 -140
-20 -41 -50 -104 -68 -140 -18 -36 -36 -76 -40 -90 -4 -14 -18 -49 -31 -77
-13 -29 -35 -77 -48 -105 -61 -131 -84 -186 -95 -220 -7 -21 -17 -38 -22 -38
-5 0 -9 -7 -9 -16 0 -18 -49 -122 -68 -145 -14 -16 -33 -58 -87 -194 -15 -38
-34 -84 -41 -102 -8 -17 -14 -36 -14 -42 0 -5 -6 -14 -13 -18 -7 -4 -28 -37
-46 -72 -30 -58 -32 -66 -20 -90 38 -74 128 -187 214 -269 27 -26 65 -62 84
-80 19 -18 50 -42 70 -52 20 -10 60 -37 90 -59 30 -23 65 -41 77 -41 12 0 24
-5 26 -12 3 -8 29 -13 69 -14 35 -1 67 -2 72 -3 15 -2 6 -24 -18 -47 -35 -33
-29 -75 12 -79 10 -1 31 -7 46 -14 16 -6 33 -11 38 -11 5 0 9 -4 9 -10 0 -5 9
-10 20 -10 11 0 20 -5 20 -10 0 -6 3 -9 8 -8 4 0 14 -1 22 -5 8 -3 27 -8 43
-11 15 -4 27 -12 27 -19 0 -15 -116 -23 -133 -9 -7 5 -30 12 -52 15 -22 3 -55
9 -72 13 -27 5 -33 3 -33 -11 0 -9 -9 -19 -19 -22 -15 -4 -19 -13 -18 -39 4
-60 19 -63 338 -60 275 2 282 2 327 -20 26 -13 55 -24 64 -24 10 0 39 -11 65
-25 27 -13 64 -27 84 -30 19 -3 44 -12 55 -20 43 -32 314 -165 337 -165 15 0
26 -7 29 -17 3 -10 18 -25 34 -33 16 -8 43 -30 60 -47 17 -18 34 -33 38 -33 9
0 65 -63 66 -73 0 -4 11 -20 25 -35 13 -14 35 -46 47 -69 13 -24 28 -43 35
-43 6 0 16 -12 22 -28 6 -15 26 -47 45 -72 19 -25 35 -53 35 -63 1 -10 17 -34
36 -54 38 -39 39 -42 27 -60 -13 -20 -77 0 -215 68 -22 11 -43 19 -49 19 -6 0
-27 13 -47 29 -34 28 -44 30 -121 30 -46 0 -88 5 -94 11 -5 5 -22 10 -37 10
-15 0 -32 6 -39 14 -6 8 -17 13 -25 10 -7 -3 -16 -1 -20 5 -3 6 -16 11 -29 11
-13 0 -31 9 -41 20 -10 11 -21 18 -23 15 -3 -3 -16 5 -29 16 -20 20 -130 81
-220 124 -18 8 -33 20 -33 25 0 6 -6 10 -14 10 -7 0 -20 7 -27 17 -8 9 -27 22
-44 30 -16 8 -52 27 -80 43 -102 58 -147 79 -161 73 -8 -3 -14 0 -14 5 0 6
-11 17 -24 24 -75 41 -110 57 -116 53 -4 -3 -13 2 -20 10 -7 8 -20 15 -29 15
-9 0 -26 6 -38 13 -12 6 -53 28 -90 47 -37 19 -76 44 -85 55 -10 11 -17 16
-18 11 0 -5 -6 -4 -12 1 -7 6 -25 13 -41 17 -23 5 -29 2 -39 -19 -6 -14 -18
-25 -27 -25 -9 0 -25 -7 -35 -15 -11 -8 -30 -15 -43 -15 -13 0 -23 -4 -23 -10
0 -13 -41 -50 -50 -45 -10 6 -29 -16 -27 -30 1 -5 -8 -11 -21 -11 -28 -2 -55
-25 -90 -81 -15 -23 -30 -43 -34 -43 -5 0 -8 -5 -8 -11 0 -6 -11 -24 -25 -41
-14 -16 -25 -36 -25 -44 0 -11 -6 -13 -20 -9 -19 6 -28 -9 -12 -19 5 -3 9 -19
10 -37 1 -41 -7 -31 -19 22 -8 36 -7 45 9 63 23 25 36 72 22 81 -15 10 -12 37
10 80 21 41 26 90 11 99 -5 3 -14 26 -20 51 -6 25 -15 45 -20 45 -5 0 -11 13
-14 29 -3 16 -13 36 -22 44 -8 9 -15 22 -15 30 0 8 -9 22 -20 32 -11 10 -20
24 -20 32 0 21 -42 96 -62 111 -10 7 -18 19 -18 25 0 11 -44 69 -105 138 -12
15 -31 38 -40 53 -9 14 -32 35 -51 47 -19 11 -34 27 -34 35 0 8 -3 14 -7 14
-5 0 -35 25 -68 55 -33 30 -86 78 -118 107 -31 29 -79 74 -105 101 -27 26 -52
47 -56 47 -5 0 -46 38 -93 85 -47 47 -89 85 -95 85 -6 0 -37 27 -69 60 -32 33
-63 60 -68 60 -6 0 -25 13 -43 29 -18 15 -53 40 -77 55 -63 40 -125 100 -192
186 -32 41 -67 81 -79 88 -11 7 -25 24 -31 39 -9 24 -118 161 -130 162 -3 1
-41 35 -85 76 -43 42 -93 81 -111 87 -17 6 -36 21 -41 32 -5 12 -47 40 -96 65
-47 24 -89 47 -92 52 -3 5 -9 7 -13 5 -4 -3 -29 15 -56 39 -26 25 -56 45 -65
45 -10 0 -34 7 -53 15 -20 8 -46 15 -58 15 -11 0 -35 10 -51 22 -29 20 -32 20
-43 4 -7 -10 -19 -16 -27 -15 -31 4 -38 -2 -38 -33 0 -18 9 -44 20 -58 11 -14
20 -33 20 -42 0 -9 22 -61 50 -115 29 -57 50 -111 50 -130 0 -17 4 -34 9 -38
5 -3 19 -34 31 -70 12 -36 25 -67 30 -70 4 -3 11 -26 15 -51 4 -26 10 -54 15
-63 4 -9 20 -46 35 -83 15 -38 31 -68 35 -68 8 0 45 -88 54 -131 3 -14 16 -41
29 -60 20 -30 37 -85 54 -182 4 -18 -1 -34 -12 -47 -18 -20 -14 -50 11 -71 11
-9 18 -9 26 -1 20 20 41 14 35 -8 -3 -11 -1 -20 4 -20 5 0 9 -7 9 -16 0 -8 24
-39 53 -68 28 -29 99 -103 157 -166 143 -154 139 -150 148 -150 7 0 16 -14 46
-75 8 -16 28 -43 44 -59 17 -15 36 -41 42 -57 7 -16 16 -29 21 -29 5 0 9 -7 9
-15 0 -8 9 -19 20 -25 12 -6 20 -21 20 -35 0 -14 4 -25 9 -25 5 0 13 -9 16
-21 4 -13 12 -18 22 -15 13 5 14 1 10 -24 -4 -17 -2 -30 3 -30 6 0 10 -6 10
-13 0 -7 14 -40 30 -72 17 -32 30 -65 30 -74 0 -34 56 -179 76 -197 11 -9 21
-42 23 -81 1 -7 8 -13 16 -13 9 0 15 -9 15 -25 0 -31 44 -142 66 -166 9 -10
20 -35 25 -56 14 -65 39 -147 54 -180 8 -17 15 -37 15 -45 0 -7 6 -25 14 -40
8 -14 17 -44 21 -66 3 -22 15 -48 26 -58 10 -9 19 -24 19 -33 0 -9 11 -50 25
-91 13 -41 25 -83 25 -94 0 -10 5 -37 12 -58 16 -55 45 -67 99 -43 61 28 75
84 21 85 -7 0 -17 11 -22 25 -5 14 -14 25 -19 25 -5 0 -11 15 -14 33 -5 32
-38 133 -64 194 -7 17 -13 35 -13 41 0 5 -7 16 -16 23 -11 9 -14 23 -11 45 4
22 -2 47 -19 80 -13 27 -27 65 -31 86 -3 21 -10 41 -14 44 -5 3 -9 13 -9 22 0
9 -24 67 -54 127 -29 61 -57 121 -61 135 -4 14 -14 33 -22 42 -8 9 -12 21 -9
26 6 9 -30 93 -44 102 -4 3 -13 30 -19 60 -6 30 -18 61 -25 70 -7 8 -16 31
-20 51 -4 21 -13 42 -21 49 -8 7 -15 22 -15 35 0 12 -9 30 -20 40 -11 10 -19
23 -16 29 2 6 -9 35 -25 63 -16 29 -29 59 -29 66 0 7 -16 27 -35 46 -19 18
-35 38 -35 45 0 13 -43 74 -75 107 -8 9 -15 24 -15 33 0 10 -15 32 -32 50 -18
17 -46 48 -61 69 -16 21 -37 37 -48 37 -12 0 -17 4 -13 11 3 6 -12 30 -33 52
-22 23 -47 53 -57 67 -9 14 -52 61 -95 105 -82 83 -131 167 -131 225 0 30 -35
115 -51 126 -6 3 -8 12 -5 19 2 7 -6 29 -20 48 -13 20 -24 44 -24 53 0 9 -23
63 -50 120 -28 57 -50 113 -50 126 0 26 -24 104 -51 166 -11 23 -19 50 -19 59
0 22 -32 93 -42 93 -4 0 -8 17 -8 39 0 21 -7 55 -15 74 -19 47 -19 67 2 67 9
0 13 -3 10 -7 -11 -10 26 -32 54 -33 15 0 29 -6 32 -14 6 -14 131 -81 152 -81
6 0 38 -22 70 -47 33 -26 77 -61 99 -78 21 -16 43 -30 50 -30 6 0 25 -16 41
-36 17 -20 55 -62 86 -93 30 -31 72 -82 92 -113 20 -31 45 -62 56 -68 12 -6
21 -15 21 -21 0 -37 238 -269 276 -269 5 0 32 -18 59 -40 28 -21 71 -56 98
-77 26 -21 80 -68 120 -105 39 -37 77 -68 84 -68 6 0 21 -12 31 -28 11 -15 45
-47 76 -72 31 -25 82 -70 114 -100 171 -163 260 -253 289 -292 18 -24 54 -72
80 -108 27 -36 64 -95 82 -133 19 -37 40 -72 48 -78 7 -6 13 -22 13 -34 0 -12
12 -40 26 -61 22 -32 25 -46 21 -85 -5 -38 -2 -50 14 -65 23 -21 24 -47 2 -69
-9 -9 -17 -30 -18 -46 -2 -16 -12 -50 -24 -75 -12 -26 -20 -53 -16 -62 3 -8
-1 -22 -10 -32 -8 -9 -20 -39 -25 -66 -6 -27 -12 -55 -13 -62 -2 -7 -9 -18
-15 -24 -7 -7 -12 -18 -12 -25 0 -7 -22 -56 -50 -108 -27 -52 -50 -101 -50
-108 0 -7 -8 -17 -17 -23 -10 -6 -24 -29 -32 -50 -8 -21 -38 -81 -67 -132 -30
-51 -54 -96 -54 -101 0 -5 -6 -14 -14 -20 -8 -7 -18 -27 -22 -44 -3 -18 -9
-36 -12 -42 -4 -5 -7 -23 -8 -39 -1 -16 -9 -35 -17 -41 -9 -6 -19 -24 -23 -41
-4 -16 -10 -31 -14 -34 -3 -3 -28 -45 -54 -95 -27 -49 -54 -97 -61 -105 -8 -8
-17 -28 -21 -45 -4 -16 -18 -43 -31 -58 -12 -16 -23 -37 -23 -48 0 -10 -5 -19
-11 -19 -5 0 -19 -21 -30 -47 -12 -27 -27 -62 -35 -80 -8 -17 -14 -38 -14 -47
0 -10 -11 -27 -23 -39 -13 -12 -35 -47 -49 -79 -25 -54 -97 -160 -118 -173
-20 -13 -9 -50 21 -71 38 -27 67 -21 88 19 9 17 25 40 37 51 12 12 36 48 54
81 17 33 45 83 61 110 16 28 56 104 89 170 69 137 75 147 112 195 15 20 47 85
71 146 46 113 65 149 168 314 32 52 79 135 104 184 24 48 48 93 54 100 5 6 19
36 32 66 12 30 35 71 51 91 15 20 28 43 28 50 0 8 16 33 35 57 18 24 41 63 51
88 9 24 20 44 25 44 10 0 119 144 119 158 0 6 6 15 14 19 19 10 72 83 80 111
4 12 13 19 20 16 7 -3 20 6 30 20 9 14 22 23 29 20 7 -2 26 7 41 21 15 14 32
25 39 25 7 0 17 8 24 19 26 41 101 30 187 -28 17 -11 33 -18 38 -15 10 6 51
-15 61 -32 4 -8 20 -14 35 -14 15 0 47 -9 71 -20 23 -11 47 -18 51 -15 5 3 10
2 12 -2 7 -17 107 -80 181 -114 26 -12 47 -25 47 -29 0 -5 12 -13 28 -19 15
-6 47 -26 72 -45 25 -19 51 -35 58 -35 7 -1 42 -21 79 -46 36 -25 73 -45 83
-45 9 0 29 -12 44 -27 14 -14 36 -31 49 -38 49 -25 64 -33 107 -52 25 -12 59
-26 75 -33 17 -7 42 -19 57 -26 15 -8 62 -15 105 -17 65 -2 84 -6 113 -27 53
-38 121 -70 147 -70 17 0 24 -5 21 -16 -2 -11 -23 -22 -57 -31 -30 -7 -59 -17
-65 -21 -6 -4 -45 -19 -86 -32 -41 -14 -79 -30 -85 -36 -5 -7 -21 -14 -35 -17
-39 -8 -173 -58 -195 -73 -11 -8 -27 -14 -36 -14 -9 0 -28 -9 -42 -20 -14 -11
-32 -20 -40 -20 -8 0 -20 -6 -26 -14 -6 -7 -22 -11 -35 -9 -13 3 -27 0 -30 -6
-4 -6 -15 -11 -25 -11 -10 0 -30 -9 -44 -20 -14 -11 -34 -20 -45 -20 -10 0
-31 -9 -45 -20 -17 -14 -27 -16 -29 -8 -3 8 -12 4 -26 -10 -12 -12 -29 -22
-38 -22 -9 0 -48 -16 -85 -35 -38 -19 -75 -35 -83 -35 -24 0 -126 -49 -126
-61 0 -6 -9 -9 -20 -6 -11 3 -42 -3 -70 -14 -28 -10 -58 -19 -68 -19 -10 0
-28 -7 -41 -17 -13 -9 -36 -17 -50 -18 -15 -1 -51 -15 -81 -31 -30 -16 -62
-29 -70 -30 -8 0 -29 -8 -45 -16 -17 -8 -49 -20 -72 -28 -23 -7 -56 -26 -72
-42 -17 -16 -34 -27 -39 -24 -5 3 -20 -6 -35 -19 -14 -14 -32 -22 -40 -19 -8
3 -30 -8 -48 -23 -49 -41 -88 -65 -99 -58 -5 3 -11 1 -14 -4 -4 -5 -37 -26
-74 -47 -37 -20 -86 -50 -109 -66 -23 -15 -51 -28 -63 -28 -24 0 -95 -34 -105
-50 -4 -6 -17 -16 -28 -21 -29 -13 -62 -32 -78 -46 -23 -18 -171 -93 -184 -93
-15 0 -45 -43 -45 -64 0 -8 11 -23 25 -34 28 -22 59 -19 90 9 11 10 38 26 60
36 22 10 60 32 84 48 24 17 49 33 55 36 69 37 97 51 133 69 24 11 76 41 117
65 41 24 95 53 120 64 25 12 47 25 51 30 3 5 19 13 37 16 17 4 43 20 57 34 14
15 51 38 81 50 30 13 61 30 68 39 7 9 26 17 43 18 18 1 42 13 59 29 22 21 35
26 57 22 20 -4 54 8 123 41 52 25 113 49 135 53 49 8 123 34 191 65 28 13 58
24 67 24 9 0 25 9 36 21 11 12 23 19 28 16 10 -7 55 8 123 41 25 12 51 22 58
22 7 0 45 15 85 34 40 19 107 48 149 66 43 17 80 36 83 40 3 5 12 7 19 4 7 -3
19 2 26 11 7 8 18 15 26 15 7 0 30 7 51 16 68 30 77 33 128 49 28 9 64 22 80
30 53 23 214 85 223 85 11 0 105 31 184 60 l57 21 58 -28 c32 -15 60 -31 63
-34 13 -16 77 -49 96 -49 37 0 74 37 74 76 0 28 -6 38 -35 56 -40 26 -42 33
-18 56 15 15 15 17 1 20 -10 2 -14 10 -11 23 3 10 0 19 -6 19 -6 0 -11 9 -11
20 0 24 -27 37 -43 21 -19 -19 -33 -12 -50 24 -9 20 -24 38 -32 41 -8 4 -15
12 -15 19 0 7 -6 18 -14 24 -8 7 -17 23 -20 37 -4 14 -22 40 -41 57 -23 21
-35 41 -35 59 0 14 -3 28 -7 30 -11 4 -55 66 -86 121 -16 26 -34 47 -42 47 -8
0 -15 4 -15 10 0 14 -81 120 -92 120 -5 0 -21 12 -36 27 -15 15 -61 45 -102
66 -41 21 -78 45 -83 53 -4 7 -14 11 -21 8 -7 -3 -31 6 -51 21 -21 14 -50 28
-64 32 -14 3 -34 13 -45 22 -10 9 -21 15 -25 14 -12 -5 -91 32 -88 41 5 14
118 38 131 28 6 -4 27 -9 46 -11 19 -2 47 -9 61 -17 15 -7 37 -15 50 -18 33
-7 97 -31 105 -39 4 -4 20 -7 36 -7 16 0 39 -6 51 -14 12 -8 38 -17 57 -21 19
-3 44 -10 55 -15 11 -5 61 -18 110 -30 50 -12 109 -31 131 -41 23 -11 52 -22
64 -24 12 -2 29 -10 37 -16 8 -7 40 -16 71 -20 31 -4 58 -13 60 -18 2 -6 11
-11 21 -11 10 0 37 -6 62 -14 24 -7 64 -18 89 -24 25 -6 52 -13 61 -17 11 -4
18 1 22 16 4 13 9 20 13 16 12 -12 64 23 64 43 0 22 -12 31 -60 45 -30 9 -35
15 -38 45 l-2 35 19 -22 c27 -32 95 -39 121 -13 22 22 24 36 9 100 -36 155
-29 308 31 665 12 72 28 191 35 265 7 74 20 160 29 190 10 30 20 80 22 110 3
30 12 69 20 87 8 17 19 55 24 84 6 29 14 57 19 63 5 6 12 27 16 46 4 19 14 44
21 55 7 11 16 39 20 63 4 23 11 45 15 48 5 3 9 13 9 23 0 9 11 39 24 67 57
118 104 222 115 257 7 20 17 37 22 37 5 0 9 9 9 19 0 12 11 23 30 30 22 7 32
18 36 41 4 17 11 33 15 36 5 3 9 13 9 23 0 22 88 116 116 125 12 4 29 15 39
26 10 11 24 20 31 20 14 0 72 37 97 61 8 8 33 25 55 39 23 14 42 31 42 38 0 6
8 12 18 12 10 0 24 6 31 13 6 6 15 12 19 12 4 1 21 9 39 18 18 9 37 17 43 17
6 0 21 12 33 26 14 16 34 26 52 27 17 1 32 4 35 7 15 15 91 50 108 50 12 0 24
4 27 10 8 12 94 53 120 56 11 1 43 7 70 13 28 7 58 13 67 15 10 1 21 5 24 9 4
4 18 7 30 7 13 0 25 4 28 9 4 5 27 9 52 9 25 0 51 6 59 12 11 10 18 10 29 1
11 -9 32 -5 92 15 51 17 103 27 144 28 36 1 71 5 78 9 15 10 16 77 1 114 -24
59 -34 79 -47 94 -7 9 -14 29 -16 43 -1 14 -6 29 -9 33 -4 3 -7 15 -7 26 0 33
-33 157 -42 157 -5 0 -6 11 -2 25 4 16 -7 61 -30 127 -19 57 -41 128 -47 158
-6 30 -19 71 -29 90 -31 61 -38 84 -50 150 -6 36 -18 79 -25 95 -7 17 -15 46
-18 66 -6 44 -61 157 -88 182 -10 10 -19 29 -19 42 0 13 -11 36 -24 52 -13 15
-34 53 -47 83 -12 30 -31 66 -41 79 -10 13 -18 28 -18 33 0 4 -11 25 -25 46
-23 36 -24 41 -15 127 5 50 17 117 26 150 9 33 17 69 19 80 2 11 8 45 15 75
11 53 10 164 -5 730 -3 97 -11 207 -19 245 -36 179 -58 280 -62 287 -10 17
-47 156 -69 266 -13 62 -28 119 -34 126 -6 7 -9 20 -6 28 5 13 -45 242 -75
343 -34 116 -54 172 -66 186 -8 9 -11 18 -8 22 4 3 -4 30 -18 59 -30 63 -54
125 -63 156 -4 12 -10 22 -15 22 -5 0 -14 17 -20 38 -7 20 -27 69 -46 108 -19
39 -34 76 -34 81 0 14 -99 204 -116 224 -8 8 -14 20 -14 26 0 5 -36 47 -80 92
-44 45 -80 86 -80 91 0 6 -7 10 -15 10 -8 0 -22 11 -31 25 -9 14 -32 32 -50
41 -19 9 -34 23 -34 30 0 8 -15 24 -34 35 -19 11 -42 31 -50 45 -9 13 -21 24
-27 24 -6 0 -32 21 -58 46 -25 25 -71 62 -101 82 -30 19 -62 43 -70 53 -15 18
-117 77 -180 104 -19 9 -48 23 -63 31 -16 9 -37 14 -48 11 -10 -3 -22 0 -27 7
-4 6 -34 20 -67 29 -33 10 -74 25 -92 33 -18 8 -43 12 -58 8 -17 -4 -27 -2
-31 9 -3 8 -22 18 -42 22 -53 9 -133 34 -163 50 -14 8 -46 17 -70 21 -24 4
-55 13 -69 20 -47 23 -149 54 -180 54 -16 0 -30 4 -30 9 0 5 -19 11 -42 15
-22 4 -46 10 -52 14 -6 3 -15 7 -21 8 -5 1 -37 12 -69 23 -33 12 -67 21 -78
21 -10 0 -35 9 -55 20 -21 11 -45 20 -54 20 -22 0 -113 36 -181 71 -20 10 -42
19 -48 19 -7 0 -26 10 -43 22 -17 12 -42 23 -56 25 -14 1 -45 7 -68 13 -23 5
-118 13 -210 16 -207 7 -220 8 -263 17 -57 12 -279 16 -285 6 -4 -5 -13 -5
-25 1 -10 5 -35 9 -57 9 -21 0 -54 3 -73 6 -19 4 -38 3 -43 -1z m878 -104 c-3
-5 -11 -10 -16 -10 -6 0 -7 5 -4 10 3 6 11 10 16 10 6 0 7 -4 4 -10z m32 -14
c-16 -18 -31 -8 -16 10 6 7 15 11 20 8 5 -3 3 -11 -4 -18z m1483 -4446 c-24
-15 -36 -11 -14 4 10 8 21 12 24 10 2 -3 -2 -9 -10 -14z m316 1 c8 7 19 7 31
1 10 -5 51 -12 91 -16 40 -3 76 -7 80 -10 4 -2 63 -7 130 -10 68 -3 126 -7
130 -10 8 -4 224 -19 262 -17 36 1 38 -35 3 -44 -14 -3 -29 -2 -32 2 -5 7 -46
10 -186 13 -53 1 -135 -6 -141 -13 -4 -4 -15 0 -24 8 -11 10 -31 14 -61 11
-24 -2 -49 1 -55 5 -19 15 -245 30 -255 16 -3 -4 -17 -4 -30 1 -28 10 -155 8
-182 -3 -24 -10 -28 -4 -12 18 16 23 73 38 138 38 32 0 50 5 54 15 4 12 8 12
26 -1 15 -10 24 -11 33 -4z m-280 -49 c-10 -10 -29 15 -21 28 6 9 10 8 17 -4
6 -10 7 -20 4 -24z m-46 8 c0 -5 -2 -10 -4 -10 -3 0 -8 5 -11 10 -3 6 -1 10 4
10 6 0 11 -4 11 -10z m1129 -21 c20 -18 22 -49 5 -68 -11 -12 -15 11 -5 23 11
13 8 20 -15 41 -15 14 -23 25 -17 25 5 0 19 -9 32 -21z m51 11 c0 -5 -4 -10
-10 -10 -5 0 -10 5 -10 10 0 6 5 10 10 10 6 0 10 -4 10 -10z m-1146 -35 c-6
-16 -24 -21 -24 -7 0 11 11 22 21 22 5 0 6 -7 3 -15z m1162 -27 c-6 -10 -18
-18 -26 -18 -12 1 -12 3 3 14 11 9 15 20 10 32 -6 16 -5 17 9 4 12 -11 13 -19
4 -32z m119 4 c-3 -3 -11 0 -18 7 -9 10 -8 11 6 5 10 -3 15 -9 12 -12z m-1309
-23 c19 -22 19 -22 -3 -8 -13 8 -23 17 -23 21 0 12 6 9 26 -13z m1244 17 c0
-2 -7 -7 -16 -10 -8 -3 -12 -2 -9 4 6 10 25 14 25 6z m110 0 c0 -3 -4 -8 -10
-11 -5 -3 -10 -1 -10 4 0 6 5 11 10 11 6 0 10 -2 10 -4z m-1354 -93 c1 -23 67
-225 92 -283 9 -19 16 -56 17 -83 1 -40 -1 -46 -16 -42 -18 6 -59 -36 -59 -60
0 -6 -9 -20 -20 -30 -11 -10 -20 -24 -20 -31 0 -8 -11 -21 -25 -30 -14 -9 -46
-47 -69 -84 -24 -37 -49 -71 -55 -74 -6 -4 -11 -15 -11 -24 0 -10 -11 -34 -25
-54 -14 -20 -25 -43 -25 -51 0 -8 -11 -25 -25 -38 -13 -13 -25 -30 -25 -36 0
-7 -5 -13 -11 -13 -5 0 -15 -13 -20 -30 -6 -16 -15 -27 -20 -24 -5 3 -9 -2 -9
-10 0 -8 -10 -25 -22 -36 -13 -12 -23 -27 -23 -34 0 -6 -6 -18 -13 -26 -31
-36 -182 -241 -182 -248 0 -4 -9 -13 -20 -20 -11 -7 -20 -16 -20 -22 0 -5 -10
-20 -22 -33 -130 -136 -158 -167 -158 -174 0 -11 -36 -48 -110 -113 -89 -79
-130 -121 -146 -153 -8 -15 -40 -66 -72 -113 -54 -82 -81 -125 -107 -169 -35
-61 -79 -125 -86 -125 -5 0 -9 -7 -9 -15 0 -8 -4 -15 -8 -15 -5 0 -15 -12 -23
-27 -7 -16 -28 -48 -46 -72 -18 -24 -33 -49 -33 -56 0 -7 -6 -15 -13 -18 -11
-4 -61 -92 -62 -109 0 -4 -6 -13 -12 -20 -7 -6 -13 -16 -13 -20 0 -5 -10 -22
-22 -38 -12 -16 -22 -37 -23 -47 -3 -22 -21 -70 -39 -103 -8 -14 -22 -52 -31
-85 -9 -33 -20 -69 -24 -80 -5 -11 -18 -49 -29 -85 -12 -36 -37 -110 -57 -165
-20 -55 -43 -122 -51 -150 -9 -27 -20 -54 -25 -60 -5 -5 -9 -19 -9 -31 0 -13
-4 -26 -10 -29 -5 -3 -10 -24 -10 -47 0 -24 -7 -49 -19 -64 -11 -13 -22 -47
-26 -74 -4 -28 -11 -52 -16 -56 -5 -3 -9 -21 -9 -39 0 -42 -28 -94 -78 -144
-33 -33 -45 -39 -100 -45 -34 -4 -68 -4 -75 1 -6 4 -16 8 -22 8 -5 0 -27 8
-49 18 -21 9 -46 17 -56 17 -10 0 -24 7 -31 16 -7 9 -36 31 -64 50 -27 18 -63
44 -80 56 -46 36 -165 158 -165 171 -1 7 -14 28 -30 47 -36 41 -37 52 -6 110
13 25 31 72 41 105 10 33 22 64 27 70 4 5 8 16 8 26 0 9 15 45 33 80 18 35 42
87 54 114 72 168 87 200 97 210 6 7 20 32 30 56 10 24 26 62 37 84 10 22 19
50 19 62 0 12 5 25 11 29 6 3 9 15 6 25 -3 12 0 19 9 19 7 0 16 12 20 28 4 15
12 36 18 47 7 11 23 48 35 83 13 34 27 62 31 62 4 0 17 28 29 63 29 82 41 106
69 141 12 15 28 48 34 72 7 24 17 44 23 44 6 0 19 18 29 41 10 22 24 43 32 46
8 3 14 14 14 24 0 10 5 19 10 19 6 0 18 17 27 38 39 91 68 142 84 147 9 3 25
24 35 48 10 23 24 47 30 52 7 6 27 42 45 82 19 42 41 74 51 76 10 3 18 13 18
24 0 10 10 23 21 28 12 6 35 35 51 65 16 30 35 60 42 65 15 12 86 122 86 134
0 16 163 217 268 330 23 25 42 51 42 58 0 10 31 45 173 195 15 16 27 33 27 38
0 5 9 12 20 15 11 3 20 13 20 21 0 8 6 14 14 14 8 0 16 7 20 15 3 8 12 15 21
15 8 0 15 7 15 15 0 8 8 15 18 15 9 0 23 9 30 20 6 11 31 32 54 46 23 15 49
36 58 47 9 10 29 21 44 22 15 2 36 11 45 19 10 9 23 16 29 16 7 0 12 5 12 10
0 6 9 10 19 10 11 0 33 11 49 25 16 13 31 22 34 20 3 -3 17 6 32 20 15 14 31
25 37 25 5 0 9 5 9 10 0 6 5 10 11 10 17 0 97 39 104 51 4 6 13 8 20 5 7 -2
16 1 18 8 3 7 18 16 34 19 15 3 46 14 68 24 22 9 45 18 50 18 6 0 19 6 30 13
28 17 50 10 51 -15z m324 -204 c0 -6 -4 -7 -10 -4 -5 3 -10 11 -10 16 0 6 5 7
10 4 6 -3 10 -11 10 -16z m-8 -41 c-6 -6 -15 -8 -19 -4 -4 4 -1 11 7 16 19 12
27 3 12 -12z m-125 -43 c0 -8 -4 -15 -9 -15 -4 0 -8 7 -8 15 0 8 4 15 8 15 5
0 9 -7 9 -15z m93 -30 c-7 -8 -16 -15 -21 -15 -5 0 -1 9 8 20 9 11 19 17 21
15 3 -3 -1 -11 -8 -20z m-40 5 c0 -5 -4 -10 -10 -10 -5 0 -10 5 -10 10 0 6 5
10 10 10 6 0 10 -4 10 -10z m-35 -10 c3 -5 1 -10 -4 -10 -6 0 -11 5 -11 10 0
6 2 10 4 10 3 0 8 -4 11 -10z m55 -41 c0 -5 -4 -9 -10 -9 -5 0 -10 7 -10 16 0
8 5 12 10 9 6 -3 10 -10 10 -16z m-40 -4 c0 -8 -2 -15 -4 -15 -2 0 -6 7 -10
15 -3 8 -1 15 4 15 6 0 10 -7 10 -15z m68 -19 c-25 -18 -23 -40 3 -33 13 3 19
1 16 -6 -2 -7 -14 -10 -27 -9 -12 2 -26 -2 -30 -9 -5 -7 -8 4 -7 25 1 25 5 35
14 32 7 -3 15 -1 18 4 4 6 12 10 18 10 7 0 4 -7 -5 -14z m-71 -38 c-3 -8 -6
-5 -6 6 -1 11 2 17 5 13 3 -3 4 -12 1 -19z m-43 -13 c-4 -8 -11 -15 -16 -15
-6 0 -5 6 2 15 7 8 14 15 16 15 2 0 1 -7 -2 -15z m-34 -25 c0 -5 -2 -10 -4
-10 -3 0 -8 5 -11 10 -3 6 -1 10 4 10 6 0 11 -4 11 -10z m150 0 c0 -5 -7 -10
-16 -10 -8 0 -12 5 -9 10 3 6 10 10 16 10 5 0 9 -4 9 -10z m-104 -39 c-3 -5 1
-14 9 -21 8 -7 15 -24 15 -39 0 -24 24 -108 56 -191 7 -19 16 -54 19 -77 4
-25 12 -43 20 -43 8 0 13 -14 13 -39 0 -22 8 -53 17 -71 9 -17 14 -34 11 -39
-3 -4 -1 -23 4 -42 5 -19 11 -74 15 -124 7 -104 20 -233 34 -355 6 -47 12
-121 15 -165 5 -93 26 -225 36 -240 9 -12 18 -80 25 -195 3 -47 10 -116 16
-154 11 -70 4 -120 -27 -171 -6 -11 -14 -32 -18 -47 -3 -14 -30 -78 -60 -141
-30 -63 -59 -129 -64 -148 -6 -19 -20 -65 -32 -104 -27 -87 -59 -207 -69 -260
-11 -53 -30 -128 -48 -189 -8 -27 -19 -88 -24 -135 -5 -47 -11 -102 -13 -121
-3 -19 -8 -57 -11 -85 -3 -27 -15 -93 -25 -145 -23 -119 -39 -265 -41 -395 -1
-55 -2 -109 -2 -120 -1 -11 2 -41 6 -67 5 -36 3 -51 -9 -62 -13 -14 -19 -13
-59 9 -24 14 -53 25 -64 25 -11 0 -22 4 -26 10 -3 5 -12 7 -19 4 -7 -3 -20 1
-27 8 -8 7 -39 22 -69 32 -30 10 -61 23 -67 29 -7 5 -24 7 -37 3 -13 -3 -39 1
-58 8 -19 8 -48 14 -64 14 -16 -1 -39 4 -51 10 -13 7 -31 8 -51 3 -20 -6 -34
-5 -41 2 -9 9 -14 9 -20 -1 -4 -7 -14 -10 -22 -8 -17 6 -86 14 -191 22 -60 4
-81 2 -101 -10 -22 -15 -25 -15 -42 4 -15 17 -31 20 -104 20 -95 1 -115 4
-246 49 -49 17 -121 38 -160 47 -90 21 -265 45 -287 38 -9 -3 -19 -1 -21 4 -3
4 -33 7 -66 5 -33 -1 -63 2 -66 7 -3 6 -19 10 -34 10 -15 0 -47 9 -70 21 -24
11 -52 19 -62 16 -12 -3 -17 1 -16 14 1 12 9 18 27 17 69 -1 155 63 194 147
10 22 24 52 32 66 7 14 11 29 8 32 -6 5 -2 20 36 137 10 30 21 72 23 93 3 20
9 43 15 50 14 17 42 93 53 146 5 24 21 69 35 100 15 30 28 67 29 81 1 14 8 39
15 55 7 17 14 47 17 67 3 21 12 43 19 49 8 6 14 19 14 28 0 9 9 35 20 56 11
22 18 46 15 54 -3 7 14 52 37 100 23 47 49 102 57 121 9 19 30 58 47 85 17 28
35 67 38 88 4 22 13 37 21 37 8 0 23 17 34 38 11 20 29 43 40 50 12 7 21 17
21 23 0 6 14 28 31 48 16 20 39 47 50 59 10 13 19 29 19 36 0 6 19 37 43 68
23 32 53 79 67 105 24 47 40 68 88 121 13 14 30 41 39 59 8 18 20 33 27 33 6
0 27 17 46 38 19 21 80 87 135 146 55 59 107 119 115 132 8 14 32 43 53 65 20
22 37 46 37 54 0 7 9 16 20 20 11 3 40 34 66 68 26 34 53 69 61 77 55 59 152
194 171 238 12 28 27 52 32 52 6 0 21 25 34 55 14 30 34 64 45 77 12 12 21 26
21 31 0 5 11 22 25 39 14 16 25 36 25 43 0 8 14 23 30 35 17 12 30 28 30 36 0
8 7 17 15 20 8 4 15 12 15 18 0 7 11 23 25 36 14 13 25 29 25 36 0 7 8 18 18
23 21 13 25 13 18 2z m102 -3 c10 -10 15 -10 23 2 9 12 10 12 7 1 -6 -21 -21
-23 -43 -6 -11 8 -15 15 -9 15 5 0 16 -6 22 -12z m-5887 -48 c5 0 9 -7 9 -16
0 -32 -25 -6 -27 27 0 19 1 24 4 12 2 -13 9 -23 14 -23z m5909 0 c0 -5 -7 -10
-16 -10 -8 0 -12 5 -9 10 3 6 10 10 16 10 5 0 9 -4 9 -10z m-5950 -35 c0 -8
-12 -26 -27 -41 -18 -18 -23 -29 -15 -32 20 -6 14 -18 -15 -31 -23 -9 -25 -9
-13 1 9 7 17 24 17 37 1 14 9 29 18 33 8 5 15 18 15 28 0 11 5 20 10 20 6 0
10 -7 10 -15z m80 -10 c0 -8 -4 -15 -10 -15 -5 0 -7 7 -4 15 4 8 8 15 10 15 2
0 4 -7 4 -15z m5847 -7 c-3 -8 -6 -5 -6 6 -1 11 2 17 5 13 3 -3 4 -12 1 -19z
m47 -3 c-4 -8 -8 -15 -10 -15 -2 0 -4 7 -4 15 0 8 4 15 10 15 5 0 7 -7 4 -15z
m-5934 -5 c8 -5 11 -12 7 -16 -4 -4 -15 0 -24 9 -18 18 -8 23 17 7z m-35 -29
c3 -5 1 -12 -5 -16 -5 -3 -10 1 -10 9 0 18 6 21 15 7z m5960 -11 c3 -5 2 -10
-4 -10 -5 0 -13 5 -16 10 -3 6 -2 10 4 10 5 0 13 -4 16 -10z m15 -80 c0 -5 -2
-10 -4 -10 -3 0 -8 5 -11 10 -3 6 -1 10 4 10 6 0 11 -4 11 -10z m-6122 -25
c-2 -1 -14 -8 -28 -15 -25 -13 -25 -13 -6 8 10 12 23 19 28 16 5 -3 8 -7 6 -9z
m6126 -3 c3 -5 -1 -9 -9 -9 -8 0 -12 4 -9 9 3 4 7 8 9 8 2 0 6 -4 9 -8z
m-6099 -12 c-3 -5 -11 -10 -16 -10 -6 0 -7 5 -4 10 3 6 11 10 16 10 6 0 7 -4
4 -10z m-35 -30 c0 -5 -4 -10 -10 -10 -5 0 -10 5 -10 10 0 6 5 10 10 10 6 0
10 -4 10 -10z m20 -24 c0 -11 -19 -15 -25 -6 -3 5 1 10 9 10 9 0 16 -2 16 -4z
m10 -127 c0 -6 -4 -7 -10 -4 -5 3 -10 11 -10 16 0 6 5 7 10 4 6 -3 10 -11 10
-16z m5540 -54 c0 -8 -2 -15 -4 -15 -2 0 -6 7 -10 15 -3 8 -1 15 4 15 6 0 10
-7 10 -15z m-5544 -61 c-3 -9 -6 -20 -6 -25 0 -5 -4 -9 -9 -9 -4 0 -6 11 -3
25 2 14 9 25 14 25 6 0 7 -7 4 -16z m-9 -84 c1 -18 -2 -28 -7 -25 -15 9 -11
55 4 55 1 0 2 -14 3 -30z m-22 -89 c-15 -15 -16 -15 -10 4 16 49 18 51 23 31
2 -10 -4 -26 -13 -35z m6241 -8 c-10 -10 -19 5 -10 18 6 11 8 11 12 0 2 -7 1
-15 -2 -18z m-6226 -17 c0 -3 -4 -8 -10 -11 -5 -3 -10 -1 -10 4 0 6 5 11 10
11 6 0 10 -2 10 -4z m6240 -72 c0 -8 -4 -12 -10 -9 -5 3 -10 10 -10 16 0 5 5
9 10 9 6 0 10 -7 10 -16z m25 -44 c-3 -5 -12 -10 -18 -10 -7 0 -6 4 3 10 19
12 23 12 15 0z m-5 -51 c0 -7 8 -18 18 -26 11 -9 12 -13 3 -11 -19 5 -48 48
-32 48 6 0 11 -5 11 -11z m-3 -71 c-3 -8 -6 -5 -6 6 -1 11 2 17 5 13 3 -3 4
-12 1 -19z m43 -23 c0 -8 -4 -15 -10 -15 -5 0 -10 7 -10 15 0 8 5 15 10 15 6
0 10 -7 10 -15z m-46 -11 c3 -8 2 -12 -4 -9 -6 3 -10 10 -10 16 0 14 7 11 14
-7z m66 -64 c0 -5 -5 -10 -11 -10 -5 0 -7 5 -4 10 3 6 8 10 11 10 2 0 4 -4 4
-10z m-30 -14 c0 -3 -4 -8 -10 -11 -5 -3 -10 -1 -10 4 0 6 5 11 10 11 6 0 10
-2 10 -4z m35 -26 c3 -5 2 -10 -4 -10 -5 0 -13 5 -16 10 -3 6 -2 10 4 10 5 0
13 -4 16 -10z m-40 -10 c3 -5 1 -10 -4 -10 -6 0 -11 5 -11 10 0 6 2 10 4 10 3
0 8 -4 11 -10z m21 -45 c-16 -17 -36 -20 -36 -6 0 8 17 16 43 20 5 0 2 -6 -7
-14z m32 -43 c-8 -9 -14 -9 -23 -2 -10 8 -17 5 -28 -10 -10 -14 -17 -18 -22
-10 -4 6 -5 12 -4 13 2 1 13 7 24 13 28 16 67 13 53 -4z m2 -42 c13 -8 13 -11
-2 -27 -17 -16 -18 -16 -18 0 0 9 -5 17 -11 17 -5 0 -7 5 -4 10 8 12 16 12 35
0z m-40 -45 c0 -7 -6 -15 -12 -18 -9 -3 -13 5 -13 23 0 22 3 26 13 18 6 -6 12
-16 12 -23z m48 -51 c9 -7 11 -13 5 -17 -14 -9 -46 40 -36 56 5 8 9 6 11 -8 3
-11 11 -25 20 -31z m-28 -19 c7 -9 10 -18 6 -22 -3 -3 -6 -1 -6 5 0 7 -6 12
-14 12 -8 0 -18 5 -21 10 -10 16 21 11 35 -5z m60 -39 c0 -5 -7 -3 -15 4 -8 7
-12 17 -9 22 7 10 24 -9 24 -26z m-60 -17 c0 -5 -4 -9 -10 -9 -5 0 -10 7 -10
16 0 8 5 12 10 9 6 -3 10 -10 10 -16z m40 -4 c7 -8 8 -15 2 -15 -5 0 -15 7
-22 15 -7 8 -8 15 -2 15 5 0 15 -7 22 -15z m-43 -42 c1 -10 6 -35 11 -55 6
-22 6 -38 1 -38 -9 0 -13 15 -9 39 1 8 -3 17 -8 20 -17 11 -25 51 -10 51 8 0
14 -8 15 -17z m49 -10 c-7 -7 -26 7 -26 19 0 6 6 6 15 -2 9 -7 13 -15 11 -17z
m4 -67 c-7 -7 -10 1 -9 25 0 32 1 33 10 10 6 -16 6 -28 -1 -35z m40 -16 c0 -5
-2 -10 -4 -10 -3 0 -8 5 -11 10 -3 6 -1 10 4 10 6 0 11 -4 11 -10z m-20 -15
c0 -2 -13 -11 -30 -20 -33 -17 -38 -14 -14 9 14 15 44 22 44 11z m20 -30 c-7
-8 -10 -22 -6 -30 3 -8 1 -15 -4 -15 -6 0 -10 6 -10 14 0 23 11 46 22 46 6 0
5 -6 -2 -15z m30 -25 c0 -5 -4 -10 -10 -10 -5 0 -10 5 -10 10 0 6 5 10 10 10
6 0 10 -4 10 -10z m-87 -20 c-3 -11 -9 -20 -14 -20 -11 0 -11 3 -3 24 9 23 23
20 17 -4z m44 -37 c3 -7 -4 -9 -16 -6 -12 3 -18 9 -15 15 7 11 26 6 31 -9z
m46 3 c4 -10 1 -13 -8 -9 -8 3 -12 9 -9 14 7 12 11 11 17 -5z m-113 -16 c0 -5
-5 -10 -11 -10 -5 0 -7 5 -4 10 3 6 8 10 11 10 2 0 4 -4 4 -10z m40 -20 c0 -9
-32 -30 -46 -30 -4 0 1 9 11 20 19 21 35 26 35 10z m60 -11 c0 -6 -4 -7 -10
-4 -5 3 -10 11 -10 16 0 6 5 7 10 4 6 -3 10 -11 10 -16z m-35 -18 c-3 -6 -11
-11 -17 -11 -6 0 -6 6 2 15 14 17 26 13 15 -4z m-41 -36 c-4 -8 -8 -15 -10
-15 -2 0 -4 7 -4 15 0 8 4 15 10 15 5 0 7 -7 4 -15z m46 1 c0 -3 -4 -8 -10
-11 -5 -3 -10 -1 -10 4 0 6 5 11 10 11 6 0 10 -2 10 -4z m-40 -46 c0 -5 -7 -7
-15 -4 -8 4 -12 10 -9 15 6 11 24 2 24 -11z m-5704 -57 c-3 -4 -6 -1 -6 6 0 7
-6 11 -14 8 -10 -4 -12 0 -9 14 5 19 6 19 20 -1 8 -12 12 -24 9 -27z m81 11
c-3 -3 -12 -4 -19 -1 -8 3 -5 6 6 6 11 1 17 -2 13 -5z m-47 -24 c-8 -5 -17 -7
-19 -4 -3 3 1 9 9 14 8 5 17 7 19 4 3 -3 -1 -9 -9 -14z m-1214 -38 c-14 -14
-16 -14 -16 -1 0 20 23 44 29 28 2 -6 -4 -18 -13 -27z m1174 18 c0 -5 -2 -10
-4 -10 -3 0 -8 5 -11 10 -3 6 -1 10 4 10 6 0 11 -4 11 -10z m-1185 -60 c3 -5
-1 -10 -10 -10 -9 0 -13 5 -10 10 3 6 8 10 10 10 2 0 7 -4 10 -10z m4561
-1762 c-18 -26 -22 -17 -5 14 6 11 13 17 16 15 3 -3 -2 -16 -11 -29z m167 16
c52 -6 140 -21 170 -29 45 -12 32 -28 -18 -23 -25 3 -47 2 -50 -2 -6 -10 -108
-6 -126 6 -8 4 -23 10 -34 11 -21 4 -35 20 -35 41 0 10 8 12 30 7 17 -4 45 -9
63 -11z m-248 -4 c3 -5 -1 -10 -9 -10 -9 0 -16 5 -16 10 0 6 4 10 9 10 6 0 13
-4 16 -10z m45 -10 c0 -5 -4 -10 -10 -10 -5 0 -10 5 -10 10 0 6 5 10 10 10 6
0 10 -4 10 -10z m-75 -26 c0 -11 -8 -20 -20 -23 -17 -3 -17 -1 -6 12 7 9 9 21
5 28 -4 7 -2 10 7 7 8 -3 14 -13 14 -24z m45 -9 c7 -9 8 -15 2 -15 -5 0 -12 7
-16 15 -3 8 -4 15 -2 15 2 0 9 -7 16 -15z m80 -5 c0 -5 -2 -10 -4 -10 -3 0 -8
5 -11 10 -3 6 -1 10 4 10 6 0 11 -4 11 -10z m400 1 c0 -5 -7 -14 -15 -21 -16
-14 -18 -10 -9 14 6 17 24 22 24 7z m40 -5 c0 -3 -4 -8 -10 -11 -5 -3 -10 -1
-10 4 0 6 5 11 10 11 6 0 10 -2 10 -4z m70 -30 c0 -2 -7 -7 -16 -10 -8 -3 -12
-2 -9 4 6 10 25 14 25 6z m-90 -22 c0 -2 -7 -4 -15 -4 -8 0 -15 4 -15 10 0 5
7 7 15 4 8 -4 15 -8 15 -10z m-75 -24 c-3 -5 -12 -10 -18 -10 -7 0 -6 4 3 10
19 12 23 12 15 0z m45 -9 c0 -5 -7 -12 -16 -15 -14 -5 -15 -4 -4 9 14 17 20
19 20 6z m574 -16 c-4 -8 -8 -15 -10 -15 -2 0 -4 7 -4 15 0 8 4 15 10 15 5 0
7 -7 4 -15z m-524 -5 c0 -5 -4 -10 -10 -10 -5 0 -10 5 -10 10 0 6 5 10 10 10
6 0 10 -4 10 -10z m604 -14 c21 8 21 -5 -1 -22 -22 -16 -37 -18 -27 -3 4 7 0
9 -14 5 -12 -4 -23 -2 -28 5 -5 9 -2 10 9 6 12 -4 17 -1 17 10 0 12 3 13 14 4
7 -6 21 -9 30 -5z m-104 -6 c0 -5 -7 -7 -15 -4 -8 4 -15 8 -15 10 0 2 7 4 15
4 8 0 15 -4 15 -10z m237 -14 c21 -3 55 -9 77 -12 58 -9 76 -12 111 -24 18 -6
45 -12 61 -14 41 -6 78 -21 93 -40 7 -9 17 -13 22 -10 11 6 12 -7 1 -23 -7
-11 -79 3 -207 39 -49 15 -73 19 -102 20 -13 0 -23 4 -23 8 0 6 -48 19 -95 25
-5 1 -20 5 -33 9 -22 7 -22 9 -6 20 17 13 30 13 101 2z m443 -66 c0 -5 -4 -10
-10 -10 -5 0 -10 5 -10 10 0 6 5 10 10 10 6 0 10 -4 10 -10z m-33 -42 c-3 -8
-6 -5 -6 6 -1 11 2 17 5 13 3 -3 4 -12 1 -19z m153 12 c-8 -5 -22 -9 -30 -9
-10 0 -8 3 5 9 27 12 43 12 25 0z m45 0 c-3 -5 -11 -10 -16 -10 -6 0 -7 5 -4
10 3 6 11 10 16 10 6 0 7 -4 4 -10z m-111 -6 c9 -3 13 -10 10 -15 -8 -14 -21
-11 -28 6 -6 17 -4 18 18 9z m-48 -41 c-10 -10 -19 5 -10 18 6 11 8 11 12 0 2
-7 1 -15 -2 -18z m54 -14 c12 -9 12 -10 -4 -5 -12 4 -24 0 -32 -11 -12 -16
-13 -16 -14 -1 0 14 12 25 30 27 3 0 12 -4 20 -10z m41 -32 c-16 -16 -25 -1
-10 16 8 8 16 11 18 5 2 -5 -2 -15 -8 -21z m-2776 13 c-3 -5 -12 -10 -18 -10
-7 0 -6 4 3 10 19 12 23 12 15 0z m2735 -19 c0 -6 -4 -13 -10 -16 -5 -3 -10 1
-10 9 0 9 5 16 10 16 6 0 10 -4 10 -9z m90 -17 c0 -2 -9 -4 -21 -4 -11 0 -18
4 -14 10 5 8 35 3 35 -6z m-50 -14 c0 -5 -2 -10 -4 -10 -3 0 -8 5 -11 10 -3 6
-1 10 4 10 6 0 11 -4 11 -10z m-2788 -290 c9 -17 13 -30 8 -30 -10 0 -40 40
-40 52 0 17 16 6 32 -22z m-40 -35 c3 -14 1 -25 -3 -25 -5 0 -9 11 -9 25 0 14
2 25 4 25 2 0 6 -11 8 -25z m-42 -95 c0 -5 -2 -10 -4 -10 -3 0 -8 5 -11 10 -3
6 -1 10 4 10 6 0 11 -4 11 -10z m-44 -77 c-10 -10 -19 5 -10 18 6 11 8 11 12
0 2 -7 1 -15 -2 -18z m2531 -110 c-4 -3 -3 -11 2 -17 6 -7 4 -16 -4 -23 -11
-10 -13 -7 -10 15 5 34 4 32 12 32 3 0 3 -3 0 -7z m23 -73 c0 -5 -7 -10 -16
-10 -8 0 -12 5 -9 10 3 6 10 10 16 10 5 0 9 -4 9 -10z m64 -51 c-3 -5 -10 -7
-15 -3 -5 3 -7 10 -3 15 3 5 10 7 15 3 5 -3 7 -10 3 -15z m-274 -33 c0 -5 -7
-1 -15 10 -8 10 -14 24 -14 29 0 6 6 1 14 -9 8 -11 15 -24 15 -30z m57 28 c-3
-3 -12 -4 -19 -1 -8 3 -5 6 6 6 11 1 17 -2 13 -5z m29 -21 c-10 -10 -19 5 -10
18 6 11 8 11 12 0 2 -7 1 -15 -2 -18z m154 -13 c0 -5 -2 -10 -4 -10 -3 0 -8 5
-11 10 -3 6 -1 10 4 10 6 0 11 -4 11 -10z m-265 -9 c3 -5 1 -12 -5 -16 -5 -3
-10 1 -10 9 0 18 6 21 15 7z m-2590 -231 c3 -5 1 -10 -4 -10 -6 0 -11 5 -11
10 0 6 2 10 4 10 3 0 8 -4 11 -10z"/>
</g>
</svg>
