<?xml version="1.0" standalone="no"?>
<!DOCTYPE svg PUBLIC "-//W3C//DTD SVG 20010904//EN"
 "http://www.w3.org/TR/2001/REC-SVG-20010904/DTD/svg10.dtd">
<svg version="1.0" xmlns="http://www.w3.org/2000/svg"
 width="1550.000000pt" height="1550.000000pt" viewBox="0 0 1550.000000 1550.000000"
 preserveAspectRatio="xMidYMid meet">
<metadata>
Created by potrace 1.15, written by Peter Selinger 2001-2017
</metadata>
<g transform="translate(0.000000,1550.000000) scale(0.100000,-0.100000)"
fill="#000000" stroke="none">
<path d="M11139 9256 c-2 -2 -24 -6 -49 -10 -51 -6 -109 -18 -195 -39 -123
-31 -192 -45 -255 -51 -36 -4 -70 -12 -77 -18 -7 -6 -68 -12 -135 -14 -72 -2
-124 -8 -126 -14 -2 -5 -30 -10 -62 -10 -32 0 -62 -4 -65 -10 -3 -5 -25 -10
-49 -10 -23 0 -46 -4 -52 -10 -5 -5 -31 -12 -56 -15 -25 -3 -57 -8 -69 -11
-13 -2 -39 -7 -58 -9 -18 -3 -38 -8 -45 -12 -6 -4 -18 -9 -26 -10 -22 -3 -107
-14 -165 -20 -27 -3 -55 -9 -61 -14 -6 -5 -55 -13 -110 -19 -108 -11 -106 -11
-243 -11 -52 0 -98 -2 -102 -5 -17 -10 -77 -16 -196 -18 -67 -1 -125 -5 -128
-8 -4 -3 -19 -3 -35 2 -16 4 -59 6 -97 4 -290 -16 -315 -18 -328 -25 -6 -3
-73 -6 -150 -8 -114 -2 -148 -6 -184 -23 -35 -16 -62 -19 -135 -18 -50 1 -140
-3 -201 -9 -60 -7 -137 -14 -170 -16 -33 -3 -67 -7 -75 -10 -8 -4 -62 -10
-120 -15 -70 -6 -108 -14 -114 -23 -7 -11 -16 -12 -42 -4 -24 7 -73 6 -176 -6
-79 -9 -167 -16 -196 -17 -29 0 -61 -4 -72 -10 -10 -6 -38 -10 -62 -9 -24 1
-63 -6 -88 -16 -25 -9 -64 -19 -88 -21 -24 -2 -64 -11 -88 -19 -25 -8 -60 -15
-80 -15 -19 0 -45 -6 -57 -14 -12 -8 -50 -17 -84 -20 -35 -4 -88 -16 -119 -26
-32 -11 -63 -20 -71 -20 -8 0 -40 -12 -71 -26 -31 -14 -73 -28 -92 -31 -19 -3
-46 -11 -60 -18 -14 -7 -49 -18 -78 -25 -28 -6 -55 -16 -58 -21 -3 -5 -13 -9
-22 -9 -9 0 -28 -9 -41 -19 -14 -10 -30 -17 -37 -14 -7 2 -15 0 -19 -6 -3 -6
-15 -11 -27 -11 -11 0 -32 -8 -46 -18 -15 -10 -34 -22 -42 -25 -8 -4 -35 -23
-60 -42 -25 -19 -67 -50 -95 -69 -27 -19 -61 -44 -75 -56 -14 -13 -50 -39 -80
-59 -80 -53 -217 -180 -281 -263 -45 -57 -119 -168 -119 -178 0 -5 -12 -22
-28 -37 -15 -16 -39 -46 -53 -68 -14 -22 -34 -53 -45 -69 -10 -16 -30 -50 -44
-75 -14 -25 -31 -55 -38 -66 -6 -11 -43 -86 -81 -166 -48 -101 -82 -157 -108
-182 -21 -20 -47 -46 -58 -56 -11 -11 -31 -22 -45 -25 -14 -2 -38 -9 -55 -16
-16 -6 -32 -12 -35 -12 -3 0 -9 -2 -15 -3 -5 -2 -32 -9 -60 -16 -27 -6 -54
-15 -60 -18 -27 -16 -84 -31 -117 -31 -20 0 -39 -4 -42 -9 -3 -4 -38 -11 -77
-15 -40 -3 -86 -13 -103 -21 -28 -13 -73 -26 -146 -41 -14 -3 -34 -11 -46 -19
-12 -7 -39 -17 -60 -21 -46 -8 -105 -36 -123 -58 -18 -22 -6 -85 17 -88 9 0
28 -2 42 -3 14 -1 54 -10 90 -20 36 -10 75 -17 88 -17 12 0 22 -4 22 -8 0 -4
14 -11 32 -16 17 -5 33 -14 35 -19 1 -6 -39 -23 -90 -39 -50 -16 -96 -32 -102
-35 -5 -3 -12 -6 -15 -6 -3 0 -34 -13 -70 -30 -36 -16 -72 -28 -81 -27 -9 2
-40 -6 -68 -18 -28 -11 -60 -20 -70 -20 -10 0 -24 -7 -31 -15 -7 -8 -25 -15
-40 -15 -15 0 -41 -7 -56 -15 -16 -8 -36 -15 -45 -15 -8 0 -19 -4 -25 -9 -5
-5 -43 -12 -84 -16 -153 -13 -208 -21 -221 -32 -8 -6 -31 -14 -52 -18 -20 -4
-40 -11 -43 -16 -3 -5 -15 -9 -27 -9 -25 0 -149 -35 -192 -55 -34 -15 -122
-37 -145 -35 -31 3 -349 3 -427 0 -86 -2 -159 -20 -157 -39 1 -6 2 -16 3 -22
0 -7 14 -9 39 -5 52 10 130 10 252 1 172 -12 196 -17 204 -48 6 -22 6 -22 28
4 18 21 31 26 63 25 33 -2 41 -6 43 -24 4 -23 17 -29 27 -12 3 6 15 10 26 10
10 0 27 4 37 9 34 17 67 30 97 36 17 3 48 10 70 14 22 5 60 15 85 24 25 9 54
17 66 17 11 0 25 5 32 12 14 14 80 38 108 38 11 0 24 4 30 9 11 11 151 41 191
41 15 0 42 7 58 16 30 15 109 35 152 38 12 0 28 7 35 14 6 6 23 12 37 12 39 0
91 22 92 40 0 9 2 11 6 3 5 -13 80 -9 118 7 68 27 116 40 152 40 25 0 45 6 50
14 11 18 51 38 57 28 6 -10 74 -3 82 9 3 5 21 9 40 9 20 0 44 5 54 10 11 6 54
11 97 13 66 2 78 -1 81 -15 2 -9 -5 -19 -17 -23 -27 -8 -33 -31 -17 -69 19
-45 62 -47 107 -5 25 23 34 27 46 18 10 -9 20 -9 39 0 14 6 30 9 35 5 5 -3 24
-1 42 5 47 16 115 20 150 10 17 -5 35 -5 41 0 27 20 272 -2 327 -29 9 -5 42
-11 75 -15 32 -4 80 -16 105 -26 26 -10 49 -15 53 -12 3 3 13 0 21 -7 20 -16
165 -80 183 -80 7 0 27 -7 45 -17 18 -9 46 -17 62 -19 17 -1 52 -12 78 -24 28
-12 76 -23 113 -25 35 -2 69 -7 75 -11 7 -4 70 -8 141 -10 70 -2 132 -5 137
-8 5 -4 21 -2 35 4 16 6 50 6 84 2 82 -11 331 -3 402 14 14 3 41 8 60 10 19 2
49 6 65 9 17 2 82 9 145 15 63 7 135 16 160 22 71 15 199 36 265 42 48 4 104
15 125 23 8 3 27 5 42 4 14 -1 28 2 31 6 3 5 31 9 61 8 31 0 56 4 56 8 0 5 13
7 29 4 15 -3 32 -2 37 3 5 5 41 13 79 19 39 6 114 17 168 25 54 8 103 18 110
24 15 12 140 36 251 48 27 3 61 11 76 19 15 8 36 12 47 9 11 -3 25 1 33 10 8
11 16 13 24 6 11 -8 223 21 245 34 3 3 45 10 91 16 47 6 89 15 95 20 10 7 66
20 95 21 8 0 33 4 55 9 22 5 67 14 100 21 33 7 64 16 69 20 5 4 14 5 21 3 11
-5 67 3 145 21 14 3 58 10 98 15 41 5 90 14 110 19 21 6 55 12 77 15 22 3 51
8 65 11 14 3 48 7 75 10 28 3 64 10 80 14 17 5 57 14 90 21 33 7 71 16 85 20
14 4 66 13 115 20 50 6 98 16 108 21 10 5 21 8 25 6 10 -6 130 17 227 43 89
24 135 36 180 46 17 4 35 11 42 16 7 5 17 7 23 3 6 -4 18 -1 27 7 9 7 19 12
22 12 3 -1 11 0 16 1 6 2 43 9 83 16 39 7 72 16 72 21 0 4 13 8 29 8 17 0 33
5 36 10 3 6 19 10 35 10 33 0 194 58 282 101 10 5 24 9 32 9 9 0 48 16 89 35
41 19 78 35 84 35 6 0 21 8 34 19 13 10 39 22 57 25 17 4 32 12 32 17 0 5 11
9 25 9 15 0 31 9 41 25 9 14 20 23 24 20 5 -3 11 -1 14 4 4 5 23 15 44 21 37
12 112 75 112 95 0 6 13 26 29 45 15 19 43 77 60 128 l32 92 -5 218 c-3 119
-11 258 -19 307 -8 50 -15 105 -16 124 -1 19 -4 38 -7 43 -3 5 -8 53 -10 107
-2 54 -11 143 -20 197 -8 55 -17 118 -18 142 -2 24 -10 51 -18 60 -8 9 -19 38
-25 63 -32 125 -134 279 -185 279 -10 0 -18 5 -18 11 0 5 -13 15 -30 20 -16 6
-30 16 -30 21 0 6 -14 8 -35 4 -27 -5 -39 -2 -54 13 -11 11 -33 23 -48 26 -16
4 -36 10 -45 16 -17 9 -160 13 -169 5z m96 -106 c3 -5 27 -12 53 -15 44 -7 81
-20 162 -59 48 -24 75 -40 93 -54 16 -14 80 -140 92 -182 4 -14 14 -34 21 -45
8 -11 14 -29 14 -40 0 -12 4 -25 9 -30 12 -13 35 -190 37 -285 4 -150 17 -286
29 -310 8 -15 16 -81 20 -149 3 -68 11 -133 16 -143 7 -13 7 -23 1 -31 -6 -7
-12 -66 -14 -132 -5 -125 -26 -201 -70 -251 -10 -11 -18 -25 -18 -30 0 -33
-192 -138 -437 -240 -24 -10 -43 -21 -43 -26 0 -4 -8 -8 -18 -8 -10 0 -22 -3
-26 -7 -3 -4 -12 -8 -19 -9 -36 -5 -87 -35 -88 -51 0 -10 -3 -13 -6 -5 -6 15
-28 15 -56 0 -12 -6 -31 -12 -42 -13 -11 -1 -58 -16 -105 -34 -47 -18 -98 -34
-115 -36 -58 -8 -124 -31 -145 -50 -15 -14 -23 -16 -28 -8 -6 9 -19 9 -52 1
-25 -6 -49 -14 -55 -18 -5 -4 -30 -11 -55 -15 -24 -4 -51 -11 -60 -15 -13 -7
-96 -27 -150 -36 -8 -1 -82 -14 -165 -29 -82 -14 -168 -28 -189 -31 -22 -3
-48 -10 -57 -15 -10 -5 -32 -9 -48 -9 -17 0 -39 -4 -49 -9 -22 -12 -104 -29
-167 -36 -99 -11 -114 -13 -168 -25 -30 -6 -58 -10 -63 -9 -5 1 -16 -1 -24 -4
-8 -3 -51 -11 -94 -17 -44 -6 -85 -15 -92 -21 -7 -6 -18 -8 -24 -4 -9 6 -64
-7 -154 -35 -19 -6 -34 -6 -41 0 -7 5 -14 7 -17 4 -10 -10 -163 -46 -192 -45
-16 0 -35 -4 -42 -9 -6 -6 -51 -15 -100 -21 -49 -5 -109 -16 -134 -24 -47 -14
-154 -31 -180 -27 -8 1 -31 -5 -50 -12 -34 -14 -81 -24 -148 -31 -18 -2 -40
-9 -47 -15 -8 -7 -26 -10 -41 -7 -35 6 -105 -12 -130 -35 -14 -13 -24 -16 -29
-9 -8 15 -81 14 -108 -1 -12 -6 -31 -12 -42 -13 -63 -5 -151 -18 -160 -25 -5
-4 -46 -10 -91 -14 -44 -3 -94 -10 -110 -15 -16 -5 -76 -14 -134 -21 -58 -6
-123 -16 -145 -22 -22 -6 -49 -12 -60 -13 -11 -2 -51 -8 -89 -13 -38 -6 -72
-11 -75 -10 -3 0 -8 0 -11 -1 -4 -1 -155 -10 -220 -13 -8 0 -20 -5 -27 -10
-12 -10 -42 -13 -188 -23 -57 -4 -363 -15 -440 -17 -26 0 -132 11 -165 18 -14
3 -47 8 -75 10 -75 8 -251 49 -270 63 -5 4 -44 18 -85 31 -41 13 -84 32 -96
42 -11 10 -23 15 -27 12 -3 -4 -18 1 -32 10 -25 16 -151 53 -285 82 -36 8 -74
19 -85 24 -34 17 -399 -1 -438 -22 -20 -11 -37 -3 -37 18 0 8 -5 23 -12 34
-15 23 -10 29 28 34 63 9 143 25 184 36 23 6 44 9 47 7 2 -3 16 1 30 8 14 7
31 11 38 8 8 -2 23 0 34 6 11 6 55 16 97 21 42 5 82 14 88 19 6 4 38 9 70 10
32 1 62 4 66 6 5 3 41 7 81 10 40 2 86 9 103 15 17 5 60 12 96 14 68 5 82 7
218 31 45 8 88 12 95 9 7 -2 53 0 103 6 49 5 154 17 234 25 80 8 186 20 235
26 50 6 131 15 180 20 50 5 108 14 130 19 22 6 65 13 95 16 89 7 273 34 305
44 33 10 208 38 240 38 40 1 91 10 144 26 30 9 69 16 87 16 18 0 36 5 39 10 3
6 22 8 41 6 38 -5 146 10 179 24 11 5 55 12 98 15 63 6 80 11 92 28 13 18 17
19 24 8 5 -7 14 -10 20 -6 7 4 26 8 44 10 18 2 57 8 87 14 30 6 87 12 125 15
39 3 86 10 105 16 19 6 57 13 85 16 27 3 55 10 61 15 6 5 18 7 26 4 9 -4 22 1
30 9 9 8 31 14 49 14 49 -1 109 7 152 21 21 7 41 11 43 8 3 -3 20 -1 37 4 17
5 74 16 127 25 52 9 106 18 120 21 14 3 41 5 60 4 19 0 72 8 118 19 45 11 97
23 115 26 17 3 43 7 57 10 14 2 50 7 80 10 30 3 59 9 65 13 5 5 35 11 65 15
30 3 80 9 110 12 30 4 62 10 70 14 14 7 75 16 162 25 20 2 53 11 74 20 20 8
47 15 60 15 31 0 133 27 148 39 6 5 29 12 51 16 82 14 235 77 235 96 0 5 9 9
20 9 11 0 53 16 92 35 98 48 116 59 132 80 7 10 18 15 24 11 6 -3 19 5 30 19
11 14 25 25 31 25 17 0 81 72 81 91 0 9 9 24 20 34 11 10 20 23 20 28 0 6 15
43 34 81 61 129 86 223 86 326 0 82 -3 99 -30 154 -36 74 -93 138 -146 161
-21 9 -48 21 -59 26 -11 5 -45 15 -75 23 -30 8 -69 19 -86 26 -46 16 -204 38
-247 33 -21 -2 -44 0 -50 5 -21 16 -111 21 -208 11 -52 -5 -132 -12 -179 -15
-69 -4 -352 -36 -435 -49 -11 -2 -56 -8 -100 -14 -115 -16 -244 -39 -256 -47
-5 -3 -29 -8 -52 -11 -23 -2 -49 -11 -58 -19 -11 -10 -30 -13 -56 -10 -23 2
-68 -4 -109 -15 -38 -11 -89 -24 -114 -29 -25 -5 -88 -19 -140 -30 -52 -11
-119 -22 -149 -24 -29 -2 -56 -8 -60 -13 -3 -6 -24 -10 -46 -10 -58 0 -167
-21 -175 -33 -4 -6 -11 -10 -16 -9 -5 1 -11 0 -14 -1 -3 -1 -18 -4 -35 -6 -16
-3 -43 -12 -59 -19 -15 -8 -43 -17 -62 -21 -19 -3 -34 -10 -34 -14 0 -4 -17
-11 -37 -15 -21 -4 -42 -10 -48 -15 -5 -4 -28 -13 -49 -20 -55 -18 -144 -59
-151 -71 -4 -5 -19 -9 -36 -9 -16 0 -29 -4 -29 -10 0 -5 -7 -10 -15 -10 -9 0
-30 -8 -48 -17 -18 -9 -37 -18 -44 -19 -32 -6 -124 -39 -178 -64 -33 -15 -78
-34 -100 -41 -22 -8 -46 -20 -53 -26 -7 -7 -22 -14 -33 -14 -10 -1 -22 -2 -26
-4 -5 -1 -29 -8 -55 -15 -27 -8 -48 -17 -48 -21 0 -3 -26 -14 -57 -24 -88 -26
-147 -47 -158 -57 -5 -4 -16 -8 -25 -8 -9 0 -29 -13 -45 -30 -16 -16 -34 -30
-40 -30 -5 0 -27 -9 -48 -20 -20 -11 -42 -20 -49 -20 -6 0 -26 -11 -44 -25
-18 -14 -38 -25 -44 -25 -6 0 -41 -17 -78 -37 -37 -20 -92 -49 -122 -65 -30
-16 -60 -34 -65 -42 -6 -7 -21 -16 -34 -21 -13 -4 -79 -34 -147 -66 -67 -33
-127 -59 -132 -59 -5 0 -15 -7 -22 -15 -7 -9 -15 -13 -18 -11 -2 3 -24 -6 -49
-19 -24 -14 -52 -25 -62 -25 -10 0 -30 -9 -44 -20 -14 -11 -33 -20 -44 -20
-10 0 -29 -9 -43 -20 -14 -11 -36 -20 -50 -20 -14 0 -51 -11 -84 -25 -32 -13
-64 -21 -72 -18 -7 3 -33 -4 -56 -15 -24 -11 -70 -26 -103 -32 -36 -8 -74 -23
-95 -40 -19 -15 -40 -25 -47 -23 -6 2 -14 -1 -18 -6 -3 -6 -15 -11 -25 -11
-10 0 -26 -7 -34 -16 -9 -8 -20 -13 -26 -9 -5 3 -30 -3 -54 -15 -25 -11 -50
-20 -55 -20 -6 0 -28 -9 -48 -20 -21 -11 -43 -20 -50 -20 -6 0 -24 -11 -40
-24 -15 -12 -39 -26 -53 -29 -40 -9 -92 -30 -133 -54 -21 -13 -49 -23 -63 -23
-13 0 -27 -7 -30 -15 -4 -8 -11 -15 -17 -15 -5 0 -39 -13 -74 -30 -34 -16 -72
-30 -82 -30 -11 0 -22 -4 -25 -9 -8 -12 -118 -65 -187 -91 -31 -11 -67 -29
-79 -40 -13 -11 -31 -20 -41 -20 -10 0 -23 -9 -29 -20 -6 -11 -19 -20 -29 -20
-10 0 -24 -6 -30 -14 -13 -15 -50 -11 -99 11 -18 8 -42 11 -53 8 -11 -4 -26
-2 -33 4 -7 6 -23 8 -36 6 -13 -2 -30 1 -38 8 -8 6 -22 12 -31 12 -24 0 -20
38 4 41 11 2 31 5 45 8 14 3 43 8 65 12 22 4 46 11 52 16 7 6 27 11 45 13 64
6 170 25 221 41 29 8 70 20 92 26 22 5 58 18 80 27 22 9 43 15 47 14 17 -6
138 59 184 99 76 66 69 55 183 288 97 196 88 182 221 380 9 14 34 52 56 85 21
33 42 62 47 63 4 2 24 29 44 60 21 30 51 68 68 83 77 71 174 149 184 149 6 0
11 4 11 9 0 5 20 24 45 42 25 19 71 54 102 79 69 56 158 111 243 150 36 17 77
37 92 45 14 8 35 15 45 15 10 0 23 4 28 8 10 9 99 37 150 47 17 4 46 13 65 20
72 28 278 85 375 105 55 11 116 24 135 30 74 23 330 64 460 75 36 3 76 7 90
10 33 7 237 25 328 30 114 6 181 14 220 25 20 6 125 17 232 25 107 9 236 22
285 30 83 14 134 19 330 30 174 10 381 17 509 17 76 0 175 6 219 13 45 7 86
11 92 9 7 -3 31 0 56 5 30 7 46 7 50 -1 5 -7 24 -7 65 2 64 13 94 16 194 24
57 5 91 10 215 31 78 13 245 45 288 54 26 6 64 14 85 17 20 3 40 8 43 10 6 3
135 20 232 29 21 2 70 9 110 14 39 6 92 13 117 15 55 5 167 28 275 56 187 49
309 68 320 50z m-1060 -539 c44 -4 84 -4 89 0 5 4 15 1 23 -7 8 -8 28 -14 44
-14 16 0 56 -9 89 -21 33 -11 64 -18 69 -15 9 6 25 1 98 -30 17 -8 34 -14 38
-14 17 0 94 -86 110 -123 9 -23 21 -49 25 -58 18 -35 -23 -245 -53 -276 -4 -3
-7 -14 -7 -23 0 -18 -28 -81 -40 -90 -4 -3 -10 -17 -13 -31 -4 -15 -18 -37
-32 -50 -13 -13 -25 -29 -25 -36 0 -15 -82 -74 -144 -103 -28 -13 -63 -39 -79
-57 -16 -19 -37 -33 -46 -31 -9 1 -38 -6 -66 -17 -74 -27 -217 -85 -240 -96
-58 -27 -194 -64 -290 -78 -27 -4 -60 -13 -73 -20 -13 -7 -28 -10 -35 -8 -7 2
-22 1 -34 -4 -12 -4 -52 -11 -89 -14 -38 -3 -73 -10 -79 -15 -6 -5 -20 -7 -32
-4 -11 3 -24 1 -27 -5 -4 -6 -20 -8 -35 -5 -16 4 -44 1 -63 -5 -18 -6 -56 -12
-83 -14 -28 -2 -55 -6 -61 -9 -12 -8 -51 -16 -104 -24 -19 -2 -62 -9 -95 -15
-80 -14 -221 -37 -328 -54 -48 -7 -93 -18 -101 -24 -7 -6 -28 -9 -47 -7 -19 3
-52 0 -74 -6 -22 -6 -47 -12 -55 -13 -8 -2 -35 -7 -60 -13 -26 -6 -56 -9 -68
-5 -14 3 -30 -1 -40 -11 -10 -8 -31 -15 -48 -14 -37 1 -235 -27 -294 -42 -25
-6 -63 -13 -85 -15 -22 -2 -60 -9 -85 -15 -25 -6 -66 -15 -91 -20 -25 -5 -64
-13 -85 -19 -21 -6 -91 -18 -154 -26 -67 -9 -120 -21 -129 -29 -9 -10 -21 -12
-36 -6 -13 5 -48 3 -91 -7 -38 -8 -91 -16 -119 -18 -27 -2 -61 -6 -75 -9 -14
-4 -54 -11 -90 -17 -36 -6 -76 -16 -90 -22 -14 -6 -44 -9 -68 -8 -31 2 -49 -2
-63 -15 -16 -15 -22 -16 -29 -5 -6 11 -15 11 -40 2 -18 -6 -56 -11 -84 -11
-28 -1 -67 -7 -87 -14 -33 -12 -77 -14 -104 -6 -11 4 -86 -15 -121 -30 -14 -5
-25 -5 -32 2 -6 6 -22 8 -39 3 -31 -8 -119 -16 -173 -17 -19 0 -64 -5 -98 -10
-35 -6 -89 -12 -120 -13 -32 -1 -68 -5 -82 -8 -14 -4 -45 -9 -70 -11 -25 -3
-71 -10 -104 -16 -32 -6 -70 -9 -83 -5 -13 3 -29 2 -36 -2 -14 -9 -44 -14
-107 -16 -25 -1 -51 -6 -58 -10 -7 -5 -18 -4 -26 2 -17 14 -72 -4 -80 -26 -5
-12 -9 -13 -20 -3 -17 13 -161 7 -211 -9 -16 -5 -64 -15 -105 -22 -85 -15 -79
-13 -103 -24 -10 -4 -20 -5 -23 -2 -3 3 -20 1 -37 -4 -18 -5 -48 -11 -67 -14
-116 -14 -136 -18 -145 -25 -5 -4 -28 -10 -50 -13 -61 -9 -136 -28 -175 -46
-59 -26 -89 -21 -90 16 0 12 81 53 106 53 8 0 14 5 14 10 0 6 5 10 11 10 17 0
137 60 149 75 6 8 17 12 25 9 7 -3 38 6 69 20 31 14 59 26 63 26 3 0 29 11 57
24 28 13 83 39 121 56 39 18 97 45 131 61 33 16 65 29 71 29 6 0 28 9 50 19
66 34 203 91 218 91 12 0 79 28 146 61 9 4 34 11 55 15 22 3 50 12 64 19 45
23 119 47 129 41 5 -4 31 5 57 19 26 14 55 25 65 25 10 0 20 4 23 9 3 5 18 12
33 16 16 3 35 12 43 19 8 7 40 20 71 29 31 10 73 28 93 42 20 14 49 28 64 32
32 8 129 53 197 93 28 16 61 34 75 41 70 33 227 111 255 127 11 6 39 20 62 31
23 10 46 28 51 38 6 10 22 19 36 21 21 1 118 44 186 81 44 25 111 52 141 57
40 8 267 94 359 136 36 17 83 37 105 44 22 8 49 18 60 23 52 23 104 41 142 51
23 6 45 15 48 20 3 6 15 10 27 10 11 0 31 9 45 20 14 11 41 22 62 26 20 4 46
15 57 26 12 10 25 18 30 16 5 -1 18 3 29 9 11 6 36 14 55 17 19 4 44 11 55 15
11 5 31 13 45 18 14 6 59 16 100 23 41 7 80 16 85 20 6 4 42 12 80 18 39 6
104 17 145 23 41 7 82 13 90 14 8 1 33 8 55 15 22 8 46 13 53 11 8 -1 20 3 28
10 8 7 39 13 67 14 29 1 59 5 67 10 8 5 29 10 45 11 17 0 57 8 90 16 123 32
203 48 265 54 36 3 81 9 100 14 19 5 53 10 75 11 22 1 45 6 52 11 6 5 44 11
85 14 40 3 82 6 93 8 11 1 49 6 85 10 36 5 71 13 78 19 10 8 16 7 22 -3 5 -9
17 -10 36 -5 16 4 80 10 141 14 62 4 116 11 120 15 4 4 17 4 28 1 11 -4 56
-10 100 -14z m605 -145 c0 -3 -4 -8 -10 -11 -5 -3 -10 -1 -10 4 0 6 5 11 10
11 6 0 10 -2 10 -4z m53 -146 c-3 -11 -8 -20 -10 -20 -3 0 -3 9 0 20 3 11 1
20 -4 20 -5 0 -9 5 -9 11 0 8 4 8 14 0 8 -7 12 -21 9 -31z m-7383 -1644 c0
-11 -19 -15 -25 -6 -3 5 1 10 9 10 9 0 16 -2 16 -4z m-122 -36 c-14 -22 -24
-19 -15 5 4 8 11 15 17 15 6 0 6 -7 -2 -20z m52 5 c0 -8 -7 -15 -16 -15 -14 0
-14 3 -4 15 7 8 14 15 16 15 2 0 4 -7 4 -15z m70 -14 c0 -16 -14 -20 -27 -10
-19 17 -16 28 7 22 11 -3 20 -9 20 -12z m433 -88 c-7 -2 -19 -2 -25 0 -7 3 -2
5 12 5 14 0 19 -2 13 -5z m-248 -13 c-3 -5 -12 -10 -20 -10 -7 0 -16 -6 -18
-12 -4 -10 -6 -10 -6 0 -1 7 9 17 22 22 29 12 29 12 22 0z m240 -20 c3 -5 -1
-10 -9 -10 -9 0 -16 5 -16 10 0 6 4 10 9 10 6 0 13 -4 16 -10z m-135 -10 c0
-5 -4 -10 -10 -10 -5 0 -10 5 -10 10 0 6 5 10 10 10 6 0 10 -4 10 -10z m85 0
c3 -6 -1 -7 -9 -4 -18 7 -21 14 -7 14 6 0 13 -4 16 -10z m-125 -11 c0 -6 -8
-8 -19 -4 -13 4 -23 0 -29 -11 -6 -10 -14 -14 -22 -9 -9 6 -6 11 11 21 29 16
59 18 59 3z m67 -15 c-3 -3 -12 -4 -19 -1 -8 3 -5 6 6 6 11 1 17 -2 13 -5z
m43 -4 c0 -5 -2 -10 -4 -10 -3 0 -8 5 -11 10 -3 6 -1 10 4 10 6 0 11 -4 11
-10z m340 6 c0 -11 -19 -15 -25 -6 -3 5 1 10 9 10 9 0 16 -2 16 -4z m30 -24
c0 -15 -2 -15 -10 -2 -13 20 -13 33 0 25 6 -3 10 -14 10 -23z m-460 8 c12 -8
9 -10 -14 -10 -23 0 -27 -3 -23 -20 3 -13 0 -20 -9 -20 -20 0 -17 30 4 46 21
16 23 16 42 4z m395 -30 c-11 -18 -22 -11 -19 13 4 33 4 33 15 14 5 -9 7 -22
4 -27z m-485 4 c0 -8 -5 -12 -10 -9 -6 4 -8 11 -5 16 9 14 15 11 15 -7z m156
9 c-4 -4 -19 -8 -34 -10 -23 -2 -24 -1 -7 7 24 11 51 13 41 3z m292 -39 c-4
-3 -12 5 -18 18 -12 22 -12 22 6 6 10 -10 15 -20 12 -24z m62 1 c-13 -14 -31
-24 -39 -24 -14 1 -13 2 1 6 9 2 24 16 33 29 9 14 19 23 23 20 3 -3 -5 -17
-18 -31z m-560 15 c0 -5 -2 -10 -4 -10 -3 0 -8 5 -11 10 -3 6 -1 10 4 10 6 0
11 -4 11 -10z m-105 -10 c3 -5 1 -10 -4 -10 -6 0 -11 5 -11 10 0 6 2 10 4 10
3 0 8 -4 11 -10z m705 -14 c0 -23 -16 -27 -17 -5 -1 10 2 19 8 19 5 0 9 -6 9
-14z m-770 -31 c-7 -9 -15 -13 -19 -10 -3 3 1 10 9 15 21 14 24 12 10 -5z
m-1045 -285 c-3 -5 -12 -10 -18 -10 -7 0 -6 4 3 10 19 12 23 12 15 0z"/>
</g>
</svg>
