<?xml version="1.0" standalone="no"?>
<!DOCTYPE svg PUBLIC "-//W3C//DTD SVG 20010904//EN"
 "http://www.w3.org/TR/2001/REC-SVG-20010904/DTD/svg10.dtd">
<svg version="1.0" xmlns="http://www.w3.org/2000/svg"
 width="227.000000pt" height="199.000000pt" viewBox="0 0 227.000000 199.000000"
 preserveAspectRatio="xMidYMid meet">
<metadata>
Created by potrace 1.15, written by Peter Selinger 2001-2017
</metadata>
<g transform="translate(0.000000,199.000000) scale(0.100000,-0.100000)"
fill="#000000" stroke="none">
<path d="M634 1870 c-12 -5 -28 -17 -35 -28 -16 -23 -90 -80 -165 -128 -30
-19 -58 -43 -63 -53 -9 -17 -4 -19 56 -24 57 -6 71 -11 100 -39 42 -40 56 -93
48 -172 -10 -103 -13 -111 -45 -123 -35 -13 -41 -50 -11 -77 23 -21 16 -63
-12 -72 -36 -12 -171 -6 -221 10 -66 20 -116 69 -116 113 0 58 53 93 141 93
95 0 165 -52 141 -105 -13 -29 -44 -38 -112 -33 -27 1 -50 0 -50 -4 0 -12 73
-28 99 -21 35 8 81 52 81 77 -1 48 -63 94 -137 101 -100 9 -173 -36 -173 -108
0 -32 7 -46 38 -77 52 -52 128 -74 237 -68 l82 4 -20 -50 c-27 -74 -116 -263
-150 -321 -16 -27 -47 -72 -69 -98 l-40 -48 25 -19 c18 -15 183 -214 213 -259
2 -2 16 6 32 18 38 27 43 26 72 -4 48 -51 204 -142 296 -172 117 -39 167 -71
201 -130 35 -59 60 -60 84 -3 22 51 67 79 224 139 148 56 187 74 232 108 37
27 111 56 124 48 4 -3 34 14 66 39 31 25 60 43 65 40 4 -3 8 0 8 6 0 6 5 8 11
5 6 -4 13 2 16 14 3 12 14 22 24 22 29 2 30 3 97 38 73 39 107 76 122 129 13
52 -3 104 -44 140 -48 42 -96 55 -177 50 l-69 -5 -35 73 c-44 91 -86 222 -115
356 -39 178 -17 313 61 371 29 21 87 27 134 14 l29 -8 -19 21 c-11 13 -43 33
-70 46 -56 27 -130 84 -171 133 -40 48 -48 47 -302 -48 -46 -17 -103 -31 -127
-31 -33 0 -45 -4 -49 -18 -4 -10 -19 -31 -35 -46 l-29 -27 -37 45 c-28 34 -44
46 -64 46 -37 0 -177 48 -306 105 -47 21 -68 24 -91 15z m148 -54 c112 -47
183 -72 239 -81 26 -5 46 -19 77 -55 l42 -49 0 -278 c0 -153 -3 -288 -6 -300
l-6 -23 -314 0 c-173 0 -314 4 -314 9 0 28 34 100 58 119 25 22 25 23 5 17
-18 -5 -22 -3 -17 9 5 12 11 13 24 6 10 -6 63 -10 117 -10 l98 0 -1 115 c-1
63 3 115 7 115 5 0 9 5 9 11 0 5 -4 8 -9 4 -6 -3 -9 25 -8 67 l2 73 41 3 c32
2 48 -2 72 -23 43 -36 55 -82 50 -181 -5 -97 -21 -127 -84 -159 -29 -15 -34
-20 -20 -23 29 -6 104 17 146 44 70 47 101 156 66 237 -17 42 -76 93 -123 107
-52 16 -313 26 -313 12 0 -6 10 -12 23 -14 22 -3 22 -4 22 -188 l0 -185 -31
-3 c-29 -3 -30 -2 -26 33 3 22 -2 44 -12 60 -13 20 -15 41 -10 113 9 124 0
171 -42 220 -30 36 -41 41 -91 48 l-57 7 31 16 c47 24 181 128 195 151 18 29
45 25 160 -24z m643 -336 c7 -32 18 -36 60 -20 24 9 26 8 20 -7 -19 -44 -17
-60 7 -68 12 -4 26 -7 31 -6 4 1 7 -3 7 -8 0 -5 -14 -12 -31 -16 -32 -7 -34
-20 -14 -67 6 -15 3 -16 -27 -7 -27 7 -35 6 -45 -8 -7 -9 -13 -23 -13 -30 0
-25 -18 -13 -25 17 -7 34 -7 34 -53 20 -26 -7 -33 -6 -29 3 20 53 19 57 -12
68 -31 11 -42 29 -18 29 7 0 22 6 32 14 17 13 18 17 6 40 -17 31 -10 42 17 27
32 -17 42 -13 53 19 6 17 15 30 19 30 5 0 11 -13 15 -30z m-874 -212 c-7 -36
-24 -44 -29 -15 -5 25 5 47 21 47 11 0 13 -8 8 -32z m49 -34 c0 -23 -5 -34
-14 -34 -22 0 -29 18 -21 56 5 30 9 33 21 24 8 -7 14 -28 14 -46z m1170 -246
c0 -7 18 -48 39 -92 l39 -79 -39 -37 c-31 -29 -39 -44 -39 -71 1 -41 14 -60
57 -82 36 -19 70 -21 107 -7 20 7 26 6 26 -4 0 -14 -67 -106 -77 -106 -12 0
-43 33 -43 46 0 8 -8 13 -17 12 -10 -1 -40 2 -67 6 -76 13 -148 -7 -199 -56
-40 -39 -50 -43 -112 -39 -12 1 -15 18 -15 91 l0 90 48 0 c55 0 126 30 141 58
6 12 11 35 11 52 0 80 -49 100 -233 99 -106 -1 -127 -3 -104 -12 l27 -11 0
-112 c0 -71 4 -115 11 -120 8 -4 8 -9 0 -17 -6 -6 -11 -37 -11 -69 l0 -58 -40
0 c-52 0 -105 -22 -120 -50 -18 -34 15 -71 81 -91 73 -23 203 -33 280 -23 58
8 48 9 -96 14 -134 5 -168 9 -207 27 -41 19 -48 26 -48 51 0 46 39 57 203 57
134 -1 138 -1 160 -26 12 -13 19 -20 15 -15 -21 27 -4 31 137 31 80 0 145 -1
145 -2 0 -6 -77 -73 -84 -73 -5 0 -18 8 -29 17 -18 17 -19 17 -29 -1 -14 -25
-45 -50 -69 -56 -11 -3 -19 -9 -17 -14 4 -11 -117 -71 -215 -106 -126 -44
-173 -68 -212 -104 l-35 -33 0 463 0 464 315 0 c245 0 315 -3 315 -12z m-262
-156 c6 -9 12 -37 12 -64 0 -55 -24 -88 -65 -88 -25 0 -25 1 -25 84 0 58 4 86
13 89 18 8 50 -3 65 -21z m547 -41 c139 -64 107 -208 -59 -270 -85 -32 -90
-28 -46 36 28 43 36 61 28 71 -8 9 -6 17 6 30 9 10 15 29 15 43 -1 20 -2 21
-6 4 -6 -23 -22 -45 -33 -45 -5 0 -25 30 -45 67 -28 51 -33 68 -23 74 24 15
121 9 163 -10z m-1260 -21 c7 -32 18 -36 60 -20 24 9 26 8 20 -7 -19 -44 -17
-60 7 -68 12 -4 26 -7 31 -6 4 1 7 -3 7 -8 0 -5 -14 -12 -31 -16 -32 -7 -34
-20 -14 -67 6 -15 3 -16 -27 -7 -27 7 -35 6 -45 -8 -7 -9 -13 -23 -13 -30 0
-25 -18 -13 -25 17 -7 34 -7 34 -53 20 -26 -7 -33 -6 -29 3 20 53 19 57 -12
68 -31 11 -42 29 -18 29 7 0 22 6 32 14 17 13 18 17 6 40 -17 31 -10 42 17 27
32 -17 42 -13 53 19 6 17 15 30 19 30 5 0 11 -13 15 -30z m1091 -22 c10 -24
26 -54 36 -67 25 -33 23 -38 -18 -45 -102 -20 -165 67 -93 128 17 14 36 26 43
26 7 0 21 -19 32 -42z m-81 -202 c38 -16 43 -29 21 -51 -17 -17 -286 -34 -286
-18 0 17 47 54 87 68 50 19 135 19 178 1z"/>
<path d="M795 1469 c-11 -16 -1 -19 13 -3 7 8 8 14 3 14 -5 0 -13 -5 -16 -11z"/>
<path d="M633 1365 c0 -8 4 -15 9 -15 4 0 8 4 8 9 0 6 -4 12 -8 15 -5 3 -9 -1
-9 -9z"/>
</g>
</svg>
