<?xml version="1.0" standalone="no"?>
<!DOCTYPE svg PUBLIC "-//W3C//DTD SVG 20010904//EN"
 "http://www.w3.org/TR/2001/REC-SVG-20010904/DTD/svg10.dtd">
<svg version="1.0" xmlns="http://www.w3.org/2000/svg"
 width="480.000000pt" height="480.000000pt" viewBox="0 0 480.000000 480.000000"
 preserveAspectRatio="xMidYMid meet">
<metadata>
Created by potrace 1.15, written by Peter Selinger 2001-2017
</metadata>
<g transform="translate(0.000000,480.000000) scale(0.100000,-0.100000)"
fill="#000000" stroke="none">
<path d="M2360 4523 c-352 -26 -711 -153 -1013 -356 l-123 -83 -69 33 c-122
56 -332 133 -453 164 -151 40 -336 51 -426 25 -144 -42 -206 -130 -206 -291 0
-193 110 -453 336 -792 l114 -171 -25 -94 c-38 -145 -56 -269 -62 -443 -18
-498 134 -971 438 -1365 85 -110 265 -293 283 -288 8 2 179 156 381 343 202
187 379 349 393 361 l25 20 -104 90 c-453 388 -859 800 -1169 1186 -170 210
-158 184 -124 276 15 42 37 99 49 125 l21 49 44 -64 c258 -367 797 -932 1320
-1382 74 -64 138 -116 141 -116 18 0 102 100 126 148 21 43 26 68 26 127 0
101 -40 181 -181 363 -170 218 -222 310 -278 484 -26 82 -28 85 -143 199 -64
64 -139 131 -166 148 -75 48 -163 71 -287 76 -111 5 -159 19 -177 53 -34 63
150 217 318 266 126 37 287 11 397 -65 129 -88 419 -351 495 -447 65 -82 136
-128 246 -159 350 -99 621 -363 751 -733 65 -186 77 -258 76 -460 0 -152 -4
-203 -22 -287 -29 -132 -72 -255 -131 -370 l-47 -91 130 -80 c161 -98 251
-150 336 -192 l64 -32 -28 -23 c-15 -12 -63 -41 -107 -64 l-79 -43 -158 88
c-86 48 -191 108 -233 134 l-76 47 -249 -241 -250 -241 91 -3 c224 -8 514 54
776 165 l106 45 89 -45 c201 -101 443 -190 616 -228 136 -31 308 -33 387 -5
71 25 141 94 164 161 62 182 -40 493 -288 871 l-72 110 38 75 c205 399 270
895 178 1359 -202 1019 -1163 1742 -2209 1663z m-1668 -424 c86 -17 186 -49
296 -92 l103 -40 -74 -76 c-132 -137 -226 -265 -333 -454 l-63 -110 -51 79
c-70 108 -176 326 -195 400 -40 160 -1 260 113 294 40 12 143 12 204 -1z
m2974 -304 c54 -27 174 -159 199 -220 22 -52 19 -125 -7 -174 -17 -29 -97
-104 -283 -263 -143 -121 -276 -227 -295 -236 -50 -21 -121 -18 -172 7 -44 21
-160 147 -190 206 -44 86 -27 173 49 247 101 98 490 421 528 439 55 26 112 24
171 -6z m375 -509 c42 -20 173 -168 194 -220 33 -79 9 -171 -61 -237 -100 -94
-483 -413 -518 -431 -31 -16 -53 -19 -102 -16 -76 5 -106 24 -191 123 -77 89
-96 128 -97 190 -2 97 13 114 298 357 144 123 277 231 296 241 43 22 127 19
181 -7z m83 -756 c43 -20 149 -138 181 -200 25 -48 23 -125 -4 -177 -24 -49
-269 -265 -326 -289 -49 -20 -128 -18 -174 6 -45 23 -156 148 -182 205 -35 76
-16 166 47 229 53 52 249 213 279 229 42 23 130 21 179 -3z m236 -1370 c129
-207 211 -424 196 -523 -31 -205 -297 -206 -750 -1 -127 57 -129 58 -105 73
159 104 363 299 488 468 97 129 79 131 171 -17z"/>
</g>
</svg>
